<?xml version="1.0" encoding="UTF-8" standalone="no"?>
<svg xmlns="http://www.w3.org/2000/svg"
     xmlns:xlink="http://www.w3.org/1999/xlink"
     width="576pt" height="432pt" viewBox="0 0 576 432">
<title>gl2ps_renderer figure</title>
<desc>
Creator: GL2PS 1.4.0, (C) 1999-2017 C. Geuzaine
For: Octave
CreationDate: Tue Dec 10 15:47:28 2019
</desc>
<defs>
</defs>
<polygon fill="#ffffff" points="0,0 576,0 576,432 0,432"/>
<g>
<polygon fill="#ffffff" points="0,432 576,432 576,0 0,0" shape-rendering="crispEdges"/>
<clipPath id="cp00576432">
  <polygon points="0,432 576,432 576,0 0,0"/>
</clipPath>
<g clip-path="url(#cp00576432)">
<polygon fill="#ffffff" shape-rendering="crispEdges" points="74.88,384.48 521.28,384.48 74.88,32.4"/>
<polygon fill="#ffffff" shape-rendering="crispEdges" points="521.28,384.48 521.28,32.4 74.88,32.4"/>
<polyline fill="none" stroke="#262626" stroke-width="0.5" stroke-linecap="butt" stroke-linejoin="miter" stroke-opacity="0.15" stroke-dasharray="16,0" points="74.88,384.48 74.88,32.4"/>
<polyline fill="none" stroke="#262626" stroke-width="0.5" stroke-linecap="butt" stroke-linejoin="miter" stroke-opacity="0.15" stroke-dasharray="16,0" points="164.16,384.48 164.16,32.4"/>
<polyline fill="none" stroke="#262626" stroke-width="0.5" stroke-linecap="butt" stroke-linejoin="miter" stroke-opacity="0.15" stroke-dasharray="16,0" points="253.44,384.48 253.44,32.4"/>
<polyline fill="none" stroke="#262626" stroke-width="0.5" stroke-linecap="butt" stroke-linejoin="miter" stroke-opacity="0.15" stroke-dasharray="16,0" points="342.72,384.48 342.72,32.4"/>
<polyline fill="none" stroke="#262626" stroke-width="0.5" stroke-linecap="butt" stroke-linejoin="miter" stroke-opacity="0.15" stroke-dasharray="16,0" points="432,384.48 432,32.4"/>
<polyline fill="none" stroke="#262626" stroke-width="0.5" stroke-linecap="butt" stroke-linejoin="miter" stroke-opacity="0.15" stroke-dasharray="16,0" points="521.28,384.48 521.28,32.4"/>
<polyline fill="none" stroke="#262626" stroke-width="0.5" stroke-linecap="butt" stroke-linejoin="miter" points="74.88,384.48 74.88,380.015"/>
<polyline fill="none" stroke="#262626" stroke-width="0.5" stroke-linecap="butt" stroke-linejoin="miter" points="74.88,32.4 74.88,36.865"/>
<polyline fill="none" stroke="#262626" stroke-width="0.5" stroke-linecap="butt" stroke-linejoin="miter" points="164.16,384.48 164.16,380.015"/>
<polyline fill="none" stroke="#262626" stroke-width="0.5" stroke-linecap="butt" stroke-linejoin="miter" points="164.16,32.4 164.16,36.865"/>
<polyline fill="none" stroke="#262626" stroke-width="0.5" stroke-linecap="butt" stroke-linejoin="miter" points="253.44,384.48 253.44,380.015"/>
<polyline fill="none" stroke="#262626" stroke-width="0.5" stroke-linecap="butt" stroke-linejoin="miter" points="253.44,32.4 253.44,36.865"/>
<polyline fill="none" stroke="#262626" stroke-width="0.5" stroke-linecap="butt" stroke-linejoin="miter" points="342.72,384.48 342.72,380.015"/>
<polyline fill="none" stroke="#262626" stroke-width="0.5" stroke-linecap="butt" stroke-linejoin="miter" points="342.72,32.4 342.72,36.865"/>
<polyline fill="none" stroke="#262626" stroke-width="0.5" stroke-linecap="butt" stroke-linejoin="miter" points="432,384.48 432,380.015"/>
<polyline fill="none" stroke="#262626" stroke-width="0.5" stroke-linecap="butt" stroke-linejoin="miter" points="432,32.4 432,36.865"/>
<polyline fill="none" stroke="#262626" stroke-width="0.5" stroke-linecap="butt" stroke-linejoin="miter" points="521.28,384.48 521.28,380.015"/>
<polyline fill="none" stroke="#262626" stroke-width="0.5" stroke-linecap="butt" stroke-linejoin="miter" points="521.28,32.4 521.28,36.865"/>
<text xml:space="preserve" transform="translate(71.88,400.481) rotate(-0,3,-11)" font-family="FreeSans" font-weight="normal" font-style="normal" font-size="10"><tspan y="-1" fill="rgb(38,38,38)" x="0 ">0</tspan></text>
<text xml:space="preserve" transform="translate(155.16,400.481) rotate(-0,9,-11)" font-family="FreeSans" font-weight="normal" font-style="normal" font-size="10"><tspan y="-1" fill="rgb(38,38,38)" x="0 6 12 ">200</tspan></text>
<text xml:space="preserve" transform="translate(244.44,400.481) rotate(-0,9,-11)" font-family="FreeSans" font-weight="normal" font-style="normal" font-size="10"><tspan y="-1" fill="rgb(38,38,38)" x="0 6 12 ">400</tspan></text>
<text xml:space="preserve" transform="translate(333.72,400.481) rotate(-0,9,-11)" font-family="FreeSans" font-weight="normal" font-style="normal" font-size="10"><tspan y="-1" fill="rgb(38,38,38)" x="0 6 12 ">600</tspan></text>
<text xml:space="preserve" transform="translate(423,400.481) rotate(-0,9,-11)" font-family="FreeSans" font-weight="normal" font-style="normal" font-size="10"><tspan y="-1" fill="rgb(38,38,38)" x="0 6 12 ">800</tspan></text>
<text xml:space="preserve" transform="translate(509.28,400.481) rotate(-0,12,-11)" font-family="FreeSans" font-weight="normal" font-style="normal" font-size="10"><tspan y="-1" fill="rgb(38,38,38)" x="0 6 12 18 ">1000</tspan></text>
<polyline fill="none" stroke="#262626" stroke-width="0.5" stroke-linecap="butt" stroke-linejoin="miter" stroke-opacity="0.15" stroke-dasharray="16,0" points="74.88,384.48 521.28,384.48"/>
<polyline fill="none" stroke="#262626" stroke-width="0.5" stroke-linecap="butt" stroke-linejoin="miter" stroke-opacity="0.15" stroke-dasharray="16,0" points="74.88,325.8 521.28,325.8"/>
<polyline fill="none" stroke="#262626" stroke-width="0.5" stroke-linecap="butt" stroke-linejoin="miter" stroke-opacity="0.15" stroke-dasharray="16,0" points="74.88,267.12 521.28,267.12"/>
<polyline fill="none" stroke="#262626" stroke-width="0.5" stroke-linecap="butt" stroke-linejoin="miter" stroke-opacity="0.15" stroke-dasharray="16,0" points="74.88,208.44 521.28,208.44"/>
<polyline fill="none" stroke="#262626" stroke-width="0.5" stroke-linecap="butt" stroke-linejoin="miter" stroke-opacity="0.15" stroke-dasharray="16,0" points="74.88,149.76 521.28,149.76"/>
<polyline fill="none" stroke="#262626" stroke-width="0.5" stroke-linecap="butt" stroke-linejoin="miter" stroke-opacity="0.15" stroke-dasharray="16,0" points="74.88,91.08 521.28,91.08"/>
<polyline fill="none" stroke="#262626" stroke-width="0.5" stroke-linecap="butt" stroke-linejoin="miter" stroke-opacity="0.15" stroke-dasharray="16,0" points="74.88,32.4 521.28,32.4"/>
<polyline fill="none" stroke="#262626" stroke-width="0.5" stroke-linecap="butt" stroke-linejoin="miter" points="74.88,384.48 79.348,384.48"/>
<polyline fill="none" stroke="#262626" stroke-width="0.5" stroke-linecap="butt" stroke-linejoin="miter" points="521.28,384.48 516.812,384.48"/>
<polyline fill="none" stroke="#262626" stroke-width="0.5" stroke-linecap="butt" stroke-linejoin="miter" points="74.88,325.8 79.348,325.8"/>
<polyline fill="none" stroke="#262626" stroke-width="0.5" stroke-linecap="butt" stroke-linejoin="miter" points="521.28,325.8 516.812,325.8"/>
<polyline fill="none" stroke="#262626" stroke-width="0.5" stroke-linecap="butt" stroke-linejoin="miter" points="74.88,267.12 79.348,267.12"/>
<polyline fill="none" stroke="#262626" stroke-width="0.5" stroke-linecap="butt" stroke-linejoin="miter" points="521.28,267.12 516.812,267.12"/>
<polyline fill="none" stroke="#262626" stroke-width="0.5" stroke-linecap="butt" stroke-linejoin="miter" points="74.88,208.44 79.348,208.44"/>
<polyline fill="none" stroke="#262626" stroke-width="0.5" stroke-linecap="butt" stroke-linejoin="miter" points="521.28,208.44 516.812,208.44"/>
<polyline fill="none" stroke="#262626" stroke-width="0.5" stroke-linecap="butt" stroke-linejoin="miter" points="74.88,149.76 79.348,149.76"/>
<polyline fill="none" stroke="#262626" stroke-width="0.5" stroke-linecap="butt" stroke-linejoin="miter" points="521.28,149.76 516.812,149.76"/>
<polyline fill="none" stroke="#262626" stroke-width="0.5" stroke-linecap="butt" stroke-linejoin="miter" points="74.88,91.08 79.348,91.08"/>
<polyline fill="none" stroke="#262626" stroke-width="0.5" stroke-linecap="butt" stroke-linejoin="miter" points="521.28,91.08 516.812,91.08"/>
<polyline fill="none" stroke="#262626" stroke-width="0.5" stroke-linecap="butt" stroke-linejoin="miter" points="74.88,32.4 79.348,32.4"/>
<polyline fill="none" stroke="#262626" stroke-width="0.5" stroke-linecap="butt" stroke-linejoin="miter" points="521.28,32.4 516.812,32.4"/>
<text xml:space="preserve" transform="translate(48.8755,389.98) rotate(-0,21,-5.5)" font-family="FreeSans" font-weight="normal" font-style="normal" font-size="10"><tspan y="-1" fill="rgb(38,38,38)" x="0 3 9 15 ">-150</tspan></text>
<text xml:space="preserve" transform="translate(48.8755,331.3) rotate(-0,21,-5.5)" font-family="FreeSans" font-weight="normal" font-style="normal" font-size="10"><tspan y="-1" fill="rgb(38,38,38)" x="0 3 9 15 ">-100</tspan></text>
<text xml:space="preserve" transform="translate(54.8755,272.62) rotate(-0,15,-5.5)" font-family="FreeSans" font-weight="normal" font-style="normal" font-size="10"><tspan y="-1" fill="rgb(38,38,38)" x="0 3 9 ">-50</tspan></text>
<text xml:space="preserve" transform="translate(63.8755,213.94) rotate(-0,6,-5.5)" font-family="FreeSans" font-weight="normal" font-style="normal" font-size="10"><tspan y="-1" fill="rgb(38,38,38)" x="0 ">0</tspan></text>
<text xml:space="preserve" transform="translate(57.8755,155.26) rotate(-0,12,-5.5)" font-family="FreeSans" font-weight="normal" font-style="normal" font-size="10"><tspan y="-1" fill="rgb(38,38,38)" x="0 6 ">50</tspan></text>
<text xml:space="preserve" transform="translate(51.8755,96.58) rotate(-0,18,-5.5)" font-family="FreeSans" font-weight="normal" font-style="normal" font-size="10"><tspan y="-1" fill="rgb(38,38,38)" x="0 6 12 ">100</tspan></text>
<text xml:space="preserve" transform="translate(51.8755,37.9) rotate(-0,18,-5.5)" font-family="FreeSans" font-weight="normal" font-style="normal" font-size="10"><tspan y="-1" fill="rgb(38,38,38)" x="0 6 12 ">150</tspan></text>
<polyline fill="none" stroke="#262626" stroke-width="0.5" stroke-linecap="square" stroke-linejoin="miter" stroke-dasharray="16,0" points="74.88,384.48 521.28,384.48"/>
<polyline fill="none" stroke="#262626" stroke-width="0.5" stroke-linecap="square" stroke-linejoin="miter" stroke-dasharray="16,0" points="74.88,32.4 521.28,32.4"/>
<polyline fill="none" stroke="#262626" stroke-width="0.5" stroke-linecap="square" stroke-linejoin="miter" stroke-dasharray="16,0" points="74.88,384.48 74.88,32.4"/>
<polyline fill="none" stroke="#262626" stroke-width="0.5" stroke-linecap="square" stroke-linejoin="miter" stroke-dasharray="16,0" points="521.28,384.48 521.28,32.4"/>
<text xml:space="preserve" transform="translate(271.08,413.481) rotate(-0,27,-13)" font-family="FreeSans" font-weight="normal" font-style="normal" font-size="11"><tspan y="-2" fill="rgb(38,38,38)" x="0 6 9 15 18 21 27 33 39 45 51 "># of packet</tspan></text>
<text xml:space="preserve" transform="translate(17.3755,208.44) rotate(-90,27.5,0)" font-family="FreeSans" font-weight="normal" font-style="normal" font-size="11"><tspan y="-2" fill="rgb(38,38,38)" x="0 9 15 21 27 30 35 41 43 49 ">Mean value</tspan></text>
<text xml:space="preserve" transform="translate(154.08,22.4) rotate(-0,144,0)" font-family="FreeSans" font-weight="bold" font-style="normal" font-size="11"><tspan y="-2" fill="rgb(0,0,0)" x="0 6 10 16 22 26 32 38 44 50 53 59 65 68 74 80 88 94 100 106 112 120 129 136 142 148 154 157 164 171 177 184 188 191 197 203 207 210 216 223 229 232 238 244 247 253 256 260 266 272 278 284 ">7-12-2019 13:00A5043AQF998 quantizer analysis (9070)</tspan></text>
<polyline fill="none" stroke="#0071bc" stroke-width="0.5" stroke-linecap="butt" stroke-linejoin="round" points="75.3264,192.01 75.7728,190.836 76.2192,275.335 76.6656,163.843 77.112,222.523 77.5584,217.829 78.0048,192.01 78.4512,245.995 78.8976,181.447 79.344,190.836 79.7904,233.086 80.2368,202.572 80.6832,208.44 81.1296,184.968 81.576,230.738 82.0224,203.746 82.4688,182.621 82.9152,254.21 83.3616,202.572 83.808,180.274 84.2544,192.01 84.7008,251.863 85.1472,203.746 85.5936,193.183 86.04,245.995 86.4864,162.67 86.9328,193.183 87.3792,245.995 87.8256,201.398 88.272,211.961 88.7184,227.218 89.1648,206.093 89.6112,184.968 90.0576,208.44 90.504,213.134 90.9504,209.614 91.3968,233.086 91.8432,214.308 92.2896,199.051 92.736,175.579 93.1824,216.655 93.6288,201.398 94.0752,224.87 94.5216,193.183 94.968,213.134 95.4144,216.655 95.8608,207.266 96.3072,207.266 96.7536,213.134 97.2,149.76 97.6464,288.245 98.0928,182.621 98.5392,193.183 98.9856,211.961 99.432,199.051 99.8784,265.946 100.325,157.975 100.771,224.87 101.218,188.489 101.664,260.078 102.11,169.711 102.557,201.398 103.003,210.787 103.45,206.093 103.896,249.516 104.342,187.315 104.789,176.753 105.235,222.523 105.682,210.787 106.128,210.787 106.574,162.67 107.021,276.509 107.467,200.225 107.914,184.968 108.36,204.919 108.806,245.995 109.253,204.919 109.699,187.315 110.146,245.995 110.592,180.274 111.038,163.843 111.485,278.856 111.931,188.489 112.378,190.836 112.824,211.961 113.27,224.87 113.717,195.53 114.163,208.44 114.61,207.266 115.056,230.738 115.502,190.836 115.949,200.225 116.395,211.961 116.842,206.093 117.288,234.259 117.734,188.489 118.181,211.961 118.627,208.44 119.074,202.572 119.52,240.127 119.966,180.274 120.413,184.968 120.859,235.433 121.306,226.044 121.752,175.579 122.198,213.134 122.645,238.954 123.091,174.406 123.538,219.002 123.984,204.919 124.43,197.878 124.877,226.044 125.323,190.836 125.77,209.614 126.216,216.655 126.662,196.704 127.109,223.697 127.555,206.093 128.002,219.002 128.448,211.961 128.894,192.01 129.341,223.697 129.787,184.968 130.234,228.391 130.68,207.266 131.126,177.926 131.573,230.738 132.019,223.697 132.466,176.753 132.912,224.87 133.358,207.266 133.805,195.53 134.251,230.738 134.698,186.142 135.144,224.87 135.59,210.787 136.037,236.606 136.483,186.142 136.93,177.926 137.376,226.044 137.822,210.787 138.269,247.169 138.715,157.975 139.162,236.606 139.608,180.274 140.054,199.051 140.501,240.127 140.947,200.225 141.394,216.655 141.84,193.183 142.286,201.398 142.733,215.482 143.179,190.836 143.626,203.746 144.072,195.53 144.518,257.731 144.965,200.225 145.411,204.919 145.858,213.134 146.304,294.113 146.75,138.024 147.197,188.489 147.643,228.391 148.09,197.878 148.536,240.127 148.982,208.44 149.429,169.711 149.875,206.093 150.322,213.134 150.768,207.266 151.214,248.342 151.661,157.975 152.107,199.051 152.554,209.614 153,237.78 153.446,201.398 153.893,195.53 154.339,174.406 154.786,209.614 155.232,275.335 155.678,142.718 156.125,223.697 156.571,194.357 157.018,248.342 157.464,189.662 157.91,174.406 158.357,236.606 158.803,203.746 159.25,256.558 159.696,162.67 160.142,226.044 160.589,208.44 161.035,200.225 161.482,288.245 161.928,156.802 162.374,173.232 162.821,221.35 163.267,193.183 163.714,196.704 164.16,267.12 164.606,167.364 165.053,199.051 165.499,237.78 165.946,224.87 166.392,167.364 166.838,240.127 167.285,214.308 167.731,189.662 168.178,184.968 168.624,227.218 169.07,214.308 169.517,207.266 169.963,208.44 170.41,182.621 170.856,217.829 171.302,202.572 171.749,258.905 172.195,135.677 172.642,258.905 173.088,180.274 173.534,235.433 173.981,202.572 174.427,207.266 174.874,219.002 175.32,172.058 175.766,196.704 176.213,249.516 176.659,195.53 177.106,221.35 177.552,165.017 177.998,269.467 178.445,148.586 178.891,220.176 179.338,233.086 179.784,161.496 180.23,245.995 180.677,165.017 181.123,243.648 181.57,163.843 182.016,238.954 182.462,196.704 182.909,250.69 183.355,210.787 183.802,208.44 184.248,227.218 184.694,180.274 185.141,215.482 185.587,242.474 186.034,196.704 186.48,177.926 186.926,217.829 187.373,167.364 187.819,270.641 188.266,167.364 188.712,264.773 189.158,128.635 189.605,251.863 190.051,203.746 190.498,235.433 190.944,216.655 191.39,141.545 191.837,295.286 192.283,150.934 192.73,229.565 193.176,219.002 193.622,186.142 194.069,214.308 194.515,234.259 194.962,167.364 195.408,197.878 195.854,222.523 196.301,223.697 196.747,234.259 197.194,156.802 197.64,201.398 198.086,233.086 198.533,183.794 198.979,183.794 199.426,247.169 199.872,220.176 200.318,199.051 200.765,234.259 201.211,156.802 201.658,291.766 202.104,181.447 202.55,168.538 202.997,230.738 203.443,182.621 203.89,222.523 204.336,217.829 204.782,184.968 205.229,208.44 205.675,250.69 206.122,133.33 206.568,325.8 207.014,126.288 207.461,237.78 207.907,238.954 208.354,173.232 208.8,179.1 209.246,236.606 209.693,208.44 210.139,201.398 210.586,216.655 211.032,213.134 211.478,203.746 211.925,197.878 212.371,161.496 212.818,227.218 213.264,237.78 213.71,240.127 214.157,173.232 214.603,188.489 215.05,243.648 215.496,200.225 215.942,196.704 216.389,283.55 216.835,81.6912 217.282,267.12 217.728,254.21 218.174,172.058 218.621,211.961 219.067,195.53 219.514,228.391 219.96,156.802 220.406,264.773 220.853,224.87 221.299,148.586 221.746,242.474 222.192,175.579 222.638,219.002 223.085,233.086 223.531,113.378 223.978,255.384 224.424,230.738 224.87,238.954 225.317,153.281 225.763,249.516 226.21,250.69 226.656,176.753 227.102,244.822 227.549,168.538 227.995,237.78 228.442,136.85 228.888,200.225 229.334,238.954 229.781,245.995 230.227,92.2536 230.674,260.078 231.12,253.037 231.566,222.523 232.013,189.662 232.459,200.225 232.906,188.489 233.352,238.954 233.798,197.878 234.245,219.002 234.691,224.87 235.138,170.885 235.584,231.912 236.03,174.406 236.477,221.35 236.923,213.134 237.37,217.829 237.816,180.274 238.262,242.474 238.709,162.67 239.155,245.995 239.602,163.843 240.048,238.954 240.494,243.648 240.941,208.44 241.387,165.017 241.834,226.044 242.28,220.176 242.726,187.315 243.173,193.183 243.619,277.682 244.066,162.67 244.512,204.919 244.958,216.655 245.405,194.357 245.851,228.391 246.298,186.142 246.744,220.176 247.19,207.266 247.637,217.829 248.083,197.878 248.53,128.635 248.976,271.814 249.422,256.558 249.869,172.058 250.315,201.398 250.762,216.655 251.208,204.919 251.654,194.357 252.101,244.822 252.547,197.878 252.994,172.058 253.44,233.086 253.886,253.037 254.333,189.662 254.779,168.538 255.226,154.454 255.672,277.682 256.118,203.746 256.565,208.44 257.011,217.829 257.458,211.961 257.904,219.002 258.35,181.447 258.797,221.35 259.243,187.315 259.69,228.391 260.136,231.912 260.582,160.322 261.029,233.086 261.475,184.968 261.922,247.169 262.368,230.738 262.814,194.357 263.261,160.322 263.707,298.807 264.154,108.684 264.6,295.286 265.046,217.829 265.493,155.628 265.939,217.829 266.386,192.01 266.832,208.44 267.278,227.218 267.725,183.794 268.171,219.002 268.618,216.655 269.064,179.1 269.51,256.558 269.957,207.266 270.403,213.134 270.85,207.266 271.296,147.413 271.742,230.738 272.189,272.988 272.635,123.941 273.082,292.939 273.528,155.628 273.974,187.315 274.421,217.829 274.867,193.183 275.314,208.44 275.76,195.53 276.206,229.565 276.653,228.391 277.099,216.655 277.546,183.794 277.992,236.606 278.438,174.406 278.885,241.301 279.331,206.093 279.778,192.01 280.224,223.697 280.67,182.621 281.117,208.44 281.563,174.406 282.01,238.954 282.456,238.954 282.902,192.01 283.349,187.315 283.795,251.863 284.242,168.538 284.688,265.946 285.134,130.982 285.581,315.238 286.027,114.552 286.474,250.69 286.92,187.315 287.366,240.127 287.813,175.579 288.259,241.301 288.706,173.232 289.152,199.051 289.598,228.391 290.045,207.266 290.491,197.878 290.938,214.308 291.384,207.266 291.83,181.447 292.277,245.995 292.723,202.572 293.17,217.829 293.616,186.142 294.062,231.912 294.509,182.621 294.955,186.142 295.402,255.384 295.848,203.746 296.294,172.058 296.741,200.225 297.187,233.086 297.634,220.176 298.08,172.058 298.526,229.565 298.973,202.572 299.419,195.53 299.866,209.614 300.312,226.044 300.758,217.829 301.205,203.746 301.651,190.836 302.098,241.301 302.544,192.01 302.99,230.738 303.437,193.183 303.883,202.572 304.33,240.127 304.776,208.44 305.222,189.662 305.669,200.225 306.115,195.53 306.562,180.274 307.008,278.856 307.454,152.107 307.901,213.134 308.347,263.599 308.794,146.239 309.24,199.051 309.686,256.558 310.133,208.44 310.579,220.176 311.026,264.773 311.472,127.462 311.918,187.315 312.365,199.051 312.811,221.35 313.258,220.176 313.704,201.398 314.15,224.87 314.597,200.225 315.043,180.274 315.49,229.565 315.936,211.961 316.382,201.398 316.829,199.051 317.275,260.078 317.722,118.073 318.168,335.189 318.614,203.746 319.061,143.892 319.507,209.614 319.954,206.093 320.4,220.176 320.846,206.093 321.293,215.482 321.739,190.836 322.186,204.919 322.632,213.134 323.078,216.655 323.525,201.398 323.971,208.44 324.418,193.183 324.864,229.565 325.31,208.44 325.757,166.19 326.203,251.863 326.65,175.579 327.096,269.467 327.542,184.968 327.989,193.183 328.435,251.863 328.882,165.017 329.328,211.961 329.774,216.655 330.221,222.523 330.667,210.787 331.114,189.662 331.56,187.315 332.006,229.565 332.453,228.391 332.899,181.447 333.346,241.301 333.792,197.878 334.238,200.225 334.685,264.773 335.131,203.746 335.578,142.718 336.024,260.078 336.47,126.288 336.917,226.044 337.363,210.787 337.81,203.746 338.256,221.35 338.702,243.648 339.149,175.579 339.595,176.753 340.042,247.169 340.488,194.357 340.934,258.905 341.381,194.357 341.827,166.19 342.274,248.342 342.72,129.809 343.166,237.78 343.613,240.127 344.059,199.051 344.506,187.315 344.952,265.946 345.398,181.447 345.845,210.787 346.291,153.281 346.738,264.773 347.184,240.127 347.63,132.156 348.077,268.294 348.523,184.968 348.97,141.545 349.416,301.154 349.862,165.017 350.309,199.051 350.755,292.939 351.202,128.635 351.648,221.35 352.094,204.919 352.541,229.565 352.987,213.134 353.434,167.364 353.88,216.655 354.326,207.266 354.773,241.301 355.219,179.1 355.666,207.266 356.112,209.614 356.558,208.44 357.005,248.342 357.451,140.371 357.898,283.55 358.344,172.058 358.79,240.127 359.237,160.322 359.683,231.912 360.13,149.76 360.576,272.988 361.022,190.836 361.469,213.134 361.915,200.225 362.362,223.697 362.808,195.53 363.254,204.919 363.701,241.301 364.147,203.746 364.594,203.746 365.04,149.76 365.486,298.807 365.933,155.628 366.379,206.093 366.826,190.836 367.272,269.467 367.718,180.274 368.165,174.406 368.611,282.377 369.058,155.628 369.504,219.002 369.95,234.259 370.397,184.968 370.843,179.1 371.29,253.037 371.736,200.225 372.182,206.093 372.629,202.572 373.075,213.134 373.522,204.919 373.968,280.03 374.414,125.114 374.861,249.516 375.307,177.926 375.754,206.093 376.2,200.225 376.646,241.301 377.093,202.572 377.539,215.482 377.986,176.753 378.432,236.606 378.878,219.002 379.325,168.538 379.771,193.183 380.218,221.35 380.664,223.697 381.11,196.704 381.557,174.406 382.003,275.335 382.45,192.01 382.896,197.878 383.342,228.391 383.789,202.572 384.235,125.114 384.682,271.814 385.128,241.301 385.574,194.357 386.021,201.398 386.467,216.655 386.914,197.878 387.36,189.662 387.806,250.69 388.253,208.44 388.699,208.44 389.146,214.308 389.592,196.704 390.038,219.002 390.485,183.794 390.931,194.357 391.378,237.78 391.824,173.232 392.27,234.259 392.717,210.787 393.163,170.885 393.61,264.773 394.056,189.662 394.502,146.239 394.949,276.509 395.395,194.357 395.842,209.614 396.288,214.308 396.734,224.87 397.181,162.67 397.627,201.398 398.074,255.384 398.52,220.176 398.966,241.301 399.413,103.99 399.859,240.127 400.306,228.391 400.752,177.926 401.198,199.051 401.645,242.474 402.091,245.995 402.538,169.711 402.984,209.614 403.43,207.266 403.877,204.919 404.323,227.218 404.77,230.738 405.216,194.357 405.662,159.149 406.109,281.203 406.555,160.322 407.002,233.086 407.448,197.878 407.894,193.183 408.341,219.002 408.787,202.572 409.234,197.878 409.68,247.169 410.126,169.711 410.573,207.266 411.019,238.954 411.466,224.87 411.912,159.149 412.358,184.968 412.805,269.467 413.251,159.149 413.698,263.599 414.144,145.066 414.59,192.01 415.037,251.863 415.483,227.218 415.93,152.107 416.376,211.961 416.822,221.35 417.269,162.67 417.715,283.55 418.162,145.066 418.608,301.154 419.054,175.579 419.501,204.919 419.947,201.398 420.394,247.169 420.84,179.1 421.286,256.558 421.733,176.753 422.179,210.787 422.626,203.746 423.072,194.357 423.518,196.704 423.965,228.391 424.411,161.496 424.858,208.44 425.304,267.12 425.75,169.711 426.197,217.829 426.643,177.926 427.09,241.301 427.536,209.614 427.982,228.391 428.429,201.398 428.875,187.315 429.322,181.447 429.768,257.731 430.214,202.572 430.661,204.919 431.107,187.315 431.554,253.037 432,196.704 432.446,181.447 432.893,227.218 433.339,204.919 433.786,177.926 434.232,270.641 434.678,175.579 435.125,195.53 435.571,219.002 436.018,203.746 436.464,229.565 436.91,146.239 437.357,240.127 437.803,256.558 438.25,169.711 438.696,222.523 439.142,224.87 439.589,159.149 440.035,249.516 440.482,187.315 440.928,247.169 441.374,193.183 441.821,183.794 442.267,288.245 442.714,192.01 443.16,236.606 443.606,242.474 444.053,172.058 444.499,201.398 444.946,128.635 445.392,220.176 445.838,208.44 446.285,208.44 446.731,209.614 447.178,237.78 447.624,123.941 448.07,243.648 448.517,245.995 448.963,159.149 449.41,276.509 449.856,153.281 450.302,325.8 450.749,120.42 451.195,202.572 451.642,226.044 452.088,195.53 452.534,190.836 452.981,188.489 453.427,291.766 453.874,200.225 454.32,176.753 454.766,183.794 455.213,233.086 455.659,190.836 456.106,230.738 456.552,200.225 456.998,189.662 457.445,240.127 457.891,209.614 458.338,228.391 458.784,194.357 459.23,152.107 459.677,182.621 460.123,256.558 460.57,216.655 461.016,209.614 461.462,165.017 461.909,207.266 462.355,248.342 462.802,210.787 463.248,231.912 463.694,163.843 464.141,236.606 464.587,188.489 465.034,255.384 465.48,237.78 465.926,159.149 466.373,206.093 466.819,193.183 467.266,197.878 467.712,257.731 468.158,233.086 468.605,161.496 469.051,234.259 469.498,139.198 469.944,250.69 470.39,202.572 470.837,179.1 471.283,251.863 471.73,235.433 472.176,142.718 472.622,194.357 473.069,249.516 473.515,221.35 473.962,189.662 474.408,175.579 474.854,297.634 475.301,175.579 475.747,253.037 476.194,155.628 476.64,173.232 477.086,172.058 477.533,250.69 477.979,253.037 478.426,211.961 478.872,179.1 479.318,208.44 479.765,197.878 480.211,216.655 480.658,210.787 481.104,210.787 481.55,217.829 481.997,192.01 482.443,208.44 482.89,206.093 483.336,238.954 483.782,156.802 484.229,255.384 484.675,152.107 485.122,233.086 485.568,209.614 486.014,231.912 486.461,180.274 486.907,221.35 487.354,186.142 487.8,233.086 488.246,181.447 488.693,233.086 489.139,173.232 489.586,280.03 490.032,169.711 490.478,220.176 490.925,183.794 491.371,220.176 491.818,179.1 492.264,235.433 492.71,226.044 493.157,195.53 493.603,220.176 494.05,184.968 494.496,215.482 494.942,174.406 495.389,228.391 495.835,235.433 496.282,196.704 496.728,184.968 497.174,263.599 497.621,143.892 498.067,219.002 498.514,215.482 498.96,165.017 499.406,263.599 499.853,248.342 500.299,187.315 500.746,209.614 501.192,201.398 501.638,208.44 502.085,186.142 502.531,230.738 502.978,207.266 503.424,201.398 503.87,217.829 504.317,197.878 504.763,193.183 505.21,256.558 505.656,221.35 506.102,160.322 506.549,220.176 506.995,166.19 507.442,242.474 507.888,168.538 508.334,255.384 508.781,162.67 509.227,257.731 509.674,153.281 510.12,235.433 510.566,209.614 511.013,233.086 511.459,166.19 511.906,226.044 512.352,220.176 512.798,242.474 513.245,190.836 513.691,203.746 514.138,200.225 514.584,214.308 515.03,233.086 515.477,179.1 515.923,210.787 516.37,245.995 516.816,169.711 517.262,175.579 517.709,241.301 518.155,215.482 518.602,196.704 519.048,211.961 519.494,214.308 519.941,222.523 520.387,199.051"/>
</g>
</g>
</svg>
