<?xml version="1.0" encoding="UTF-8" standalone="no"?>
<svg xmlns="http://www.w3.org/2000/svg"
     xmlns:xlink="http://www.w3.org/1999/xlink"
     width="576pt" height="432pt" viewBox="0 0 576 432">
<title>gl2ps_renderer figure</title>
<desc>
Creator: GL2PS 1.4.0, (C) 1999-2017 C. Geuzaine
For: Octave
CreationDate: Tue Dec 10 15:47:29 2019
</desc>
<defs>
</defs>
<polygon fill="#ffffff" points="0,0 576,0 576,432 0,432"/>
<g>
<polygon fill="#ffffff" points="0,432 576,432 576,0 0,0" shape-rendering="crispEdges"/>
<clipPath id="cp00576432">
  <polygon points="0,432 576,432 576,0 0,0"/>
</clipPath>
<g clip-path="url(#cp00576432)">
<polygon fill="#ffffff" shape-rendering="crispEdges" points="74.88,384.48 521.28,384.48 74.88,32.4"/>
<polygon fill="#ffffff" shape-rendering="crispEdges" points="521.28,384.48 521.28,32.4 74.88,32.4"/>
<polyline fill="none" stroke="#262626" stroke-width="0.5" stroke-linecap="butt" stroke-linejoin="miter" stroke-opacity="0.15" stroke-dasharray="16,0" points="74.88,384.48 74.88,32.4"/>
<polyline fill="none" stroke="#262626" stroke-width="0.5" stroke-linecap="butt" stroke-linejoin="miter" stroke-opacity="0.15" stroke-dasharray="16,0" points="164.16,384.48 164.16,32.4"/>
<polyline fill="none" stroke="#262626" stroke-width="0.5" stroke-linecap="butt" stroke-linejoin="miter" stroke-opacity="0.15" stroke-dasharray="16,0" points="253.44,384.48 253.44,32.4"/>
<polyline fill="none" stroke="#262626" stroke-width="0.5" stroke-linecap="butt" stroke-linejoin="miter" stroke-opacity="0.15" stroke-dasharray="16,0" points="342.72,384.48 342.72,32.4"/>
<polyline fill="none" stroke="#262626" stroke-width="0.5" stroke-linecap="butt" stroke-linejoin="miter" stroke-opacity="0.15" stroke-dasharray="16,0" points="432,384.48 432,32.4"/>
<polyline fill="none" stroke="#262626" stroke-width="0.5" stroke-linecap="butt" stroke-linejoin="miter" stroke-opacity="0.15" stroke-dasharray="16,0" points="521.28,384.48 521.28,32.4"/>
<polyline fill="none" stroke="#262626" stroke-width="0.5" stroke-linecap="butt" stroke-linejoin="miter" points="74.88,384.48 74.88,380.015"/>
<polyline fill="none" stroke="#262626" stroke-width="0.5" stroke-linecap="butt" stroke-linejoin="miter" points="74.88,32.4 74.88,36.8651"/>
<polyline fill="none" stroke="#262626" stroke-width="0.5" stroke-linecap="butt" stroke-linejoin="miter" points="164.16,384.48 164.16,380.015"/>
<polyline fill="none" stroke="#262626" stroke-width="0.5" stroke-linecap="butt" stroke-linejoin="miter" points="164.16,32.4 164.16,36.8651"/>
<polyline fill="none" stroke="#262626" stroke-width="0.5" stroke-linecap="butt" stroke-linejoin="miter" points="253.44,384.48 253.44,380.015"/>
<polyline fill="none" stroke="#262626" stroke-width="0.5" stroke-linecap="butt" stroke-linejoin="miter" points="253.44,32.4 253.44,36.8651"/>
<polyline fill="none" stroke="#262626" stroke-width="0.5" stroke-linecap="butt" stroke-linejoin="miter" points="342.72,384.48 342.72,380.015"/>
<polyline fill="none" stroke="#262626" stroke-width="0.5" stroke-linecap="butt" stroke-linejoin="miter" points="342.72,32.4 342.72,36.8651"/>
<polyline fill="none" stroke="#262626" stroke-width="0.5" stroke-linecap="butt" stroke-linejoin="miter" points="432,384.48 432,380.015"/>
<polyline fill="none" stroke="#262626" stroke-width="0.5" stroke-linecap="butt" stroke-linejoin="miter" points="432,32.4 432,36.8651"/>
<polyline fill="none" stroke="#262626" stroke-width="0.5" stroke-linecap="butt" stroke-linejoin="miter" points="521.28,384.48 521.28,380.015"/>
<polyline fill="none" stroke="#262626" stroke-width="0.5" stroke-linecap="butt" stroke-linejoin="miter" points="521.28,32.4 521.28,36.8651"/>
<text xml:space="preserve" transform="translate(71.88,400.481) rotate(-0,3,-11)" font-family="FreeSans" font-weight="normal" font-style="normal" font-size="10"><tspan y="-1" fill="rgb(38,38,38)" x="0 ">0</tspan></text>
<text xml:space="preserve" transform="translate(155.16,400.481) rotate(-0,9,-11)" font-family="FreeSans" font-weight="normal" font-style="normal" font-size="10"><tspan y="-1" fill="rgb(38,38,38)" x="0 6 12 ">200</tspan></text>
<text xml:space="preserve" transform="translate(244.44,400.481) rotate(-0,9,-11)" font-family="FreeSans" font-weight="normal" font-style="normal" font-size="10"><tspan y="-1" fill="rgb(38,38,38)" x="0 6 12 ">400</tspan></text>
<text xml:space="preserve" transform="translate(333.72,400.481) rotate(-0,9,-11)" font-family="FreeSans" font-weight="normal" font-style="normal" font-size="10"><tspan y="-1" fill="rgb(38,38,38)" x="0 6 12 ">600</tspan></text>
<text xml:space="preserve" transform="translate(423,400.481) rotate(-0,9,-11)" font-family="FreeSans" font-weight="normal" font-style="normal" font-size="10"><tspan y="-1" fill="rgb(38,38,38)" x="0 6 12 ">800</tspan></text>
<text xml:space="preserve" transform="translate(509.28,400.481) rotate(-0,12,-11)" font-family="FreeSans" font-weight="normal" font-style="normal" font-size="10"><tspan y="-1" fill="rgb(38,38,38)" x="0 6 12 18 ">1000</tspan></text>
<polyline fill="none" stroke="#262626" stroke-width="0.5" stroke-linecap="butt" stroke-linejoin="miter" stroke-opacity="0.15" stroke-dasharray="16,0" points="74.88,384.48 521.28,384.48"/>
<polyline fill="none" stroke="#262626" stroke-width="0.5" stroke-linecap="butt" stroke-linejoin="miter" stroke-opacity="0.15" stroke-dasharray="16,0" points="74.88,314.064 521.28,314.064"/>
<polyline fill="none" stroke="#262626" stroke-width="0.5" stroke-linecap="butt" stroke-linejoin="miter" stroke-opacity="0.15" stroke-dasharray="16,0" points="74.88,243.648 521.28,243.648"/>
<polyline fill="none" stroke="#262626" stroke-width="0.5" stroke-linecap="butt" stroke-linejoin="miter" stroke-opacity="0.15" stroke-dasharray="16,0" points="74.88,173.232 521.28,173.232"/>
<polyline fill="none" stroke="#262626" stroke-width="0.5" stroke-linecap="butt" stroke-linejoin="miter" stroke-opacity="0.15" stroke-dasharray="16,0" points="74.88,102.816 521.28,102.816"/>
<polyline fill="none" stroke="#262626" stroke-width="0.5" stroke-linecap="butt" stroke-linejoin="miter" stroke-opacity="0.15" stroke-dasharray="16,0" points="74.88,32.4 521.28,32.4"/>
<polyline fill="none" stroke="#262626" stroke-width="0.5" stroke-linecap="butt" stroke-linejoin="miter" points="74.88,384.48 79.348,384.48"/>
<polyline fill="none" stroke="#262626" stroke-width="0.5" stroke-linecap="butt" stroke-linejoin="miter" points="521.28,384.48 516.812,384.48"/>
<polyline fill="none" stroke="#262626" stroke-width="0.5" stroke-linecap="butt" stroke-linejoin="miter" points="74.88,314.064 79.348,314.064"/>
<polyline fill="none" stroke="#262626" stroke-width="0.5" stroke-linecap="butt" stroke-linejoin="miter" points="521.28,314.064 516.812,314.064"/>
<polyline fill="none" stroke="#262626" stroke-width="0.5" stroke-linecap="butt" stroke-linejoin="miter" points="74.88,243.648 79.348,243.648"/>
<polyline fill="none" stroke="#262626" stroke-width="0.5" stroke-linecap="butt" stroke-linejoin="miter" points="521.28,243.648 516.812,243.648"/>
<polyline fill="none" stroke="#262626" stroke-width="0.5" stroke-linecap="butt" stroke-linejoin="miter" points="74.88,173.232 79.348,173.232"/>
<polyline fill="none" stroke="#262626" stroke-width="0.5" stroke-linecap="butt" stroke-linejoin="miter" points="521.28,173.232 516.812,173.232"/>
<polyline fill="none" stroke="#262626" stroke-width="0.5" stroke-linecap="butt" stroke-linejoin="miter" points="74.88,102.816 79.348,102.816"/>
<polyline fill="none" stroke="#262626" stroke-width="0.5" stroke-linecap="butt" stroke-linejoin="miter" points="521.28,102.816 516.812,102.816"/>
<polyline fill="none" stroke="#262626" stroke-width="0.5" stroke-linecap="butt" stroke-linejoin="miter" points="74.88,32.4 79.348,32.4"/>
<polyline fill="none" stroke="#262626" stroke-width="0.5" stroke-linecap="butt" stroke-linejoin="miter" points="521.28,32.4 516.812,32.4"/>
<text xml:space="preserve" transform="translate(63.8755,389.98) rotate(-0,6,-5.5)" font-family="FreeSans" font-weight="normal" font-style="normal" font-size="10"><tspan y="-1" fill="rgb(38,38,38)" x="0 ">0</tspan></text>
<text xml:space="preserve" transform="translate(51.8755,319.564) rotate(-0,18,-5.5)" font-family="FreeSans" font-weight="normal" font-style="normal" font-size="10"><tspan y="-1" fill="rgb(38,38,38)" x="0 6 12 ">500</tspan></text>
<text xml:space="preserve" transform="translate(45.8755,249.148) rotate(-0,24,-5.5)" font-family="FreeSans" font-weight="normal" font-style="normal" font-size="10"><tspan y="-1" fill="rgb(38,38,38)" x="0 6 12 18 ">1000</tspan></text>
<text xml:space="preserve" transform="translate(45.8755,178.732) rotate(-0,24,-5.5)" font-family="FreeSans" font-weight="normal" font-style="normal" font-size="10"><tspan y="-1" fill="rgb(38,38,38)" x="0 6 12 18 ">1500</tspan></text>
<text xml:space="preserve" transform="translate(45.8755,108.316) rotate(-0,24,-5.5)" font-family="FreeSans" font-weight="normal" font-style="normal" font-size="10"><tspan y="-1" fill="rgb(38,38,38)" x="0 6 12 18 ">2000</tspan></text>
<text xml:space="preserve" transform="translate(45.8755,37.9) rotate(-0,24,-5.5)" font-family="FreeSans" font-weight="normal" font-style="normal" font-size="10"><tspan y="-1" fill="rgb(38,38,38)" x="0 6 12 18 ">2500</tspan></text>
<polyline fill="none" stroke="#262626" stroke-width="0.5" stroke-linecap="square" stroke-linejoin="miter" stroke-dasharray="16,0" points="74.88,384.48 521.28,384.48"/>
<polyline fill="none" stroke="#262626" stroke-width="0.5" stroke-linecap="square" stroke-linejoin="miter" stroke-dasharray="16,0" points="74.88,32.4 521.28,32.4"/>
<polyline fill="none" stroke="#262626" stroke-width="0.5" stroke-linecap="square" stroke-linejoin="miter" stroke-dasharray="16,0" points="74.88,384.48 74.88,32.4"/>
<polyline fill="none" stroke="#262626" stroke-width="0.5" stroke-linecap="square" stroke-linejoin="miter" stroke-dasharray="16,0" points="521.28,384.48 521.28,32.4"/>
<text xml:space="preserve" transform="translate(154.08,22.4) rotate(-0,144,0)" font-family="FreeSans" font-weight="bold" font-style="normal" font-size="11"><tspan y="-2" fill="rgb(0,0,0)" x="0 6 10 16 22 26 32 38 44 50 53 59 65 68 74 80 88 94 100 106 112 120 129 136 142 148 154 157 164 171 177 184 188 191 197 203 207 210 216 223 229 232 238 244 247 253 256 260 266 272 278 284 ">7-12-2019 13:00A5043AQF998 quantizer analysis (9070)</tspan></text>
<text xml:space="preserve" transform="translate(1.37552,208.44) rotate(-90,40.5,0)" font-family="FreeSans" font-weight="normal" font-style="normal" font-size="11"><tspan y="-2" fill="rgb(38,38,38)" x="0 7 10 16 22 25 31 34 37 43 49 55 61 64 66 71 77 ">Step of quantizer</tspan></text>
<text xml:space="preserve" transform="translate(271.08,413.481) rotate(-0,27,-13)" font-family="FreeSans" font-weight="normal" font-style="normal" font-size="11"><tspan y="-2" fill="rgb(38,38,38)" x="0 6 9 15 18 21 27 33 39 45 51 "># of packet</tspan></text>
<polyline fill="none" stroke="#0071bc" stroke-width="0.5" stroke-linecap="butt" stroke-linejoin="round" points="75.3264,332.795 75.7728,150.84 76.2192,97.4644 76.6656,163.374 77.112,179.71 77.5584,247.591 78.0048,327.443 78.4512,199.849 78.8976,190.695 79.344,268.012 79.7904,299.84 80.2368,338.428 80.6832,331.527 81.1296,112.252 81.576,201.117 82.0224,231.959 82.4688,229.565 82.9152,307.163 83.3616,335.048 83.808,152.107 84.2544,252.38 84.7008,306.037 85.1472,305.755 85.5936,335.47 86.04,213.932 86.4864,175.204 86.9328,195.343 87.3792,259.562 87.8256,306.037 88.272,321.951 88.7184,262.097 89.1648,255.055 89.6112,316.036 90.0576,332.513 90.504,343.78 90.9504,356.454 91.3968,186.048 91.8432,142.953 92.2896,204.074 92.736,207.736 93.1824,243.507 93.6288,330.682 94.0752,327.866 94.5216,274.349 94.968,284.067 95.4144,290.827 95.8608,327.302 96.3072,305.192 96.7536,127.462 97.2,152.107 97.6464,174.077 98.0928,211.116 98.5392,233.931 98.9856,305.896 99.432,218.862 99.8784,195.202 100.325,216.045 100.771,244.493 101.218,288.714 101.664,253.647 102.11,112.393 102.557,167.88 103.003,188.16 103.45,285.898 103.896,325.19 104.342,236.043 104.789,220.411 105.235,208.863 105.682,221.819 106.128,287.306 106.574,246.183 107.021,46.6241 107.467,147.037 107.914,185.766 108.36,228.861 108.806,236.043 109.253,246.183 109.699,223.932 110.146,229.706 110.592,243.226 111.038,252.38 111.485,248.577 111.931,199.99 112.378,126.335 112.824,228.438 113.27,249.281 113.717,264.914 114.163,302.938 114.61,321.951 115.056,237.874 115.502,278.152 115.949,281.25 116.395,298.854 116.842,344.202 117.288,260.548 117.734,121.124 118.181,239.564 118.627,274.068 119.074,296.319 119.52,334.625 119.966,325.753 120.413,297.023 120.859,314.205 121.306,325.19 121.752,328.006 122.198,345.329 122.645,219.707 123.091,50.9899 123.538,217.876 123.984,257.45 124.43,293.362 124.877,337.301 125.323,303.22 125.77,175.908 126.216,261.393 126.662,285.193 127.109,334.485 127.555,349.554 128.002,77.3254 128.448,164.219 128.894,176.471 129.341,244.493 129.787,326.598 130.234,328.288 130.68,225.481 131.126,249.845 131.573,292.235 132.019,324.767 132.466,336.879 132.912,345.892 133.358,102.675 133.805,132.672 134.251,137.461 134.698,198.018 135.144,274.49 135.59,263.787 136.037,141.826 136.483,223.368 136.93,285.053 137.376,313.642 137.822,334.625 138.269,112.252 138.715,149.15 139.162,215.341 139.608,250.267 140.054,260.407 140.501,282.518 140.947,278.856 141.394,182.527 141.84,268.294 142.286,280.264 142.733,308.149 143.179,300.685 143.626,200.553 144.072,110.421 144.518,188.16 144.965,244.352 145.411,290.404 145.858,337.583 146.304,207.032 146.75,52.539 147.197,134.362 147.643,181.119 148.09,239.986 148.536,308.008 148.982,142.39 149.429,204.074 149.875,216.186 150.322,238.156 150.768,293.643 151.214,230.691 151.661,115.773 152.107,200.694 152.554,243.507 153,298.15 153.446,308.149 153.893,274.913 154.339,60.4256 154.786,167.88 155.232,144.643 155.678,178.02 156.125,197.455 156.571,216.045 157.018,212.242 157.464,191.963 157.91,224.495 158.357,227.875 158.803,255.619 159.25,210.552 159.696,182.949 160.142,206.468 160.589,163.233 161.035,161.825 161.482,145.066 161.928,185.062 162.374,184.217 162.821,206.046 163.267,213.51 163.714,223.227 164.16,255.9 164.606,294.066 165.053,258.295 165.499,195.765 165.946,146.756 166.392,150.84 166.838,148.586 167.285,137.179 167.731,103.239 168.178,108.872 168.624,101.83 169.07,103.52 169.517,106.196 169.963,108.308 170.41,124.504 170.856,143.798 171.302,142.108 171.749,132.813 172.195,106.618 172.642,126.757 173.088,250.549 173.534,348.145 173.981,350.68 174.427,357.299 174.874,338.005 175.32,179.569 175.766,241.395 176.213,145.629 176.659,69.7205 177.106,57.6089 177.552,83.0995 177.998,96.1969 178.445,85.6345 178.891,88.592 179.338,94.507 179.784,90.9861 180.23,81.5504 180.677,46.6241 181.123,62.9606 181.57,57.0456 182.016,64.6506 182.462,78.3112 182.909,146.333 183.355,270.688 183.802,319.556 184.248,313.078 184.694,326.316 185.141,271.674 185.587,204.919 186.034,243.789 186.48,236.466 186.926,250.69 187.373,213.369 187.819,182.245 188.266,216.749 188.712,172.387 189.158,248.014 189.605,281.391 190.051,323.218 190.498,310.121 190.944,198.018 191.39,180.555 191.837,112.956 192.283,139.855 192.73,183.513 193.176,154.361 193.622,164.923 194.069,78.3112 194.515,100.985 194.962,110.562 195.408,199.708 195.854,279.419 196.301,151.685 196.747,167.88 197.194,219.847 197.64,229.987 198.086,249.14 198.533,283.644 198.979,145.206 199.426,210.552 199.872,244.493 200.318,243.366 200.765,276.744 201.211,197.596 201.658,90.9861 202.104,173.232 202.55,192.667 202.997,274.772 203.443,268.716 203.89,264.632 204.336,265.336 204.782,281.813 205.229,291.108 205.675,270.969 206.122,126.335 206.568,71.4105 207.014,113.519 207.461,66.0589 207.907,120.138 208.354,108.027 208.8,108.308 209.246,270.829 209.693,281.954 210.139,297.164 210.586,294.207 211.032,282.799 211.478,250.971 211.925,241.958 212.371,264.914 212.818,241.958 213.264,236.184 213.71,231.255 214.157,212.524 214.603,174.218 215.05,210.834 215.496,213.228 215.942,160.135 216.389,178.584 216.835,169.993 217.282,189.709 217.728,194.216 218.174,149.431 218.621,152.107 219.067,136.757 219.514,163.374 219.96,215.622 220.406,244.775 220.853,193.934 221.299,104.365 221.746,80.1421 222.192,103.098 222.638,112.111 223.085,100.704 223.531,61.9747 223.978,97.4644 224.424,165.627 224.87,136.052 225.317,100.281 225.763,96.9011 226.21,129.574 226.656,132.954 227.102,118.026 227.549,118.871 227.995,139.714 228.442,169.148 228.888,134.926 229.334,129.574 229.781,95.9153 230.227,166.19 230.674,261.956 231.12,301.53 231.566,286.883 232.013,269.702 232.459,241.113 232.906,202.103 233.352,157.741 233.798,166.613 234.245,172.246 234.691,221.115 235.138,276.321 235.584,272.378 236.03,127.039 236.477,99.0135 236.923,170.979 237.37,127.18 237.816,123.518 238.262,144.784 238.709,119.575 239.155,123.518 239.602,111.407 240.048,117.603 240.494,146.192 240.941,119.857 241.387,141.826 241.834,143.235 242.28,133.517 242.726,135.489 243.173,133.095 243.619,217.312 244.066,270.547 244.512,284.912 244.958,314.487 245.405,296.038 245.851,217.876 246.298,231.396 246.744,243.085 247.19,244.775 247.637,288.433 248.083,304.487 248.53,146.474 248.976,225.199 249.422,240.127 249.869,272.941 250.315,278.011 250.762,286.038 251.208,283.081 251.654,280.828 252.101,284.489 252.547,294.348 252.994,311.529 253.44,233.226 253.886,142.108 254.333,97.4644 254.779,135.912 255.226,94.2253 255.672,94.7886 256.118,61.6931 256.565,174.218 257.011,300.122 257.458,295.615 257.904,295.756 258.35,302.797 258.797,113.942 259.243,167.458 259.69,174.359 260.136,183.09 260.582,142.671 261.029,97.8869 261.475,104.224 261.922,128.729 262.368,122.11 262.814,91.6903 263.261,86.902 263.707,115.068 264.154,94.6478 264.6,158.163 265.046,145.206 265.493,231.959 265.939,301.248 266.386,290.686 266.832,241.395 267.278,264.209 267.725,279.419 268.171,278.434 268.618,292.094 269.064,257.168 269.51,209.003 269.957,183.654 270.403,159.008 270.85,149.995 271.296,130.137 271.742,142.953 272.189,133.095 272.635,168.866 273.082,128.025 273.528,133.658 273.974,111.125 274.421,158.022 274.867,184.639 275.314,155.346 275.76,136.193 276.206,136.193 276.653,177.879 277.099,196.892 277.546,190.414 277.992,168.303 278.438,224.213 278.885,298.291 279.331,247.169 279.778,178.724 280.224,200.553 280.67,203.793 281.117,202.103 281.563,200.131 282.01,252.802 282.456,257.027 282.902,242.24 283.349,173.795 283.795,160.698 284.242,139.573 284.688,125.49 285.134,166.05 285.581,194.216 286.027,192.385 286.474,198.441 286.92,200.272 287.366,189.287 287.813,128.447 288.259,130.278 288.706,181.964 289.152,214.637 289.598,285.334 290.045,183.231 290.491,195.765 290.938,206.046 291.384,209.003 291.83,252.38 292.277,288.714 292.723,186.048 293.17,216.89 293.616,223.791 294.062,195.624 294.509,218.439 294.955,237.592 295.402,151.966 295.848,202.948 296.294,221.397 296.741,227.03 297.187,247.873 297.634,248.718 298.08,262.097 298.526,256.464 298.973,271.814 299.419,301.53 299.866,289.278 300.312,218.721 300.758,137.038 301.205,124.082 301.651,170.556 302.098,156.755 302.544,147.882 302.99,168.585 303.437,138.869 303.883,250.267 304.33,292.094 304.776,284.63 305.222,233.508 305.669,121.406 306.115,112.956 306.562,145.347 307.008,113.66 307.454,124.927 307.901,114.223 308.347,107.463 308.794,86.1978 309.24,95.2111 309.686,119.012 310.133,115.209 310.579,119.153 311.026,71.6922 311.472,82.8179 311.918,118.589 312.365,118.026 312.811,235.48 313.258,299.558 313.704,286.883 314.15,306.459 314.597,270.265 315.043,248.436 315.49,224.072 315.936,225.481 316.382,166.05 316.829,227.452 317.275,197.314 317.722,187.597 318.168,191.963 318.614,189.287 319.061,199.427 319.507,203.229 319.954,197.878 320.4,204.919 320.846,213.651 321.293,194.779 321.739,193.653 322.186,237.451 322.632,300.685 323.078,308.853 323.525,333.921 323.971,316.458 324.418,257.309 324.864,270.969 325.31,264.069 325.757,266.181 326.203,245.62 326.65,143.798 327.096,203.37 327.542,221.96 327.989,170.697 328.435,157.881 328.882,152.248 329.328,190.695 329.774,148.446 330.221,275.335 330.667,306.741 331.114,297.023 331.56,279.138 332.006,150.981 332.453,142.812 332.899,162.951 333.346,160.135 333.792,157.318 334.238,129.997 334.685,135.207 335.131,138.728 335.578,151.685 336.024,146.051 336.47,121.969 336.917,108.59 337.363,162.529 337.81,154.924 338.256,136.052 338.702,109.858 339.149,150.558 339.595,117.322 340.042,154.361 340.488,161.12 340.934,160.98 341.381,200.694 341.827,225.903 342.274,171.401 342.72,122.673 343.166,220.833 343.613,196.047 344.059,196.188 344.506,234.494 344.952,245.62 345.398,230.832 345.845,253.084 346.291,208.158 346.738,242.381 347.184,209.003 347.63,167.88 348.077,181.541 348.523,208.158 348.97,216.186 349.416,243.789 349.862,235.761 350.309,232.945 350.755,250.83 351.202,239.564 351.648,210.412 352.094,240.831 352.541,252.52 352.987,189.146 353.434,276.039 353.88,221.678 354.326,188.864 354.773,238.437 355.219,198.3 355.666,231.959 356.112,248.436 356.558,246.042 357.005,281.532 357.451,243.226 357.898,240.691 358.344,219.707 358.79,259.14 359.237,228.861 359.683,237.874 360.13,256.605 360.576,227.734 361.022,229.283 361.469,267.73 361.915,276.462 362.362,292.094 362.808,311.388 363.254,286.883 363.701,220.552 364.147,301.389 364.594,297.728 365.04,278.715 365.486,305.896 365.933,287.588 366.379,270.829 366.826,261.815 367.272,266.604 367.718,248.155 368.165,263.365 368.611,255.76 369.058,268.294 369.504,286.32 369.95,288.433 370.397,293.362 370.843,270.969 371.29,237.17 371.736,247.028 372.182,257.872 372.629,283.222 373.075,298.713 373.522,261.393 373.968,191.399 374.414,259.562 374.861,307.445 375.307,305.332 375.754,271.533 376.2,294.911 376.646,285.475 377.093,298.009 377.539,293.08 377.986,306.6 378.432,303.502 378.878,292.939 379.325,210.975 379.771,288.855 380.218,301.671 380.664,315.191 381.11,337.16 381.557,249 382.003,204.215 382.45,236.184 382.896,246.605 383.342,269.279 383.789,299.136 384.235,175.908 384.682,239.564 385.128,288.996 385.574,316.036 386.021,320.542 386.467,327.161 386.914,229.142 387.36,247.591 387.806,241.958 388.253,278.715 388.699,314.768 389.146,285.053 389.592,120.983 390.038,166.19 390.485,172.246 390.931,221.256 391.378,241.676 391.824,259.421 392.27,272.378 392.717,288.151 393.163,276.603 393.61,298.995 394.056,301.53 394.502,207.736 394.949,178.584 395.395,197.455 395.842,174.359 396.288,172.81 396.734,163.515 397.181,175.345 397.627,178.865 398.074,215.2 398.52,210.975 398.966,233.086 399.413,302.375 399.859,261.393 400.306,127.743 400.752,135.348 401.198,160.839 401.645,128.025 402.091,119.012 402.538,85.3528 402.984,88.1695 403.43,82.8179 403.877,98.1686 404.323,86.1978 404.77,80.7054 405.216,72.5372 405.662,93.662 406.109,97.4644 406.555,115.913 407.002,130.278 407.448,133.94 407.894,142.953 408.341,168.162 408.787,231.677 409.234,329.978 409.68,310.825 410.126,260.689 410.573,220.974 411.019,197.173 411.466,189.569 411.912,105.492 412.358,72.1147 412.805,96.3378 413.251,93.9436 413.698,100.281 414.144,93.8028 414.59,113.238 415.037,151.262 415.483,105.21 415.93,125.208 416.376,123.237 416.822,119.293 417.269,119.434 417.715,95.0703 418.162,116.758 418.608,137.038 419.054,304.91 419.501,323.218 419.947,311.952 420.394,270.829 420.84,234.776 421.286,204.497 421.733,261.534 422.179,252.52 422.626,221.115 423.072,179.147 423.518,199.004 423.965,234.212 424.411,245.479 424.858,239.001 425.304,237.311 425.75,241.113 426.197,197.455 426.643,170.979 427.09,108.59 427.536,89.2961 427.982,126.617 428.429,93.3803 428.875,87.3245 429.322,133.94 429.768,141.404 430.214,129.856 430.661,232.522 431.107,278.856 431.554,191.822 432,212.947 432.446,277.025 432.893,274.631 433.339,308.994 433.786,303.924 434.232,226.185 434.678,267.871 435.125,278.574 435.571,279.279 436.018,310.402 436.464,286.743 436.91,141.967 437.357,239.705 437.803,271.11 438.25,303.079 438.696,309.276 439.142,304.487 439.589,303.502 440.035,304.206 440.482,313.642 440.928,290.123 441.374,70.2838 441.821,77.1846 442.267,109.435 442.714,90.7045 443.16,69.5797 443.606,72.2555 444.053,54.5107 444.499,70.143 444.946,170.275 445.392,279.279 445.838,294.911 446.285,301.952 446.731,303.22 447.178,141.826 447.624,127.18 448.07,132.109 448.517,116.758 448.963,77.0438 449.41,101.549 449.856,111.97 450.302,122.251 450.749,122.533 451.195,118.589 451.642,110.562 452.088,107.604 452.534,118.589 452.981,122.673 453.427,128.87 453.874,122.251 454.32,135.067 454.766,151.262 455.213,236.043 455.659,306.177 456.106,308.572 456.552,313.078 456.998,321.81 457.445,223.791 457.891,134.926 458.338,199.99 458.784,166.613 459.23,154.22 459.677,69.5797 460.123,117.322 460.57,120.561 461.016,157.459 461.462,105.492 461.909,62.9606 462.355,82.3954 462.802,114.787 463.248,132.25 463.694,138.447 464.141,147.178 464.587,161.12 465.034,102.675 465.48,87.8878 465.926,122.673 466.373,131.687 466.819,200.976 467.266,298.291 467.712,267.449 468.158,131.123 468.605,129.997 469.051,124.363 469.498,151.403 469.944,101.126 470.39,142.671 470.837,255.9 471.283,269.42 471.73,156.473 472.176,145.629 472.622,156.051 473.069,148.586 473.515,131.123 473.962,166.19 474.408,196.328 474.854,189.569 475.301,124.645 475.747,142.953 476.194,143.939 476.64,145.347 477.086,164.641 477.533,162.529 477.979,162.529 478.426,183.513 478.872,258.435 479.318,300.826 479.765,300.544 480.211,315.754 480.658,298.009 481.104,274.913 481.55,287.024 481.997,305.614 482.443,278.293 482.89,312.092 483.336,278.715 483.782,99.4361 484.229,187.034 484.675,236.747 485.122,254.633 485.568,255.337 486.014,266.04 486.461,268.998 486.907,254.07 487.354,266.322 487.8,284.208 488.246,222.382 488.693,92.817 489.139,91.2678 489.586,58.1723 490.032,52.6798 490.478,58.4539 490.925,140.7 491.371,210.271 491.818,290.263 492.264,311.529 492.71,317.444 493.157,305.332 493.603,310.825 494.05,178.443 494.496,177.879 494.942,205.06 495.389,213.651 495.835,120.702 496.282,177.457 496.728,156.332 497.174,124.645 497.621,127.602 498.067,116.899 498.514,113.942 498.96,145.206 499.406,98.8727 499.853,142.953 500.299,150.417 500.746,240.127 501.192,292.658 501.638,298.432 502.085,287.869 502.531,299.277 502.978,296.601 503.424,303.502 503.87,310.966 504.317,299.417 504.763,158.022 505.21,126.194 505.656,160.416 506.102,149.995 506.549,143.939 506.995,135.348 507.442,153.938 507.888,162.81 508.334,133.658 508.781,198.723 509.227,179.429 509.674,184.499 510.12,158.445 510.566,136.193 511.013,121.265 511.459,91.5495 511.906,125.772 512.352,65.0731 512.798,148.305 513.245,253.084 513.691,274.913 514.138,286.883 514.584,284.067 515.03,202.384 515.477,68.1713 515.923,138.728 516.37,179.851 516.816,154.361 517.262,239.705 517.709,284.067 518.155,294.488 518.602,300.122 519.048,311.67 519.494,280.264 519.941,276.603 520.387,218.862"/>
</g>
</g>
</svg>
