<?xml version="1.0" encoding="UTF-8" standalone="no"?>
<svg xmlns="http://www.w3.org/2000/svg"
     xmlns:xlink="http://www.w3.org/1999/xlink"
     width="576pt" height="432pt" viewBox="0 0 576 432">
<title>gl2ps_renderer figure</title>
<desc>
Creator: GL2PS 1.4.0, (C) 1999-2017 C. Geuzaine
For: Octave
CreationDate: Tue Dec 10 15:47:29 2019
</desc>
<defs>
</defs>
<polygon fill="#ffffff" points="0,0 576,0 576,432 0,432"/>
<g>
<polygon fill="#ffffff" points="0,432 576,432 576,0 0,0" shape-rendering="crispEdges"/>
<clipPath id="cp00576432">
  <polygon points="0,432 576,432 576,0 0,0"/>
</clipPath>
<g clip-path="url(#cp00576432)">
<polygon fill="#ffffff" shape-rendering="crispEdges" points="74.88,384.48 521.28,384.48 74.88,32.4"/>
<polygon fill="#ffffff" shape-rendering="crispEdges" points="521.28,384.48 521.28,32.4 74.88,32.4"/>
<polyline fill="none" stroke="#262626" stroke-width="0.5" stroke-linecap="butt" stroke-linejoin="miter" stroke-opacity="0.15" stroke-dasharray="16,0" points="74.88,384.48 74.88,32.4"/>
<polyline fill="none" stroke="#262626" stroke-width="0.5" stroke-linecap="butt" stroke-linejoin="miter" stroke-opacity="0.15" stroke-dasharray="16,0" points="164.16,384.48 164.16,32.4"/>
<polyline fill="none" stroke="#262626" stroke-width="0.5" stroke-linecap="butt" stroke-linejoin="miter" stroke-opacity="0.15" stroke-dasharray="16,0" points="253.44,384.48 253.44,32.4"/>
<polyline fill="none" stroke="#262626" stroke-width="0.5" stroke-linecap="butt" stroke-linejoin="miter" stroke-opacity="0.15" stroke-dasharray="16,0" points="342.72,384.48 342.72,32.4"/>
<polyline fill="none" stroke="#262626" stroke-width="0.5" stroke-linecap="butt" stroke-linejoin="miter" stroke-opacity="0.15" stroke-dasharray="16,0" points="432,384.48 432,32.4"/>
<polyline fill="none" stroke="#262626" stroke-width="0.5" stroke-linecap="butt" stroke-linejoin="miter" stroke-opacity="0.15" stroke-dasharray="16,0" points="521.28,384.48 521.28,32.4"/>
<polyline fill="none" stroke="#262626" stroke-width="0.5" stroke-linecap="butt" stroke-linejoin="miter" points="74.88,384.48 74.88,380.015"/>
<polyline fill="none" stroke="#262626" stroke-width="0.5" stroke-linecap="butt" stroke-linejoin="miter" points="74.88,32.4 74.88,36.865"/>
<polyline fill="none" stroke="#262626" stroke-width="0.5" stroke-linecap="butt" stroke-linejoin="miter" points="164.16,384.48 164.16,380.015"/>
<polyline fill="none" stroke="#262626" stroke-width="0.5" stroke-linecap="butt" stroke-linejoin="miter" points="164.16,32.4 164.16,36.865"/>
<polyline fill="none" stroke="#262626" stroke-width="0.5" stroke-linecap="butt" stroke-linejoin="miter" points="253.44,384.48 253.44,380.015"/>
<polyline fill="none" stroke="#262626" stroke-width="0.5" stroke-linecap="butt" stroke-linejoin="miter" points="253.44,32.4 253.44,36.865"/>
<polyline fill="none" stroke="#262626" stroke-width="0.5" stroke-linecap="butt" stroke-linejoin="miter" points="342.72,384.48 342.72,380.015"/>
<polyline fill="none" stroke="#262626" stroke-width="0.5" stroke-linecap="butt" stroke-linejoin="miter" points="342.72,32.4 342.72,36.865"/>
<polyline fill="none" stroke="#262626" stroke-width="0.5" stroke-linecap="butt" stroke-linejoin="miter" points="432,384.48 432,380.015"/>
<polyline fill="none" stroke="#262626" stroke-width="0.5" stroke-linecap="butt" stroke-linejoin="miter" points="432,32.4 432,36.865"/>
<polyline fill="none" stroke="#262626" stroke-width="0.5" stroke-linecap="butt" stroke-linejoin="miter" points="521.28,384.48 521.28,380.015"/>
<polyline fill="none" stroke="#262626" stroke-width="0.5" stroke-linecap="butt" stroke-linejoin="miter" points="521.28,32.4 521.28,36.865"/>
<text xml:space="preserve" transform="translate(71.88,400.481) rotate(-0,3,-11)" font-family="FreeSans" font-weight="normal" font-style="normal" font-size="10"><tspan y="-1" fill="rgb(38,38,38)" x="0 ">0</tspan></text>
<text xml:space="preserve" transform="translate(155.16,400.481) rotate(-0,9,-11)" font-family="FreeSans" font-weight="normal" font-style="normal" font-size="10"><tspan y="-1" fill="rgb(38,38,38)" x="0 6 12 ">200</tspan></text>
<text xml:space="preserve" transform="translate(244.44,400.481) rotate(-0,9,-11)" font-family="FreeSans" font-weight="normal" font-style="normal" font-size="10"><tspan y="-1" fill="rgb(38,38,38)" x="0 6 12 ">400</tspan></text>
<text xml:space="preserve" transform="translate(333.72,400.481) rotate(-0,9,-11)" font-family="FreeSans" font-weight="normal" font-style="normal" font-size="10"><tspan y="-1" fill="rgb(38,38,38)" x="0 6 12 ">600</tspan></text>
<text xml:space="preserve" transform="translate(423,400.481) rotate(-0,9,-11)" font-family="FreeSans" font-weight="normal" font-style="normal" font-size="10"><tspan y="-1" fill="rgb(38,38,38)" x="0 6 12 ">800</tspan></text>
<text xml:space="preserve" transform="translate(509.28,400.481) rotate(-0,12,-11)" font-family="FreeSans" font-weight="normal" font-style="normal" font-size="10"><tspan y="-1" fill="rgb(38,38,38)" x="0 6 12 18 ">1000</tspan></text>
<polyline fill="none" stroke="#262626" stroke-width="0.5" stroke-linecap="butt" stroke-linejoin="miter" stroke-opacity="0.15" stroke-dasharray="16,0" points="74.88,384.48 521.28,384.48"/>
<polyline fill="none" stroke="#262626" stroke-width="0.5" stroke-linecap="butt" stroke-linejoin="miter" stroke-opacity="0.15" stroke-dasharray="16,0" points="74.88,296.46 521.28,296.46"/>
<polyline fill="none" stroke="#262626" stroke-width="0.5" stroke-linecap="butt" stroke-linejoin="miter" stroke-opacity="0.15" stroke-dasharray="16,0" points="74.88,208.44 521.28,208.44"/>
<polyline fill="none" stroke="#262626" stroke-width="0.5" stroke-linecap="butt" stroke-linejoin="miter" stroke-opacity="0.15" stroke-dasharray="16,0" points="74.88,120.42 521.28,120.42"/>
<polyline fill="none" stroke="#262626" stroke-width="0.5" stroke-linecap="butt" stroke-linejoin="miter" stroke-opacity="0.15" stroke-dasharray="16,0" points="74.88,32.4 521.28,32.4"/>
<polyline fill="none" stroke="#262626" stroke-width="0.5" stroke-linecap="butt" stroke-linejoin="miter" points="74.88,384.48 79.348,384.48"/>
<polyline fill="none" stroke="#262626" stroke-width="0.5" stroke-linecap="butt" stroke-linejoin="miter" points="521.28,384.48 516.812,384.48"/>
<polyline fill="none" stroke="#262626" stroke-width="0.5" stroke-linecap="butt" stroke-linejoin="miter" points="74.88,296.46 79.348,296.46"/>
<polyline fill="none" stroke="#262626" stroke-width="0.5" stroke-linecap="butt" stroke-linejoin="miter" points="521.28,296.46 516.812,296.46"/>
<polyline fill="none" stroke="#262626" stroke-width="0.5" stroke-linecap="butt" stroke-linejoin="miter" points="74.88,208.44 79.348,208.44"/>
<polyline fill="none" stroke="#262626" stroke-width="0.5" stroke-linecap="butt" stroke-linejoin="miter" points="521.28,208.44 516.812,208.44"/>
<polyline fill="none" stroke="#262626" stroke-width="0.5" stroke-linecap="butt" stroke-linejoin="miter" points="74.88,120.42 79.348,120.42"/>
<polyline fill="none" stroke="#262626" stroke-width="0.5" stroke-linecap="butt" stroke-linejoin="miter" points="521.28,120.42 516.812,120.42"/>
<polyline fill="none" stroke="#262626" stroke-width="0.5" stroke-linecap="butt" stroke-linejoin="miter" points="74.88,32.4 79.348,32.4"/>
<polyline fill="none" stroke="#262626" stroke-width="0.5" stroke-linecap="butt" stroke-linejoin="miter" points="521.28,32.4 516.812,32.4"/>
<text xml:space="preserve" transform="translate(48.8755,389.98) rotate(-0,21,-5.5)" font-family="FreeSans" font-weight="normal" font-style="normal" font-size="10"><tspan y="-1" fill="rgb(38,38,38)" x="0 3 9 15 ">-100</tspan></text>
<text xml:space="preserve" transform="translate(54.8755,301.96) rotate(-0,15,-5.5)" font-family="FreeSans" font-weight="normal" font-style="normal" font-size="10"><tspan y="-1" fill="rgb(38,38,38)" x="0 3 9 ">-50</tspan></text>
<text xml:space="preserve" transform="translate(63.8755,213.94) rotate(-0,6,-5.5)" font-family="FreeSans" font-weight="normal" font-style="normal" font-size="10"><tspan y="-1" fill="rgb(38,38,38)" x="0 ">0</tspan></text>
<text xml:space="preserve" transform="translate(57.8755,125.92) rotate(-0,12,-5.5)" font-family="FreeSans" font-weight="normal" font-style="normal" font-size="10"><tspan y="-1" fill="rgb(38,38,38)" x="0 6 ">50</tspan></text>
<text xml:space="preserve" transform="translate(51.8755,37.9) rotate(-0,18,-5.5)" font-family="FreeSans" font-weight="normal" font-style="normal" font-size="10"><tspan y="-1" fill="rgb(38,38,38)" x="0 6 12 ">100</tspan></text>
<polyline fill="none" stroke="#262626" stroke-width="0.5" stroke-linecap="square" stroke-linejoin="miter" stroke-dasharray="16,0" points="74.88,384.48 521.28,384.48"/>
<polyline fill="none" stroke="#262626" stroke-width="0.5" stroke-linecap="square" stroke-linejoin="miter" stroke-dasharray="16,0" points="74.88,32.4 521.28,32.4"/>
<polyline fill="none" stroke="#262626" stroke-width="0.5" stroke-linecap="square" stroke-linejoin="miter" stroke-dasharray="16,0" points="74.88,384.48 74.88,32.4"/>
<polyline fill="none" stroke="#262626" stroke-width="0.5" stroke-linecap="square" stroke-linejoin="miter" stroke-dasharray="16,0" points="521.28,384.48 521.28,32.4"/>
<text xml:space="preserve" transform="translate(271.08,413.481) rotate(-0,27,-13)" font-family="FreeSans" font-weight="normal" font-style="normal" font-size="11"><tspan y="-2" fill="rgb(38,38,38)" x="0 6 9 15 18 21 27 33 39 45 51 "># of packet</tspan></text>
<text xml:space="preserve" transform="translate(17.3755,208.44) rotate(-90,27.5,0)" font-family="FreeSans" font-weight="normal" font-style="normal" font-size="11"><tspan y="-2" fill="rgb(38,38,38)" x="0 9 15 21 27 30 35 41 43 49 ">Mean value</tspan></text>
<text xml:space="preserve" transform="translate(154.08,22.4) rotate(-0,144,0)" font-family="FreeSans" font-weight="bold" font-style="normal" font-size="11"><tspan y="-2" fill="rgb(0,0,0)" x="0 6 10 16 22 26 32 38 44 50 53 59 65 68 74 80 88 94 100 106 112 120 129 136 142 148 154 157 164 171 177 184 188 191 197 203 207 210 216 223 229 232 238 244 247 253 256 260 266 272 278 284 ">7-12-2019 13:00A5043AQF999 quantizer analysis (9070)</tspan></text>
<polyline fill="none" stroke="#0071bc" stroke-width="0.5" stroke-linecap="butt" stroke-linejoin="round" points="75.3264,245.408 75.7728,136.264 76.2192,224.284 76.6656,240.127 77.112,185.555 77.5584,234.846 78.0048,187.315 78.4512,213.721 78.8976,208.44 79.344,211.961 79.7904,273.575 80.2368,159.149 80.6832,204.919 81.1296,204.919 81.576,201.398 82.0224,196.117 82.4688,245.408 82.9152,245.408 83.3616,171.472 83.808,197.878 84.2544,208.44 84.7008,208.44 85.1472,206.68 85.5936,206.68 86.04,189.076 86.4864,236.606 86.9328,234.846 87.3792,180.274 87.8256,196.117 88.272,203.159 88.7184,247.169 89.1648,217.242 89.6112,182.034 90.0576,182.034 90.504,268.294 90.9504,176.753 91.3968,185.555 91.8432,240.127 92.2896,208.44 92.736,199.638 93.1824,197.878 93.6288,243.648 94.0752,145.066 94.5216,240.127 94.968,229.565 95.4144,174.992 95.8608,245.408 96.3072,182.034 96.7536,227.804 97.2,192.596 97.6464,204.919 98.0928,224.284 98.5392,194.357 98.9856,203.159 99.432,229.565 99.8784,227.804 100.325,178.513 100.771,238.367 101.218,164.43 101.664,173.232 102.11,307.022 102.557,180.274 103.003,162.67 103.45,201.398 103.896,241.888 104.342,206.68 104.789,220.763 105.235,189.076 105.682,213.721 106.128,208.44 106.574,201.398 107.021,196.117 107.467,219.002 107.914,227.804 108.36,196.117 108.806,211.961 109.253,208.44 109.699,213.721 110.146,194.357 110.592,210.2 111.038,196.117 111.485,224.284 111.931,194.357 112.378,238.367 112.824,167.951 113.27,204.919 113.717,270.054 114.163,178.513 114.61,210.2 115.056,203.159 115.502,192.596 115.949,236.606 116.395,194.357 116.842,222.523 117.288,189.076 117.734,211.961 118.181,197.878 118.627,222.523 119.074,220.763 119.52,211.961 119.966,183.794 120.413,197.878 120.859,217.242 121.306,206.68 121.752,227.804 122.198,190.836 122.645,206.68 123.091,224.284 123.538,194.357 123.984,208.44 124.43,219.002 124.877,192.596 125.323,227.804 125.77,189.076 126.216,208.44 126.662,217.242 127.109,210.2 127.555,173.232 128.002,247.169 128.448,238.367 128.894,185.555 129.341,208.44 129.787,194.357 130.234,224.284 130.68,208.44 131.126,203.159 131.573,227.804 132.019,196.117 132.466,141.545 132.912,257.731 133.358,203.159 133.805,211.961 134.251,208.44 134.698,213.721 135.144,208.44 135.59,199.638 136.037,210.2 136.483,210.2 136.93,197.878 137.376,206.68 137.822,185.555 138.269,254.21 138.715,178.513 139.162,206.68 139.608,268.294 140.054,164.43 140.501,180.274 140.947,241.888 141.394,183.794 141.84,250.69 142.286,187.315 142.733,204.919 143.179,229.565 143.626,176.753 144.072,190.836 144.518,201.398 144.965,204.919 145.411,227.804 145.858,224.284 146.304,222.523 146.75,176.753 147.197,206.68 147.643,236.606 148.09,203.159 148.536,204.919 148.982,204.919 149.429,211.961 149.875,180.274 150.322,190.836 150.768,278.856 151.214,213.721 151.661,183.794 152.107,199.638 152.554,203.159 153,231.325 153.446,187.315 153.893,213.721 154.339,201.398 154.786,213.721 155.232,189.076 155.678,273.575 156.125,174.992 156.571,187.315 157.018,231.325 157.464,222.523 157.91,197.878 158.357,173.232 158.803,227.804 159.25,222.523 159.696,155.628 160.142,254.21 160.589,196.117 161.035,210.2 161.482,213.721 161.928,185.555 162.374,199.638 162.821,231.325 163.267,208.44 163.714,226.044 164.16,208.44 164.606,208.44 165.053,210.2 165.499,159.149 165.946,241.888 166.392,219.002 166.838,203.159 167.285,215.482 167.731,169.711 168.178,213.721 168.624,229.565 169.07,206.68 169.517,196.117 169.963,226.044 170.41,226.044 170.856,174.992 171.302,222.523 171.749,208.44 172.195,206.68 172.642,204.919 173.088,217.242 173.534,203.159 173.981,210.2 174.427,203.159 174.874,204.919 175.32,215.482 175.766,204.919 176.213,217.242 176.659,197.878 177.106,211.961 177.552,213.721 177.998,201.398 178.445,208.44 178.891,217.242 179.338,204.919 179.784,208.44 180.23,213.721 180.677,189.076 181.123,180.274 181.57,227.804 182.016,208.44 182.462,252.45 182.909,203.159 183.355,224.284 183.802,176.753 184.248,203.159 184.694,222.523 185.141,201.398 185.587,204.919 186.034,206.68 186.48,171.472 186.926,261.252 187.373,160.909 187.819,280.616 188.266,194.357 188.712,173.232 189.158,238.367 189.605,173.232 190.051,292.939 190.498,160.909 190.944,194.357 191.39,201.398 191.837,226.044 192.283,196.117 192.73,208.44 193.176,201.398 193.622,252.45 194.069,190.836 194.515,226.044 194.962,197.878 195.408,196.117 195.854,201.398 196.301,208.44 196.747,217.242 197.194,208.44 197.64,222.523 198.086,215.482 198.533,197.878 198.979,176.753 199.426,192.596 199.872,248.929 200.318,217.242 200.765,194.357 201.211,176.753 201.658,192.596 202.104,280.616 202.55,189.076 202.997,206.68 203.443,196.117 203.89,224.284 204.336,206.68 204.782,206.68 205.229,208.44 205.675,220.763 206.122,233.086 206.568,167.951 207.014,185.555 207.461,210.2 207.907,229.565 208.354,204.919 208.8,220.763 209.246,180.274 209.693,222.523 210.139,210.2 210.586,208.44 211.032,219.002 211.478,187.315 211.925,211.961 212.371,234.846 212.818,187.315 213.264,238.367 213.71,187.315 214.157,203.159 214.603,160.909 215.05,257.731 215.496,204.919 215.942,211.961 216.389,220.763 216.835,192.596 217.282,226.044 217.728,240.127 218.174,148.586 218.621,240.127 219.067,178.513 219.514,229.565 219.96,224.284 220.406,203.159 220.853,219.002 221.299,182.034 221.746,206.68 222.192,250.69 222.638,136.264 223.085,278.856 223.531,203.159 223.978,183.794 224.424,199.638 224.87,176.753 225.317,285.898 225.763,169.711 226.21,243.648 226.656,196.117 227.102,245.408 227.549,210.2 227.995,145.066 228.442,211.961 228.888,220.763 229.334,197.878 229.781,213.721 230.227,231.325 230.674,183.794 231.12,277.096 231.566,190.836 232.013,155.628 232.459,215.482 232.906,215.482 233.352,199.638 233.798,203.159 234.245,203.159 234.691,210.2 235.138,213.721 235.584,204.919 236.03,187.315 236.477,219.002 236.923,213.721 237.37,182.034 237.816,284.137 238.262,164.43 238.709,190.836 239.155,229.565 239.602,169.711 240.048,180.274 240.494,273.575 240.941,192.596 241.387,220.763 241.834,213.721 242.28,201.398 242.726,206.68 243.173,169.711 243.619,220.763 244.066,238.367 244.512,215.482 244.958,211.961 245.405,187.315 245.851,226.044 246.298,167.951 246.744,257.731 247.19,187.315 247.637,208.44 248.083,211.961 248.53,169.711 248.976,261.252 249.422,194.357 249.869,183.794 250.315,231.325 250.762,211.961 251.208,189.076 251.654,273.575 252.101,190.836 252.547,182.034 252.994,197.878 253.44,211.961 253.886,208.44 254.333,226.044 254.779,138.024 255.226,308.783 255.672,162.67 256.118,187.315 256.565,254.21 257.011,185.555 257.458,206.68 257.904,196.117 258.35,204.919 258.797,227.804 259.243,203.159 259.69,210.2 260.136,208.44 260.582,204.919 261.029,234.846 261.475,159.149 261.922,277.096 262.368,213.721 262.814,143.305 263.261,222.523 263.707,183.794 264.154,280.616 264.6,185.555 265.046,152.107 265.493,247.169 265.939,197.878 266.386,217.242 266.832,182.034 267.278,204.919 267.725,243.648 268.171,155.628 268.618,220.763 269.064,254.21 269.51,210.2 269.957,208.44 270.403,236.606 270.85,138.024 271.296,190.836 271.742,266.533 272.189,171.472 272.635,236.606 273.082,204.919 273.528,210.2 273.974,243.648 274.421,159.149 274.867,231.325 275.314,178.513 275.76,238.367 276.206,197.878 276.653,169.711 277.099,213.721 277.546,227.804 277.992,220.763 278.438,213.721 278.885,201.398 279.331,208.44 279.778,238.367 280.224,145.066 280.67,254.21 281.117,211.961 281.563,197.878 282.01,248.929 282.456,157.388 282.902,204.919 283.349,208.44 283.795,210.2 284.242,211.961 284.688,208.44 285.134,215.482 285.581,196.117 286.027,227.804 286.474,201.398 286.92,203.159 287.366,197.878 287.813,204.919 288.259,201.398 288.706,220.763 289.152,211.961 289.598,196.117 290.045,219.002 290.491,226.044 290.938,217.242 291.384,174.992 291.83,211.961 292.277,213.721 292.723,199.638 293.17,219.002 293.616,182.034 294.062,215.482 294.509,226.044 294.955,213.721 295.402,217.242 295.848,180.274 296.294,236.606 296.741,208.44 297.187,189.076 297.634,203.159 298.08,285.898 298.526,141.545 298.973,167.951 299.419,261.252 299.866,226.044 300.312,178.513 300.758,213.721 301.205,233.086 301.651,166.19 302.098,233.086 302.544,248.929 302.99,152.107 303.437,264.773 303.883,169.711 304.33,197.878 304.776,201.398 305.222,248.929 305.669,247.169 306.115,132.743 306.562,234.846 307.008,210.2 307.454,211.961 307.901,208.44 308.347,219.002 308.794,178.513 309.24,236.606 309.686,180.274 310.133,254.21 310.579,174.992 311.026,204.919 311.472,210.2 311.918,204.919 312.365,227.804 312.811,199.638 313.258,211.961 313.704,199.638 314.15,217.242 314.597,206.68 315.043,222.523 315.49,192.596 315.936,208.44 316.382,213.721 316.829,197.878 317.275,224.284 317.722,204.919 318.168,213.721 318.614,206.68 319.061,210.2 319.507,208.44 319.954,192.596 320.4,206.68 320.846,196.117 321.293,257.731 321.739,208.44 322.186,174.992 322.632,155.628 323.078,280.616 323.525,183.794 323.971,201.398 324.418,248.929 324.864,189.076 325.31,226.044 325.757,208.44 326.203,211.961 326.65,204.919 327.096,203.159 327.542,185.555 327.989,222.523 328.435,197.878 328.882,240.127 329.328,197.878 329.774,201.398 330.221,201.398 330.667,215.482 331.114,208.44 331.56,208.44 332.006,174.992 332.453,211.961 332.899,222.523 333.346,196.117 333.792,224.284 334.238,208.44 334.685,208.44 335.131,203.159 335.578,211.961 336.024,201.398 336.47,213.721 336.917,199.638 337.363,211.961 337.81,217.242 338.256,196.117 338.702,219.002 339.149,201.398 339.595,231.325 340.042,201.398 340.488,201.398 340.934,203.159 341.381,199.638 341.827,229.565 342.274,192.596 342.72,197.878 343.166,240.127 343.613,196.117 344.059,204.919 344.506,219.002 344.952,201.398 345.398,199.638 345.845,222.523 346.291,213.721 346.738,155.628 347.184,257.731 347.63,197.878 348.077,203.159 348.523,220.763 348.97,194.357 349.416,224.284 349.862,189.076 350.309,203.159 350.755,236.606 351.202,224.284 351.648,182.034 352.094,231.325 352.541,210.2 352.987,174.992 353.434,208.44 353.88,208.44 354.326,222.523 354.773,192.596 355.219,229.565 355.666,174.992 356.112,215.482 356.558,199.638 357.005,233.086 357.451,192.596 357.898,201.398 358.344,219.002 358.79,210.2 359.237,194.357 359.683,240.127 360.13,185.555 360.576,208.44 361.022,210.2 361.469,211.961 361.915,215.482 362.362,224.284 362.808,166.19 363.254,197.878 363.701,277.096 364.147,166.19 364.594,211.961 365.04,220.763 365.486,183.794 365.933,215.482 366.379,213.721 366.826,187.315 367.272,231.325 367.718,185.555 368.165,227.804 368.611,199.638 369.058,204.919 369.504,192.596 369.95,236.606 370.397,211.961 370.843,178.513 371.29,231.325 371.736,194.357 372.182,252.45 372.629,167.951 373.075,196.117 373.522,245.408 373.968,169.711 374.414,206.68 374.861,243.648 375.307,201.398 375.754,201.398 376.2,217.242 376.646,197.878 377.093,197.878 377.539,233.086 377.986,220.763 378.432,189.076 378.878,208.44 379.325,203.159 379.771,215.482 380.218,208.44 380.664,199.638 381.11,206.68 381.557,229.565 382.003,211.961 382.45,206.68 382.896,208.44 383.342,233.086 383.789,173.232 384.235,213.721 384.682,224.284 385.128,178.513 385.574,220.763 386.021,213.721 386.467,194.357 386.914,210.2 387.36,192.596 387.806,204.919 388.253,250.69 388.699,196.117 389.146,222.523 389.592,222.523 390.038,180.274 390.485,203.159 390.931,217.242 391.378,199.638 391.824,211.961 392.27,192.596 392.717,231.325 393.163,183.794 393.61,226.044 394.056,201.398 394.502,201.398 394.949,217.242 395.395,241.888 395.842,164.43 396.288,180.274 396.734,240.127 397.181,197.878 397.627,229.565 398.074,199.638 398.52,210.2 398.966,238.367 399.413,174.992 399.859,190.836 400.306,233.086 400.752,213.721 401.198,199.638 401.645,208.44 402.091,220.763 402.538,169.711 402.984,240.127 403.43,210.2 403.877,213.721 404.323,194.357 404.77,208.44 405.216,215.482 405.662,204.919 406.109,208.44 406.555,220.763 407.002,197.878 407.448,217.242 407.894,227.804 408.341,176.753 408.787,196.117 409.234,229.565 409.68,190.836 410.126,224.284 410.573,197.878 411.019,213.721 411.466,215.482 411.912,194.357 412.358,217.242 412.805,206.68 413.251,210.2 413.698,206.68 414.144,203.159 414.59,203.159 415.037,227.804 415.483,203.159 415.93,210.2 416.376,185.555 416.822,222.523 417.269,208.44 417.715,211.961 418.162,215.482 418.608,201.398 419.054,197.878 419.501,222.523 419.947,204.919 420.394,203.159 420.84,199.638 421.286,194.357 421.733,222.523 422.179,241.888 422.626,185.555 423.072,211.961 423.518,217.242 423.965,208.44 424.411,211.961 424.858,206.68 425.304,203.159 425.75,201.398 426.197,211.961 426.643,204.919 427.09,206.68 427.536,229.565 427.982,182.034 428.429,238.367 428.875,189.076 429.322,211.961 429.768,217.242 430.214,201.398 430.661,213.721 431.107,201.398 431.554,192.596 432,236.606 432.446,185.555 432.893,234.846 433.339,194.357 433.786,183.794 434.232,250.69 434.678,206.68 435.125,152.107 435.571,229.565 436.018,247.169 436.464,182.034 436.91,213.721 437.357,173.232 437.803,243.648 438.25,220.763 438.696,194.357 439.142,210.2 439.589,268.294 440.035,157.388 440.482,185.555 440.928,263.012 441.374,167.951 441.821,187.315 442.267,234.846 442.714,197.878 443.16,224.284 443.606,197.878 444.053,222.523 444.499,215.482 444.946,166.19 445.392,236.606 445.838,208.44 446.285,206.68 446.731,222.523 447.178,185.555 447.624,197.878 448.07,254.21 448.517,153.868 448.963,254.21 449.41,171.472 449.856,183.794 450.302,247.169 450.749,217.242 451.195,196.117 451.642,211.961 452.088,217.242 452.534,183.794 452.981,215.482 453.427,194.357 453.874,217.242 454.32,183.794 454.766,199.638 455.213,252.45 455.659,227.804 456.106,185.555 456.552,213.721 456.998,204.919 457.445,224.284 457.891,182.034 458.338,224.284 458.784,217.242 459.23,183.794 459.677,241.888 460.123,152.107 460.57,259.492 461.016,236.606 461.462,166.19 461.909,229.565 462.355,204.919 462.802,169.711 463.248,217.242 463.694,233.086 464.141,190.836 464.587,208.44 465.034,210.2 465.48,196.117 465.926,199.638 466.373,199.638 466.819,234.846 467.266,217.242 467.712,190.836 468.158,231.325 468.605,199.638 469.051,206.68 469.498,224.284 469.944,178.513 470.39,222.523 470.837,208.44 471.283,208.44 471.73,208.44 472.176,213.721 472.622,255.971 473.069,166.19 473.515,160.909 473.962,227.804 474.408,174.992 474.854,280.616 475.301,227.804 475.747,192.596 476.194,189.076 476.64,231.325 477.086,174.992 477.533,173.232 477.979,284.137 478.426,173.232 478.872,217.242 479.318,176.753 479.765,178.513 480.211,238.367 480.658,217.242 481.104,182.034 481.55,254.21 481.997,160.909 482.443,226.044 482.89,224.284 483.336,208.44 483.782,206.68 484.229,217.242 484.675,169.711 485.122,219.002 485.568,270.054 486.014,167.951 486.461,183.794 486.907,206.68 487.354,233.086 487.8,208.44 488.246,217.242 488.693,162.67 489.139,273.575 489.586,215.482 490.032,166.19 490.478,227.804 490.925,203.159 491.371,192.596 491.818,211.961 492.264,208.44 492.71,167.951 493.157,231.325 493.603,234.846 494.05,155.628 494.496,345.751 494.942,206.68 495.389,164.43 495.835,138.024 496.282,266.533 496.728,171.472 497.174,240.127 497.621,157.388 498.067,278.856 498.514,220.763 498.96,146.826 499.406,208.44 499.853,240.127 500.299,136.264 500.746,255.971 501.192,215.482 501.638,199.638 502.085,206.68 502.531,227.804 502.978,206.68 503.424,174.992 503.87,252.45 504.317,152.107 504.763,361.595 505.21,116.899 505.656,197.878 506.102,217.242 506.549,254.21 506.995,146.826 507.442,231.325 507.888,224.284 508.334,234.846 508.781,176.753 509.227,222.523 509.674,201.398 510.12,215.482 510.566,180.274 511.013,234.846 511.459,220.763 511.906,196.117 512.352,199.638 512.798,208.44 513.245,220.763 513.691,213.721 514.138,185.555 514.584,224.284 515.03,183.794 515.477,241.888 515.923,183.794 516.37,208.44 516.816,213.721 517.262,197.878 517.709,257.731 518.155,180.274 518.602,208.44 519.048,222.523 519.494,185.555 519.941,194.357 520.387,217.242 520.834,234.846"/>
</g>
</g>
</svg>
