<?xml version="1.0" encoding="UTF-8" standalone="no"?>
<svg xmlns="http://www.w3.org/2000/svg"
     xmlns:xlink="http://www.w3.org/1999/xlink"
     width="576pt" height="432pt" viewBox="0 0 576 432">
<title>gl2ps_renderer figure</title>
<desc>
Creator: GL2PS 1.4.0, (C) 1999-2017 C. Geuzaine
For: Octave
CreationDate: Tue Dec 10 15:47:30 2019
</desc>
<defs>
</defs>
<polygon fill="#ffffff" points="0,0 576,0 576,432 0,432"/>
<g>
<polygon fill="#ffffff" points="0,432 576,432 576,0 0,0" shape-rendering="crispEdges"/>
<clipPath id="cp00576432">
  <polygon points="0,432 576,432 576,0 0,0"/>
</clipPath>
<g clip-path="url(#cp00576432)">
<polygon fill="#ffffff" shape-rendering="crispEdges" points="74.88,384.48 521.28,384.48 74.88,32.4"/>
<polygon fill="#ffffff" shape-rendering="crispEdges" points="521.28,384.48 521.28,32.4 74.88,32.4"/>
<polyline fill="none" stroke="#262626" stroke-width="0.5" stroke-linecap="butt" stroke-linejoin="miter" stroke-opacity="0.15" stroke-dasharray="16,0" points="74.88,384.48 74.88,32.4"/>
<polyline fill="none" stroke="#262626" stroke-width="0.5" stroke-linecap="butt" stroke-linejoin="miter" stroke-opacity="0.15" stroke-dasharray="16,0" points="164.16,384.48 164.16,32.4"/>
<polyline fill="none" stroke="#262626" stroke-width="0.5" stroke-linecap="butt" stroke-linejoin="miter" stroke-opacity="0.15" stroke-dasharray="16,0" points="253.44,384.48 253.44,32.4"/>
<polyline fill="none" stroke="#262626" stroke-width="0.5" stroke-linecap="butt" stroke-linejoin="miter" stroke-opacity="0.15" stroke-dasharray="16,0" points="342.72,384.48 342.72,32.4"/>
<polyline fill="none" stroke="#262626" stroke-width="0.5" stroke-linecap="butt" stroke-linejoin="miter" stroke-opacity="0.15" stroke-dasharray="16,0" points="432,384.48 432,32.4"/>
<polyline fill="none" stroke="#262626" stroke-width="0.5" stroke-linecap="butt" stroke-linejoin="miter" stroke-opacity="0.15" stroke-dasharray="16,0" points="521.28,384.48 521.28,32.4"/>
<polyline fill="none" stroke="#262626" stroke-width="0.5" stroke-linecap="butt" stroke-linejoin="miter" points="74.88,384.48 74.88,380.015"/>
<polyline fill="none" stroke="#262626" stroke-width="0.5" stroke-linecap="butt" stroke-linejoin="miter" points="74.88,32.4 74.88,36.8651"/>
<polyline fill="none" stroke="#262626" stroke-width="0.5" stroke-linecap="butt" stroke-linejoin="miter" points="164.16,384.48 164.16,380.015"/>
<polyline fill="none" stroke="#262626" stroke-width="0.5" stroke-linecap="butt" stroke-linejoin="miter" points="164.16,32.4 164.16,36.8651"/>
<polyline fill="none" stroke="#262626" stroke-width="0.5" stroke-linecap="butt" stroke-linejoin="miter" points="253.44,384.48 253.44,380.015"/>
<polyline fill="none" stroke="#262626" stroke-width="0.5" stroke-linecap="butt" stroke-linejoin="miter" points="253.44,32.4 253.44,36.8651"/>
<polyline fill="none" stroke="#262626" stroke-width="0.5" stroke-linecap="butt" stroke-linejoin="miter" points="342.72,384.48 342.72,380.015"/>
<polyline fill="none" stroke="#262626" stroke-width="0.5" stroke-linecap="butt" stroke-linejoin="miter" points="342.72,32.4 342.72,36.8651"/>
<polyline fill="none" stroke="#262626" stroke-width="0.5" stroke-linecap="butt" stroke-linejoin="miter" points="432,384.48 432,380.015"/>
<polyline fill="none" stroke="#262626" stroke-width="0.5" stroke-linecap="butt" stroke-linejoin="miter" points="432,32.4 432,36.8651"/>
<polyline fill="none" stroke="#262626" stroke-width="0.5" stroke-linecap="butt" stroke-linejoin="miter" points="521.28,384.48 521.28,380.015"/>
<polyline fill="none" stroke="#262626" stroke-width="0.5" stroke-linecap="butt" stroke-linejoin="miter" points="521.28,32.4 521.28,36.8651"/>
<text xml:space="preserve" transform="translate(71.88,400.481) rotate(-0,3,-11)" font-family="FreeSans" font-weight="normal" font-style="normal" font-size="10"><tspan y="-1" fill="rgb(38,38,38)" x="0 ">0</tspan></text>
<text xml:space="preserve" transform="translate(155.16,400.481) rotate(-0,9,-11)" font-family="FreeSans" font-weight="normal" font-style="normal" font-size="10"><tspan y="-1" fill="rgb(38,38,38)" x="0 6 12 ">200</tspan></text>
<text xml:space="preserve" transform="translate(244.44,400.481) rotate(-0,9,-11)" font-family="FreeSans" font-weight="normal" font-style="normal" font-size="10"><tspan y="-1" fill="rgb(38,38,38)" x="0 6 12 ">400</tspan></text>
<text xml:space="preserve" transform="translate(333.72,400.481) rotate(-0,9,-11)" font-family="FreeSans" font-weight="normal" font-style="normal" font-size="10"><tspan y="-1" fill="rgb(38,38,38)" x="0 6 12 ">600</tspan></text>
<text xml:space="preserve" transform="translate(423,400.481) rotate(-0,9,-11)" font-family="FreeSans" font-weight="normal" font-style="normal" font-size="10"><tspan y="-1" fill="rgb(38,38,38)" x="0 6 12 ">800</tspan></text>
<text xml:space="preserve" transform="translate(509.28,400.481) rotate(-0,12,-11)" font-family="FreeSans" font-weight="normal" font-style="normal" font-size="10"><tspan y="-1" fill="rgb(38,38,38)" x="0 6 12 18 ">1000</tspan></text>
<polyline fill="none" stroke="#262626" stroke-width="0.5" stroke-linecap="butt" stroke-linejoin="miter" stroke-opacity="0.15" stroke-dasharray="16,0" points="74.88,384.48 521.28,384.48"/>
<polyline fill="none" stroke="#262626" stroke-width="0.5" stroke-linecap="butt" stroke-linejoin="miter" stroke-opacity="0.15" stroke-dasharray="16,0" points="74.88,325.8 521.28,325.8"/>
<polyline fill="none" stroke="#262626" stroke-width="0.5" stroke-linecap="butt" stroke-linejoin="miter" stroke-opacity="0.15" stroke-dasharray="16,0" points="74.88,267.12 521.28,267.12"/>
<polyline fill="none" stroke="#262626" stroke-width="0.5" stroke-linecap="butt" stroke-linejoin="miter" stroke-opacity="0.15" stroke-dasharray="16,0" points="74.88,208.44 521.28,208.44"/>
<polyline fill="none" stroke="#262626" stroke-width="0.5" stroke-linecap="butt" stroke-linejoin="miter" stroke-opacity="0.15" stroke-dasharray="16,0" points="74.88,149.76 521.28,149.76"/>
<polyline fill="none" stroke="#262626" stroke-width="0.5" stroke-linecap="butt" stroke-linejoin="miter" stroke-opacity="0.15" stroke-dasharray="16,0" points="74.88,91.08 521.28,91.08"/>
<polyline fill="none" stroke="#262626" stroke-width="0.5" stroke-linecap="butt" stroke-linejoin="miter" stroke-opacity="0.15" stroke-dasharray="16,0" points="74.88,32.4 521.28,32.4"/>
<polyline fill="none" stroke="#262626" stroke-width="0.5" stroke-linecap="butt" stroke-linejoin="miter" points="74.88,384.48 79.348,384.48"/>
<polyline fill="none" stroke="#262626" stroke-width="0.5" stroke-linecap="butt" stroke-linejoin="miter" points="521.28,384.48 516.812,384.48"/>
<polyline fill="none" stroke="#262626" stroke-width="0.5" stroke-linecap="butt" stroke-linejoin="miter" points="74.88,325.8 79.348,325.8"/>
<polyline fill="none" stroke="#262626" stroke-width="0.5" stroke-linecap="butt" stroke-linejoin="miter" points="521.28,325.8 516.812,325.8"/>
<polyline fill="none" stroke="#262626" stroke-width="0.5" stroke-linecap="butt" stroke-linejoin="miter" points="74.88,267.12 79.348,267.12"/>
<polyline fill="none" stroke="#262626" stroke-width="0.5" stroke-linecap="butt" stroke-linejoin="miter" points="521.28,267.12 516.812,267.12"/>
<polyline fill="none" stroke="#262626" stroke-width="0.5" stroke-linecap="butt" stroke-linejoin="miter" points="74.88,208.44 79.348,208.44"/>
<polyline fill="none" stroke="#262626" stroke-width="0.5" stroke-linecap="butt" stroke-linejoin="miter" points="521.28,208.44 516.812,208.44"/>
<polyline fill="none" stroke="#262626" stroke-width="0.5" stroke-linecap="butt" stroke-linejoin="miter" points="74.88,149.76 79.348,149.76"/>
<polyline fill="none" stroke="#262626" stroke-width="0.5" stroke-linecap="butt" stroke-linejoin="miter" points="521.28,149.76 516.812,149.76"/>
<polyline fill="none" stroke="#262626" stroke-width="0.5" stroke-linecap="butt" stroke-linejoin="miter" points="74.88,91.08 79.348,91.08"/>
<polyline fill="none" stroke="#262626" stroke-width="0.5" stroke-linecap="butt" stroke-linejoin="miter" points="521.28,91.08 516.812,91.08"/>
<polyline fill="none" stroke="#262626" stroke-width="0.5" stroke-linecap="butt" stroke-linejoin="miter" points="74.88,32.4 79.348,32.4"/>
<polyline fill="none" stroke="#262626" stroke-width="0.5" stroke-linecap="butt" stroke-linejoin="miter" points="521.28,32.4 516.812,32.4"/>
<text xml:space="preserve" transform="translate(63.8755,389.98) rotate(-0,6,-5.5)" font-family="FreeSans" font-weight="normal" font-style="normal" font-size="10"><tspan y="-1" fill="rgb(38,38,38)" x="0 ">0</tspan></text>
<text xml:space="preserve" transform="translate(51.8755,331.3) rotate(-0,18,-5.5)" font-family="FreeSans" font-weight="normal" font-style="normal" font-size="10"><tspan y="-1" fill="rgb(38,38,38)" x="0 6 12 ">500</tspan></text>
<text xml:space="preserve" transform="translate(45.8755,272.62) rotate(-0,24,-5.5)" font-family="FreeSans" font-weight="normal" font-style="normal" font-size="10"><tspan y="-1" fill="rgb(38,38,38)" x="0 6 12 18 ">1000</tspan></text>
<text xml:space="preserve" transform="translate(45.8755,213.94) rotate(-0,24,-5.5)" font-family="FreeSans" font-weight="normal" font-style="normal" font-size="10"><tspan y="-1" fill="rgb(38,38,38)" x="0 6 12 18 ">1500</tspan></text>
<text xml:space="preserve" transform="translate(45.8755,155.26) rotate(-0,24,-5.5)" font-family="FreeSans" font-weight="normal" font-style="normal" font-size="10"><tspan y="-1" fill="rgb(38,38,38)" x="0 6 12 18 ">2000</tspan></text>
<text xml:space="preserve" transform="translate(45.8755,96.58) rotate(-0,24,-5.5)" font-family="FreeSans" font-weight="normal" font-style="normal" font-size="10"><tspan y="-1" fill="rgb(38,38,38)" x="0 6 12 18 ">2500</tspan></text>
<text xml:space="preserve" transform="translate(45.8755,37.9) rotate(-0,24,-5.5)" font-family="FreeSans" font-weight="normal" font-style="normal" font-size="10"><tspan y="-1" fill="rgb(38,38,38)" x="0 6 12 18 ">3000</tspan></text>
<polyline fill="none" stroke="#262626" stroke-width="0.5" stroke-linecap="square" stroke-linejoin="miter" stroke-dasharray="16,0" points="74.88,384.48 521.28,384.48"/>
<polyline fill="none" stroke="#262626" stroke-width="0.5" stroke-linecap="square" stroke-linejoin="miter" stroke-dasharray="16,0" points="74.88,32.4 521.28,32.4"/>
<polyline fill="none" stroke="#262626" stroke-width="0.5" stroke-linecap="square" stroke-linejoin="miter" stroke-dasharray="16,0" points="74.88,384.48 74.88,32.4"/>
<polyline fill="none" stroke="#262626" stroke-width="0.5" stroke-linecap="square" stroke-linejoin="miter" stroke-dasharray="16,0" points="521.28,384.48 521.28,32.4"/>
<text xml:space="preserve" transform="translate(154.08,22.4) rotate(-0,144,0)" font-family="FreeSans" font-weight="bold" font-style="normal" font-size="11"><tspan y="-2" fill="rgb(0,0,0)" x="0 6 10 16 22 26 32 38 44 50 53 59 65 68 74 80 88 94 100 106 112 120 129 136 142 148 154 157 164 171 177 184 188 191 197 203 207 210 216 223 229 232 238 244 247 253 256 260 266 272 278 284 ">7-12-2019 13:00A5043AQF999 quantizer analysis (9070)</tspan></text>
<text xml:space="preserve" transform="translate(1.37552,208.44) rotate(-90,40.5,0)" font-family="FreeSans" font-weight="normal" font-style="normal" font-size="11"><tspan y="-2" fill="rgb(38,38,38)" x="0 7 10 16 22 25 31 34 37 43 49 55 61 64 66 71 77 ">Step of quantizer</tspan></text>
<text xml:space="preserve" transform="translate(271.08,413.481) rotate(-0,27,-13)" font-family="FreeSans" font-weight="normal" font-style="normal" font-size="11"><tspan y="-2" fill="rgb(38,38,38)" x="0 6 9 15 18 21 27 33 39 45 51 "># of packet</tspan></text>
<polyline fill="none" stroke="#0071bc" stroke-width="0.5" stroke-linecap="butt" stroke-linejoin="round" points="75.3264,340.235 75.7728,285.076 76.2192,261.604 76.6656,279.795 77.112,301.624 77.5584,272.401 78.0048,288.949 78.4512,258.435 78.8976,255.619 79.344,277.565 79.7904,286.132 80.2368,296.343 80.6832,336.949 81.1296,351.854 81.576,288.48 82.0224,221.584 82.4688,245.056 82.9152,276.391 83.3616,319.815 83.808,340.353 84.2544,348.216 84.7008,356.783 85.1472,362.651 85.5936,367.698 86.04,261.721 86.4864,259.374 86.9328,280.851 87.3792,295.638 87.8256,342.348 88.272,219.12 88.7184,215.012 89.1648,217.477 89.6112,252.567 90.0576,313.712 90.504,265.125 90.9504,252.567 91.3968,228.626 91.8432,216.773 92.2896,310.543 92.736,340.587 93.1824,339.766 93.6288,344.46 94.0752,319.697 94.5216,162.2 94.968,141.78 95.4144,144.009 95.8608,143.188 96.3072,310.074 96.7536,309.487 97.2,334.015 97.6464,343.287 98.0928,346.69 98.5392,351.502 98.9856,355.727 99.432,361.36 99.8784,317.937 100.325,251.863 100.771,263.834 101.218,281.321 101.664,231.56 102.11,293.643 102.557,282.142 103.003,269.35 103.45,193.77 103.896,281.203 104.342,343.052 104.789,351.267 105.235,349.155 105.682,355.257 106.128,360.773 106.574,258.553 107.021,240.127 107.467,249.516 107.914,264.186 108.36,275.922 108.806,335.071 109.253,346.807 109.699,349.037 110.146,361.595 110.592,350.328 111.038,350.446 111.485,234.142 111.931,248.695 112.378,233.086 112.824,227.335 113.27,249.633 113.717,269.467 114.163,215.247 114.61,259.726 115.056,241.888 115.502,190.367 115.949,162.2 116.395,116.43 116.842,128.635 117.288,318.758 117.734,317.82 118.181,322.866 118.627,334.485 119.074,226.044 119.52,154.689 119.966,145.418 120.413,168.772 120.859,232.147 121.306,293.761 121.752,322.514 122.198,331.199 122.645,329.321 123.091,342.23 123.538,341.761 123.984,342.817 124.43,343.169 124.877,255.384 125.323,260.196 125.77,281.438 126.216,275.687 126.662,275.1 127.109,288.48 127.555,215.482 128.002,228.274 128.448,249.516 128.894,298.338 129.341,327.912 129.787,335.306 130.234,347.864 130.68,355.727 131.126,303.971 131.573,275.1 132.019,295.638 132.466,290.944 132.912,298.22 133.358,332.02 133.805,343.991 134.251,349.155 134.698,358.309 135.144,363.473 135.59,366.524 136.037,364.059 136.483,365.35 136.93,272.988 137.376,230.973 137.822,251.276 138.269,270.054 138.715,272.401 139.162,298.338 139.608,306.67 140.054,333.78 140.501,326.856 140.947,278.621 141.394,258.201 141.84,229.213 142.286,309.37 142.733,360.421 143.179,346.69 143.626,247.99 144.072,159.736 144.518,175.931 144.965,188.254 145.411,214.66 145.858,351.032 146.304,331.433 146.75,285.898 147.197,299.042 147.643,304.323 148.09,335.189 148.536,356.548 148.982,364.059 149.429,255.032 149.875,237.78 150.322,238.132 150.768,222.758 151.214,196.704 151.661,327.208 152.107,301.976 152.554,297.868 153,314.299 153.446,317.702 153.893,333.311 154.339,362.299 154.786,364.411 155.232,306.318 155.678,262.191 156.125,294.23 156.571,271.697 157.018,261.721 157.464,289.301 157.91,304.323 158.357,287.189 158.803,275.335 159.25,307.374 159.696,285.78 160.142,272.871 160.589,278.973 161.035,332.372 161.482,353.38 161.928,217.594 162.374,256.792 162.821,291.296 163.267,315.355 163.714,325.917 164.16,349.741 164.606,254.328 165.053,245.291 165.499,258.201 165.946,265.829 166.392,334.602 166.838,339.179 167.285,352.793 167.731,323.335 168.178,187.667 168.624,217.125 169.07,238.954 169.517,208.792 169.963,192.01 170.41,274.631 170.856,302.563 171.302,327.56 171.749,320.636 172.195,337.888 172.642,337.771 173.088,334.954 173.534,349.976 173.981,358.191 174.427,358.426 174.874,357.018 175.32,356.196 175.766,358.074 176.213,362.064 176.659,364.646 177.106,365.937 177.552,366.876 177.998,366.876 178.445,368.636 178.891,371.218 179.338,369.81 179.784,370.045 180.23,326.152 180.677,315.355 181.123,77.701 181.57,81.8086 182.016,128.048 182.462,200.929 182.909,237.311 183.355,287.423 183.802,323.335 184.248,341.409 184.694,329.556 185.141,358.778 185.587,347.629 186.034,359.482 186.48,233.32 186.926,194.474 187.373,239.775 187.819,197.056 188.266,139.08 188.712,222.993 189.158,114.435 189.605,157.036 190.051,181.565 190.498,184.146 190.944,291.531 191.39,310.074 191.837,305.027 192.283,330.142 192.73,341.174 193.176,222.406 193.622,218.885 194.069,246.113 194.515,265.477 194.962,274.044 195.408,317.35 195.854,343.873 196.301,353.849 196.747,357.957 197.194,291.883 197.64,217.946 198.086,267.237 198.533,289.653 198.979,263.365 199.426,203.394 199.872,248.225 200.318,237.076 200.765,244.352 201.211,277.682 201.658,247.286 202.104,217.594 202.55,214.191 202.997,309.37 203.443,341.761 203.89,349.859 204.336,354.671 204.782,359.13 205.229,328.734 205.675,198.582 206.122,187.785 206.568,234.259 207.014,253.506 207.461,311.13 207.907,295.286 208.354,317.467 208.8,319.11 209.246,340.235 209.693,330.494 210.139,346.925 210.586,345.282 211.032,348.568 211.478,190.836 211.925,219.941 212.371,307.492 212.818,167.716 213.264,211.726 213.71,275.1 214.157,224.166 214.603,179.335 215.05,163.022 215.496,307.961 215.942,333.076 216.389,334.015 216.835,332.49 217.282,326.035 217.728,293.878 218.174,166.895 218.621,194.944 219.067,226.983 219.514,263.599 219.96,320.049 220.406,308.9 220.853,294.348 221.299,308.665 221.746,340.587 222.192,328.03 222.638,202.22 223.085,215.13 223.531,237.78 223.978,287.658 224.424,199.403 224.87,202.103 225.317,219.237 225.763,272.167 226.21,207.736 226.656,159.384 227.102,111.383 227.549,60.2144 227.995,217.477 228.442,319.11 228.888,328.617 229.334,347.042 229.781,338.358 230.227,174.992 230.674,122.063 231.12,78.7572 231.566,48.2436 232.013,218.885 232.459,267.942 232.906,304.323 233.352,333.194 233.798,331.903 234.245,350.68 234.691,339.062 235.138,350.094 235.584,351.502 236.03,332.724 236.477,128.048 236.923,164.43 237.37,229.447 237.816,236.137 238.262,229.213 238.709,308.313 239.155,169.829 239.602,140.958 240.048,76.1753 240.494,154.337 240.941,318.993 241.387,294.113 241.834,316.998 242.28,331.668 242.726,189.193 243.173,235.785 243.619,233.438 244.066,245.76 244.512,243.296 244.958,306.318 245.405,321.223 245.851,302.563 246.298,263.951 246.744,264.773 247.19,315.942 247.637,353.732 248.083,344.695 248.53,125.936 248.976,91.9016 249.422,188.371 249.869,256.44 250.315,268.763 250.762,290.709 251.208,313.829 251.654,255.267 252.101,132.156 252.547,141.78 252.994,155.041 253.44,289.771 253.886,338.005 254.333,337.771 254.779,276.391 255.226,167.599 255.672,213.721 256.118,177.926 256.565,136.616 257.011,115.021 257.458,305.497 257.904,303.267 258.35,208.792 258.797,254.445 259.243,268.88 259.69,306.084 260.136,339.648 260.582,337.653 261.029,196.704 261.475,41.7888 261.922,68.3122 262.368,94.7182 262.814,155.745 263.261,281.907 263.707,162.904 264.154,194.357 264.6,214.425 265.046,159.266 265.493,215.13 265.939,336.949 266.386,345.164 266.832,342.113 267.278,192.714 267.725,178.279 268.171,151.52 268.618,173.232 269.064,243.648 269.51,244.235 269.957,295.169 270.403,262.074 270.85,256.44 271.296,249.985 271.742,246.817 272.189,257.379 272.635,281.907 273.082,311.13 273.528,266.651 273.974,238.249 274.421,253.154 274.867,249.633 275.314,269.702 275.76,284.255 276.206,325.917 276.653,147.882 277.099,205.271 277.546,256.44 277.992,318.054 278.438,335.424 278.885,348.803 279.331,352.558 279.778,242.357 280.224,184.851 280.67,134.268 281.117,168.068 281.563,229.33 282.01,226.044 282.456,227.922 282.902,268.763 283.349,316.646 283.795,333.428 284.242,342.465 284.688,341.174 285.134,342.817 285.581,350.094 286.027,331.199 286.474,327.678 286.92,310.074 287.366,311.599 287.813,319.11 288.259,326.269 288.706,330.612 289.152,337.536 289.598,337.771 290.045,345.869 290.491,337.888 290.938,352.91 291.384,354.905 291.83,361.595 292.277,366.172 292.723,262.074 293.17,270.876 293.616,256.088 294.062,271.932 294.509,281.555 294.955,256.323 295.402,257.262 295.848,260.196 296.294,247.873 296.741,256.792 297.187,245.643 297.634,252.098 298.08,254.68 298.526,226.631 298.973,225.457 299.419,227.687 299.866,211.374 300.312,219.824 300.758,211.022 301.205,223.579 301.651,214.777 302.098,216.303 302.544,211.374 302.99,191.305 303.437,213.721 303.883,221.936 304.33,209.144 304.776,230.269 305.222,202.689 305.669,204.567 306.115,197.526 306.562,248.225 307.008,276.274 307.454,263.599 307.901,265.008 308.347,254.445 308.794,260.665 309.24,246.465 309.686,265.242 310.133,239.658 310.579,251.276 311.026,259.726 311.472,264.89 311.918,254.093 312.365,238.367 312.811,249.164 313.258,291.883 313.704,307.022 314.15,329.556 314.597,326.035 315.043,336.128 315.49,338.944 315.936,338.944 316.382,348.098 316.829,354.905 317.275,351.737 317.722,348.803 318.168,342.113 318.614,316.881 319.061,278.034 319.507,266.181 319.954,244.822 320.4,221.467 320.846,222.875 321.293,211.022 321.739,215.247 322.186,223.462 322.632,205.271 323.078,192.362 323.525,194.239 323.971,217.946 324.418,215.13 324.864,194.592 325.31,199.286 325.757,196 326.203,238.132 326.65,252.45 327.096,299.277 327.542,325.683 327.989,326.269 328.435,296.225 328.882,259.492 329.328,252.215 329.774,272.284 330.221,298.925 330.667,329.673 331.114,343.991 331.56,320.636 332.006,315.59 332.453,318.289 332.899,317.115 333.346,327.326 333.792,322.397 334.238,317.467 334.685,315.59 335.131,335.541 335.578,321.692 336.024,328.617 336.47,342.7 336.917,344.578 337.363,360.539 337.81,333.428 338.256,320.401 338.702,295.169 339.149,281.321 339.595,274.279 340.042,268.646 340.488,276.626 340.934,278.152 341.381,304.675 341.827,333.78 342.274,340.939 342.72,342.7 343.166,344.695 343.613,336.949 344.059,330.612 344.506,334.602 344.952,328.03 345.398,301.154 345.845,305.145 346.291,303.971 346.738,309.018 347.184,310.191 347.63,315.942 348.077,313.125 348.523,313.36 348.97,306.318 349.416,308.431 349.862,309.722 350.309,308.665 350.755,297.751 351.202,301.389 351.648,310.074 352.094,311.013 352.541,306.905 352.987,320.284 353.434,307.022 353.88,307.14 354.326,307.609 354.773,311.599 355.219,307.14 355.666,307.492 356.112,299.746 356.558,301.037 357.005,311.599 357.451,306.318 357.898,307.609 358.344,315.59 358.79,312.186 359.237,306.318 359.683,305.614 360.13,306.201 360.576,308.079 361.022,292.47 361.469,296.812 361.915,297.047 362.362,298.925 362.808,305.731 363.254,307.022 363.701,284.02 364.147,280.499 364.594,267.824 365.04,266.298 365.486,286.367 365.933,304.793 366.379,303.032 366.826,286.954 367.272,293.526 367.718,292.939 368.165,280.499 368.611,299.159 369.058,314.299 369.504,293.643 369.95,266.768 370.397,271.814 370.843,263.599 371.29,286.836 371.736,283.55 372.182,260.313 372.629,294.934 373.075,293.643 373.522,274.514 373.968,287.071 374.414,275.805 374.861,279.208 375.307,291.531 375.754,299.746 376.2,307.961 376.646,300.685 377.093,311.717 377.539,303.267 377.986,275.805 378.432,287.189 378.878,325.096 379.325,333.78 379.771,326.739 380.218,322.162 380.664,340.235 381.11,334.133 381.557,342.465 382.003,340.47 382.45,332.724 382.896,291.061 383.342,299.746 383.789,294.7 384.235,279.56 384.682,293.995 385.128,259.726 385.574,270.171 386.021,302.211 386.467,308.196 386.914,319.58 387.36,284.489 387.806,259.726 388.253,270.993 388.699,315.824 389.146,316.881 389.592,280.616 390.038,271.462 390.485,277.213 390.931,313.595 391.378,329.203 391.824,348.803 392.27,337.536 392.717,314.886 393.163,308.665 393.61,316.294 394.056,316.411 394.502,323.805 394.949,321.927 395.395,308.783 395.842,287.071 396.288,267.707 396.734,256.558 397.181,282.729 397.627,303.854 398.074,318.289 398.52,331.316 398.966,298.103 399.413,293.526 399.859,300.216 400.306,318.993 400.752,291.296 401.198,311.365 401.645,330.729 402.091,303.267 402.538,294.817 402.984,280.616 403.43,288.714 403.877,287.893 404.323,321.34 404.77,313.477 405.216,301.859 405.662,312.421 406.109,331.199 406.555,326.739 407.002,339.062 407.448,346.573 407.894,287.071 408.341,288.245 408.787,292.118 409.234,289.536 409.68,317.35 410.126,347.864 410.573,361.36 411.019,366.993 411.466,370.397 411.912,372.627 412.358,375.326 412.805,375.913 413.251,375.678 413.698,372.509 414.144,358.309 414.59,325.096 415.037,310.074 415.483,314.181 415.93,312.656 416.376,316.294 416.822,320.871 417.269,342.465 417.715,359.482 418.162,362.299 418.608,365.468 419.054,369.223 419.501,372.979 419.947,374.035 420.394,375.678 420.84,330.142 421.286,288.127 421.733,281.321 422.179,266.768 422.626,297.164 423.072,308.783 423.518,322.749 423.965,317.585 424.411,343.287 424.858,357.018 425.304,359.365 425.75,361.595 426.197,362.534 426.643,365.35 427.09,305.966 427.536,183.208 427.982,136.733 428.429,136.616 428.875,174.758 429.322,257.262 429.768,316.881 430.214,324.626 430.661,335.658 431.107,349.859 431.554,340.235 432,326.974 432.446,295.052 432.893,290.357 433.339,305.614 433.786,287.071 434.232,265.594 434.678,263.012 435.125,249.399 435.571,223.227 436.018,201.281 436.464,195.882 436.91,160.674 437.357,182.151 437.803,163.374 438.25,190.014 438.696,170.298 439.142,174.406 439.589,166.66 440.035,191.423 440.482,205.389 440.928,225.809 441.374,201.046 441.821,279.325 442.267,308.196 442.714,322.631 443.16,314.299 443.606,251.746 444.053,199.169 444.499,164.547 444.946,178.748 445.392,318.406 445.838,338.005 446.285,332.959 446.731,326.504 447.178,326.622 447.624,271.814 448.07,259.257 448.517,237.076 448.963,179.687 449.41,246.582 449.856,217.594 450.302,311.717 450.749,352.91 451.195,348.451 451.642,354.553 452.088,356.666 452.534,354.084 452.981,333.78 453.427,299.394 453.874,203.041 454.32,147.648 454.766,172.997 455.213,160.792 455.659,243.765 456.106,320.284 456.552,328.147 456.998,331.785 457.445,343.169 457.891,349.859 458.338,350.094 458.784,357.018 459.23,296.929 459.677,277.565 460.123,265.125 460.57,269.115 461.016,269.467 461.462,270.523 461.909,275.335 462.355,279.678 462.802,285.78 463.248,325.213 463.694,338.24 464.141,347.277 464.587,356.666 465.034,354.201 465.48,352.323 465.926,316.176 466.373,251.511 466.819,251.042 467.266,224.636 467.712,236.841 468.158,243.531 468.605,302.211 469.051,340.353 469.498,336.832 469.944,337.419 470.39,344.93 470.837,343.521 471.283,352.91 471.73,354.084 472.176,318.641 472.622,255.149 473.069,229.8 473.515,215.834 473.962,222.288 474.408,141.075 474.854,147.882 475.301,127.579 475.747,174.875 476.194,214.543 476.64,205.389 477.086,198.699 477.533,178.748 477.979,186.963 478.426,208.088 478.872,208.44 479.318,192.479 479.765,213.017 480.211,241.418 480.658,260.9 481.104,265.477 481.55,247.99 481.997,221.936 482.443,212.782 482.89,287.189 483.336,316.411 483.782,326.269 484.229,333.076 484.675,307.14 485.122,299.394 485.568,280.969 486.014,271.11 486.461,265.594 486.907,253.154 487.354,217.477 487.8,216.773 488.246,231.208 488.693,207.032 489.139,188.841 489.586,157.388 490.032,167.599 490.478,184.381 490.925,190.367 491.371,188.254 491.818,192.714 492.264,209.144 492.71,182.856 493.157,211.022 493.603,204.215 494.05,210.318 494.496,174.171 494.942,212.548 495.389,173.232 495.835,144.361 496.282,181.917 496.728,204.332 497.174,170.533 497.621,167.012 498.067,169.946 498.514,131.335 498.96,110.092 499.406,159.266 499.853,182.621 500.299,132.743 500.746,128.283 501.192,200.577 501.638,218.768 502.085,174.992 502.531,152.811 502.978,176.401 503.424,179.335 503.87,220.528 504.317,201.164 504.763,180.743 505.21,149.291 505.656,124.058 506.102,201.281 506.549,201.75 506.995,187.433 507.442,170.181 507.888,210.083 508.334,221.232 508.781,183.794 509.227,206.21 509.674,229.565 510.12,197.995 510.566,211.257 511.013,276.509 511.459,326.504 511.906,325.565 512.352,332.02 512.798,340.939 513.245,318.054 513.691,318.406 514.138,320.871 514.584,327.678 515.03,348.216 515.477,290.123 515.923,314.886 516.37,307.727 516.816,314.533 517.262,303.854 517.709,293.878 518.155,314.299 518.602,308.665 519.048,310.074 519.494,289.771 519.941,277.213 520.387,264.069 520.834,270.641"/>
</g>
</g>
</svg>
