<?xml version="1.0" encoding="UTF-8" standalone="no"?>
<svg xmlns="http://www.w3.org/2000/svg"
     xmlns:xlink="http://www.w3.org/1999/xlink"
     width="576pt" height="432pt" viewBox="0 0 576 432">
<title>gl2ps_renderer figure</title>
<desc>
Creator: GL2PS 1.4.0, (C) 1999-2017 C. Geuzaine
For: Octave
CreationDate: Tue Dec 10 15:46:39 2019
</desc>
<defs>
</defs>
<polygon fill="#ffffff" points="0,0 576,0 576,432 0,432"/>
<g>
<polygon fill="#ffffff" points="0,432 576,432 576,0 0,0" shape-rendering="crispEdges"/>
<clipPath id="cp00576432">
  <polygon points="0,432 576,432 576,0 0,0"/>
</clipPath>
<g clip-path="url(#cp00576432)">
<polygon fill="#ffffff" shape-rendering="crispEdges" points="74.88,384.48 521.28,384.48 74.88,32.4"/>
<polygon fill="#ffffff" shape-rendering="crispEdges" points="521.28,384.48 521.28,32.4 74.88,32.4"/>
<polyline fill="none" stroke="#262626" stroke-width="0.5" stroke-linecap="butt" stroke-linejoin="miter" stroke-opacity="0.15" stroke-dasharray="16,0" points="74.88,384.48 74.88,32.4"/>
<polyline fill="none" stroke="#262626" stroke-width="0.5" stroke-linecap="butt" stroke-linejoin="miter" stroke-opacity="0.15" stroke-dasharray="16,0" points="164.16,384.48 164.16,32.4"/>
<polyline fill="none" stroke="#262626" stroke-width="0.5" stroke-linecap="butt" stroke-linejoin="miter" stroke-opacity="0.15" stroke-dasharray="16,0" points="253.44,384.48 253.44,32.4"/>
<polyline fill="none" stroke="#262626" stroke-width="0.5" stroke-linecap="butt" stroke-linejoin="miter" stroke-opacity="0.15" stroke-dasharray="16,0" points="342.72,384.48 342.72,32.4"/>
<polyline fill="none" stroke="#262626" stroke-width="0.5" stroke-linecap="butt" stroke-linejoin="miter" stroke-opacity="0.15" stroke-dasharray="16,0" points="432,384.48 432,32.4"/>
<polyline fill="none" stroke="#262626" stroke-width="0.5" stroke-linecap="butt" stroke-linejoin="miter" stroke-opacity="0.15" stroke-dasharray="16,0" points="521.28,384.48 521.28,32.4"/>
<polyline fill="none" stroke="#262626" stroke-width="0.5" stroke-linecap="butt" stroke-linejoin="miter" points="74.88,384.48 74.88,380.015"/>
<polyline fill="none" stroke="#262626" stroke-width="0.5" stroke-linecap="butt" stroke-linejoin="miter" points="74.88,32.4 74.88,36.865"/>
<polyline fill="none" stroke="#262626" stroke-width="0.5" stroke-linecap="butt" stroke-linejoin="miter" points="164.16,384.48 164.16,380.015"/>
<polyline fill="none" stroke="#262626" stroke-width="0.5" stroke-linecap="butt" stroke-linejoin="miter" points="164.16,32.4 164.16,36.865"/>
<polyline fill="none" stroke="#262626" stroke-width="0.5" stroke-linecap="butt" stroke-linejoin="miter" points="253.44,384.48 253.44,380.015"/>
<polyline fill="none" stroke="#262626" stroke-width="0.5" stroke-linecap="butt" stroke-linejoin="miter" points="253.44,32.4 253.44,36.865"/>
<polyline fill="none" stroke="#262626" stroke-width="0.5" stroke-linecap="butt" stroke-linejoin="miter" points="342.72,384.48 342.72,380.015"/>
<polyline fill="none" stroke="#262626" stroke-width="0.5" stroke-linecap="butt" stroke-linejoin="miter" points="342.72,32.4 342.72,36.865"/>
<polyline fill="none" stroke="#262626" stroke-width="0.5" stroke-linecap="butt" stroke-linejoin="miter" points="432,384.48 432,380.015"/>
<polyline fill="none" stroke="#262626" stroke-width="0.5" stroke-linecap="butt" stroke-linejoin="miter" points="432,32.4 432,36.865"/>
<polyline fill="none" stroke="#262626" stroke-width="0.5" stroke-linecap="butt" stroke-linejoin="miter" points="521.28,384.48 521.28,380.015"/>
<polyline fill="none" stroke="#262626" stroke-width="0.5" stroke-linecap="butt" stroke-linejoin="miter" points="521.28,32.4 521.28,36.865"/>
<text xml:space="preserve" transform="translate(71.88,400.481) rotate(-0,3,-11)" font-family="FreeSans" font-weight="normal" font-style="normal" font-size="10"><tspan y="-1" fill="rgb(38,38,38)" x="0 ">0</tspan></text>
<text xml:space="preserve" transform="translate(158.16,400.481) rotate(-0,6,-11)" font-family="FreeSans" font-weight="normal" font-style="normal" font-size="10"><tspan y="-1" fill="rgb(38,38,38)" x="0 6 ">50</tspan></text>
<text xml:space="preserve" transform="translate(244.44,400.481) rotate(-0,9,-11)" font-family="FreeSans" font-weight="normal" font-style="normal" font-size="10"><tspan y="-1" fill="rgb(38,38,38)" x="0 6 12 ">100</tspan></text>
<text xml:space="preserve" transform="translate(333.72,400.481) rotate(-0,9,-11)" font-family="FreeSans" font-weight="normal" font-style="normal" font-size="10"><tspan y="-1" fill="rgb(38,38,38)" x="0 6 12 ">150</tspan></text>
<text xml:space="preserve" transform="translate(423,400.481) rotate(-0,9,-11)" font-family="FreeSans" font-weight="normal" font-style="normal" font-size="10"><tspan y="-1" fill="rgb(38,38,38)" x="0 6 12 ">200</tspan></text>
<text xml:space="preserve" transform="translate(512.28,400.481) rotate(-0,9,-11)" font-family="FreeSans" font-weight="normal" font-style="normal" font-size="10"><tspan y="-1" fill="rgb(38,38,38)" x="0 6 12 ">250</tspan></text>
<polyline fill="none" stroke="#262626" stroke-width="0.5" stroke-linecap="butt" stroke-linejoin="miter" stroke-opacity="0.15" stroke-dasharray="16,0" points="74.88,384.48 521.28,384.48"/>
<polyline fill="none" stroke="#262626" stroke-width="0.5" stroke-linecap="butt" stroke-linejoin="miter" stroke-opacity="0.15" stroke-dasharray="16,0" points="74.88,314.064 521.28,314.064"/>
<polyline fill="none" stroke="#262626" stroke-width="0.5" stroke-linecap="butt" stroke-linejoin="miter" stroke-opacity="0.15" stroke-dasharray="16,0" points="74.88,243.648 521.28,243.648"/>
<polyline fill="none" stroke="#262626" stroke-width="0.5" stroke-linecap="butt" stroke-linejoin="miter" stroke-opacity="0.15" stroke-dasharray="16,0" points="74.88,173.232 521.28,173.232"/>
<polyline fill="none" stroke="#262626" stroke-width="0.5" stroke-linecap="butt" stroke-linejoin="miter" stroke-opacity="0.15" stroke-dasharray="16,0" points="74.88,102.816 521.28,102.816"/>
<polyline fill="none" stroke="#262626" stroke-width="0.5" stroke-linecap="butt" stroke-linejoin="miter" stroke-opacity="0.15" stroke-dasharray="16,0" points="74.88,32.4 521.28,32.4"/>
<polyline fill="none" stroke="#262626" stroke-width="0.5" stroke-linecap="butt" stroke-linejoin="miter" points="74.88,384.48 79.348,384.48"/>
<polyline fill="none" stroke="#262626" stroke-width="0.5" stroke-linecap="butt" stroke-linejoin="miter" points="521.28,384.48 516.812,384.48"/>
<polyline fill="none" stroke="#262626" stroke-width="0.5" stroke-linecap="butt" stroke-linejoin="miter" points="74.88,314.064 79.348,314.064"/>
<polyline fill="none" stroke="#262626" stroke-width="0.5" stroke-linecap="butt" stroke-linejoin="miter" points="521.28,314.064 516.812,314.064"/>
<polyline fill="none" stroke="#262626" stroke-width="0.5" stroke-linecap="butt" stroke-linejoin="miter" points="74.88,243.648 79.348,243.648"/>
<polyline fill="none" stroke="#262626" stroke-width="0.5" stroke-linecap="butt" stroke-linejoin="miter" points="521.28,243.648 516.812,243.648"/>
<polyline fill="none" stroke="#262626" stroke-width="0.5" stroke-linecap="butt" stroke-linejoin="miter" points="74.88,173.232 79.348,173.232"/>
<polyline fill="none" stroke="#262626" stroke-width="0.5" stroke-linecap="butt" stroke-linejoin="miter" points="521.28,173.232 516.812,173.232"/>
<polyline fill="none" stroke="#262626" stroke-width="0.5" stroke-linecap="butt" stroke-linejoin="miter" points="74.88,102.816 79.348,102.816"/>
<polyline fill="none" stroke="#262626" stroke-width="0.5" stroke-linecap="butt" stroke-linejoin="miter" points="521.28,102.816 516.812,102.816"/>
<polyline fill="none" stroke="#262626" stroke-width="0.5" stroke-linecap="butt" stroke-linejoin="miter" points="74.88,32.4 79.348,32.4"/>
<polyline fill="none" stroke="#262626" stroke-width="0.5" stroke-linecap="butt" stroke-linejoin="miter" points="521.28,32.4 516.812,32.4"/>
<text xml:space="preserve" transform="translate(57.8755,389.98) rotate(-0,12,-5.5)" font-family="FreeSans" font-weight="normal" font-style="normal" font-size="10"><tspan y="-1" fill="rgb(38,38,38)" x="0 6 ">20</tspan></text>
<text xml:space="preserve" transform="translate(57.8755,319.564) rotate(-0,12,-5.5)" font-family="FreeSans" font-weight="normal" font-style="normal" font-size="10"><tspan y="-1" fill="rgb(38,38,38)" x="0 6 ">40</tspan></text>
<text xml:space="preserve" transform="translate(57.8755,249.148) rotate(-0,12,-5.5)" font-family="FreeSans" font-weight="normal" font-style="normal" font-size="10"><tspan y="-1" fill="rgb(38,38,38)" x="0 6 ">60</tspan></text>
<text xml:space="preserve" transform="translate(57.8755,178.732) rotate(-0,12,-5.5)" font-family="FreeSans" font-weight="normal" font-style="normal" font-size="10"><tspan y="-1" fill="rgb(38,38,38)" x="0 6 ">80</tspan></text>
<text xml:space="preserve" transform="translate(51.8755,108.316) rotate(-0,18,-5.5)" font-family="FreeSans" font-weight="normal" font-style="normal" font-size="10"><tspan y="-1" fill="rgb(38,38,38)" x="0 6 12 ">100</tspan></text>
<text xml:space="preserve" transform="translate(51.8755,37.9) rotate(-0,18,-5.5)" font-family="FreeSans" font-weight="normal" font-style="normal" font-size="10"><tspan y="-1" fill="rgb(38,38,38)" x="0 6 12 ">120</tspan></text>
<polyline fill="none" stroke="#262626" stroke-width="0.5" stroke-linecap="square" stroke-linejoin="miter" stroke-dasharray="16,0" points="74.88,384.48 521.28,384.48"/>
<polyline fill="none" stroke="#262626" stroke-width="0.5" stroke-linecap="square" stroke-linejoin="miter" stroke-dasharray="16,0" points="74.88,32.4 521.28,32.4"/>
<polyline fill="none" stroke="#262626" stroke-width="0.5" stroke-linecap="square" stroke-linejoin="miter" stroke-dasharray="16,0" points="74.88,384.48 74.88,32.4"/>
<polyline fill="none" stroke="#262626" stroke-width="0.5" stroke-linecap="square" stroke-linejoin="miter" stroke-dasharray="16,0" points="521.28,384.48 521.28,32.4"/>
<text xml:space="preserve" transform="translate(281.08,413.481) rotate(-0,17,-13)" font-family="FreeSans" font-weight="normal" font-style="normal" font-size="11"><tspan y="-2" fill="rgb(38,38,38)" x="0 7 13 19 25 31 ">Packet</tspan></text>
<text xml:space="preserve" transform="translate(20.3755,208.44) rotate(-90,27.5,0)" font-family="FreeSans" font-weight="normal" font-style="normal" font-size="11"><tspan y="-2" fill="rgb(38,38,38)" x="0 8 14 16 22 27 30 32 38 41 50 ">Delay in ms</tspan></text>
<text xml:space="preserve" transform="translate(148.08,22.4) rotate(-0,150,0)" font-family="FreeSans" font-weight="bold" font-style="normal" font-size="11"><tspan y="-2" fill="rgb(0,0,0)" x="0 6 10 16 22 26 32 38 44 50 53 59 65 68 74 80 83 90 96 102 108 114 117 125 131 137 144 151 158 164 170 173 177 180 190 196 199 205 211 218 225 228 231 238 244 248 254 261 265 268 272 278 284 290 296 ">7-12-2019 13:00 E0000 Response time echo instant (9070)</tspan></text>
<polyline fill="none" stroke="#0071bc" stroke-width="0.5" stroke-linecap="butt" stroke-linejoin="round" points="76.6656,373.55 78.4512,274.889 80.2368,149.249 82.0224,359.323 83.808,150.19 85.5936,359.72 87.3792,368.52 89.1648,366.078 90.9504,354.027 92.736,236.164 94.5216,305.182 96.3072,283.391 98.0928,265.473 99.8784,163.272 101.664,191.386 103.45,361.276 105.235,375.158 107.021,368.041 108.806,362.017 110.592,338.888 112.378,167.814 114.163,364.106 115.949,375.232 117.734,355.575 119.52,370.383 121.306,370.169 123.091,349.462 124.877,369.381 126.662,372.358 128.448,362.151 130.234,295.546 132.019,163.523 133.805,368.296 135.59,371.583 137.376,363.296 139.162,368.976 140.947,370.625 142.733,366.324 144.518,370.485 146.304,307.03 148.09,326.564 149.875,362.376 151.661,362.528 153.446,317.032 155.232,364.864 157.018,367.255 158.803,371.235 160.589,353.235 162.374,319.092 164.16,353.841 165.946,248.845 167.731,372.848 169.517,368.789 171.302,342.018 173.088,348.839 174.874,363.613 176.659,365.544 178.445,360.293 180.23,276.116 182.016,174.791 183.802,369.903 185.587,363.705 187.373,370.284 189.158,348.489 190.944,371.742 192.73,367.517 194.515,171.966 196.301,353.271 198.086,294.655 199.872,216.573 201.658,374.325 203.443,371.085 205.229,363.907 207.014,369.605 208.8,372.792 210.586,364.371 212.371,367.648 214.157,354.785 215.942,364.992 217.728,265.442 219.514,297.513 221.299,366.719 223.085,368.513 224.87,372.431 226.656,369.842 228.442,319.243 230.227,366.184 232.013,367.524 233.798,257.483 235.584,175.775 237.37,373.379 239.155,371.994 240.941,346.42 242.726,365.89 244.512,327.753 246.298,367.285 248.083,361.507 249.869,372.354 251.654,290.814 253.44,179.613 255.226,375.268 257.011,364.464 258.797,345.174 260.582,358.6 262.368,357.075 264.154,340.675 265.939,342.918 267.725,228.168 269.51,368.737 271.296,372.88 273.082,365.469 274.867,371.479 276.653,369.634 278.438,365.196 280.224,361.976 282.01,356.8 283.795,370.081 285.581,368.682 287.366,171.818 289.152,352.876 290.938,354.711 292.723,273.976 294.509,362.933 296.294,368.485 298.08,364.838 299.866,364.512 301.651,373.99 303.437,362.928 305.222,247.031 307.008,346.74 308.794,358.878 310.579,370.408 312.365,364.268 314.15,361.545 315.936,301.381 317.722,359.266 319.507,332.493 321.293,370.676 323.078,205.319 324.864,331.07 326.65,368.773 328.435,359.901 330.221,364.226 332.006,355.281 333.792,348.41 335.578,369.882 337.363,367.726 339.149,365.874 340.934,332.086 342.72,144.708 344.506,367.525 346.291,346.933 348.077,374.307 349.862,370.624 351.648,343.995 353.434,364.433 355.219,367.351 357.005,273.933 358.79,153.077 360.576,371.933 362.362,350.329 364.147,372.982 365.933,353.822 367.718,318.971 369.504,366.724 371.29,349.662 373.075,366.66 374.861,374.422 376.646,167.251 378.432,369.332 380.218,294.997 382.003,301.287 383.789,345.035 385.574,346.185 387.36,283.397 389.146,366.356 390.931,311.197 392.717,228.3 394.502,373.415 396.288,202.039 398.074,373.299 399.859,339.783 401.645,334.144 403.43,339.083 405.216,364.021 407.002,366.997 408.787,371.701 410.573,333.693 412.358,341.449 414.144,162.969 415.93,352.29 417.715,367.812 419.501,354.539 421.286,352.071 423.072,326.708 424.858,203.265 426.643,360.867 428.429,361.31 430.214,368.702 432,302.454 433.786,361.404 435.571,367.757 437.357,343.026 439.142,366.564 440.928,362.421 442.714,122.423 444.499,371.991 446.285,367.061 448.07,366.778 449.856,324.993 451.642,366.787 453.427,350.423 455.213,364.874 456.998,99.7025 458.784,369.165 460.57,319.703 462.355,364.857 464.141,358.578 465.926,359.23 467.712,341.528 469.498,321.117 471.283,342.227 473.069,315.886 474.854,346.595 476.64,162.196 478.426,360.051 480.211,340.197 481.997,370.766 483.782,351.886 485.568,350.734 487.354,358.744 489.139,370.649"/>
</g>
</g>
</svg>
