<?xml version="1.0" encoding="UTF-8" standalone="no"?>
<svg xmlns="http://www.w3.org/2000/svg"
     xmlns:xlink="http://www.w3.org/1999/xlink"
     width="576pt" height="432pt" viewBox="0 0 576 432">
<title>gl2ps_renderer figure</title>
<desc>
Creator: GL2PS 1.4.0, (C) 1999-2017 C. Geuzaine
For: Octave
CreationDate: Tue Dec 10 15:46:45 2019
</desc>
<defs>
</defs>
<polygon fill="#ffffff" points="0,0 576,0 576,432 0,432"/>
<g>
<polygon fill="#ffffff" points="0,432 576,432 576,0 0,0" shape-rendering="crispEdges"/>
<clipPath id="cp00576432">
  <polygon points="0,432 576,432 576,0 0,0"/>
</clipPath>
<g clip-path="url(#cp00576432)">
<polygon fill="#ffffff" shape-rendering="crispEdges" points="74.88,384.48 521.28,384.48 74.88,32.4"/>
<polygon fill="#ffffff" shape-rendering="crispEdges" points="521.28,384.48 521.28,32.4 74.88,32.4"/>
<polyline fill="none" stroke="#262626" stroke-width="0.5" stroke-linecap="butt" stroke-linejoin="miter" stroke-opacity="0.15" stroke-dasharray="16,0" points="74.88,384.48 74.88,32.4"/>
<polyline fill="none" stroke="#262626" stroke-width="0.5" stroke-linecap="butt" stroke-linejoin="miter" stroke-opacity="0.15" stroke-dasharray="16,0" points="164.16,384.48 164.16,32.4"/>
<polyline fill="none" stroke="#262626" stroke-width="0.5" stroke-linecap="butt" stroke-linejoin="miter" stroke-opacity="0.15" stroke-dasharray="16,0" points="253.44,384.48 253.44,32.4"/>
<polyline fill="none" stroke="#262626" stroke-width="0.5" stroke-linecap="butt" stroke-linejoin="miter" stroke-opacity="0.15" stroke-dasharray="16,0" points="342.72,384.48 342.72,32.4"/>
<polyline fill="none" stroke="#262626" stroke-width="0.5" stroke-linecap="butt" stroke-linejoin="miter" stroke-opacity="0.15" stroke-dasharray="16,0" points="432,384.48 432,32.4"/>
<polyline fill="none" stroke="#262626" stroke-width="0.5" stroke-linecap="butt" stroke-linejoin="miter" stroke-opacity="0.15" stroke-dasharray="16,0" points="521.28,384.48 521.28,32.4"/>
<polyline fill="none" stroke="#262626" stroke-width="0.5" stroke-linecap="butt" stroke-linejoin="miter" points="74.88,384.48 74.88,380.015"/>
<polyline fill="none" stroke="#262626" stroke-width="0.5" stroke-linecap="butt" stroke-linejoin="miter" points="74.88,32.4 74.88,36.865"/>
<polyline fill="none" stroke="#262626" stroke-width="0.5" stroke-linecap="butt" stroke-linejoin="miter" points="164.16,384.48 164.16,380.015"/>
<polyline fill="none" stroke="#262626" stroke-width="0.5" stroke-linecap="butt" stroke-linejoin="miter" points="164.16,32.4 164.16,36.865"/>
<polyline fill="none" stroke="#262626" stroke-width="0.5" stroke-linecap="butt" stroke-linejoin="miter" points="253.44,384.48 253.44,380.015"/>
<polyline fill="none" stroke="#262626" stroke-width="0.5" stroke-linecap="butt" stroke-linejoin="miter" points="253.44,32.4 253.44,36.865"/>
<polyline fill="none" stroke="#262626" stroke-width="0.5" stroke-linecap="butt" stroke-linejoin="miter" points="342.72,384.48 342.72,380.015"/>
<polyline fill="none" stroke="#262626" stroke-width="0.5" stroke-linecap="butt" stroke-linejoin="miter" points="342.72,32.4 342.72,36.865"/>
<polyline fill="none" stroke="#262626" stroke-width="0.5" stroke-linecap="butt" stroke-linejoin="miter" points="432,384.48 432,380.015"/>
<polyline fill="none" stroke="#262626" stroke-width="0.5" stroke-linecap="butt" stroke-linejoin="miter" points="432,32.4 432,36.865"/>
<polyline fill="none" stroke="#262626" stroke-width="0.5" stroke-linecap="butt" stroke-linejoin="miter" points="521.28,384.48 521.28,380.015"/>
<polyline fill="none" stroke="#262626" stroke-width="0.5" stroke-linecap="butt" stroke-linejoin="miter" points="521.28,32.4 521.28,36.865"/>
<text xml:space="preserve" transform="translate(71.88,400.481) rotate(-0,3,-11)" font-family="FreeSans" font-weight="normal" font-style="normal" font-size="10"><tspan y="-1" fill="rgb(38,38,38)" x="0 ">0</tspan></text>
<text xml:space="preserve" transform="translate(158.16,400.481) rotate(-0,6,-11)" font-family="FreeSans" font-weight="normal" font-style="normal" font-size="10"><tspan y="-1" fill="rgb(38,38,38)" x="0 6 ">50</tspan></text>
<text xml:space="preserve" transform="translate(244.44,400.481) rotate(-0,9,-11)" font-family="FreeSans" font-weight="normal" font-style="normal" font-size="10"><tspan y="-1" fill="rgb(38,38,38)" x="0 6 12 ">100</tspan></text>
<text xml:space="preserve" transform="translate(333.72,400.481) rotate(-0,9,-11)" font-family="FreeSans" font-weight="normal" font-style="normal" font-size="10"><tspan y="-1" fill="rgb(38,38,38)" x="0 6 12 ">150</tspan></text>
<text xml:space="preserve" transform="translate(423,400.481) rotate(-0,9,-11)" font-family="FreeSans" font-weight="normal" font-style="normal" font-size="10"><tspan y="-1" fill="rgb(38,38,38)" x="0 6 12 ">200</tspan></text>
<text xml:space="preserve" transform="translate(512.28,400.481) rotate(-0,9,-11)" font-family="FreeSans" font-weight="normal" font-style="normal" font-size="10"><tspan y="-1" fill="rgb(38,38,38)" x="0 6 12 ">250</tspan></text>
<polyline fill="none" stroke="#262626" stroke-width="0.5" stroke-linecap="butt" stroke-linejoin="miter" stroke-opacity="0.15" stroke-dasharray="16,0" points="74.88,384.48 521.28,384.48"/>
<polyline fill="none" stroke="#262626" stroke-width="0.5" stroke-linecap="butt" stroke-linejoin="miter" stroke-opacity="0.15" stroke-dasharray="16,0" points="74.88,314.064 521.28,314.064"/>
<polyline fill="none" stroke="#262626" stroke-width="0.5" stroke-linecap="butt" stroke-linejoin="miter" stroke-opacity="0.15" stroke-dasharray="16,0" points="74.88,243.648 521.28,243.648"/>
<polyline fill="none" stroke="#262626" stroke-width="0.5" stroke-linecap="butt" stroke-linejoin="miter" stroke-opacity="0.15" stroke-dasharray="16,0" points="74.88,173.232 521.28,173.232"/>
<polyline fill="none" stroke="#262626" stroke-width="0.5" stroke-linecap="butt" stroke-linejoin="miter" stroke-opacity="0.15" stroke-dasharray="16,0" points="74.88,102.816 521.28,102.816"/>
<polyline fill="none" stroke="#262626" stroke-width="0.5" stroke-linecap="butt" stroke-linejoin="miter" stroke-opacity="0.15" stroke-dasharray="16,0" points="74.88,32.4 521.28,32.4"/>
<polyline fill="none" stroke="#262626" stroke-width="0.5" stroke-linecap="butt" stroke-linejoin="miter" points="74.88,384.48 79.348,384.48"/>
<polyline fill="none" stroke="#262626" stroke-width="0.5" stroke-linecap="butt" stroke-linejoin="miter" points="521.28,384.48 516.812,384.48"/>
<polyline fill="none" stroke="#262626" stroke-width="0.5" stroke-linecap="butt" stroke-linejoin="miter" points="74.88,314.064 79.348,314.064"/>
<polyline fill="none" stroke="#262626" stroke-width="0.5" stroke-linecap="butt" stroke-linejoin="miter" points="521.28,314.064 516.812,314.064"/>
<polyline fill="none" stroke="#262626" stroke-width="0.5" stroke-linecap="butt" stroke-linejoin="miter" points="74.88,243.648 79.348,243.648"/>
<polyline fill="none" stroke="#262626" stroke-width="0.5" stroke-linecap="butt" stroke-linejoin="miter" points="521.28,243.648 516.812,243.648"/>
<polyline fill="none" stroke="#262626" stroke-width="0.5" stroke-linecap="butt" stroke-linejoin="miter" points="74.88,173.232 79.348,173.232"/>
<polyline fill="none" stroke="#262626" stroke-width="0.5" stroke-linecap="butt" stroke-linejoin="miter" points="521.28,173.232 516.812,173.232"/>
<polyline fill="none" stroke="#262626" stroke-width="0.5" stroke-linecap="butt" stroke-linejoin="miter" points="74.88,102.816 79.348,102.816"/>
<polyline fill="none" stroke="#262626" stroke-width="0.5" stroke-linecap="butt" stroke-linejoin="miter" points="521.28,102.816 516.812,102.816"/>
<polyline fill="none" stroke="#262626" stroke-width="0.5" stroke-linecap="butt" stroke-linejoin="miter" points="74.88,32.4 79.348,32.4"/>
<polyline fill="none" stroke="#262626" stroke-width="0.5" stroke-linecap="butt" stroke-linejoin="miter" points="521.28,32.4 516.812,32.4"/>
<text xml:space="preserve" transform="translate(63.8755,389.98) rotate(-0,6,-5.5)" font-family="FreeSans" font-weight="normal" font-style="normal" font-size="10"><tspan y="-1" fill="rgb(38,38,38)" x="0 ">0</tspan></text>
<text xml:space="preserve" transform="translate(51.8755,319.564) rotate(-0,18,-5.5)" font-family="FreeSans" font-weight="normal" font-style="normal" font-size="10"><tspan y="-1" fill="rgb(38,38,38)" x="0 6 12 ">100</tspan></text>
<text xml:space="preserve" transform="translate(51.8755,249.148) rotate(-0,18,-5.5)" font-family="FreeSans" font-weight="normal" font-style="normal" font-size="10"><tspan y="-1" fill="rgb(38,38,38)" x="0 6 12 ">200</tspan></text>
<text xml:space="preserve" transform="translate(51.8755,178.732) rotate(-0,18,-5.5)" font-family="FreeSans" font-weight="normal" font-style="normal" font-size="10"><tspan y="-1" fill="rgb(38,38,38)" x="0 6 12 ">300</tspan></text>
<text xml:space="preserve" transform="translate(51.8755,108.316) rotate(-0,18,-5.5)" font-family="FreeSans" font-weight="normal" font-style="normal" font-size="10"><tspan y="-1" fill="rgb(38,38,38)" x="0 6 12 ">400</tspan></text>
<text xml:space="preserve" transform="translate(51.8755,37.9) rotate(-0,18,-5.5)" font-family="FreeSans" font-weight="normal" font-style="normal" font-size="10"><tspan y="-1" fill="rgb(38,38,38)" x="0 6 12 ">500</tspan></text>
<polyline fill="none" stroke="#262626" stroke-width="0.5" stroke-linecap="square" stroke-linejoin="miter" stroke-dasharray="16,0" points="74.88,384.48 521.28,384.48"/>
<polyline fill="none" stroke="#262626" stroke-width="0.5" stroke-linecap="square" stroke-linejoin="miter" stroke-dasharray="16,0" points="74.88,32.4 521.28,32.4"/>
<polyline fill="none" stroke="#262626" stroke-width="0.5" stroke-linecap="square" stroke-linejoin="miter" stroke-dasharray="16,0" points="74.88,384.48 74.88,32.4"/>
<polyline fill="none" stroke="#262626" stroke-width="0.5" stroke-linecap="square" stroke-linejoin="miter" stroke-dasharray="16,0" points="521.28,384.48 521.28,32.4"/>
<text xml:space="preserve" transform="translate(239.08,413.481) rotate(-0,59,-13)" font-family="FreeSans" font-weight="normal" font-style="normal" font-size="11"><tspan y="-2" fill="rgb(38,38,38)" x="0 7 9 18 24 27 33 35 41 47 52 58 64 67 69 75 78 83 89 95 101 107 113 ">Time elapsed in seconds</tspan></text>
<text xml:space="preserve" transform="translate(-0.124484,208.44) rotate(-90,48,0)" font-family="FreeSans" font-weight="normal" font-style="normal" font-size="11"><tspan y="-2" fill="rgb(38,38,38)" x="0 7 13 19 25 31 34 39 42 48 54 58 61 66 72 78 84 90 ">Packets per second</tspan></text>
<text xml:space="preserve" transform="translate(155.58,22.4) rotate(-0,142.5,0)" font-family="FreeSans" font-weight="bold" font-style="normal" font-size="11"><tspan y="-2" fill="rgb(0,0,0)" x="0 6 10 16 22 26 32 38 44 50 53 59 65 68 74 80 83 90 96 102 108 114 117 124 131 135 142 149 156 163 170 177 181 184 190 196 203 210 213 216 223 229 233 239 246 250 253 257 263 269 275 281 ">7-12-2019 13:00 E0000 Throughput echo instant (9070)</tspan></text>
<polyline fill="none" stroke="#0071bc" stroke-width="0.5" stroke-linecap="butt" stroke-linejoin="round" points="76.6656,363.003 78.4512,332.284 80.2368,299.453 82.0224,269.614 83.808,237.487 85.5936,209.32 87.3792,178.689 89.1648,148.762 90.9504,136.264 92.736,134.855 94.5216,134.415 96.3072,130.894 98.0928,128.43 99.8784,122.444 101.664,124.557 103.45,127.902 105.235,128.254 107.021,132.391 108.806,132.391 110.592,132.919 112.378,137.848 114.163,142.073 115.949,140.577 117.734,139.784 119.52,140.136 121.306,134.327 123.091,133.271 124.877,132.655 126.662,128.342 128.448,124.557 130.234,121.388 132.019,117.251 133.805,117.427 135.59,119.804 137.376,121.564 139.162,121.212 140.947,135.559 142.733,136.176 144.518,139.696 146.304,135.735 148.09,135.735 149.875,134.239 151.661,131.951 153.446,131.334 155.232,117.251 157.018,116.811 158.803,111.266 160.589,112.85 162.374,113.554 164.16,114.347 165.946,113.026 167.731,113.466 169.517,113.907 171.302,112.85 173.088,113.114 174.874,115.315 176.659,110.562 178.445,107.745 180.23,109.418 182.016,107.481 183.802,108.361 185.587,110.738 187.373,113.114 189.158,113.73 190.944,114.787 192.73,109.241 194.515,106.513 196.301,108.713 198.086,106.601 199.872,104.576 201.658,103.08 203.443,103.432 205.229,103.256 207.014,111.002 208.8,117.163 210.586,115.403 212.371,120.244 214.157,120.772 215.942,119.012 217.728,118.219 219.514,119.628 221.299,117.603 223.085,114.347 224.87,114.083 226.656,110.826 228.442,112.322 230.227,111.97 232.013,112.498 233.798,112.234 235.584,110.562 237.37,109.241 239.155,109.418 240.941,109.065 242.726,108.537 244.512,107.217 246.298,104.752 248.083,102.376 249.869,105.633 251.654,105.809 253.44,108.097 255.226,109.858 257.011,105.809 258.797,106.601 260.582,106.953 262.368,106.249 264.154,105.985 265.939,106.777 267.725,104.224 269.51,102.288 271.296,104.752 273.082,105.193 274.867,105.017 276.653,106.513 278.438,105.545 280.224,104.488 282.01,106.513 283.795,106.601 285.581,105.545 287.366,104.312 289.152,105.369 290.938,109.418 292.723,109.065 294.509,108.449 296.294,107.393 298.08,106.689 299.866,107.393 301.651,109.77 303.437,108.977 305.222,105.017 307.008,105.369 308.794,105.281 310.579,104.752 312.365,105.017 314.15,104.136 315.936,102.816 317.722,102.552 319.507,102.376 321.293,101.936 323.078,103.168 324.864,103.432 326.65,103.432 328.435,104.136 330.221,105.105 332.006,106.425 333.792,107.129 335.578,107.921 337.363,107.745 339.149,108.009 340.934,107.657 342.72,107.921 344.506,107.305 346.291,106.601 348.077,108.713 349.862,111.354 351.648,117.251 353.434,117.427 355.219,121.74 357.005,122.973 358.79,123.853 360.576,125.701 362.362,123.853 364.147,121.74 365.933,115.139 367.718,116.987 369.504,114.259 371.29,116.195 373.075,113.73 374.861,111.794 376.646,115.755 378.432,114.963 380.218,116.371 382.003,112.322 383.789,110.474 385.574,107.305 387.36,108.625 389.146,107.833 390.931,106.073 392.717,108.977 394.502,109.418 396.288,112.058 398.074,114.963 399.859,116.107 401.645,117.251 403.43,119.1 405.216,116.987 407.002,114.259 408.787,115.491 410.573,114.523 412.358,118.043 414.144,117.955 415.93,116.899 417.715,117.075 419.501,118.219 421.286,118.66 423.072,117.779 424.858,116.723 426.643,112.322 428.429,110.65 430.214,110.21 432,112.322 433.786,111.178 435.571,111.53 437.357,110.298 439.142,110.386 440.928,110.474 442.714,112.058 444.499,111.706 446.285,109.329 448.07,107.745 449.856,107.129 451.642,106.689 453.427,106.425 455.213,106.337 456.998,103.696 458.784,104.136 460.57,104.136 462.355,104.136 464.141,104.136 465.926,104.136 467.712,104.136 469.498,104.136 471.283,104.136 473.069,104.136 474.854,104.136 476.64,104.136 478.426,104.136 480.211,104.136 481.997,104.136 483.782,104.136 485.568,104.136 487.354,104.136 489.139,104.136 490.925,104.136 492.71,104.136 494.496,104.136 496.282,104.136 498.067,104.136 499.853,104.136 501.638,104.136 503.424,104.136"/>
</g>
</g>
</svg>
