<?xml version="1.0" encoding="UTF-8" standalone="no"?>
<svg xmlns="http://www.w3.org/2000/svg"
     xmlns:xlink="http://www.w3.org/1999/xlink"
     width="576pt" height="432pt" viewBox="0 0 576 432">
<title>gl2ps_renderer figure</title>
<desc>
Creator: GL2PS 1.4.0, (C) 1999-2017 C. Geuzaine
For: Octave
CreationDate: Tue Dec 10 15:47:33 2019
</desc>
<defs>
</defs>
<polygon fill="#ffffff" points="0,0 576,0 576,432 0,432"/>
<g>
<polygon fill="#ffffff" points="0,432 576,432 576,0 0,0" shape-rendering="crispEdges"/>
<clipPath id="cp00576432">
  <polygon points="0,432 576,432 576,0 0,0"/>
</clipPath>
<g clip-path="url(#cp00576432)">
<polygon fill="#ffffff" shape-rendering="crispEdges" points="74.88,178.603 187.097,178.603 74.88,47.1626"/>
<polygon fill="#ffffff" shape-rendering="crispEdges" points="187.097,178.603 187.097,47.1626 74.88,47.1626"/>
<polyline fill="none" stroke="#262626" stroke-width="0.5" stroke-linecap="butt" stroke-linejoin="miter" stroke-opacity="0.15" stroke-dasharray="16,0" points="74.88,178.603 74.88,47.1626"/>
<polyline fill="none" stroke="#262626" stroke-width="0.5" stroke-linecap="butt" stroke-linejoin="miter" stroke-opacity="0.15" stroke-dasharray="16,0" points="97.3233,178.603 97.3233,47.1626"/>
<polyline fill="none" stroke="#262626" stroke-width="0.5" stroke-linecap="butt" stroke-linejoin="miter" stroke-opacity="0.15" stroke-dasharray="16,0" points="119.767,178.603 119.767,47.1626"/>
<polyline fill="none" stroke="#262626" stroke-width="0.5" stroke-linecap="butt" stroke-linejoin="miter" stroke-opacity="0.15" stroke-dasharray="16,0" points="142.21,178.603 142.21,47.1626"/>
<polyline fill="none" stroke="#262626" stroke-width="0.5" stroke-linecap="butt" stroke-linejoin="miter" stroke-opacity="0.15" stroke-dasharray="16,0" points="164.653,178.603 164.653,47.1626"/>
<polyline fill="none" stroke="#262626" stroke-width="0.5" stroke-linecap="butt" stroke-linejoin="miter" stroke-opacity="0.15" stroke-dasharray="16,0" points="187.097,178.603 187.097,47.1626"/>
<polyline fill="none" stroke="#262626" stroke-width="0.5" stroke-linecap="butt" stroke-linejoin="miter" points="74.88,178.603 74.88,177.284"/>
<polyline fill="none" stroke="#262626" stroke-width="0.5" stroke-linecap="butt" stroke-linejoin="miter" points="74.88,47.1626 74.88,48.4814"/>
<polyline fill="none" stroke="#262626" stroke-width="0.5" stroke-linecap="butt" stroke-linejoin="miter" points="97.3233,178.603 97.3233,177.284"/>
<polyline fill="none" stroke="#262626" stroke-width="0.5" stroke-linecap="butt" stroke-linejoin="miter" points="97.3233,47.1626 97.3233,48.4814"/>
<polyline fill="none" stroke="#262626" stroke-width="0.5" stroke-linecap="butt" stroke-linejoin="miter" points="119.767,178.603 119.767,177.284"/>
<polyline fill="none" stroke="#262626" stroke-width="0.5" stroke-linecap="butt" stroke-linejoin="miter" points="119.767,47.1626 119.767,48.4814"/>
<polyline fill="none" stroke="#262626" stroke-width="0.5" stroke-linecap="butt" stroke-linejoin="miter" points="142.21,178.603 142.21,177.284"/>
<polyline fill="none" stroke="#262626" stroke-width="0.5" stroke-linecap="butt" stroke-linejoin="miter" points="142.21,47.1626 142.21,48.4814"/>
<polyline fill="none" stroke="#262626" stroke-width="0.5" stroke-linecap="butt" stroke-linejoin="miter" points="164.653,178.603 164.653,177.284"/>
<polyline fill="none" stroke="#262626" stroke-width="0.5" stroke-linecap="butt" stroke-linejoin="miter" points="164.653,47.1626 164.653,48.4814"/>
<polyline fill="none" stroke="#262626" stroke-width="0.5" stroke-linecap="butt" stroke-linejoin="miter" points="187.097,178.603 187.097,177.284"/>
<polyline fill="none" stroke="#262626" stroke-width="0.5" stroke-linecap="butt" stroke-linejoin="miter" points="187.097,47.1626 187.097,48.4814"/>
<text xml:space="preserve" transform="translate(71.88,194.619) rotate(-0,3,-11)" font-family="FreeSans" font-weight="normal" font-style="normal" font-size="10"><tspan y="-1" fill="rgb(38,38,38)" x="0 ">0</tspan></text>
<text xml:space="preserve" transform="translate(91.3234,194.619) rotate(-0,6,-11)" font-family="FreeSans" font-weight="normal" font-style="normal" font-size="10"><tspan y="-1" fill="rgb(38,38,38)" x="0 6 ">50</tspan></text>
<text xml:space="preserve" transform="translate(110.767,194.619) rotate(-0,9,-11)" font-family="FreeSans" font-weight="normal" font-style="normal" font-size="10"><tspan y="-1" fill="rgb(38,38,38)" x="0 6 12 ">100</tspan></text>
<text xml:space="preserve" transform="translate(133.21,194.619) rotate(-0,9,-11)" font-family="FreeSans" font-weight="normal" font-style="normal" font-size="10"><tspan y="-1" fill="rgb(38,38,38)" x="0 6 12 ">150</tspan></text>
<text xml:space="preserve" transform="translate(155.653,194.619) rotate(-0,9,-11)" font-family="FreeSans" font-weight="normal" font-style="normal" font-size="10"><tspan y="-1" fill="rgb(38,38,38)" x="0 6 12 ">200</tspan></text>
<text xml:space="preserve" transform="translate(178.097,194.619) rotate(-0,9,-11)" font-family="FreeSans" font-weight="normal" font-style="normal" font-size="10"><tspan y="-1" fill="rgb(38,38,38)" x="0 6 12 ">250</tspan></text>
<polyline fill="none" stroke="#262626" stroke-width="0.5" stroke-linecap="butt" stroke-linejoin="miter" stroke-opacity="0.15" stroke-dasharray="16,0" points="74.88,178.603 187.097,178.603"/>
<polyline fill="none" stroke="#262626" stroke-width="0.5" stroke-linecap="butt" stroke-linejoin="miter" stroke-opacity="0.15" stroke-dasharray="16,0" points="74.88,152.315 187.097,152.315"/>
<polyline fill="none" stroke="#262626" stroke-width="0.5" stroke-linecap="butt" stroke-linejoin="miter" stroke-opacity="0.15" stroke-dasharray="16,0" points="74.88,126.027 187.097,126.027"/>
<polyline fill="none" stroke="#262626" stroke-width="0.5" stroke-linecap="butt" stroke-linejoin="miter" stroke-opacity="0.15" stroke-dasharray="16,0" points="74.88,99.7386 187.097,99.7386"/>
<polyline fill="none" stroke="#262626" stroke-width="0.5" stroke-linecap="butt" stroke-linejoin="miter" stroke-opacity="0.15" stroke-dasharray="16,0" points="74.88,73.4506 187.097,73.4506"/>
<polyline fill="none" stroke="#262626" stroke-width="0.5" stroke-linecap="butt" stroke-linejoin="miter" stroke-opacity="0.15" stroke-dasharray="16,0" points="74.88,47.1626 187.097,47.1626"/>
<polyline fill="none" stroke="#262626" stroke-width="0.5" stroke-linecap="butt" stroke-linejoin="miter" points="74.88,178.603 76.1969,178.603"/>
<polyline fill="none" stroke="#262626" stroke-width="0.5" stroke-linecap="butt" stroke-linejoin="miter" points="187.097,178.603 185.78,178.603"/>
<polyline fill="none" stroke="#262626" stroke-width="0.5" stroke-linecap="butt" stroke-linejoin="miter" points="74.88,152.315 76.1969,152.315"/>
<polyline fill="none" stroke="#262626" stroke-width="0.5" stroke-linecap="butt" stroke-linejoin="miter" points="187.097,152.315 185.78,152.315"/>
<polyline fill="none" stroke="#262626" stroke-width="0.5" stroke-linecap="butt" stroke-linejoin="miter" points="74.88,126.027 76.1969,126.027"/>
<polyline fill="none" stroke="#262626" stroke-width="0.5" stroke-linecap="butt" stroke-linejoin="miter" points="187.097,126.027 185.78,126.027"/>
<polyline fill="none" stroke="#262626" stroke-width="0.5" stroke-linecap="butt" stroke-linejoin="miter" points="74.88,99.7386 76.1969,99.7386"/>
<polyline fill="none" stroke="#262626" stroke-width="0.5" stroke-linecap="butt" stroke-linejoin="miter" points="187.097,99.7386 185.78,99.7386"/>
<polyline fill="none" stroke="#262626" stroke-width="0.5" stroke-linecap="butt" stroke-linejoin="miter" points="74.88,73.4506 76.1969,73.4506"/>
<polyline fill="none" stroke="#262626" stroke-width="0.5" stroke-linecap="butt" stroke-linejoin="miter" points="187.097,73.4506 185.78,73.4506"/>
<polyline fill="none" stroke="#262626" stroke-width="0.5" stroke-linecap="butt" stroke-linejoin="miter" points="74.88,47.1626 76.1969,47.1626"/>
<polyline fill="none" stroke="#262626" stroke-width="0.5" stroke-linecap="butt" stroke-linejoin="miter" points="187.097,47.1626 185.78,47.1626"/>
<text xml:space="preserve" transform="translate(63.8703,184.103) rotate(-0,6,-5.5)" font-family="FreeSans" font-weight="normal" font-style="normal" font-size="10"><tspan y="-1" fill="rgb(38,38,38)" x="0 ">0</tspan></text>
<text xml:space="preserve" transform="translate(51.8703,157.815) rotate(-0,18,-5.5)" font-family="FreeSans" font-weight="normal" font-style="normal" font-size="10"><tspan y="-1" fill="rgb(38,38,38)" x="0 6 12 ">200</tspan></text>
<text xml:space="preserve" transform="translate(51.8703,131.527) rotate(-0,18,-5.5)" font-family="FreeSans" font-weight="normal" font-style="normal" font-size="10"><tspan y="-1" fill="rgb(38,38,38)" x="0 6 12 ">400</tspan></text>
<text xml:space="preserve" transform="translate(51.8703,105.239) rotate(-0,18,-5.5)" font-family="FreeSans" font-weight="normal" font-style="normal" font-size="10"><tspan y="-1" fill="rgb(38,38,38)" x="0 6 12 ">600</tspan></text>
<text xml:space="preserve" transform="translate(51.8703,78.9506) rotate(-0,18,-5.5)" font-family="FreeSans" font-weight="normal" font-style="normal" font-size="10"><tspan y="-1" fill="rgb(38,38,38)" x="0 6 12 ">800</tspan></text>
<text xml:space="preserve" transform="translate(45.8703,52.6626) rotate(-0,24,-5.5)" font-family="FreeSans" font-weight="normal" font-style="normal" font-size="10"><tspan y="-1" fill="rgb(38,38,38)" x="0 6 12 18 ">1000</tspan></text>
<polyline fill="none" stroke="#262626" stroke-width="0.5" stroke-linecap="square" stroke-linejoin="miter" stroke-dasharray="16,0" points="74.88,178.603 187.097,178.603"/>
<polyline fill="none" stroke="#262626" stroke-width="0.5" stroke-linecap="square" stroke-linejoin="miter" stroke-dasharray="16,0" points="74.88,47.1626 187.097,47.1626"/>
<polyline fill="none" stroke="#262626" stroke-width="0.5" stroke-linecap="square" stroke-linejoin="miter" stroke-dasharray="16,0" points="74.88,178.603 74.88,47.1626"/>
<polyline fill="none" stroke="#262626" stroke-width="0.5" stroke-linecap="square" stroke-linejoin="miter" stroke-dasharray="16,0" points="187.097,178.603 187.097,47.1626"/>
<text xml:space="preserve" transform="translate(88.9884,37.1626) rotate(-0,42,0)" font-family="FreeSans" font-weight="bold" font-style="normal" font-size="11"><tspan y="-2" fill="rgb(0,0,0)" x="0 7 14 21 24 31 37 40 44 51 58 61 65 68 78 ">Engine run time</tspan></text>
<text xml:space="preserve" transform="translate(21.8703,112.883) rotate(-90,20,0)" font-family="FreeSans" font-weight="normal" font-style="normal" font-size="11"><tspan y="-2" fill="rgb(38,38,38)" x="0 5 11 17 23 29 35 ">seconds</tspan></text>
<text xml:space="preserve" transform="translate(90.9884,207.619) rotate(-0,40,-13)" font-family="FreeSans" font-weight="normal" font-style="normal" font-size="11"><tspan y="-2" fill="rgb(38,38,38)" x="0 7 9 15 21 26 32 38 41 44 46 55 61 64 66 72 75 ">Elapsed time in s</tspan></text>
<polyline fill="none" stroke="#0071bc" stroke-width="0.5" stroke-linecap="butt" stroke-linejoin="round" points="75.3289,166.642 75.7777,166.51 76.2266,166.379 76.6755,166.247 77.1243,165.853 77.5732,165.721 78.0221,165.59 78.4709,165.459 78.9198,165.196 79.3687,165.064 79.8175,164.801 80.2664,164.539 80.7153,164.407 81.1641,164.276 81.613,164.144 82.0619,163.881 82.5107,163.75 82.9596,163.618 83.4085,163.487 83.8573,163.224 84.3062,163.093 84.7551,162.961 85.2039,162.83 85.6528,162.567 86.1017,162.435 86.5505,162.304 86.9994,162.173 87.4483,161.91 87.8972,161.778 88.346,161.647 88.7949,161.515 89.2437,161.253 89.6926,161.121 90.1415,160.99 90.5903,160.858 91.0392,160.464 91.4881,160.332 91.9369,160.201 92.3858,159.938 92.8347,159.807 93.2836,159.675 93.7324,159.544 94.1813,159.281 94.6302,159.149 95.079,159.018 95.5279,158.887 95.9767,158.624 96.4256,158.492 96.8745,158.361 97.3233,158.229 97.7722,157.966 98.2211,157.835 98.67,157.572 99.1188,157.309 99.5677,157.178 100.017,157.046 100.465,156.915 100.914,156.652 101.363,156.521 101.812,156.389 102.261,156.126 102.71,155.995 103.159,155.863 103.607,155.732 104.056,155.469 104.505,155.338 104.954,155.206 105.403,155.075 105.852,154.812 106.301,154.681 106.75,154.549 107.198,154.418 107.647,154.155 108.096,154.023 108.545,153.892 108.994,153.76 109.443,153.498 109.892,153.235 110.34,153.103 110.789,152.84 111.238,152.709 111.687,152.577 112.136,152.446 112.585,152.183 113.034,152.052 113.483,151.92 113.931,151.526 114.38,151.395 114.829,151.263 115.278,151.132 115.727,150.869 116.176,150.737 116.625,150.606 117.074,150.474 117.522,150.212 117.971,150.08 118.42,149.949 118.869,149.817 119.318,149.554 119.767,149.423 120.216,149.16 120.664,148.897 121.113,148.766 121.562,148.634 122.011,148.503 122.46,148.24 122.909,148.108 123.358,147.977 123.807,147.714 124.255,147.583 124.704,147.451 125.153,147.32 125.602,147.057 126.051,146.926 126.5,146.663 126.949,146.4 127.397,146.268 127.846,146.137 128.295,146.005 128.744,145.743 129.193,145.611 129.642,145.48 130.091,145.348 130.54,145.085 130.988,144.954 131.437,144.823 131.886,144.428 132.335,144.297 132.784,144.165 133.233,144.034 133.682,143.771 134.13,143.64 134.579,143.508 135.028,143.245 135.477,143.114 135.926,142.982 136.375,142.851 136.824,142.457 137.273,142.325 137.721,142.194 138.17,141.931 138.619,141.799 139.068,141.668 139.517,141.536 139.966,141.274 140.415,141.142 140.863,141.011 141.312,140.879 141.761,140.616 142.21,140.485 142.659,140.354 143.108,140.222 143.557,139.959 144.006,139.696 144.454,139.565 144.903,139.302 145.352,139.171 145.801,139.039 146.25,138.908 146.699,138.645 147.148,138.513 147.596,138.382 148.045,138.119 148.494,137.856 148.943,137.725 149.392,137.593 149.841,137.33 150.29,137.199 150.739,137.068 151.187,136.936 151.636,136.673 152.085,136.542 152.534,136.41 152.983,136.279 153.432,136.016 153.881,135.885 154.329,135.753 154.778,135.622 155.227,135.096 155.676,134.965 156.125,134.833 156.574,134.57 157.023,134.439 157.472,134.307 157.92,134.176 158.369,133.913 158.818,133.782 159.267,133.65 159.716,133.519 160.165,133.256 160.614,76.3423 161.062,75.6851 161.511,75.5536 161.96,75.2907 162.409,75.1593 162.858,74.8964 163.307,74.765 163.756,74.6335 164.205,74.5021 164.653,74.2392 165.102,74.1078 165.551,73.9763 166,73.8449 166.449,73.582 166.898,73.4506 167.347,73.3192 167.795,73.0563 168.244,72.9248 168.693,72.7934 169.142,72.6619 169.591,72.399 170.04,72.2676 170.489,72.1362 170.938,72.0047 171.386,71.7419 171.835,71.6104 172.284,71.479 172.733,71.3475 173.182,71.0847 173.631,70.9532 174.08,70.8218 174.529,70.6903 174.977,70.4275 175.426,70.296 175.875,70.1646 176.324,69.9017 176.773,69.7703 177.222,69.6388 177.671,69.5074 178.119,69.2445 178.568,69.113 179.017,68.9816 179.466,68.8502 179.915,68.5873 180.364,68.4559 180.813,68.3244 181.262,68.193 181.71,67.9301 182.159,67.6672 182.608,67.5358"/>
</g>
<clipPath id="cp00576432">
  <polygon points="0,432 576,432 576,0 0,0"/>
</clipPath>
<g clip-path="url(#cp00576432)">
<polygon fill="#ffffff" shape-rendering="crispEdges" points="241.972,178.603 354.188,178.603 241.972,47.1625"/>
<polygon fill="#ffffff" shape-rendering="crispEdges" points="354.188,178.603 354.188,47.1625 241.972,47.1625"/>
<polyline fill="none" stroke="#262626" stroke-width="0.5" stroke-linecap="butt" stroke-linejoin="miter" stroke-opacity="0.15" stroke-dasharray="16,0" points="241.972,178.603 241.972,47.1625"/>
<polyline fill="none" stroke="#262626" stroke-width="0.5" stroke-linecap="butt" stroke-linejoin="miter" stroke-opacity="0.15" stroke-dasharray="16,0" points="264.415,178.603 264.415,47.1625"/>
<polyline fill="none" stroke="#262626" stroke-width="0.5" stroke-linecap="butt" stroke-linejoin="miter" stroke-opacity="0.15" stroke-dasharray="16,0" points="286.858,178.603 286.858,47.1625"/>
<polyline fill="none" stroke="#262626" stroke-width="0.5" stroke-linecap="butt" stroke-linejoin="miter" stroke-opacity="0.15" stroke-dasharray="16,0" points="309.302,178.603 309.302,47.1625"/>
<polyline fill="none" stroke="#262626" stroke-width="0.5" stroke-linecap="butt" stroke-linejoin="miter" stroke-opacity="0.15" stroke-dasharray="16,0" points="331.745,178.603 331.745,47.1625"/>
<polyline fill="none" stroke="#262626" stroke-width="0.5" stroke-linecap="butt" stroke-linejoin="miter" stroke-opacity="0.15" stroke-dasharray="16,0" points="354.188,178.603 354.188,47.1625"/>
<polyline fill="none" stroke="#262626" stroke-width="0.5" stroke-linecap="butt" stroke-linejoin="miter" points="241.972,178.603 241.972,177.284"/>
<polyline fill="none" stroke="#262626" stroke-width="0.5" stroke-linecap="butt" stroke-linejoin="miter" points="241.972,47.1625 241.972,48.4814"/>
<polyline fill="none" stroke="#262626" stroke-width="0.5" stroke-linecap="butt" stroke-linejoin="miter" points="264.415,178.603 264.415,177.284"/>
<polyline fill="none" stroke="#262626" stroke-width="0.5" stroke-linecap="butt" stroke-linejoin="miter" points="264.415,47.1625 264.415,48.4814"/>
<polyline fill="none" stroke="#262626" stroke-width="0.5" stroke-linecap="butt" stroke-linejoin="miter" points="286.858,178.603 286.858,177.284"/>
<polyline fill="none" stroke="#262626" stroke-width="0.5" stroke-linecap="butt" stroke-linejoin="miter" points="286.858,47.1625 286.858,48.4814"/>
<polyline fill="none" stroke="#262626" stroke-width="0.5" stroke-linecap="butt" stroke-linejoin="miter" points="309.302,178.603 309.302,177.284"/>
<polyline fill="none" stroke="#262626" stroke-width="0.5" stroke-linecap="butt" stroke-linejoin="miter" points="309.302,47.1625 309.302,48.4814"/>
<polyline fill="none" stroke="#262626" stroke-width="0.5" stroke-linecap="butt" stroke-linejoin="miter" points="331.745,178.603 331.745,177.284"/>
<polyline fill="none" stroke="#262626" stroke-width="0.5" stroke-linecap="butt" stroke-linejoin="miter" points="331.745,47.1625 331.745,48.4814"/>
<polyline fill="none" stroke="#262626" stroke-width="0.5" stroke-linecap="butt" stroke-linejoin="miter" points="354.188,178.603 354.188,177.284"/>
<polyline fill="none" stroke="#262626" stroke-width="0.5" stroke-linecap="butt" stroke-linejoin="miter" points="354.188,47.1625 354.188,48.4814"/>
<text xml:space="preserve" transform="translate(238.972,194.619) rotate(-0,3,-11)" font-family="FreeSans" font-weight="normal" font-style="normal" font-size="10"><tspan y="-1" fill="rgb(38,38,38)" x="0 ">0</tspan></text>
<text xml:space="preserve" transform="translate(258.415,194.619) rotate(-0,6,-11)" font-family="FreeSans" font-weight="normal" font-style="normal" font-size="10"><tspan y="-1" fill="rgb(38,38,38)" x="0 6 ">50</tspan></text>
<text xml:space="preserve" transform="translate(277.858,194.619) rotate(-0,9,-11)" font-family="FreeSans" font-weight="normal" font-style="normal" font-size="10"><tspan y="-1" fill="rgb(38,38,38)" x="0 6 12 ">100</tspan></text>
<text xml:space="preserve" transform="translate(300.302,194.619) rotate(-0,9,-11)" font-family="FreeSans" font-weight="normal" font-style="normal" font-size="10"><tspan y="-1" fill="rgb(38,38,38)" x="0 6 12 ">150</tspan></text>
<text xml:space="preserve" transform="translate(322.745,194.619) rotate(-0,9,-11)" font-family="FreeSans" font-weight="normal" font-style="normal" font-size="10"><tspan y="-1" fill="rgb(38,38,38)" x="0 6 12 ">200</tspan></text>
<text xml:space="preserve" transform="translate(345.188,194.619) rotate(-0,9,-11)" font-family="FreeSans" font-weight="normal" font-style="normal" font-size="10"><tspan y="-1" fill="rgb(38,38,38)" x="0 6 12 ">250</tspan></text>
<polyline fill="none" stroke="#262626" stroke-width="0.5" stroke-linecap="butt" stroke-linejoin="miter" stroke-opacity="0.15" stroke-dasharray="16,0" points="241.972,178.603 354.188,178.603"/>
<polyline fill="none" stroke="#262626" stroke-width="0.5" stroke-linecap="butt" stroke-linejoin="miter" stroke-opacity="0.15" stroke-dasharray="16,0" points="241.972,145.743 354.188,145.743"/>
<polyline fill="none" stroke="#262626" stroke-width="0.5" stroke-linecap="butt" stroke-linejoin="miter" stroke-opacity="0.15" stroke-dasharray="16,0" points="241.972,112.883 354.188,112.883"/>
<polyline fill="none" stroke="#262626" stroke-width="0.5" stroke-linecap="butt" stroke-linejoin="miter" stroke-opacity="0.15" stroke-dasharray="16,0" points="241.972,80.0226 354.188,80.0226"/>
<polyline fill="none" stroke="#262626" stroke-width="0.5" stroke-linecap="butt" stroke-linejoin="miter" stroke-opacity="0.15" stroke-dasharray="16,0" points="241.972,47.1625 354.188,47.1625"/>
<polyline fill="none" stroke="#262626" stroke-width="0.5" stroke-linecap="butt" stroke-linejoin="miter" points="241.972,178.603 243.289,178.603"/>
<polyline fill="none" stroke="#262626" stroke-width="0.5" stroke-linecap="butt" stroke-linejoin="miter" points="354.188,178.603 352.871,178.603"/>
<polyline fill="none" stroke="#262626" stroke-width="0.5" stroke-linecap="butt" stroke-linejoin="miter" points="241.972,145.743 243.289,145.743"/>
<polyline fill="none" stroke="#262626" stroke-width="0.5" stroke-linecap="butt" stroke-linejoin="miter" points="354.188,145.743 352.871,145.743"/>
<polyline fill="none" stroke="#262626" stroke-width="0.5" stroke-linecap="butt" stroke-linejoin="miter" points="241.972,112.883 243.289,112.883"/>
<polyline fill="none" stroke="#262626" stroke-width="0.5" stroke-linecap="butt" stroke-linejoin="miter" points="354.188,112.883 352.871,112.883"/>
<polyline fill="none" stroke="#262626" stroke-width="0.5" stroke-linecap="butt" stroke-linejoin="miter" points="241.972,80.0226 243.289,80.0226"/>
<polyline fill="none" stroke="#262626" stroke-width="0.5" stroke-linecap="butt" stroke-linejoin="miter" points="354.188,80.0226 352.871,80.0226"/>
<polyline fill="none" stroke="#262626" stroke-width="0.5" stroke-linecap="butt" stroke-linejoin="miter" points="241.972,47.1625 243.289,47.1625"/>
<polyline fill="none" stroke="#262626" stroke-width="0.5" stroke-linecap="butt" stroke-linejoin="miter" points="354.188,47.1625 352.871,47.1625"/>
<text xml:space="preserve" transform="translate(224.962,184.103) rotate(-0,12,-5.5)" font-family="FreeSans" font-weight="normal" font-style="normal" font-size="10"><tspan y="-1" fill="rgb(38,38,38)" x="0 6 ">13</tspan></text>
<text xml:space="preserve" transform="translate(224.962,151.243) rotate(-0,12,-5.5)" font-family="FreeSans" font-weight="normal" font-style="normal" font-size="10"><tspan y="-1" fill="rgb(38,38,38)" x="0 6 ">14</tspan></text>
<text xml:space="preserve" transform="translate(224.962,118.383) rotate(-0,12,-5.5)" font-family="FreeSans" font-weight="normal" font-style="normal" font-size="10"><tspan y="-1" fill="rgb(38,38,38)" x="0 6 ">15</tspan></text>
<text xml:space="preserve" transform="translate(224.962,85.5226) rotate(-0,12,-5.5)" font-family="FreeSans" font-weight="normal" font-style="normal" font-size="10"><tspan y="-1" fill="rgb(38,38,38)" x="0 6 ">16</tspan></text>
<text xml:space="preserve" transform="translate(224.962,52.6626) rotate(-0,12,-5.5)" font-family="FreeSans" font-weight="normal" font-style="normal" font-size="10"><tspan y="-1" fill="rgb(38,38,38)" x="0 6 ">17</tspan></text>
<polyline fill="none" stroke="#262626" stroke-width="0.5" stroke-linecap="square" stroke-linejoin="miter" stroke-dasharray="16,0" points="241.972,178.603 354.188,178.603"/>
<polyline fill="none" stroke="#262626" stroke-width="0.5" stroke-linecap="square" stroke-linejoin="miter" stroke-dasharray="16,0" points="241.972,47.1625 354.188,47.1625"/>
<polyline fill="none" stroke="#262626" stroke-width="0.5" stroke-linecap="square" stroke-linejoin="miter" stroke-dasharray="16,0" points="241.972,178.603 241.972,47.1625"/>
<polyline fill="none" stroke="#262626" stroke-width="0.5" stroke-linecap="square" stroke-linejoin="miter" stroke-dasharray="16,0" points="354.188,178.603 354.188,47.1625"/>
<text xml:space="preserve" transform="translate(240.58,37.1626) rotate(-0,57.5,0)" font-family="FreeSans" font-weight="bold" font-style="normal" font-size="11"><tspan y="-2" fill="rgb(0,0,0)" x="0 3 10 14 20 26 32 35 41 44 48 51 55 61 71 78 84 88 94 98 105 109 ">Intake air temperature</tspan></text>
<text xml:space="preserve" transform="translate(182.962,112.883) rotate(-90,38,0)" font-family="FreeSans" font-weight="normal" font-style="normal" font-size="11"><tspan y="-2" fill="rgb(38,38,38)" x="0 8 14 16 21 23 29 34 37 43 49 55 59 65 71 ">Celsius degrees</tspan></text>
<text xml:space="preserve" transform="translate(258.08,207.619) rotate(-0,40,-13)" font-family="FreeSans" font-weight="normal" font-style="normal" font-size="11"><tspan y="-2" fill="rgb(38,38,38)" x="0 7 9 15 21 26 32 38 41 44 46 55 61 64 66 72 75 ">Elapsed time in s</tspan></text>
<polyline fill="none" stroke="#0071bc" stroke-width="0.5" stroke-linecap="butt" stroke-linejoin="round" points="242.42,145.743 242.869,145.743 243.318,178.603 243.767,145.743 244.216,178.603 244.665,178.603 245.114,145.743 245.563,145.743 246.011,178.603 246.46,145.743 246.909,145.743 247.358,178.603 247.807,145.743 248.256,145.743 248.705,145.743 249.153,145.743 249.602,145.743 250.051,145.743 250.5,145.743 250.949,145.743 251.398,145.743 251.847,145.743 252.296,145.743 252.744,145.743 253.193,145.743 253.642,178.603 254.091,145.743 254.54,145.743 254.989,145.743 255.438,145.743 255.886,145.743 256.335,145.743 256.784,145.743 257.233,178.603 257.682,178.603 258.131,178.603 258.58,178.603 259.029,178.603 259.477,145.743 259.926,178.603 260.375,145.743 260.824,145.743 261.273,178.603 261.722,178.603 262.171,178.603 262.619,178.603 263.068,178.603 263.517,145.743 263.966,145.743 264.415,145.743 264.864,178.603 265.313,178.603 265.762,178.603 266.21,178.603 266.659,178.603 267.108,145.743 267.557,145.743 268.006,145.743 268.455,145.743 268.904,145.743 269.353,145.743 269.801,145.743 270.25,145.743 270.699,145.743 271.148,178.603 271.597,145.743 272.046,145.743 272.495,145.743 272.943,145.743 273.392,145.743 273.841,145.743 274.29,145.743 274.739,145.743 275.188,145.743 275.637,145.743 276.086,145.743 276.534,145.743 276.983,145.743 277.432,145.743 277.881,145.743 278.33,145.743 278.779,145.743 279.228,145.743 279.676,145.743 280.125,145.743 280.574,145.743 281.023,145.743 281.472,145.743 281.921,145.743 282.37,145.743 282.819,145.743 283.267,145.743 283.716,145.743 284.165,178.603 284.614,145.743 285.063,145.743 285.512,178.603 285.961,178.603 286.409,145.743 286.858,145.743 287.307,145.743 287.756,178.603 288.205,145.743 288.654,145.743 289.103,145.743 289.552,145.743 290,145.743 290.449,145.743 290.898,145.743 291.347,145.743 291.796,145.743 292.245,145.743 292.694,145.743 293.142,145.743 293.591,145.743 294.04,145.743 294.489,145.743 294.938,145.743 295.387,145.743 295.836,145.743 296.285,145.743 296.733,145.743 297.182,145.743 297.631,145.743 298.08,145.743 298.529,145.743 298.978,145.743 299.427,145.743 299.875,145.743 300.324,145.743 300.773,145.743 301.222,145.743 301.671,145.743 302.12,145.743 302.569,145.743 303.018,145.743 303.466,145.743 303.915,145.743 304.364,145.743 304.813,145.743 305.262,145.743 305.711,145.743 306.16,145.743 306.608,145.743 307.057,145.743 307.506,145.743 307.955,145.743 308.404,145.743 308.853,145.743 309.302,145.743 309.751,145.743 310.199,145.743 310.648,145.743 311.097,145.743 311.546,145.743 311.995,145.743 312.444,145.743 312.893,145.743 313.341,145.743 313.79,145.743 314.239,145.743 314.688,145.743 315.137,145.743 315.586,145.743 316.035,145.743 316.484,145.743 316.932,145.743 317.381,145.743 317.83,145.743 318.279,145.743 318.728,145.743 319.177,145.743 319.626,145.743 320.074,145.743 320.523,112.883 320.972,112.883 321.421,112.883 321.87,112.883 322.319,112.883 322.768,112.883 323.217,112.883 323.665,112.883 324.114,112.883 324.563,112.883 325.012,112.883 325.461,112.883 325.91,112.883 326.359,112.883 326.807,112.883 327.256,112.883 327.705,112.883 328.154,112.883 328.603,112.883 329.052,112.883 329.501,112.883 329.95,112.883 330.398,112.883 330.847,112.883 331.296,112.883 331.745,112.883 332.194,112.883 332.643,112.883 333.092,112.883 333.54,80.0226 333.989,80.0226 334.438,80.0226 334.887,80.0226 335.336,80.0226 335.785,80.0226 336.234,47.1625 336.683,80.0226 337.131,80.0226 337.58,47.1625 338.029,47.1625 338.478,47.1625 338.927,47.1625 339.376,47.1625 339.825,47.1625 340.273,47.1625 340.722,47.1625 341.171,47.1625 341.62,47.1625 342.069,47.1625 342.518,47.1625 342.967,47.1625 343.416,47.1625 343.864,47.1625 344.313,47.1625 344.762,47.1625 345.211,47.1625 345.66,47.1625 346.109,47.1625 346.558,47.1625 347.007,47.1625 347.455,47.1625 347.904,47.1625 348.353,47.1625 348.802,47.1625 349.251,47.1625 349.7,47.1625"/>
</g>
<clipPath id="cp00576432">
  <polygon points="0,432 576,432 576,0 0,0"/>
</clipPath>
<g clip-path="url(#cp00576432)">
<polygon fill="#ffffff" shape-rendering="crispEdges" points="409.063,178.603 521.28,178.603 409.063,47.1626"/>
<polygon fill="#ffffff" shape-rendering="crispEdges" points="521.28,178.603 521.28,47.1626 409.063,47.1626"/>
<polyline fill="none" stroke="#262626" stroke-width="0.5" stroke-linecap="butt" stroke-linejoin="miter" stroke-opacity="0.15" stroke-dasharray="16,0" points="409.063,178.603 409.063,47.1626"/>
<polyline fill="none" stroke="#262626" stroke-width="0.5" stroke-linecap="butt" stroke-linejoin="miter" stroke-opacity="0.15" stroke-dasharray="16,0" points="431.507,178.603 431.507,47.1626"/>
<polyline fill="none" stroke="#262626" stroke-width="0.5" stroke-linecap="butt" stroke-linejoin="miter" stroke-opacity="0.15" stroke-dasharray="16,0" points="453.95,178.603 453.95,47.1626"/>
<polyline fill="none" stroke="#262626" stroke-width="0.5" stroke-linecap="butt" stroke-linejoin="miter" stroke-opacity="0.15" stroke-dasharray="16,0" points="476.393,178.603 476.393,47.1626"/>
<polyline fill="none" stroke="#262626" stroke-width="0.5" stroke-linecap="butt" stroke-linejoin="miter" stroke-opacity="0.15" stroke-dasharray="16,0" points="498.837,178.603 498.837,47.1626"/>
<polyline fill="none" stroke="#262626" stroke-width="0.5" stroke-linecap="butt" stroke-linejoin="miter" stroke-opacity="0.15" stroke-dasharray="16,0" points="521.28,178.603 521.28,47.1626"/>
<polyline fill="none" stroke="#262626" stroke-width="0.5" stroke-linecap="butt" stroke-linejoin="miter" points="409.063,178.603 409.063,177.284"/>
<polyline fill="none" stroke="#262626" stroke-width="0.5" stroke-linecap="butt" stroke-linejoin="miter" points="409.063,47.1626 409.063,48.4814"/>
<polyline fill="none" stroke="#262626" stroke-width="0.5" stroke-linecap="butt" stroke-linejoin="miter" points="431.507,178.603 431.507,177.284"/>
<polyline fill="none" stroke="#262626" stroke-width="0.5" stroke-linecap="butt" stroke-linejoin="miter" points="431.507,47.1626 431.507,48.4814"/>
<polyline fill="none" stroke="#262626" stroke-width="0.5" stroke-linecap="butt" stroke-linejoin="miter" points="453.95,178.603 453.95,177.284"/>
<polyline fill="none" stroke="#262626" stroke-width="0.5" stroke-linecap="butt" stroke-linejoin="miter" points="453.95,47.1626 453.95,48.4814"/>
<polyline fill="none" stroke="#262626" stroke-width="0.5" stroke-linecap="butt" stroke-linejoin="miter" points="476.393,178.603 476.393,177.284"/>
<polyline fill="none" stroke="#262626" stroke-width="0.5" stroke-linecap="butt" stroke-linejoin="miter" points="476.393,47.1626 476.393,48.4814"/>
<polyline fill="none" stroke="#262626" stroke-width="0.5" stroke-linecap="butt" stroke-linejoin="miter" points="498.837,178.603 498.837,177.284"/>
<polyline fill="none" stroke="#262626" stroke-width="0.5" stroke-linecap="butt" stroke-linejoin="miter" points="498.837,47.1626 498.837,48.4814"/>
<polyline fill="none" stroke="#262626" stroke-width="0.5" stroke-linecap="butt" stroke-linejoin="miter" points="521.28,178.603 521.28,177.284"/>
<polyline fill="none" stroke="#262626" stroke-width="0.5" stroke-linecap="butt" stroke-linejoin="miter" points="521.28,47.1626 521.28,48.4814"/>
<text xml:space="preserve" transform="translate(406.063,194.619) rotate(-0,3,-11)" font-family="FreeSans" font-weight="normal" font-style="normal" font-size="10"><tspan y="-1" fill="rgb(38,38,38)" x="0 ">0</tspan></text>
<text xml:space="preserve" transform="translate(425.507,194.619) rotate(-0,6,-11)" font-family="FreeSans" font-weight="normal" font-style="normal" font-size="10"><tspan y="-1" fill="rgb(38,38,38)" x="0 6 ">50</tspan></text>
<text xml:space="preserve" transform="translate(444.95,194.619) rotate(-0,9,-11)" font-family="FreeSans" font-weight="normal" font-style="normal" font-size="10"><tspan y="-1" fill="rgb(38,38,38)" x="0 6 12 ">100</tspan></text>
<text xml:space="preserve" transform="translate(467.393,194.619) rotate(-0,9,-11)" font-family="FreeSans" font-weight="normal" font-style="normal" font-size="10"><tspan y="-1" fill="rgb(38,38,38)" x="0 6 12 ">150</tspan></text>
<text xml:space="preserve" transform="translate(489.837,194.619) rotate(-0,9,-11)" font-family="FreeSans" font-weight="normal" font-style="normal" font-size="10"><tspan y="-1" fill="rgb(38,38,38)" x="0 6 12 ">200</tspan></text>
<text xml:space="preserve" transform="translate(512.28,194.619) rotate(-0,9,-11)" font-family="FreeSans" font-weight="normal" font-style="normal" font-size="10"><tspan y="-1" fill="rgb(38,38,38)" x="0 6 12 ">250</tspan></text>
<polyline fill="none" stroke="#262626" stroke-width="0.5" stroke-linecap="butt" stroke-linejoin="miter" stroke-opacity="0.15" stroke-dasharray="16,0" points="409.063,178.603 521.28,178.603"/>
<polyline fill="none" stroke="#262626" stroke-width="0.5" stroke-linecap="butt" stroke-linejoin="miter" stroke-opacity="0.15" stroke-dasharray="16,0" points="409.063,145.743 521.28,145.743"/>
<polyline fill="none" stroke="#262626" stroke-width="0.5" stroke-linecap="butt" stroke-linejoin="miter" stroke-opacity="0.15" stroke-dasharray="16,0" points="409.063,112.883 521.28,112.883"/>
<polyline fill="none" stroke="#262626" stroke-width="0.5" stroke-linecap="butt" stroke-linejoin="miter" stroke-opacity="0.15" stroke-dasharray="16,0" points="409.063,80.0226 521.28,80.0226"/>
<polyline fill="none" stroke="#262626" stroke-width="0.5" stroke-linecap="butt" stroke-linejoin="miter" stroke-opacity="0.15" stroke-dasharray="16,0" points="409.063,47.1626 521.28,47.1626"/>
<polyline fill="none" stroke="#262626" stroke-width="0.5" stroke-linecap="butt" stroke-linejoin="miter" points="409.063,178.603 410.38,178.603"/>
<polyline fill="none" stroke="#262626" stroke-width="0.5" stroke-linecap="butt" stroke-linejoin="miter" points="521.28,178.603 519.963,178.603"/>
<polyline fill="none" stroke="#262626" stroke-width="0.5" stroke-linecap="butt" stroke-linejoin="miter" points="409.063,145.743 410.38,145.743"/>
<polyline fill="none" stroke="#262626" stroke-width="0.5" stroke-linecap="butt" stroke-linejoin="miter" points="521.28,145.743 519.963,145.743"/>
<polyline fill="none" stroke="#262626" stroke-width="0.5" stroke-linecap="butt" stroke-linejoin="miter" points="409.063,112.883 410.38,112.883"/>
<polyline fill="none" stroke="#262626" stroke-width="0.5" stroke-linecap="butt" stroke-linejoin="miter" points="521.28,112.883 519.963,112.883"/>
<polyline fill="none" stroke="#262626" stroke-width="0.5" stroke-linecap="butt" stroke-linejoin="miter" points="409.063,80.0226 410.38,80.0226"/>
<polyline fill="none" stroke="#262626" stroke-width="0.5" stroke-linecap="butt" stroke-linejoin="miter" points="521.28,80.0226 519.963,80.0226"/>
<polyline fill="none" stroke="#262626" stroke-width="0.5" stroke-linecap="butt" stroke-linejoin="miter" points="409.063,47.1626 410.38,47.1626"/>
<polyline fill="none" stroke="#262626" stroke-width="0.5" stroke-linecap="butt" stroke-linejoin="miter" points="521.28,47.1626 519.963,47.1626"/>
<text xml:space="preserve" transform="translate(392.054,184.103) rotate(-0,12,-5.5)" font-family="FreeSans" font-weight="normal" font-style="normal" font-size="10"><tspan y="-1" fill="rgb(38,38,38)" x="0 6 ">10</tspan></text>
<text xml:space="preserve" transform="translate(392.054,151.243) rotate(-0,12,-5.5)" font-family="FreeSans" font-weight="normal" font-style="normal" font-size="10"><tspan y="-1" fill="rgb(38,38,38)" x="0 6 ">15</tspan></text>
<text xml:space="preserve" transform="translate(392.054,118.383) rotate(-0,12,-5.5)" font-family="FreeSans" font-weight="normal" font-style="normal" font-size="10"><tspan y="-1" fill="rgb(38,38,38)" x="0 6 ">20</tspan></text>
<text xml:space="preserve" transform="translate(392.054,85.5226) rotate(-0,12,-5.5)" font-family="FreeSans" font-weight="normal" font-style="normal" font-size="10"><tspan y="-1" fill="rgb(38,38,38)" x="0 6 ">25</tspan></text>
<text xml:space="preserve" transform="translate(392.054,52.6626) rotate(-0,12,-5.5)" font-family="FreeSans" font-weight="normal" font-style="normal" font-size="10"><tspan y="-1" fill="rgb(38,38,38)" x="0 6 ">30</tspan></text>
<polyline fill="none" stroke="#262626" stroke-width="0.5" stroke-linecap="square" stroke-linejoin="miter" stroke-dasharray="16,0" points="409.063,178.603 521.28,178.603"/>
<polyline fill="none" stroke="#262626" stroke-width="0.5" stroke-linecap="square" stroke-linejoin="miter" stroke-dasharray="16,0" points="409.063,47.1626 521.28,47.1626"/>
<polyline fill="none" stroke="#262626" stroke-width="0.5" stroke-linecap="square" stroke-linejoin="miter" stroke-dasharray="16,0" points="409.063,178.603 409.063,47.1626"/>
<polyline fill="none" stroke="#262626" stroke-width="0.5" stroke-linecap="square" stroke-linejoin="miter" stroke-dasharray="16,0" points="521.28,178.603 521.28,47.1626"/>
<text xml:space="preserve" transform="translate(420.672,37.1626) rotate(-0,44.5,0)" font-family="FreeSans" font-weight="bold" font-style="normal" font-size="11"><tspan y="-2" fill="rgb(0,0,0)" x="0 7 14 18 25 29 33 36 42 45 52 59 65 68 72 75 82 ">Throttle position</tspan></text>
<text xml:space="preserve" transform="translate(369.054,112.883) rotate(-90,19,0)" font-family="FreeSans" font-weight="normal" font-style="normal" font-size="11"><tspan y="-2" fill="rgb(38,38,38)" x="0 7 13 17 23 29 35 ">Percent</tspan></text>
<text xml:space="preserve" transform="translate(425.172,207.619) rotate(-0,40,-13)" font-family="FreeSans" font-weight="normal" font-style="normal" font-size="11"><tspan y="-2" fill="rgb(38,38,38)" x="0 7 9 15 21 26 32 38 41 44 46 55 61 64 66 72 75 ">Elapsed time in s</tspan></text>
<polyline fill="none" stroke="#0071bc" stroke-width="0.5" stroke-linecap="butt" stroke-linejoin="round" points="409.512,145.743 409.961,145.743 410.41,145.743 410.859,145.743 411.308,145.743 411.756,145.743 412.205,145.743 412.654,145.743 413.103,145.743 413.552,145.743 414.001,145.743 414.45,145.743 414.898,86.5946 415.347,86.5946 415.796,99.7386 416.245,152.315 416.694,106.311 417.143,106.311 417.592,73.4506 418.041,152.315 418.489,106.311 418.938,60.3066 419.387,53.7346 419.836,66.8786 420.285,152.315 420.734,66.8786 421.183,73.4506 421.632,73.4506 422.08,73.4506 422.529,73.4506 422.978,73.4506 423.427,80.0226 423.876,80.0226 424.325,86.5946 424.774,80.0226 425.222,106.311 425.671,106.311 426.12,112.883 426.569,99.7386 427.018,86.5946 427.467,93.1666 427.916,106.311 428.365,106.311 428.813,106.311 429.262,126.027 429.711,139.171 430.16,132.599 430.609,112.883 431.058,106.311 431.507,112.883 431.955,152.315 432.404,152.315 432.853,152.315 433.302,152.315 433.751,152.315 434.2,152.315 434.649,152.315 435.098,152.315 435.546,152.315 435.995,152.315 436.444,152.315 436.893,152.315 437.342,152.315 437.791,152.315 438.24,152.315 438.688,152.315 439.137,152.315 439.586,152.315 440.035,152.315 440.484,152.315 440.933,152.315 441.382,158.887 441.831,152.315 442.279,158.887 442.728,152.315 443.177,158.887 443.626,158.887 444.075,106.311 444.524,112.883 444.973,139.171 445.421,126.027 445.87,132.599 446.319,158.887 446.768,158.887 447.217,152.315 447.666,145.743 448.115,80.0226 448.564,86.5946 449.012,80.0226 449.461,60.3066 449.91,53.7346 450.359,53.7346 450.808,152.315 451.257,112.883 451.706,139.171 452.154,152.315 452.603,152.315 453.052,112.883 453.501,119.455 453.95,119.455 454.399,152.315 454.848,158.887 455.297,139.171 455.745,119.455 456.194,106.311 456.643,93.1666 457.092,99.7386 457.541,99.7386 457.99,99.7386 458.439,99.7386 458.887,99.7386 459.336,106.311 459.785,112.883 460.234,119.455 460.683,132.599 461.132,139.171 461.581,139.171 462.03,145.743 462.478,145.743 462.927,152.315 463.376,152.315 463.825,152.315 464.274,152.315 464.723,152.315 465.172,158.887 465.62,152.315 466.069,158.887 466.518,158.887 466.967,158.887 467.416,152.315 467.865,158.887 468.314,158.887 468.763,165.459 469.211,152.315 469.66,152.315 470.109,158.887 470.558,158.887 471.007,158.887 471.456,158.887 471.905,93.1666 472.353,112.883 472.802,112.883 473.251,66.8786 473.7,152.315 474.149,106.311 474.598,99.7386 475.047,152.315 475.496,132.599 475.944,158.887 476.393,158.887 476.842,158.887 477.291,158.887 477.74,158.887 478.189,119.455 478.638,126.027 479.086,158.887 479.535,158.887 479.984,158.887 480.433,158.887 480.882,158.887 481.331,152.315 481.78,152.315 482.229,152.315 482.677,152.315 483.126,119.455 483.575,139.171 484.024,152.315 484.473,145.743 484.922,139.171 485.371,152.315 485.819,152.315 486.268,152.315 486.717,165.459 487.166,165.459 487.615,165.459 488.064,139.171 488.513,139.171 488.962,139.171 489.41,139.171 489.859,145.743 490.308,139.171 490.757,139.171 491.206,139.171 491.655,139.171 492.104,165.459 492.552,165.459 493.001,165.459 493.45,139.171 493.899,139.171 494.348,139.171 494.797,139.171 495.246,139.171 495.695,139.171 496.143,139.171 496.592,139.171 497.041,139.171 497.49,139.171 497.939,139.171 498.388,158.887 498.837,158.887 499.286,158.887 499.734,158.887 500.183,158.887 500.632,158.887 501.081,158.887 501.53,139.171 501.979,152.315 502.428,139.171 502.876,152.315 503.325,126.027 503.774,152.315 504.223,139.171 504.672,132.599 505.121,152.315 505.57,158.887 506.018,158.887 506.467,158.887 506.916,139.171 507.365,112.883 507.814,106.311 508.263,158.887 508.712,139.171 509.161,132.599 509.609,139.171 510.058,145.743 510.507,152.315 510.956,152.315 511.405,132.599 511.854,132.599 512.303,152.315 512.752,158.887 513.2,145.743 513.649,145.743 514.098,139.171 514.547,139.171 514.996,158.887 515.445,158.887 515.894,158.887 516.342,158.887 516.791,158.887"/>
</g>
<clipPath id="cp00576432">
  <polygon points="0,432 576,432 576,0 0,0"/>
</clipPath>
<g clip-path="url(#cp00576432)">
<polygon fill="#ffffff" shape-rendering="crispEdges" points="74.88,384.48 187.097,384.48 74.88,253.04"/>
<polygon fill="#ffffff" shape-rendering="crispEdges" points="187.097,384.48 187.097,253.04 74.88,253.04"/>
<polyline fill="none" stroke="#262626" stroke-width="0.5" stroke-linecap="butt" stroke-linejoin="miter" stroke-opacity="0.15" stroke-dasharray="16,0" points="74.88,384.48 74.88,253.04"/>
<polyline fill="none" stroke="#262626" stroke-width="0.5" stroke-linecap="butt" stroke-linejoin="miter" stroke-opacity="0.15" stroke-dasharray="16,0" points="97.3233,384.48 97.3233,253.04"/>
<polyline fill="none" stroke="#262626" stroke-width="0.5" stroke-linecap="butt" stroke-linejoin="miter" stroke-opacity="0.15" stroke-dasharray="16,0" points="119.767,384.48 119.767,253.04"/>
<polyline fill="none" stroke="#262626" stroke-width="0.5" stroke-linecap="butt" stroke-linejoin="miter" stroke-opacity="0.15" stroke-dasharray="16,0" points="142.21,384.48 142.21,253.04"/>
<polyline fill="none" stroke="#262626" stroke-width="0.5" stroke-linecap="butt" stroke-linejoin="miter" stroke-opacity="0.15" stroke-dasharray="16,0" points="164.653,384.48 164.653,253.04"/>
<polyline fill="none" stroke="#262626" stroke-width="0.5" stroke-linecap="butt" stroke-linejoin="miter" stroke-opacity="0.15" stroke-dasharray="16,0" points="187.097,384.48 187.097,253.04"/>
<polyline fill="none" stroke="#262626" stroke-width="0.5" stroke-linecap="butt" stroke-linejoin="miter" points="74.88,384.48 74.88,383.161"/>
<polyline fill="none" stroke="#262626" stroke-width="0.5" stroke-linecap="butt" stroke-linejoin="miter" points="74.88,253.04 74.88,254.359"/>
<polyline fill="none" stroke="#262626" stroke-width="0.5" stroke-linecap="butt" stroke-linejoin="miter" points="97.3233,384.48 97.3233,383.161"/>
<polyline fill="none" stroke="#262626" stroke-width="0.5" stroke-linecap="butt" stroke-linejoin="miter" points="97.3233,253.04 97.3233,254.359"/>
<polyline fill="none" stroke="#262626" stroke-width="0.5" stroke-linecap="butt" stroke-linejoin="miter" points="119.767,384.48 119.767,383.161"/>
<polyline fill="none" stroke="#262626" stroke-width="0.5" stroke-linecap="butt" stroke-linejoin="miter" points="119.767,253.04 119.767,254.359"/>
<polyline fill="none" stroke="#262626" stroke-width="0.5" stroke-linecap="butt" stroke-linejoin="miter" points="142.21,384.48 142.21,383.161"/>
<polyline fill="none" stroke="#262626" stroke-width="0.5" stroke-linecap="butt" stroke-linejoin="miter" points="142.21,253.04 142.21,254.359"/>
<polyline fill="none" stroke="#262626" stroke-width="0.5" stroke-linecap="butt" stroke-linejoin="miter" points="164.653,384.48 164.653,383.161"/>
<polyline fill="none" stroke="#262626" stroke-width="0.5" stroke-linecap="butt" stroke-linejoin="miter" points="164.653,253.04 164.653,254.359"/>
<polyline fill="none" stroke="#262626" stroke-width="0.5" stroke-linecap="butt" stroke-linejoin="miter" points="187.097,384.48 187.097,383.161"/>
<polyline fill="none" stroke="#262626" stroke-width="0.5" stroke-linecap="butt" stroke-linejoin="miter" points="187.097,253.04 187.097,254.359"/>
<text xml:space="preserve" transform="translate(71.88,400.497) rotate(-0,3,-11)" font-family="FreeSans" font-weight="normal" font-style="normal" font-size="10"><tspan y="-1" fill="rgb(38,38,38)" x="0 ">0</tspan></text>
<text xml:space="preserve" transform="translate(91.3234,400.497) rotate(-0,6,-11)" font-family="FreeSans" font-weight="normal" font-style="normal" font-size="10"><tspan y="-1" fill="rgb(38,38,38)" x="0 6 ">50</tspan></text>
<text xml:space="preserve" transform="translate(110.767,400.497) rotate(-0,9,-11)" font-family="FreeSans" font-weight="normal" font-style="normal" font-size="10"><tspan y="-1" fill="rgb(38,38,38)" x="0 6 12 ">100</tspan></text>
<text xml:space="preserve" transform="translate(133.21,400.497) rotate(-0,9,-11)" font-family="FreeSans" font-weight="normal" font-style="normal" font-size="10"><tspan y="-1" fill="rgb(38,38,38)" x="0 6 12 ">150</tspan></text>
<text xml:space="preserve" transform="translate(155.653,400.497) rotate(-0,9,-11)" font-family="FreeSans" font-weight="normal" font-style="normal" font-size="10"><tspan y="-1" fill="rgb(38,38,38)" x="0 6 12 ">200</tspan></text>
<text xml:space="preserve" transform="translate(178.097,400.497) rotate(-0,9,-11)" font-family="FreeSans" font-weight="normal" font-style="normal" font-size="10"><tspan y="-1" fill="rgb(38,38,38)" x="0 6 12 ">250</tspan></text>
<polyline fill="none" stroke="#262626" stroke-width="0.5" stroke-linecap="butt" stroke-linejoin="miter" stroke-opacity="0.15" stroke-dasharray="16,0" points="74.88,384.48 187.097,384.48"/>
<polyline fill="none" stroke="#262626" stroke-width="0.5" stroke-linecap="butt" stroke-linejoin="miter" stroke-opacity="0.15" stroke-dasharray="16,0" points="74.88,358.192 187.097,358.192"/>
<polyline fill="none" stroke="#262626" stroke-width="0.5" stroke-linecap="butt" stroke-linejoin="miter" stroke-opacity="0.15" stroke-dasharray="16,0" points="74.88,331.904 187.097,331.904"/>
<polyline fill="none" stroke="#262626" stroke-width="0.5" stroke-linecap="butt" stroke-linejoin="miter" stroke-opacity="0.15" stroke-dasharray="16,0" points="74.88,305.616 187.097,305.616"/>
<polyline fill="none" stroke="#262626" stroke-width="0.5" stroke-linecap="butt" stroke-linejoin="miter" stroke-opacity="0.15" stroke-dasharray="16,0" points="74.88,279.328 187.097,279.328"/>
<polyline fill="none" stroke="#262626" stroke-width="0.5" stroke-linecap="butt" stroke-linejoin="miter" stroke-opacity="0.15" stroke-dasharray="16,0" points="74.88,253.04 187.097,253.04"/>
<polyline fill="none" stroke="#262626" stroke-width="0.5" stroke-linecap="butt" stroke-linejoin="miter" points="74.88,384.48 76.1969,384.48"/>
<polyline fill="none" stroke="#262626" stroke-width="0.5" stroke-linecap="butt" stroke-linejoin="miter" points="187.097,384.48 185.78,384.48"/>
<polyline fill="none" stroke="#262626" stroke-width="0.5" stroke-linecap="butt" stroke-linejoin="miter" points="74.88,358.192 76.1969,358.192"/>
<polyline fill="none" stroke="#262626" stroke-width="0.5" stroke-linecap="butt" stroke-linejoin="miter" points="187.097,358.192 185.78,358.192"/>
<polyline fill="none" stroke="#262626" stroke-width="0.5" stroke-linecap="butt" stroke-linejoin="miter" points="74.88,331.904 76.1969,331.904"/>
<polyline fill="none" stroke="#262626" stroke-width="0.5" stroke-linecap="butt" stroke-linejoin="miter" points="187.097,331.904 185.78,331.904"/>
<polyline fill="none" stroke="#262626" stroke-width="0.5" stroke-linecap="butt" stroke-linejoin="miter" points="74.88,305.616 76.1969,305.616"/>
<polyline fill="none" stroke="#262626" stroke-width="0.5" stroke-linecap="butt" stroke-linejoin="miter" points="187.097,305.616 185.78,305.616"/>
<polyline fill="none" stroke="#262626" stroke-width="0.5" stroke-linecap="butt" stroke-linejoin="miter" points="74.88,279.328 76.1969,279.328"/>
<polyline fill="none" stroke="#262626" stroke-width="0.5" stroke-linecap="butt" stroke-linejoin="miter" points="187.097,279.328 185.78,279.328"/>
<polyline fill="none" stroke="#262626" stroke-width="0.5" stroke-linecap="butt" stroke-linejoin="miter" points="74.88,253.04 76.1969,253.04"/>
<polyline fill="none" stroke="#262626" stroke-width="0.5" stroke-linecap="butt" stroke-linejoin="miter" points="187.097,253.04 185.78,253.04"/>
<text xml:space="preserve" transform="translate(63.8703,389.98) rotate(-0,6,-5.5)" font-family="FreeSans" font-weight="normal" font-style="normal" font-size="10"><tspan y="-1" fill="rgb(38,38,38)" x="0 ">0</tspan></text>
<text xml:space="preserve" transform="translate(51.8703,363.692) rotate(-0,18,-5.5)" font-family="FreeSans" font-weight="normal" font-style="normal" font-size="10"><tspan y="-1" fill="rgb(38,38,38)" x="0 6 12 ">500</tspan></text>
<text xml:space="preserve" transform="translate(45.8703,337.404) rotate(-0,24,-5.5)" font-family="FreeSans" font-weight="normal" font-style="normal" font-size="10"><tspan y="-1" fill="rgb(38,38,38)" x="0 6 12 18 ">1000</tspan></text>
<text xml:space="preserve" transform="translate(45.8703,311.116) rotate(-0,24,-5.5)" font-family="FreeSans" font-weight="normal" font-style="normal" font-size="10"><tspan y="-1" fill="rgb(38,38,38)" x="0 6 12 18 ">1500</tspan></text>
<text xml:space="preserve" transform="translate(45.8703,284.828) rotate(-0,24,-5.5)" font-family="FreeSans" font-weight="normal" font-style="normal" font-size="10"><tspan y="-1" fill="rgb(38,38,38)" x="0 6 12 18 ">2000</tspan></text>
<text xml:space="preserve" transform="translate(45.8703,258.54) rotate(-0,24,-5.5)" font-family="FreeSans" font-weight="normal" font-style="normal" font-size="10"><tspan y="-1" fill="rgb(38,38,38)" x="0 6 12 18 ">2500</tspan></text>
<polyline fill="none" stroke="#262626" stroke-width="0.5" stroke-linecap="square" stroke-linejoin="miter" stroke-dasharray="16,0" points="74.88,384.48 187.097,384.48"/>
<polyline fill="none" stroke="#262626" stroke-width="0.5" stroke-linecap="square" stroke-linejoin="miter" stroke-dasharray="16,0" points="74.88,253.04 187.097,253.04"/>
<polyline fill="none" stroke="#262626" stroke-width="0.5" stroke-linecap="square" stroke-linejoin="miter" stroke-dasharray="16,0" points="74.88,384.48 74.88,253.04"/>
<polyline fill="none" stroke="#262626" stroke-width="0.5" stroke-linecap="square" stroke-linejoin="miter" stroke-dasharray="16,0" points="187.097,384.48 187.097,253.04"/>
<text xml:space="preserve" transform="translate(74.9884,243.04) rotate(-0,56,0)" font-family="FreeSans" font-weight="bold" font-style="normal" font-size="11"><tspan y="-2" fill="rgb(0,0,0)" x="0 8 15 19 25 29 32 39 46 52 55 62 68 72 75 85 88 95 102 106 ">Rotations per minute</tspan></text>
<text xml:space="preserve" transform="translate(32.3703,318.76) rotate(-90,9.5,0)" font-family="FreeSans" font-weight="normal" font-style="normal" font-size="11"><tspan y="-2" fill="rgb(38,38,38)" x="0 4 10 ">rpm</tspan></text>
<text xml:space="preserve" transform="translate(90.9884,413.497) rotate(-0,40,-13)" font-family="FreeSans" font-weight="normal" font-style="normal" font-size="11"><tspan y="-2" fill="rgb(38,38,38)" x="0 7 9 15 21 26 32 38 41 44 46 55 61 64 66 72 75 ">Elapsed time in s</tspan></text>
<polyline fill="none" stroke="#0071bc" stroke-width="0.5" stroke-linecap="butt" stroke-linejoin="round" points="75.3289,329.275 75.7777,330.064 76.2266,329.696 76.6755,330.695 77.1243,330.222 77.5732,330.958 78.0221,330.905 78.4709,330.905 78.9198,330.905 79.3687,331.378 79.8175,332.219 80.2664,331.746 80.7153,272.335 81.1641,272.335 81.613,281.01 82.0619,320.653 82.5107,318.865 82.9596,304.88 83.4085,285.847 83.8573,322.966 84.3062,309.033 84.7551,299.57 85.2039,288.213 85.6528,276.962 86.1017,303.04 86.5505,300.937 86.9994,297.046 87.4483,294.102 87.8972,290.79 88.346,288.056 88.7949,285.217 89.2437,283.271 89.6926,280.905 90.1415,278.645 90.5903,276.91 91.0392,301.094 91.4881,301.463 91.9369,301.568 92.3858,301.936 92.8347,302.093 93.2836,301.778 93.7324,301.41 94.1813,301.41 94.6302,300.358 95.079,299.675 95.5279,299.99 95.9767,300.989 96.4256,300.148 96.8745,298.991 97.3233,296.783 97.7722,297.151 98.2211,299.044 98.67,301.042 99.1188,301.778 99.5677,301.936 100.017,302.146 100.465,302.619 100.914,302.724 101.363,302.304 101.812,302.093 102.261,302.304 102.71,302.514 103.159,304.827 103.607,306.352 104.056,306.983 104.505,307.141 104.954,306.983 105.403,307.456 105.852,307.298 106.301,307.561 106.75,312.135 107.198,315.08 107.647,315.763 108.096,336.951 108.545,339.475 108.994,340.264 109.443,340.895 109.892,325.647 110.34,313.923 110.789,303.934 111.238,322.914 111.687,318.813 112.136,318.918 112.585,325.122 113.034,339.843 113.483,328.119 113.931,322.598 114.38,315.711 114.829,309.559 115.278,302.619 115.727,295.889 116.176,289.055 116.625,303.881 117.074,307.193 117.522,307.246 117.971,307.982 118.42,310.979 118.869,312.661 119.318,312.819 119.767,309.98 120.216,312.188 120.664,317.971 121.113,317.761 121.562,319.023 122.011,317.13 122.46,314.607 122.909,312.03 123.358,309.401 123.807,306.93 124.255,303.934 124.704,301.778 125.153,299.885 125.602,298.676 126.051,297.677 126.5,298.15 126.949,298.886 127.397,299.99 127.846,300.726 128.295,301.2 128.744,301.568 129.193,303.355 129.642,305.09 130.091,306.773 130.54,307.982 130.988,309.77 131.437,311.452 131.886,320.758 132.335,322.02 132.784,331.957 133.233,341.473 133.682,344.312 134.13,344.838 134.579,344.312 135.028,335.9 135.477,339.738 135.926,344.838 136.375,345.784 136.824,345.153 137.273,345.837 137.721,338.581 138.17,314.081 138.619,277.593 139.068,309.401 139.517,319.075 139.966,297.94 140.415,278.066 140.863,330.064 141.312,309.507 141.761,337.74 142.21,345.311 142.659,345.311 143.108,345.363 143.557,345.153 144.006,310.558 144.454,320.758 144.903,332.167 145.352,344.995 145.801,345.626 146.25,345.206 146.699,346.257 147.148,344.838 147.596,344.154 148.045,345.521 148.494,347.572 148.943,270.811 149.392,333.324 149.841,326.226 150.29,320.758 150.739,318.392 151.187,344.733 151.636,345.048 152.085,346.468 152.534,373.965 152.983,384.48 153.432,384.48 153.881,384.48 154.329,384.48 154.778,384.48 155.227,384.48 155.676,384.48 156.125,384.48 156.574,384.48 157.023,384.48 157.472,384.48 157.92,384.48 158.369,384.48 158.818,384.48 159.267,384.48 159.716,384.48 160.165,384.48 160.614,384.48 161.062,384.48 161.511,384.48 161.96,384.48 162.409,384.48 162.858,384.48 163.307,384.48 163.756,335.111 164.205,338.266 164.653,343.839 165.102,344.207 165.551,345.574 166,345.626 166.449,344.102 166.898,344.785 167.347,310.138 167.795,338.003 168.244,326.331 168.693,338.634 169.142,314.133 169.591,310.768 170.04,330.116 170.489,314.291 170.938,332.325 171.386,343.208 171.835,345.206 172.284,344.47 172.733,333.586 173.182,308.245 173.631,289.633 174.08,330.695 174.529,317.235 174.977,314.133 175.426,310.663 175.875,308.823 176.324,309.664 176.773,312.398 177.222,314.922 177.671,309.77 178.119,304.617 178.568,325.279 179.017,326.752 179.466,326.068 179.915,325.017 180.364,323.387 180.813,324.175 181.262,339.37 181.71,344.838 182.159,346.205 182.608,345.153"/>
</g>
<clipPath id="cp00576432">
  <polygon points="0,432 576,432 576,0 0,0"/>
</clipPath>
<g clip-path="url(#cp00576432)">
<polygon fill="#ffffff" shape-rendering="crispEdges" points="241.972,384.48 354.188,384.48 241.972,253.04"/>
<polygon fill="#ffffff" shape-rendering="crispEdges" points="354.188,384.48 354.188,253.04 241.972,253.04"/>
<polyline fill="none" stroke="#262626" stroke-width="0.5" stroke-linecap="butt" stroke-linejoin="miter" stroke-opacity="0.15" stroke-dasharray="16,0" points="241.972,384.48 241.972,253.04"/>
<polyline fill="none" stroke="#262626" stroke-width="0.5" stroke-linecap="butt" stroke-linejoin="miter" stroke-opacity="0.15" stroke-dasharray="16,0" points="264.415,384.48 264.415,253.04"/>
<polyline fill="none" stroke="#262626" stroke-width="0.5" stroke-linecap="butt" stroke-linejoin="miter" stroke-opacity="0.15" stroke-dasharray="16,0" points="286.858,384.48 286.858,253.04"/>
<polyline fill="none" stroke="#262626" stroke-width="0.5" stroke-linecap="butt" stroke-linejoin="miter" stroke-opacity="0.15" stroke-dasharray="16,0" points="309.302,384.48 309.302,253.04"/>
<polyline fill="none" stroke="#262626" stroke-width="0.5" stroke-linecap="butt" stroke-linejoin="miter" stroke-opacity="0.15" stroke-dasharray="16,0" points="331.745,384.48 331.745,253.04"/>
<polyline fill="none" stroke="#262626" stroke-width="0.5" stroke-linecap="butt" stroke-linejoin="miter" stroke-opacity="0.15" stroke-dasharray="16,0" points="354.188,384.48 354.188,253.04"/>
<polyline fill="none" stroke="#262626" stroke-width="0.5" stroke-linecap="butt" stroke-linejoin="miter" points="241.972,384.48 241.972,383.161"/>
<polyline fill="none" stroke="#262626" stroke-width="0.5" stroke-linecap="butt" stroke-linejoin="miter" points="241.972,253.04 241.972,254.359"/>
<polyline fill="none" stroke="#262626" stroke-width="0.5" stroke-linecap="butt" stroke-linejoin="miter" points="264.415,384.48 264.415,383.161"/>
<polyline fill="none" stroke="#262626" stroke-width="0.5" stroke-linecap="butt" stroke-linejoin="miter" points="264.415,253.04 264.415,254.359"/>
<polyline fill="none" stroke="#262626" stroke-width="0.5" stroke-linecap="butt" stroke-linejoin="miter" points="286.858,384.48 286.858,383.161"/>
<polyline fill="none" stroke="#262626" stroke-width="0.5" stroke-linecap="butt" stroke-linejoin="miter" points="286.858,253.04 286.858,254.359"/>
<polyline fill="none" stroke="#262626" stroke-width="0.5" stroke-linecap="butt" stroke-linejoin="miter" points="309.302,384.48 309.302,383.161"/>
<polyline fill="none" stroke="#262626" stroke-width="0.5" stroke-linecap="butt" stroke-linejoin="miter" points="309.302,253.04 309.302,254.359"/>
<polyline fill="none" stroke="#262626" stroke-width="0.5" stroke-linecap="butt" stroke-linejoin="miter" points="331.745,384.48 331.745,383.161"/>
<polyline fill="none" stroke="#262626" stroke-width="0.5" stroke-linecap="butt" stroke-linejoin="miter" points="331.745,253.04 331.745,254.359"/>
<polyline fill="none" stroke="#262626" stroke-width="0.5" stroke-linecap="butt" stroke-linejoin="miter" points="354.188,384.48 354.188,383.161"/>
<polyline fill="none" stroke="#262626" stroke-width="0.5" stroke-linecap="butt" stroke-linejoin="miter" points="354.188,253.04 354.188,254.359"/>
<text xml:space="preserve" transform="translate(238.972,400.497) rotate(-0,3,-11)" font-family="FreeSans" font-weight="normal" font-style="normal" font-size="10"><tspan y="-1" fill="rgb(38,38,38)" x="0 ">0</tspan></text>
<text xml:space="preserve" transform="translate(258.415,400.497) rotate(-0,6,-11)" font-family="FreeSans" font-weight="normal" font-style="normal" font-size="10"><tspan y="-1" fill="rgb(38,38,38)" x="0 6 ">50</tspan></text>
<text xml:space="preserve" transform="translate(277.858,400.497) rotate(-0,9,-11)" font-family="FreeSans" font-weight="normal" font-style="normal" font-size="10"><tspan y="-1" fill="rgb(38,38,38)" x="0 6 12 ">100</tspan></text>
<text xml:space="preserve" transform="translate(300.302,400.497) rotate(-0,9,-11)" font-family="FreeSans" font-weight="normal" font-style="normal" font-size="10"><tspan y="-1" fill="rgb(38,38,38)" x="0 6 12 ">150</tspan></text>
<text xml:space="preserve" transform="translate(322.745,400.497) rotate(-0,9,-11)" font-family="FreeSans" font-weight="normal" font-style="normal" font-size="10"><tspan y="-1" fill="rgb(38,38,38)" x="0 6 12 ">200</tspan></text>
<text xml:space="preserve" transform="translate(345.188,400.497) rotate(-0,9,-11)" font-family="FreeSans" font-weight="normal" font-style="normal" font-size="10"><tspan y="-1" fill="rgb(38,38,38)" x="0 6 12 ">250</tspan></text>
<polyline fill="none" stroke="#262626" stroke-width="0.5" stroke-linecap="butt" stroke-linejoin="miter" stroke-opacity="0.15" stroke-dasharray="16,0" points="241.972,384.48 354.188,384.48"/>
<polyline fill="none" stroke="#262626" stroke-width="0.5" stroke-linecap="butt" stroke-linejoin="miter" stroke-opacity="0.15" stroke-dasharray="16,0" points="241.972,362.573 354.188,362.573"/>
<polyline fill="none" stroke="#262626" stroke-width="0.5" stroke-linecap="butt" stroke-linejoin="miter" stroke-opacity="0.15" stroke-dasharray="16,0" points="241.972,340.667 354.188,340.667"/>
<polyline fill="none" stroke="#262626" stroke-width="0.5" stroke-linecap="butt" stroke-linejoin="miter" stroke-opacity="0.15" stroke-dasharray="16,0" points="241.972,318.76 354.188,318.76"/>
<polyline fill="none" stroke="#262626" stroke-width="0.5" stroke-linecap="butt" stroke-linejoin="miter" stroke-opacity="0.15" stroke-dasharray="16,0" points="241.972,296.853 354.188,296.853"/>
<polyline fill="none" stroke="#262626" stroke-width="0.5" stroke-linecap="butt" stroke-linejoin="miter" stroke-opacity="0.15" stroke-dasharray="16,0" points="241.972,274.947 354.188,274.947"/>
<polyline fill="none" stroke="#262626" stroke-width="0.5" stroke-linecap="butt" stroke-linejoin="miter" stroke-opacity="0.15" stroke-dasharray="16,0" points="241.972,253.04 354.188,253.04"/>
<polyline fill="none" stroke="#262626" stroke-width="0.5" stroke-linecap="butt" stroke-linejoin="miter" points="241.972,384.48 243.289,384.48"/>
<polyline fill="none" stroke="#262626" stroke-width="0.5" stroke-linecap="butt" stroke-linejoin="miter" points="354.188,384.48 352.871,384.48"/>
<polyline fill="none" stroke="#262626" stroke-width="0.5" stroke-linecap="butt" stroke-linejoin="miter" points="241.972,362.573 243.289,362.573"/>
<polyline fill="none" stroke="#262626" stroke-width="0.5" stroke-linecap="butt" stroke-linejoin="miter" points="354.188,362.573 352.871,362.573"/>
<polyline fill="none" stroke="#262626" stroke-width="0.5" stroke-linecap="butt" stroke-linejoin="miter" points="241.972,340.667 243.289,340.667"/>
<polyline fill="none" stroke="#262626" stroke-width="0.5" stroke-linecap="butt" stroke-linejoin="miter" points="354.188,340.667 352.871,340.667"/>
<polyline fill="none" stroke="#262626" stroke-width="0.5" stroke-linecap="butt" stroke-linejoin="miter" points="241.972,318.76 243.289,318.76"/>
<polyline fill="none" stroke="#262626" stroke-width="0.5" stroke-linecap="butt" stroke-linejoin="miter" points="354.188,318.76 352.871,318.76"/>
<polyline fill="none" stroke="#262626" stroke-width="0.5" stroke-linecap="butt" stroke-linejoin="miter" points="241.972,296.853 243.289,296.853"/>
<polyline fill="none" stroke="#262626" stroke-width="0.5" stroke-linecap="butt" stroke-linejoin="miter" points="354.188,296.853 352.871,296.853"/>
<polyline fill="none" stroke="#262626" stroke-width="0.5" stroke-linecap="butt" stroke-linejoin="miter" points="241.972,274.947 243.289,274.947"/>
<polyline fill="none" stroke="#262626" stroke-width="0.5" stroke-linecap="butt" stroke-linejoin="miter" points="354.188,274.947 352.871,274.947"/>
<polyline fill="none" stroke="#262626" stroke-width="0.5" stroke-linecap="butt" stroke-linejoin="miter" points="241.972,253.04 243.289,253.04"/>
<polyline fill="none" stroke="#262626" stroke-width="0.5" stroke-linecap="butt" stroke-linejoin="miter" points="354.188,253.04 352.871,253.04"/>
<text xml:space="preserve" transform="translate(230.962,389.98) rotate(-0,6,-5.5)" font-family="FreeSans" font-weight="normal" font-style="normal" font-size="10"><tspan y="-1" fill="rgb(38,38,38)" x="0 ">0</tspan></text>
<text xml:space="preserve" transform="translate(224.962,368.073) rotate(-0,12,-5.5)" font-family="FreeSans" font-weight="normal" font-style="normal" font-size="10"><tspan y="-1" fill="rgb(38,38,38)" x="0 6 ">10</tspan></text>
<text xml:space="preserve" transform="translate(224.962,346.167) rotate(-0,12,-5.5)" font-family="FreeSans" font-weight="normal" font-style="normal" font-size="10"><tspan y="-1" fill="rgb(38,38,38)" x="0 6 ">20</tspan></text>
<text xml:space="preserve" transform="translate(224.962,324.26) rotate(-0,12,-5.5)" font-family="FreeSans" font-weight="normal" font-style="normal" font-size="10"><tspan y="-1" fill="rgb(38,38,38)" x="0 6 ">30</tspan></text>
<text xml:space="preserve" transform="translate(224.962,302.353) rotate(-0,12,-5.5)" font-family="FreeSans" font-weight="normal" font-style="normal" font-size="10"><tspan y="-1" fill="rgb(38,38,38)" x="0 6 ">40</tspan></text>
<text xml:space="preserve" transform="translate(224.962,280.447) rotate(-0,12,-5.5)" font-family="FreeSans" font-weight="normal" font-style="normal" font-size="10"><tspan y="-1" fill="rgb(38,38,38)" x="0 6 ">50</tspan></text>
<text xml:space="preserve" transform="translate(224.962,258.54) rotate(-0,12,-5.5)" font-family="FreeSans" font-weight="normal" font-style="normal" font-size="10"><tspan y="-1" fill="rgb(38,38,38)" x="0 6 ">60</tspan></text>
<polyline fill="none" stroke="#262626" stroke-width="0.5" stroke-linecap="square" stroke-linejoin="miter" stroke-dasharray="16,0" points="241.972,384.48 354.188,384.48"/>
<polyline fill="none" stroke="#262626" stroke-width="0.5" stroke-linecap="square" stroke-linejoin="miter" stroke-dasharray="16,0" points="241.972,253.04 354.188,253.04"/>
<polyline fill="none" stroke="#262626" stroke-width="0.5" stroke-linecap="square" stroke-linejoin="miter" stroke-dasharray="16,0" points="241.972,384.48 241.972,253.04"/>
<polyline fill="none" stroke="#262626" stroke-width="0.5" stroke-linecap="square" stroke-linejoin="miter" stroke-dasharray="16,0" points="354.188,384.48 354.188,253.04"/>
<text xml:space="preserve" transform="translate(261.58,243.04) rotate(-0,36.5,0)" font-family="FreeSans" font-weight="bold" font-style="normal" font-size="11"><tspan y="-2" fill="rgb(0,0,0)" x="0 7 13 20 23 29 32 38 41 47 54 60 66 ">Vehicle speed</tspan></text>
<text xml:space="preserve" transform="translate(208.962,318.76) rotate(-90,12,0)" font-family="FreeSans" font-weight="normal" font-style="normal" font-size="11"><tspan y="-2" fill="rgb(38,38,38)" x="0 6 15 18 ">km/h</tspan></text>
<text xml:space="preserve" transform="translate(258.08,413.497) rotate(-0,40,-13)" font-family="FreeSans" font-weight="normal" font-style="normal" font-size="11"><tspan y="-2" fill="rgb(38,38,38)" x="0 7 9 15 21 26 32 38 41 44 46 55 61 64 66 72 75 ">Elapsed time in s</tspan></text>
<polyline fill="none" stroke="#0071bc" stroke-width="0.5" stroke-linecap="butt" stroke-linejoin="round" points="242.42,384.48 242.869,384.48 243.318,384.48 243.767,384.48 244.216,384.48 244.665,384.48 245.114,384.48 245.563,384.48 246.011,384.48 246.46,384.48 246.909,384.48 247.358,384.48 247.807,384.48 248.256,384.48 248.705,351.62 249.153,351.62 249.602,347.239 250.051,338.476 250.5,327.523 250.949,323.141 251.398,323.141 251.847,314.379 252.296,303.425 252.744,294.663 253.193,292.472 253.642,290.281 254.091,285.9 254.54,281.519 254.989,281.519 255.438,274.947 255.886,270.565 256.335,268.375 256.784,266.184 257.233,263.993 257.682,261.803 258.131,263.993 258.58,263.993 259.029,263.993 259.477,263.993 259.926,263.993 260.375,263.993 260.824,263.993 261.273,263.993 261.722,261.803 262.171,261.803 262.619,261.803 263.068,261.803 263.517,261.803 263.966,259.612 264.415,257.421 264.864,257.421 265.313,259.612 265.762,263.993 266.21,263.993 266.659,263.993 267.108,263.993 267.557,266.184 268.006,266.184 268.455,263.993 268.904,263.993 269.353,263.993 269.801,266.184 270.25,268.375 270.699,270.565 271.148,270.565 271.597,272.756 272.046,272.756 272.495,272.756 272.943,272.756 273.392,272.756 273.841,279.328 274.29,283.709 274.739,283.709 275.188,305.616 275.637,331.904 276.086,342.857 276.534,342.857 276.983,336.285 277.432,325.332 277.881,316.569 278.33,314.379 278.779,309.997 279.228,309.997 279.676,316.569 280.125,320.951 280.574,323.141 281.023,314.379 281.472,305.616 281.921,299.044 282.37,292.472 282.819,283.709 283.267,274.947 283.716,272.756 284.165,272.756 284.614,272.756 285.063,272.756 285.512,277.137 285.961,281.519 286.409,279.328 286.858,274.947 287.307,279.328 287.756,285.9 288.205,290.281 288.654,290.281 289.103,285.9 289.552,283.709 290,279.328 290.449,274.947 290.898,270.565 291.347,266.184 291.796,263.993 292.245,261.803 292.694,259.612 293.142,257.421 293.591,259.612 294.04,259.612 294.489,261.803 294.938,261.803 295.387,263.993 295.836,263.993 296.285,266.184 296.733,268.375 297.182,270.565 297.631,272.756 298.08,274.947 298.529,279.328 298.978,290.281 299.427,294.663 299.875,309.997 300.324,325.332 300.773,345.048 301.222,353.811 301.671,351.62 302.12,353.811 302.569,364.764 303.018,375.717 303.466,375.717 303.915,384.48 304.364,384.48 304.813,382.289 305.262,369.145 305.711,351.62 306.16,345.048 306.608,338.476 307.057,334.095 307.506,323.141 307.955,320.951 308.404,320.951 308.853,320.951 309.302,329.713 309.751,342.857 310.199,349.429 310.648,364.764 311.097,360.383 311.546,347.239 311.995,345.048 312.444,342.857 312.893,342.857 313.341,349.429 313.79,358.192 314.239,364.764 314.688,364.764 315.137,380.099 315.586,384.48 316.035,380.099 316.484,380.099 316.932,377.908 317.381,380.099 317.83,382.289 318.279,384.48 318.728,384.48 319.177,384.48 319.626,384.48 320.074,384.48 320.523,384.48 320.972,384.48 321.421,384.48 321.87,384.48 322.319,384.48 322.768,384.48 323.217,384.48 323.665,384.48 324.114,384.48 324.563,384.48 325.012,384.48 325.461,384.48 325.91,384.48 326.359,384.48 326.807,384.48 327.256,384.48 327.705,384.48 328.154,384.48 328.603,384.48 329.052,384.48 329.501,384.48 329.95,384.48 330.398,384.48 330.847,384.48 331.296,384.48 331.745,384.48 332.194,384.48 332.643,384.48 333.092,384.48 333.54,384.48 333.989,384.48 334.438,384.48 334.887,380.099 335.336,371.336 335.785,369.145 336.234,362.573 336.683,360.383 337.131,353.811 337.58,345.048 338.029,340.667 338.478,340.667 338.927,349.429 339.376,349.429 339.825,349.429 340.273,340.667 340.722,329.713 341.171,327.523 341.62,329.713 342.069,325.332 342.518,323.141 342.967,320.951 343.416,320.951 343.864,325.332 344.313,325.332 344.762,323.141 345.211,316.569 345.66,318.76 346.109,318.76 346.558,318.76 347.007,316.569 347.455,314.379 347.904,314.379 348.353,325.332 348.802,342.857 349.251,360.383 349.7,362.573"/>
</g>
<clipPath id="cp00576432">
  <polygon points="0,432 576,432 576,0 0,0"/>
</clipPath>
<g clip-path="url(#cp00576432)">
<polygon fill="#ffffff" shape-rendering="crispEdges" points="409.063,384.48 521.28,384.48 409.063,253.04"/>
<polygon fill="#ffffff" shape-rendering="crispEdges" points="521.28,384.48 521.28,253.04 409.063,253.04"/>
<polyline fill="none" stroke="#262626" stroke-width="0.5" stroke-linecap="butt" stroke-linejoin="miter" stroke-opacity="0.15" stroke-dasharray="16,0" points="409.063,384.48 409.063,253.04"/>
<polyline fill="none" stroke="#262626" stroke-width="0.5" stroke-linecap="butt" stroke-linejoin="miter" stroke-opacity="0.15" stroke-dasharray="16,0" points="431.507,384.48 431.507,253.04"/>
<polyline fill="none" stroke="#262626" stroke-width="0.5" stroke-linecap="butt" stroke-linejoin="miter" stroke-opacity="0.15" stroke-dasharray="16,0" points="453.95,384.48 453.95,253.04"/>
<polyline fill="none" stroke="#262626" stroke-width="0.5" stroke-linecap="butt" stroke-linejoin="miter" stroke-opacity="0.15" stroke-dasharray="16,0" points="476.393,384.48 476.393,253.04"/>
<polyline fill="none" stroke="#262626" stroke-width="0.5" stroke-linecap="butt" stroke-linejoin="miter" stroke-opacity="0.15" stroke-dasharray="16,0" points="498.837,384.48 498.837,253.04"/>
<polyline fill="none" stroke="#262626" stroke-width="0.5" stroke-linecap="butt" stroke-linejoin="miter" stroke-opacity="0.15" stroke-dasharray="16,0" points="521.28,384.48 521.28,253.04"/>
<polyline fill="none" stroke="#262626" stroke-width="0.5" stroke-linecap="butt" stroke-linejoin="miter" points="409.063,384.48 409.063,383.161"/>
<polyline fill="none" stroke="#262626" stroke-width="0.5" stroke-linecap="butt" stroke-linejoin="miter" points="409.063,253.04 409.063,254.359"/>
<polyline fill="none" stroke="#262626" stroke-width="0.5" stroke-linecap="butt" stroke-linejoin="miter" points="431.507,384.48 431.507,383.161"/>
<polyline fill="none" stroke="#262626" stroke-width="0.5" stroke-linecap="butt" stroke-linejoin="miter" points="431.507,253.04 431.507,254.359"/>
<polyline fill="none" stroke="#262626" stroke-width="0.5" stroke-linecap="butt" stroke-linejoin="miter" points="453.95,384.48 453.95,383.161"/>
<polyline fill="none" stroke="#262626" stroke-width="0.5" stroke-linecap="butt" stroke-linejoin="miter" points="453.95,253.04 453.95,254.359"/>
<polyline fill="none" stroke="#262626" stroke-width="0.5" stroke-linecap="butt" stroke-linejoin="miter" points="476.393,384.48 476.393,383.161"/>
<polyline fill="none" stroke="#262626" stroke-width="0.5" stroke-linecap="butt" stroke-linejoin="miter" points="476.393,253.04 476.393,254.359"/>
<polyline fill="none" stroke="#262626" stroke-width="0.5" stroke-linecap="butt" stroke-linejoin="miter" points="498.837,384.48 498.837,383.161"/>
<polyline fill="none" stroke="#262626" stroke-width="0.5" stroke-linecap="butt" stroke-linejoin="miter" points="498.837,253.04 498.837,254.359"/>
<polyline fill="none" stroke="#262626" stroke-width="0.5" stroke-linecap="butt" stroke-linejoin="miter" points="521.28,384.48 521.28,383.161"/>
<polyline fill="none" stroke="#262626" stroke-width="0.5" stroke-linecap="butt" stroke-linejoin="miter" points="521.28,253.04 521.28,254.359"/>
<text xml:space="preserve" transform="translate(406.063,400.497) rotate(-0,3,-11)" font-family="FreeSans" font-weight="normal" font-style="normal" font-size="10"><tspan y="-1" fill="rgb(38,38,38)" x="0 ">0</tspan></text>
<text xml:space="preserve" transform="translate(425.507,400.497) rotate(-0,6,-11)" font-family="FreeSans" font-weight="normal" font-style="normal" font-size="10"><tspan y="-1" fill="rgb(38,38,38)" x="0 6 ">50</tspan></text>
<text xml:space="preserve" transform="translate(444.95,400.497) rotate(-0,9,-11)" font-family="FreeSans" font-weight="normal" font-style="normal" font-size="10"><tspan y="-1" fill="rgb(38,38,38)" x="0 6 12 ">100</tspan></text>
<text xml:space="preserve" transform="translate(467.393,400.497) rotate(-0,9,-11)" font-family="FreeSans" font-weight="normal" font-style="normal" font-size="10"><tspan y="-1" fill="rgb(38,38,38)" x="0 6 12 ">150</tspan></text>
<text xml:space="preserve" transform="translate(489.837,400.497) rotate(-0,9,-11)" font-family="FreeSans" font-weight="normal" font-style="normal" font-size="10"><tspan y="-1" fill="rgb(38,38,38)" x="0 6 12 ">200</tspan></text>
<text xml:space="preserve" transform="translate(512.28,400.497) rotate(-0,9,-11)" font-family="FreeSans" font-weight="normal" font-style="normal" font-size="10"><tspan y="-1" fill="rgb(38,38,38)" x="0 6 12 ">250</tspan></text>
<polyline fill="none" stroke="#262626" stroke-width="0.5" stroke-linecap="butt" stroke-linejoin="miter" stroke-opacity="0.15" stroke-dasharray="16,0" points="409.063,384.48 521.28,384.48"/>
<polyline fill="none" stroke="#262626" stroke-width="0.5" stroke-linecap="butt" stroke-linejoin="miter" stroke-opacity="0.15" stroke-dasharray="16,0" points="409.063,362.573 521.28,362.573"/>
<polyline fill="none" stroke="#262626" stroke-width="0.5" stroke-linecap="butt" stroke-linejoin="miter" stroke-opacity="0.15" stroke-dasharray="16,0" points="409.063,340.667 521.28,340.667"/>
<polyline fill="none" stroke="#262626" stroke-width="0.5" stroke-linecap="butt" stroke-linejoin="miter" stroke-opacity="0.15" stroke-dasharray="16,0" points="409.063,318.76 521.28,318.76"/>
<polyline fill="none" stroke="#262626" stroke-width="0.5" stroke-linecap="butt" stroke-linejoin="miter" stroke-opacity="0.15" stroke-dasharray="16,0" points="409.063,296.853 521.28,296.853"/>
<polyline fill="none" stroke="#262626" stroke-width="0.5" stroke-linecap="butt" stroke-linejoin="miter" stroke-opacity="0.15" stroke-dasharray="16,0" points="409.063,274.947 521.28,274.947"/>
<polyline fill="none" stroke="#262626" stroke-width="0.5" stroke-linecap="butt" stroke-linejoin="miter" stroke-opacity="0.15" stroke-dasharray="16,0" points="409.063,253.04 521.28,253.04"/>
<polyline fill="none" stroke="#262626" stroke-width="0.5" stroke-linecap="butt" stroke-linejoin="miter" points="409.063,384.48 410.38,384.48"/>
<polyline fill="none" stroke="#262626" stroke-width="0.5" stroke-linecap="butt" stroke-linejoin="miter" points="521.28,384.48 519.963,384.48"/>
<polyline fill="none" stroke="#262626" stroke-width="0.5" stroke-linecap="butt" stroke-linejoin="miter" points="409.063,362.573 410.38,362.573"/>
<polyline fill="none" stroke="#262626" stroke-width="0.5" stroke-linecap="butt" stroke-linejoin="miter" points="521.28,362.573 519.963,362.573"/>
<polyline fill="none" stroke="#262626" stroke-width="0.5" stroke-linecap="butt" stroke-linejoin="miter" points="409.063,340.667 410.38,340.667"/>
<polyline fill="none" stroke="#262626" stroke-width="0.5" stroke-linecap="butt" stroke-linejoin="miter" points="521.28,340.667 519.963,340.667"/>
<polyline fill="none" stroke="#262626" stroke-width="0.5" stroke-linecap="butt" stroke-linejoin="miter" points="409.063,318.76 410.38,318.76"/>
<polyline fill="none" stroke="#262626" stroke-width="0.5" stroke-linecap="butt" stroke-linejoin="miter" points="521.28,318.76 519.963,318.76"/>
<polyline fill="none" stroke="#262626" stroke-width="0.5" stroke-linecap="butt" stroke-linejoin="miter" points="409.063,296.853 410.38,296.853"/>
<polyline fill="none" stroke="#262626" stroke-width="0.5" stroke-linecap="butt" stroke-linejoin="miter" points="521.28,296.853 519.963,296.853"/>
<polyline fill="none" stroke="#262626" stroke-width="0.5" stroke-linecap="butt" stroke-linejoin="miter" points="409.063,274.947 410.38,274.947"/>
<polyline fill="none" stroke="#262626" stroke-width="0.5" stroke-linecap="butt" stroke-linejoin="miter" points="521.28,274.947 519.963,274.947"/>
<polyline fill="none" stroke="#262626" stroke-width="0.5" stroke-linecap="butt" stroke-linejoin="miter" points="409.063,253.04 410.38,253.04"/>
<polyline fill="none" stroke="#262626" stroke-width="0.5" stroke-linecap="butt" stroke-linejoin="miter" points="521.28,253.04 519.963,253.04"/>
<text xml:space="preserve" transform="translate(392.054,389.98) rotate(-0,12,-5.5)" font-family="FreeSans" font-weight="normal" font-style="normal" font-size="10"><tspan y="-1" fill="rgb(38,38,38)" x="0 6 ">20</tspan></text>
<text xml:space="preserve" transform="translate(392.054,368.073) rotate(-0,12,-5.5)" font-family="FreeSans" font-weight="normal" font-style="normal" font-size="10"><tspan y="-1" fill="rgb(38,38,38)" x="0 6 ">30</tspan></text>
<text xml:space="preserve" transform="translate(392.054,346.167) rotate(-0,12,-5.5)" font-family="FreeSans" font-weight="normal" font-style="normal" font-size="10"><tspan y="-1" fill="rgb(38,38,38)" x="0 6 ">40</tspan></text>
<text xml:space="preserve" transform="translate(392.054,324.26) rotate(-0,12,-5.5)" font-family="FreeSans" font-weight="normal" font-style="normal" font-size="10"><tspan y="-1" fill="rgb(38,38,38)" x="0 6 ">50</tspan></text>
<text xml:space="preserve" transform="translate(392.054,302.353) rotate(-0,12,-5.5)" font-family="FreeSans" font-weight="normal" font-style="normal" font-size="10"><tspan y="-1" fill="rgb(38,38,38)" x="0 6 ">60</tspan></text>
<text xml:space="preserve" transform="translate(392.054,280.447) rotate(-0,12,-5.5)" font-family="FreeSans" font-weight="normal" font-style="normal" font-size="10"><tspan y="-1" fill="rgb(38,38,38)" x="0 6 ">70</tspan></text>
<text xml:space="preserve" transform="translate(392.054,258.54) rotate(-0,12,-5.5)" font-family="FreeSans" font-weight="normal" font-style="normal" font-size="10"><tspan y="-1" fill="rgb(38,38,38)" x="0 6 ">80</tspan></text>
<polyline fill="none" stroke="#262626" stroke-width="0.5" stroke-linecap="square" stroke-linejoin="miter" stroke-dasharray="16,0" points="409.063,384.48 521.28,384.48"/>
<polyline fill="none" stroke="#262626" stroke-width="0.5" stroke-linecap="square" stroke-linejoin="miter" stroke-dasharray="16,0" points="409.063,253.04 521.28,253.04"/>
<polyline fill="none" stroke="#262626" stroke-width="0.5" stroke-linecap="square" stroke-linejoin="miter" stroke-dasharray="16,0" points="409.063,384.48 409.063,253.04"/>
<polyline fill="none" stroke="#262626" stroke-width="0.5" stroke-linecap="square" stroke-linejoin="miter" stroke-dasharray="16,0" points="521.28,384.48 521.28,253.04"/>
<text xml:space="preserve" transform="translate(410.672,243.04) rotate(-0,54.5,0)" font-family="FreeSans" font-weight="bold" font-style="normal" font-size="11"><tspan y="-2" fill="rgb(0,0,0)" x="0 8 15 22 25 31 38 42 45 49 55 65 72 78 82 88 92 99 103 ">Coolant temperature</tspan></text>
<text xml:space="preserve" transform="translate(350.054,318.76) rotate(-90,38,0)" font-family="FreeSans" font-weight="normal" font-style="normal" font-size="11"><tspan y="-2" fill="rgb(38,38,38)" x="0 8 14 16 21 23 29 34 37 43 49 55 59 65 71 ">Celsius degrees</tspan></text>
<text xml:space="preserve" transform="translate(425.172,413.497) rotate(-0,40,-13)" font-family="FreeSans" font-weight="normal" font-style="normal" font-size="11"><tspan y="-2" fill="rgb(38,38,38)" x="0 7 9 15 21 26 32 38 41 44 46 55 61 64 66 72 75 ">Elapsed time in s</tspan></text>
<polyline fill="none" stroke="#0071bc" stroke-width="0.5" stroke-linecap="butt" stroke-linejoin="round" points="409.512,371.336 409.961,371.336 410.41,369.145 410.859,369.145 411.308,369.145 411.756,366.955 412.205,366.955 412.654,364.764 413.103,364.764 413.552,364.764 414.001,362.573 414.45,362.573 414.898,360.383 415.347,360.383 415.796,360.383 416.245,360.383 416.694,358.192 417.143,358.192 417.592,358.192 418.041,358.192 418.489,356.001 418.938,356.001 419.387,356.001 419.836,353.811 420.285,351.62 420.734,351.62 421.183,351.62 421.632,351.62 422.08,349.429 422.529,349.429 422.978,349.429 423.427,347.239 423.876,347.239 424.325,345.048 424.774,345.048 425.222,345.048 425.671,340.667 426.12,340.667 426.569,340.667 427.018,338.476 427.467,338.476 427.916,336.285 428.365,336.285 428.813,334.095 429.262,334.095 429.711,334.095 430.16,331.904 430.609,331.904 431.058,329.713 431.507,327.523 431.955,327.523 432.404,327.523 432.853,327.523 433.302,323.141 433.751,323.141 434.2,323.141 434.649,323.141 435.098,320.951 435.546,320.951 435.995,320.951 436.444,318.76 436.893,316.569 437.342,316.569 437.791,316.569 438.24,316.569 438.688,314.379 439.137,314.379 439.586,314.379 440.035,314.379 440.484,312.188 440.933,312.188 441.382,312.188 441.831,312.188 442.279,312.188 442.728,309.997 443.177,309.997 443.626,309.997 444.075,309.997 444.524,309.997 444.973,307.807 445.421,307.807 445.87,307.807 446.319,307.807 446.768,307.807 447.217,307.807 447.666,307.807 448.115,305.616 448.564,305.616 449.012,305.616 449.461,305.616 449.91,303.425 450.359,303.425 450.808,303.425 451.257,303.425 451.706,303.425 452.154,301.235 452.603,301.235 453.052,301.235 453.501,301.235 453.95,301.235 454.399,299.044 454.848,299.044 455.297,299.044 455.745,296.853 456.194,296.853 456.643,296.853 457.092,296.853 457.541,296.853 457.99,296.853 458.439,294.663 458.887,294.663 459.336,292.472 459.785,292.472 460.234,292.472 460.683,292.472 461.132,290.281 461.581,290.281 462.03,290.281 462.478,288.091 462.927,288.091 463.376,285.9 463.825,285.9 464.274,285.9 464.723,285.9 465.172,283.709 465.62,283.709 466.069,283.709 466.518,283.709 466.967,281.519 467.416,283.709 467.865,283.709 468.314,281.519 468.763,281.519 469.211,281.519 469.66,281.519 470.109,281.519 470.558,281.519 471.007,279.328 471.456,279.328 471.905,279.328 472.353,279.328 472.802,279.328 473.251,279.328 473.7,279.328 474.149,279.328 474.598,277.137 475.047,277.137 475.496,277.137 475.944,277.137 476.393,277.137 476.842,277.137 477.291,277.137 477.74,274.947 478.189,277.137 478.638,277.137 479.086,274.947 479.535,274.947 479.984,274.947 480.433,274.947 480.882,274.947 481.331,274.947 481.78,272.756 482.229,272.756 482.677,272.756 483.126,272.756 483.575,272.756 484.024,272.756 484.473,270.565 484.922,270.565 485.371,272.756 485.819,272.756 486.268,270.565 486.717,270.565 487.166,270.565 487.615,270.565 488.064,270.565 488.513,270.565 488.962,270.565 489.41,270.565 489.859,270.565 490.308,270.565 490.757,270.565 491.206,270.565 491.655,270.565 492.104,270.565 492.552,270.565 493.001,270.565 493.45,272.756 493.899,272.756 494.348,272.756 494.797,272.756 495.246,285.9 495.695,285.9 496.143,285.9 496.592,285.9 497.041,285.9 497.49,285.9 497.939,285.9 498.388,285.9 498.837,285.9 499.286,285.9 499.734,285.9 500.183,285.9 500.632,285.9 501.081,285.9 501.53,288.091 501.979,288.091 502.428,288.091 502.876,288.091 503.325,288.091 503.774,288.091 504.223,290.281 504.672,288.091 505.121,288.091 505.57,290.281 506.018,290.281 506.467,288.091 506.916,288.091 507.365,288.091 507.814,288.091 508.263,288.091 508.712,288.091 509.161,288.091 509.609,288.091 510.058,288.091 510.507,288.091 510.956,285.9 511.405,285.9 511.854,285.9 512.303,285.9 512.752,285.9 513.2,283.709 513.649,283.709 514.098,283.709 514.547,283.709 514.996,281.519 515.445,283.709 515.894,283.709 516.342,281.519 516.791,281.519"/>
</g>
</g>
</svg>
