<?xml version="1.0" encoding="UTF-8" standalone="no"?>
<svg xmlns="http://www.w3.org/2000/svg"
     xmlns:xlink="http://www.w3.org/1999/xlink"
     width="576pt" height="432pt" viewBox="0 0 576 432">
<title>gl2ps_renderer figure</title>
<desc>
Creator: GL2PS 1.4.0, (C) 1999-2017 C. Geuzaine
For: Octave
CreationDate: Tue Dec 10 21:08:16 2019
</desc>
<defs>
</defs>
<polygon fill="#ffffff" points="0,0 576,0 576,432 0,432"/>
<g>
<polygon fill="#ffffff" points="0,432 576,432 576,0 0,0" shape-rendering="crispEdges"/>
<clipPath id="cp00576432">
  <polygon points="0,432 576,432 576,0 0,0"/>
</clipPath>
<g clip-path="url(#cp00576432)">
<polygon fill="#ffffff" shape-rendering="crispEdges" points="74.88,384.48 521.28,384.48 74.88,36"/>
<polygon fill="#ffffff" shape-rendering="crispEdges" points="521.28,384.48 521.28,36 74.88,36"/>
<polyline fill="none" stroke="#262626" stroke-width="0.5" stroke-linecap="butt" stroke-linejoin="miter" stroke-opacity="0.15" stroke-dasharray="16,0" points="74.88,384.48 74.88,36"/>
<polyline fill="none" stroke="#262626" stroke-width="0.5" stroke-linecap="butt" stroke-linejoin="miter" stroke-opacity="0.15" stroke-dasharray="16,0" points="138.651,384.48 138.651,36"/>
<polyline fill="none" stroke="#262626" stroke-width="0.5" stroke-linecap="butt" stroke-linejoin="miter" stroke-opacity="0.15" stroke-dasharray="16,0" points="202.423,384.48 202.423,36"/>
<polyline fill="none" stroke="#262626" stroke-width="0.5" stroke-linecap="butt" stroke-linejoin="miter" stroke-opacity="0.15" stroke-dasharray="16,0" points="266.194,384.48 266.194,36"/>
<polyline fill="none" stroke="#262626" stroke-width="0.5" stroke-linecap="butt" stroke-linejoin="miter" stroke-opacity="0.15" stroke-dasharray="16,0" points="329.966,384.48 329.966,36"/>
<polyline fill="none" stroke="#262626" stroke-width="0.5" stroke-linecap="butt" stroke-linejoin="miter" stroke-opacity="0.15" stroke-dasharray="16,0" points="393.737,384.48 393.737,36"/>
<polyline fill="none" stroke="#262626" stroke-width="0.5" stroke-linecap="butt" stroke-linejoin="miter" stroke-opacity="0.15" stroke-dasharray="16,0" points="457.509,384.48 457.509,36"/>
<polyline fill="none" stroke="#262626" stroke-width="0.5" stroke-linecap="butt" stroke-linejoin="miter" stroke-opacity="0.15" stroke-dasharray="16,0" points="521.28,384.48 521.28,36"/>
<polyline fill="none" stroke="#262626" stroke-width="0.5" stroke-linecap="butt" stroke-linejoin="miter" points="74.88,384.48 74.88,380.01"/>
<polyline fill="none" stroke="#262626" stroke-width="0.5" stroke-linecap="butt" stroke-linejoin="miter" points="74.88,36 74.88,40.4702"/>
<polyline fill="none" stroke="#262626" stroke-width="0.5" stroke-linecap="butt" stroke-linejoin="miter" points="138.651,384.48 138.651,380.01"/>
<polyline fill="none" stroke="#262626" stroke-width="0.5" stroke-linecap="butt" stroke-linejoin="miter" points="138.651,36 138.651,40.4702"/>
<polyline fill="none" stroke="#262626" stroke-width="0.5" stroke-linecap="butt" stroke-linejoin="miter" points="202.423,384.48 202.423,380.01"/>
<polyline fill="none" stroke="#262626" stroke-width="0.5" stroke-linecap="butt" stroke-linejoin="miter" points="202.423,36 202.423,40.4702"/>
<polyline fill="none" stroke="#262626" stroke-width="0.5" stroke-linecap="butt" stroke-linejoin="miter" points="266.194,384.48 266.194,380.01"/>
<polyline fill="none" stroke="#262626" stroke-width="0.5" stroke-linecap="butt" stroke-linejoin="miter" points="266.194,36 266.194,40.4702"/>
<polyline fill="none" stroke="#262626" stroke-width="0.5" stroke-linecap="butt" stroke-linejoin="miter" points="329.966,384.48 329.966,380.01"/>
<polyline fill="none" stroke="#262626" stroke-width="0.5" stroke-linecap="butt" stroke-linejoin="miter" points="329.966,36 329.966,40.4702"/>
<polyline fill="none" stroke="#262626" stroke-width="0.5" stroke-linecap="butt" stroke-linejoin="miter" points="393.737,384.48 393.737,380.01"/>
<polyline fill="none" stroke="#262626" stroke-width="0.5" stroke-linecap="butt" stroke-linejoin="miter" points="393.737,36 393.737,40.4702"/>
<polyline fill="none" stroke="#262626" stroke-width="0.5" stroke-linecap="butt" stroke-linejoin="miter" points="457.509,384.48 457.509,380.01"/>
<polyline fill="none" stroke="#262626" stroke-width="0.5" stroke-linecap="butt" stroke-linejoin="miter" points="457.509,36 457.509,40.4702"/>
<polyline fill="none" stroke="#262626" stroke-width="0.5" stroke-linecap="butt" stroke-linejoin="miter" points="521.28,384.48 521.28,380.01"/>
<polyline fill="none" stroke="#262626" stroke-width="0.5" stroke-linecap="butt" stroke-linejoin="miter" points="521.28,36 521.28,40.4702"/>
<text xml:space="preserve" transform="translate(58.38,400.487) rotate(-0,16.5,-11)" font-family="FreeSans" font-weight="normal" font-style="normal" font-size="10"><tspan y="-1" fill="rgb(38,38,38)" x="0 3 9 15 21 27 ">-40000</tspan></text>
<text xml:space="preserve" transform="translate(122.151,400.487) rotate(-0,16.5,-11)" font-family="FreeSans" font-weight="normal" font-style="normal" font-size="10"><tspan y="-1" fill="rgb(38,38,38)" x="0 3 9 15 21 27 ">-30000</tspan></text>
<text xml:space="preserve" transform="translate(185.923,400.487) rotate(-0,16.5,-11)" font-family="FreeSans" font-weight="normal" font-style="normal" font-size="10"><tspan y="-1" fill="rgb(38,38,38)" x="0 3 9 15 21 27 ">-20000</tspan></text>
<text xml:space="preserve" transform="translate(249.694,400.487) rotate(-0,16.5,-11)" font-family="FreeSans" font-weight="normal" font-style="normal" font-size="10"><tspan y="-1" fill="rgb(38,38,38)" x="0 3 9 15 21 27 ">-10000</tspan></text>
<text xml:space="preserve" transform="translate(326.966,400.487) rotate(-0,3,-11)" font-family="FreeSans" font-weight="normal" font-style="normal" font-size="10"><tspan y="-1" fill="rgb(38,38,38)" x="0 ">0</tspan></text>
<text xml:space="preserve" transform="translate(378.737,400.487) rotate(-0,15,-11)" font-family="FreeSans" font-weight="normal" font-style="normal" font-size="10"><tspan y="-1" fill="rgb(38,38,38)" x="0 6 12 18 24 ">10000</tspan></text>
<text xml:space="preserve" transform="translate(442.509,400.487) rotate(-0,15,-11)" font-family="FreeSans" font-weight="normal" font-style="normal" font-size="10"><tspan y="-1" fill="rgb(38,38,38)" x="0 6 12 18 24 ">20000</tspan></text>
<text xml:space="preserve" transform="translate(506.28,400.487) rotate(-0,15,-11)" font-family="FreeSans" font-weight="normal" font-style="normal" font-size="10"><tspan y="-1" fill="rgb(38,38,38)" x="0 6 12 18 24 ">30000</tspan></text>
<polyline fill="none" stroke="#262626" stroke-width="0.5" stroke-linecap="butt" stroke-linejoin="miter" stroke-opacity="0.15" stroke-dasharray="16,0" points="74.88,384.48 521.28,384.48"/>
<polyline fill="none" stroke="#262626" stroke-width="0.5" stroke-linecap="butt" stroke-linejoin="miter" stroke-opacity="0.15" stroke-dasharray="16,0" points="74.88,314.784 521.28,314.784"/>
<polyline fill="none" stroke="#262626" stroke-width="0.5" stroke-linecap="butt" stroke-linejoin="miter" stroke-opacity="0.15" stroke-dasharray="16,0" points="74.88,245.088 521.28,245.088"/>
<polyline fill="none" stroke="#262626" stroke-width="0.5" stroke-linecap="butt" stroke-linejoin="miter" stroke-opacity="0.15" stroke-dasharray="16,0" points="74.88,175.392 521.28,175.392"/>
<polyline fill="none" stroke="#262626" stroke-width="0.5" stroke-linecap="butt" stroke-linejoin="miter" stroke-opacity="0.15" stroke-dasharray="16,0" points="74.88,105.696 521.28,105.696"/>
<polyline fill="none" stroke="#262626" stroke-width="0.5" stroke-linecap="butt" stroke-linejoin="miter" stroke-opacity="0.15" stroke-dasharray="16,0" points="74.88,36 521.28,36"/>
<polyline fill="none" stroke="#262626" stroke-width="0.5" stroke-linecap="butt" stroke-linejoin="miter" points="74.88,384.48 79.348,384.48"/>
<polyline fill="none" stroke="#262626" stroke-width="0.5" stroke-linecap="butt" stroke-linejoin="miter" points="521.28,384.48 516.812,384.48"/>
<polyline fill="none" stroke="#262626" stroke-width="0.5" stroke-linecap="butt" stroke-linejoin="miter" points="74.88,314.784 79.348,314.784"/>
<polyline fill="none" stroke="#262626" stroke-width="0.5" stroke-linecap="butt" stroke-linejoin="miter" points="521.28,314.784 516.812,314.784"/>
<polyline fill="none" stroke="#262626" stroke-width="0.5" stroke-linecap="butt" stroke-linejoin="miter" points="74.88,245.088 79.348,245.088"/>
<polyline fill="none" stroke="#262626" stroke-width="0.5" stroke-linecap="butt" stroke-linejoin="miter" points="521.28,245.088 516.812,245.088"/>
<polyline fill="none" stroke="#262626" stroke-width="0.5" stroke-linecap="butt" stroke-linejoin="miter" points="74.88,175.392 79.348,175.392"/>
<polyline fill="none" stroke="#262626" stroke-width="0.5" stroke-linecap="butt" stroke-linejoin="miter" points="521.28,175.392 516.812,175.392"/>
<polyline fill="none" stroke="#262626" stroke-width="0.5" stroke-linecap="butt" stroke-linejoin="miter" points="74.88,105.696 79.348,105.696"/>
<polyline fill="none" stroke="#262626" stroke-width="0.5" stroke-linecap="butt" stroke-linejoin="miter" points="521.28,105.696 516.812,105.696"/>
<polyline fill="none" stroke="#262626" stroke-width="0.5" stroke-linecap="butt" stroke-linejoin="miter" points="74.88,36 79.348,36"/>
<polyline fill="none" stroke="#262626" stroke-width="0.5" stroke-linecap="butt" stroke-linejoin="miter" points="521.28,36 516.812,36"/>
<text xml:space="preserve" transform="translate(63.8755,389.98) rotate(-0,6,-5.5)" font-family="FreeSans" font-weight="normal" font-style="normal" font-size="10"><tspan y="-1" fill="rgb(38,38,38)" x="0 ">0</tspan></text>
<text xml:space="preserve" transform="translate(39.8755,320.284) rotate(-0,30,-5.5)" font-family="FreeSans" font-weight="normal" font-style="normal" font-size="10"><tspan y="-1" fill="rgb(38,38,38)" x="0 6 12 18 24 ">20000</tspan></text>
<text xml:space="preserve" transform="translate(39.8755,250.588) rotate(-0,30,-5.5)" font-family="FreeSans" font-weight="normal" font-style="normal" font-size="10"><tspan y="-1" fill="rgb(38,38,38)" x="0 6 12 18 24 ">40000</tspan></text>
<text xml:space="preserve" transform="translate(39.8755,180.892) rotate(-0,30,-5.5)" font-family="FreeSans" font-weight="normal" font-style="normal" font-size="10"><tspan y="-1" fill="rgb(38,38,38)" x="0 6 12 18 24 ">60000</tspan></text>
<text xml:space="preserve" transform="translate(39.8755,111.196) rotate(-0,30,-5.5)" font-family="FreeSans" font-weight="normal" font-style="normal" font-size="10"><tspan y="-1" fill="rgb(38,38,38)" x="0 6 12 18 24 ">80000</tspan></text>
<text xml:space="preserve" transform="translate(33.8755,41.5) rotate(-0,36,-5.5)" font-family="FreeSans" font-weight="normal" font-style="normal" font-size="10"><tspan y="-1" fill="rgb(38,38,38)" x="0 6 12 18 24 30 ">100000</tspan></text>
<polyline fill="none" stroke="#262626" stroke-width="0.5" stroke-linecap="square" stroke-linejoin="miter" stroke-dasharray="16,0" points="74.88,384.48 521.28,384.48"/>
<polyline fill="none" stroke="#262626" stroke-width="0.5" stroke-linecap="square" stroke-linejoin="miter" stroke-dasharray="16,0" points="74.88,36 521.28,36"/>
<polyline fill="none" stroke="#262626" stroke-width="0.5" stroke-linecap="square" stroke-linejoin="miter" stroke-dasharray="16,0" points="74.88,384.48 74.88,36"/>
<polyline fill="none" stroke="#262626" stroke-width="0.5" stroke-linecap="square" stroke-linejoin="miter" stroke-dasharray="16,0" points="521.28,384.48 521.28,36"/>
<text xml:space="preserve" transform="translate(148.58,26) rotate(-0,149.5,0)" font-family="FreeSans" font-weight="bold" font-style="normal" font-size="11"><tspan y="-15" fill="rgb(0,0,0)" x="0 6 12 16 22 28 32 38 44 50 56 59 65 71 74 80 86 89 97 103 109 115 121 129 138 145 151 157 163 166 174 181 188 191 198 201 207 213 223 230 233 239 242 248 255 261 264 270 276 279 285 288 295 ">10-12-2019 20:15 A2680AQF998 Audio sample analysis of</tspan><tspan y="-2" fill="rgb(0,0,0)" x="9 17 26 34 41 49 59 62 66 70 76 83 90 97 107 110 116 123 130 137 140 144 148 155 165 168 171 175 182 188 194 197 200 204 210 217 223 227 231 238 241 245 251 255 258 262 268 274 280 286 ">AQDPCM (random song from Ithaki repertoire) (9070)</tspan></text>
<text xml:space="preserve" transform="translate(-16.6245,210.24) rotate(-90,46.5,0)" font-family="FreeSans" font-weight="normal" font-style="normal" font-size="11"><tspan y="-2" fill="rgb(38,38,38)" x="0 8 14 23 29 35 39 42 48 51 54 59 65 74 80 82 88 ">Number of samples</tspan></text>
<text xml:space="preserve" transform="translate(266.08,413.487) rotate(-0,32,-13)" font-family="FreeSans" font-weight="normal" font-style="normal" font-size="11"><tspan y="-2" fill="rgb(38,38,38)" x="0 7 13 22 28 30 36 39 44 50 52 58 ">Sample value</tspan></text>
<polygon fill="#440154" shape-rendering="crispEdges" points="131.357,384.48 91.4095,384.299 91.4095,384.48"/>
<polygon fill="#440154" shape-rendering="crispEdges" points="91.4095,384.299 131.357,384.48 131.357,384.299"/>
<polygon fill="#440154" shape-rendering="crispEdges" points="171.304,384.48 131.357,382.692 131.357,384.48"/>
<polygon fill="#440154" shape-rendering="crispEdges" points="131.357,382.692 171.304,384.48 171.304,382.692"/>
<polygon fill="#440154" shape-rendering="crispEdges" points="211.251,384.48 171.304,369.366 171.304,384.48"/>
<polygon fill="#440154" shape-rendering="crispEdges" points="171.304,369.366 211.251,384.48 211.251,369.366"/>
<polygon fill="#440154" shape-rendering="crispEdges" points="251.198,384.48 211.251,287.233 211.251,384.48"/>
<polygon fill="#440154" shape-rendering="crispEdges" points="211.251,287.233 251.198,384.48 251.198,287.233"/>
<polygon fill="#440154" shape-rendering="crispEdges" points="291.145,384.48 251.198,131.097 251.198,384.48"/>
<polygon fill="#440154" shape-rendering="crispEdges" points="251.198,131.097 291.145,384.48 291.145,131.097"/>
<polygon fill="#440154" shape-rendering="crispEdges" points="331.092,384.48 291.145,50.5455 291.145,384.48"/>
<polygon fill="#440154" shape-rendering="crispEdges" points="291.145,50.5455 331.092,384.48 331.092,50.5455"/>
<polygon fill="#440154" shape-rendering="crispEdges" points="371.039,384.48 331.092,222.402 331.092,384.48"/>
<polygon fill="#440154" shape-rendering="crispEdges" points="331.092,222.402 371.039,384.48 371.039,222.402"/>
<polygon fill="#440154" shape-rendering="crispEdges" points="410.986,384.48 371.039,360.491 371.039,384.48"/>
<polygon fill="#440154" shape-rendering="crispEdges" points="371.039,360.491 410.986,384.48 410.986,360.491"/>
<polygon fill="#440154" shape-rendering="crispEdges" points="450.933,384.48 410.986,382.048 410.986,384.48"/>
<polygon fill="#440154" shape-rendering="crispEdges" points="410.986,382.048 450.933,384.48 450.933,382.048"/>
<polygon fill="#440154" shape-rendering="crispEdges" points="490.88,384.48 450.933,384.302 450.933,384.48"/>
<polygon fill="#440154" shape-rendering="crispEdges" points="450.933,384.302 490.88,384.48 490.88,384.302"/>
<polyline fill="none" stroke="#000000" stroke-width="0.5" stroke-linecap="butt" stroke-linejoin="miter" points="131.357,384.299 91.4095,384.299 91.4095,384.48 131.357,384.48 131.357,384.299"/>
<polyline fill="none" stroke="#000000" stroke-width="0.5" stroke-linecap="butt" stroke-linejoin="miter" points="171.304,382.692 131.357,382.692 131.357,384.48 171.304,384.48 171.304,382.692"/>
<polyline fill="none" stroke="#000000" stroke-width="0.5" stroke-linecap="butt" stroke-linejoin="miter" points="211.251,369.366 171.304,369.366 171.304,384.48 211.251,384.48 211.251,369.366"/>
<polyline fill="none" stroke="#000000" stroke-width="0.5" stroke-linecap="butt" stroke-linejoin="miter" points="251.198,287.233 211.251,287.233 211.251,384.48 251.198,384.48 251.198,287.233"/>
<polyline fill="none" stroke="#000000" stroke-width="0.5" stroke-linecap="butt" stroke-linejoin="miter" points="291.145,131.097 251.198,131.097 251.198,384.48 291.145,384.48 291.145,131.097"/>
<polyline fill="none" stroke="#000000" stroke-width="0.5" stroke-linecap="butt" stroke-linejoin="miter" points="331.092,50.5455 291.145,50.5455 291.145,384.48 331.092,384.48 331.092,50.5455"/>
<polyline fill="none" stroke="#000000" stroke-width="0.5" stroke-linecap="butt" stroke-linejoin="miter" points="371.039,222.402 331.092,222.402 331.092,384.48 371.039,384.48 371.039,222.402"/>
<polyline fill="none" stroke="#000000" stroke-width="0.5" stroke-linecap="butt" stroke-linejoin="miter" points="410.986,360.491 371.039,360.491 371.039,384.48 410.986,384.48 410.986,360.491"/>
<polyline fill="none" stroke="#000000" stroke-width="0.5" stroke-linecap="butt" stroke-linejoin="miter" points="450.933,382.048 410.986,382.048 410.986,384.48 450.933,384.48 450.933,382.048"/>
<polyline fill="none" stroke="#000000" stroke-width="0.5" stroke-linecap="butt" stroke-linejoin="miter" points="490.88,384.302 450.933,384.302 450.933,384.48 490.88,384.48 490.88,384.302"/>
<polyline fill="none" stroke="#000000" stroke-width="0.5" stroke-linecap="butt" stroke-linejoin="round" points="74.88,384.48 521.28,384.48"/>
</g>
</g>
</svg>
