<?xml version="1.0" encoding="UTF-8" standalone="no"?>
<svg xmlns="http://www.w3.org/2000/svg"
     xmlns:xlink="http://www.w3.org/1999/xlink"
     width="576pt" height="432pt" viewBox="0 0 576 432">
<title>gl2ps_renderer figure</title>
<desc>
Creator: GL2PS 1.4.0, (C) 1999-2017 C. Geuzaine
For: Octave
CreationDate: Tue Dec 10 21:08:18 2019
</desc>
<defs>
</defs>
<polygon fill="#ffffff" points="0,0 576,0 576,432 0,432"/>
<g>
<polygon fill="#ffffff" points="0,432 576,432 576,0 0,0" shape-rendering="crispEdges"/>
<clipPath id="cp00576432">
  <polygon points="0,432 576,432 576,0 0,0"/>
</clipPath>
<g clip-path="url(#cp00576432)">
<polygon fill="#ffffff" shape-rendering="crispEdges" points="74.88,384.48 521.28,384.48 74.88,32.4"/>
<polygon fill="#ffffff" shape-rendering="crispEdges" points="521.28,384.48 521.28,32.4 74.88,32.4"/>
<polyline fill="none" stroke="#262626" stroke-width="0.5" stroke-linecap="butt" stroke-linejoin="miter" stroke-opacity="0.15" stroke-dasharray="16,0" points="74.88,384.48 74.88,32.4"/>
<polyline fill="none" stroke="#262626" stroke-width="0.5" stroke-linecap="butt" stroke-linejoin="miter" stroke-opacity="0.15" stroke-dasharray="16,0" points="164.16,384.48 164.16,32.4"/>
<polyline fill="none" stroke="#262626" stroke-width="0.5" stroke-linecap="butt" stroke-linejoin="miter" stroke-opacity="0.15" stroke-dasharray="16,0" points="253.44,384.48 253.44,32.4"/>
<polyline fill="none" stroke="#262626" stroke-width="0.5" stroke-linecap="butt" stroke-linejoin="miter" stroke-opacity="0.15" stroke-dasharray="16,0" points="342.72,384.48 342.72,32.4"/>
<polyline fill="none" stroke="#262626" stroke-width="0.5" stroke-linecap="butt" stroke-linejoin="miter" stroke-opacity="0.15" stroke-dasharray="16,0" points="432,384.48 432,32.4"/>
<polyline fill="none" stroke="#262626" stroke-width="0.5" stroke-linecap="butt" stroke-linejoin="miter" stroke-opacity="0.15" stroke-dasharray="16,0" points="521.28,384.48 521.28,32.4"/>
<polyline fill="none" stroke="#262626" stroke-width="0.5" stroke-linecap="butt" stroke-linejoin="miter" points="74.88,384.48 74.88,380.015"/>
<polyline fill="none" stroke="#262626" stroke-width="0.5" stroke-linecap="butt" stroke-linejoin="miter" points="74.88,32.4 74.88,36.865"/>
<polyline fill="none" stroke="#262626" stroke-width="0.5" stroke-linecap="butt" stroke-linejoin="miter" points="164.16,384.48 164.16,380.015"/>
<polyline fill="none" stroke="#262626" stroke-width="0.5" stroke-linecap="butt" stroke-linejoin="miter" points="164.16,32.4 164.16,36.865"/>
<polyline fill="none" stroke="#262626" stroke-width="0.5" stroke-linecap="butt" stroke-linejoin="miter" points="253.44,384.48 253.44,380.015"/>
<polyline fill="none" stroke="#262626" stroke-width="0.5" stroke-linecap="butt" stroke-linejoin="miter" points="253.44,32.4 253.44,36.865"/>
<polyline fill="none" stroke="#262626" stroke-width="0.5" stroke-linecap="butt" stroke-linejoin="miter" points="342.72,384.48 342.72,380.015"/>
<polyline fill="none" stroke="#262626" stroke-width="0.5" stroke-linecap="butt" stroke-linejoin="miter" points="342.72,32.4 342.72,36.865"/>
<polyline fill="none" stroke="#262626" stroke-width="0.5" stroke-linecap="butt" stroke-linejoin="miter" points="432,384.48 432,380.015"/>
<polyline fill="none" stroke="#262626" stroke-width="0.5" stroke-linecap="butt" stroke-linejoin="miter" points="432,32.4 432,36.865"/>
<polyline fill="none" stroke="#262626" stroke-width="0.5" stroke-linecap="butt" stroke-linejoin="miter" points="521.28,384.48 521.28,380.015"/>
<polyline fill="none" stroke="#262626" stroke-width="0.5" stroke-linecap="butt" stroke-linejoin="miter" points="521.28,32.4 521.28,36.865"/>
<text xml:space="preserve" transform="translate(71.88,400.481) rotate(-0,3,-11)" font-family="FreeSans" font-weight="normal" font-style="normal" font-size="10"><tspan y="-1" fill="rgb(38,38,38)" x="0 ">0</tspan></text>
<text xml:space="preserve" transform="translate(155.16,400.481) rotate(-0,9,-11)" font-family="FreeSans" font-weight="normal" font-style="normal" font-size="10"><tspan y="-1" fill="rgb(38,38,38)" x="0 6 12 ">200</tspan></text>
<text xml:space="preserve" transform="translate(244.44,400.481) rotate(-0,9,-11)" font-family="FreeSans" font-weight="normal" font-style="normal" font-size="10"><tspan y="-1" fill="rgb(38,38,38)" x="0 6 12 ">400</tspan></text>
<text xml:space="preserve" transform="translate(333.72,400.481) rotate(-0,9,-11)" font-family="FreeSans" font-weight="normal" font-style="normal" font-size="10"><tspan y="-1" fill="rgb(38,38,38)" x="0 6 12 ">600</tspan></text>
<text xml:space="preserve" transform="translate(423,400.481) rotate(-0,9,-11)" font-family="FreeSans" font-weight="normal" font-style="normal" font-size="10"><tspan y="-1" fill="rgb(38,38,38)" x="0 6 12 ">800</tspan></text>
<text xml:space="preserve" transform="translate(509.28,400.481) rotate(-0,12,-11)" font-family="FreeSans" font-weight="normal" font-style="normal" font-size="10"><tspan y="-1" fill="rgb(38,38,38)" x="0 6 12 18 ">1000</tspan></text>
<polyline fill="none" stroke="#262626" stroke-width="0.5" stroke-linecap="butt" stroke-linejoin="miter" stroke-opacity="0.15" stroke-dasharray="16,0" points="74.88,384.48 521.28,384.48"/>
<polyline fill="none" stroke="#262626" stroke-width="0.5" stroke-linecap="butt" stroke-linejoin="miter" stroke-opacity="0.15" stroke-dasharray="16,0" points="74.88,296.46 521.28,296.46"/>
<polyline fill="none" stroke="#262626" stroke-width="0.5" stroke-linecap="butt" stroke-linejoin="miter" stroke-opacity="0.15" stroke-dasharray="16,0" points="74.88,208.44 521.28,208.44"/>
<polyline fill="none" stroke="#262626" stroke-width="0.5" stroke-linecap="butt" stroke-linejoin="miter" stroke-opacity="0.15" stroke-dasharray="16,0" points="74.88,120.42 521.28,120.42"/>
<polyline fill="none" stroke="#262626" stroke-width="0.5" stroke-linecap="butt" stroke-linejoin="miter" stroke-opacity="0.15" stroke-dasharray="16,0" points="74.88,32.4 521.28,32.4"/>
<polyline fill="none" stroke="#262626" stroke-width="0.5" stroke-linecap="butt" stroke-linejoin="miter" points="74.88,384.48 79.348,384.48"/>
<polyline fill="none" stroke="#262626" stroke-width="0.5" stroke-linecap="butt" stroke-linejoin="miter" points="521.28,384.48 516.812,384.48"/>
<polyline fill="none" stroke="#262626" stroke-width="0.5" stroke-linecap="butt" stroke-linejoin="miter" points="74.88,296.46 79.348,296.46"/>
<polyline fill="none" stroke="#262626" stroke-width="0.5" stroke-linecap="butt" stroke-linejoin="miter" points="521.28,296.46 516.812,296.46"/>
<polyline fill="none" stroke="#262626" stroke-width="0.5" stroke-linecap="butt" stroke-linejoin="miter" points="74.88,208.44 79.348,208.44"/>
<polyline fill="none" stroke="#262626" stroke-width="0.5" stroke-linecap="butt" stroke-linejoin="miter" points="521.28,208.44 516.812,208.44"/>
<polyline fill="none" stroke="#262626" stroke-width="0.5" stroke-linecap="butt" stroke-linejoin="miter" points="74.88,120.42 79.348,120.42"/>
<polyline fill="none" stroke="#262626" stroke-width="0.5" stroke-linecap="butt" stroke-linejoin="miter" points="521.28,120.42 516.812,120.42"/>
<polyline fill="none" stroke="#262626" stroke-width="0.5" stroke-linecap="butt" stroke-linejoin="miter" points="74.88,32.4 79.348,32.4"/>
<polyline fill="none" stroke="#262626" stroke-width="0.5" stroke-linecap="butt" stroke-linejoin="miter" points="521.28,32.4 516.812,32.4"/>
<text xml:space="preserve" transform="translate(48.8755,389.98) rotate(-0,21,-5.5)" font-family="FreeSans" font-weight="normal" font-style="normal" font-size="10"><tspan y="-1" fill="rgb(38,38,38)" x="0 3 9 15 ">-100</tspan></text>
<text xml:space="preserve" transform="translate(54.8755,301.96) rotate(-0,15,-5.5)" font-family="FreeSans" font-weight="normal" font-style="normal" font-size="10"><tspan y="-1" fill="rgb(38,38,38)" x="0 3 9 ">-50</tspan></text>
<text xml:space="preserve" transform="translate(63.8755,213.94) rotate(-0,6,-5.5)" font-family="FreeSans" font-weight="normal" font-style="normal" font-size="10"><tspan y="-1" fill="rgb(38,38,38)" x="0 ">0</tspan></text>
<text xml:space="preserve" transform="translate(57.8755,125.92) rotate(-0,12,-5.5)" font-family="FreeSans" font-weight="normal" font-style="normal" font-size="10"><tspan y="-1" fill="rgb(38,38,38)" x="0 6 ">50</tspan></text>
<text xml:space="preserve" transform="translate(51.8755,37.9) rotate(-0,18,-5.5)" font-family="FreeSans" font-weight="normal" font-style="normal" font-size="10"><tspan y="-1" fill="rgb(38,38,38)" x="0 6 12 ">100</tspan></text>
<polyline fill="none" stroke="#262626" stroke-width="0.5" stroke-linecap="square" stroke-linejoin="miter" stroke-dasharray="16,0" points="74.88,384.48 521.28,384.48"/>
<polyline fill="none" stroke="#262626" stroke-width="0.5" stroke-linecap="square" stroke-linejoin="miter" stroke-dasharray="16,0" points="74.88,32.4 521.28,32.4"/>
<polyline fill="none" stroke="#262626" stroke-width="0.5" stroke-linecap="square" stroke-linejoin="miter" stroke-dasharray="16,0" points="74.88,384.48 74.88,32.4"/>
<polyline fill="none" stroke="#262626" stroke-width="0.5" stroke-linecap="square" stroke-linejoin="miter" stroke-dasharray="16,0" points="521.28,384.48 521.28,32.4"/>
<text xml:space="preserve" transform="translate(271.08,413.481) rotate(-0,27,-13)" font-family="FreeSans" font-weight="normal" font-style="normal" font-size="11"><tspan y="-2" fill="rgb(38,38,38)" x="0 6 9 15 18 21 27 33 39 45 51 "># of packet</tspan></text>
<text xml:space="preserve" transform="translate(17.3755,208.44) rotate(-90,27.5,0)" font-family="FreeSans" font-weight="normal" font-style="normal" font-size="11"><tspan y="-2" fill="rgb(38,38,38)" x="0 9 15 21 27 30 35 41 43 49 ">Mean value</tspan></text>
<text xml:space="preserve" transform="translate(151.08,22.4) rotate(-0,147,0)" font-family="FreeSans" font-weight="bold" font-style="normal" font-size="11"><tspan y="-2" fill="rgb(0,0,0)" x="0 6 12 16 22 28 32 38 44 50 56 59 65 71 74 80 86 94 100 106 112 118 126 135 142 148 154 160 163 170 177 183 190 194 197 203 209 213 216 222 229 235 238 244 250 253 259 262 266 272 278 284 290 ">10-12-2019 20:15A2680AQF998 quantizer analysis (9070)</tspan></text>
<polyline fill="none" stroke="#0071bc" stroke-width="0.5" stroke-linecap="butt" stroke-linejoin="round" points="75.3264,208.44 75.7728,208.44 76.2192,208.44 76.6656,208.44 77.112,257.731 77.5584,134.503 78.0048,206.68 78.4512,254.21 78.8976,173.232 79.344,234.846 79.7904,197.878 80.2368,208.44 80.6832,213.721 81.1296,199.638 81.576,215.482 82.0224,210.2 82.4688,203.159 82.9152,210.2 83.3616,210.2 83.808,206.68 84.2544,204.919 84.7008,213.721 85.1472,194.357 85.5936,211.961 86.04,213.721 86.4864,210.2 86.9328,197.878 87.3792,178.513 87.8256,227.804 88.272,222.523 88.7184,208.44 89.1648,211.961 89.6112,204.919 90.0576,210.2 90.504,208.44 90.9504,206.68 91.3968,208.44 91.8432,204.919 92.2896,203.159 92.736,247.169 93.1824,178.513 93.6288,213.721 94.0752,206.68 94.5216,208.44 94.968,211.961 95.4144,204.919 95.8608,208.44 96.3072,208.44 96.7536,203.159 97.2,199.638 97.6464,219.002 98.0928,222.523 98.5392,206.68 98.9856,204.919 99.432,208.44 99.8784,204.919 100.325,208.44 100.771,210.2 101.218,208.44 101.664,215.482 102.11,190.836 102.557,217.242 103.003,210.2 103.45,206.68 103.896,197.878 104.342,241.888 104.789,185.555 105.235,213.721 105.682,204.919 106.128,206.68 106.574,236.606 107.021,173.232 107.467,215.482 107.914,208.44 108.36,208.44 108.806,206.68 109.253,210.2 109.699,213.721 110.146,208.44 110.592,203.159 111.038,215.482 111.485,185.555 111.931,227.804 112.378,208.44 112.824,203.159 113.27,208.44 113.717,208.44 114.163,210.2 114.61,206.68 115.056,219.002 115.502,189.076 115.949,210.2 116.395,145.066 116.842,278.856 117.288,187.315 117.734,208.44 118.181,220.763 118.627,248.929 119.074,197.878 119.52,190.836 119.966,238.367 120.413,152.107 120.859,217.242 121.306,231.325 121.752,206.68 122.198,204.919 122.645,203.159 123.091,238.367 123.538,190.836 123.984,201.398 124.43,213.721 124.877,268.294 125.323,169.711 125.77,159.149 126.216,233.086 126.662,197.878 127.109,224.284 127.555,208.44 128.002,222.523 128.448,196.117 128.894,206.68 129.341,211.961 129.787,219.002 130.234,194.357 130.68,190.836 131.126,203.159 131.573,224.284 132.019,215.482 132.466,229.565 132.912,206.68 133.358,182.034 133.805,222.523 134.251,215.482 134.698,153.868 135.144,196.117 135.59,227.804 136.037,243.648 136.483,217.242 136.93,204.919 137.376,167.951 137.822,257.731 138.269,171.472 138.715,255.971 139.162,210.2 139.608,166.19 140.054,196.117 140.501,243.648 140.947,204.919 141.394,210.2 141.84,167.951 142.286,280.616 142.733,180.274 143.179,211.961 143.626,224.284 144.072,160.909 144.518,236.606 144.965,219.002 145.411,199.638 145.858,227.804 146.304,169.711 146.75,203.159 147.197,215.482 147.643,241.888 148.09,192.596 148.536,187.315 148.982,203.159 149.429,206.68 149.875,248.929 150.322,180.274 150.768,208.44 151.214,213.721 151.661,206.68 152.107,197.878 152.554,176.753 153,259.492 153.446,231.325 153.893,136.264 154.339,233.086 154.786,226.044 155.232,208.44 155.678,208.44 156.125,233.086 156.571,192.596 157.018,178.513 157.464,247.169 157.91,174.992 158.357,222.523 158.803,219.002 159.25,185.555 159.696,266.533 160.142,134.503 160.589,310.543 161.035,160.909 161.482,190.836 161.928,146.826 162.374,326.387 162.821,162.67 163.267,229.565 163.714,160.909 164.16,197.878 164.606,227.804 165.053,210.2 165.499,219.002 165.946,206.68 166.392,208.44 166.838,162.67 167.285,215.482 167.731,231.325 168.178,213.721 168.624,194.357 169.07,224.284 169.517,220.763 169.963,211.961 170.41,160.909 170.856,211.961 171.302,194.357 171.749,310.543 172.195,150.347 172.642,196.117 173.088,192.596 173.534,217.242 173.981,203.159 174.427,243.648 174.874,208.44 175.32,208.44 175.766,190.836 176.213,220.763 176.659,238.367 177.106,190.836 177.552,197.878 177.998,206.68 178.445,201.398 178.891,203.159 179.338,208.44 179.784,245.408 180.23,153.868 180.677,261.252 181.123,206.68 181.57,206.68 182.016,174.992 182.462,192.596 182.909,217.242 183.355,229.565 183.802,201.398 184.248,182.034 184.694,204.919 185.141,201.398 185.587,222.523 186.034,220.763 186.48,187.315 186.926,250.69 187.373,201.398 187.819,238.367 188.266,199.638 188.712,180.274 189.158,224.284 189.605,213.721 190.051,182.034 190.498,231.325 190.944,167.951 191.39,215.482 191.837,236.606 192.283,196.117 192.73,203.159 193.176,233.086 193.622,189.076 194.069,213.721 194.515,159.149 194.962,231.325 195.408,213.721 195.854,252.45 196.301,150.347 196.747,243.648 197.194,189.076 197.64,227.804 198.086,196.117 198.533,233.086 198.979,206.68 199.426,231.325 199.872,174.992 200.318,192.596 200.765,217.242 201.211,219.002 201.658,194.357 202.104,189.076 202.55,194.357 202.997,213.721 203.443,240.127 203.89,217.242 204.336,222.523 204.782,185.555 205.229,240.127 205.675,176.753 206.122,222.523 206.568,187.315 207.014,196.117 207.461,243.648 207.907,199.638 208.354,185.555 208.8,236.606 209.246,192.596 209.693,217.242 210.139,229.565 210.586,208.44 211.032,180.274 211.478,187.315 211.925,234.846 212.371,215.482 212.818,162.67 213.264,211.961 213.71,215.482 214.157,215.482 214.603,229.565 215.05,208.44 215.496,190.836 215.942,229.565 216.389,238.367 216.835,185.555 217.282,222.523 217.728,208.44 218.174,153.868 218.621,245.408 219.067,139.784 219.514,257.731 219.96,197.878 220.406,250.69 220.853,185.555 221.299,213.721 221.746,208.44 222.192,167.951 222.638,197.878 223.085,284.137 223.531,176.753 223.978,189.076 224.424,204.919 224.87,227.804 225.317,234.846 225.763,178.513 226.21,215.482 226.656,208.44 227.102,226.044 227.549,160.909 227.995,245.408 228.442,208.44 228.888,210.2 229.334,182.034 229.781,204.919 230.227,208.44 230.674,233.086 231.12,203.159 231.566,234.846 232.013,162.67 232.459,234.846 232.906,203.159 233.352,215.482 233.798,169.711 234.245,227.804 234.691,201.398 235.138,248.929 235.584,176.753 236.03,199.638 236.477,250.69 236.923,211.961 237.37,164.43 237.816,231.325 238.262,176.753 238.709,222.523 239.155,219.002 239.602,185.555 240.048,241.888 240.494,217.242 240.941,211.961 241.387,194.357 241.834,189.076 242.28,166.19 242.726,278.856 243.173,189.076 243.619,199.638 244.066,187.315 244.512,219.002 244.958,192.596 245.405,243.648 245.851,252.45 246.298,145.066 246.744,204.919 247.19,194.357 247.637,250.69 248.083,215.482 248.53,196.117 248.976,227.804 249.422,227.804 249.869,166.19 250.315,190.836 250.762,215.482 251.208,217.242 251.654,199.638 252.101,206.68 252.547,201.398 252.994,252.45 253.44,190.836 253.886,194.357 254.333,234.846 254.779,208.44 255.226,157.388 255.672,303.502 256.118,176.753 256.565,192.596 257.011,201.398 257.458,224.284 257.904,189.076 258.35,173.232 258.797,224.284 259.243,234.846 259.69,248.929 260.136,132.743 260.582,215.482 261.029,215.482 261.475,208.44 261.922,217.242 262.368,236.606 262.814,132.743 263.261,250.69 263.707,219.002 264.154,192.596 264.6,270.054 265.046,166.19 265.493,211.961 265.939,240.127 266.386,153.868 266.832,247.169 267.278,219.002 267.725,171.472 268.171,220.763 268.618,233.086 269.064,145.066 269.51,278.856 269.957,196.117 270.403,173.232 270.85,234.846 271.296,185.555 271.742,206.68 272.189,190.836 272.635,211.961 273.082,222.523 273.528,233.086 273.974,97.5348 274.421,287.658 274.867,167.951 275.314,263.012 275.76,210.2 276.206,206.68 276.653,222.523 277.099,178.513 277.546,203.159 277.992,208.44 278.438,190.836 278.885,220.763 279.331,208.44 279.778,171.472 280.224,229.565 280.67,194.357 281.117,215.482 281.563,222.523 282.01,231.325 282.456,217.242 282.902,173.232 283.349,241.888 283.795,222.523 284.242,145.066 284.688,204.919 285.134,245.408 285.581,190.836 286.027,222.523 286.474,208.44 286.92,222.523 287.366,185.555 287.813,204.919 288.259,204.919 288.706,241.888 289.152,160.909 289.598,255.971 290.045,201.398 290.491,164.43 290.938,222.523 291.384,254.21 291.83,174.992 292.277,210.2 292.723,157.388 293.17,229.565 293.616,226.044 294.062,231.325 294.509,213.721 294.955,215.482 295.402,167.951 295.848,219.002 296.294,197.878 296.741,187.315 297.187,259.492 297.634,182.034 298.08,187.315 298.526,233.086 298.973,208.44 299.419,233.086 299.866,166.19 300.312,197.878 300.758,220.763 301.205,229.565 301.651,122.18 302.098,289.418 302.544,217.242 302.99,190.836 303.437,234.846 303.883,171.472 304.33,247.169 304.776,187.315 305.222,224.284 305.669,196.117 306.115,296.46 306.562,109.858 307.008,208.44 307.454,210.2 307.901,208.44 308.347,192.596 308.794,261.252 309.24,201.398 309.686,199.638 310.133,189.076 310.579,217.242 311.026,211.961 311.472,148.586 311.918,289.418 312.365,171.472 312.811,247.169 313.258,160.909 313.704,241.888 314.15,189.076 314.597,203.159 315.043,264.773 315.49,201.398 315.936,138.024 316.382,227.804 316.829,203.159 317.275,229.565 317.722,222.523 318.168,217.242 318.614,196.117 319.061,171.472 319.507,219.002 319.954,150.347 320.4,292.939 320.846,199.638 321.293,210.2 321.739,197.878 322.186,248.929 322.632,171.472 323.078,208.44 323.525,189.076 323.971,229.565 324.418,213.721 324.864,222.523 325.31,222.523 325.757,210.2 326.203,183.794 326.65,146.826 327.096,284.137 327.542,141.545 327.989,245.408 328.435,252.45 328.882,182.034 329.328,160.909 329.774,259.492 330.221,171.472 330.667,245.408 331.114,197.878 331.56,189.076 332.006,254.21 332.453,145.066 332.899,243.648 333.346,210.2 333.792,210.2 334.238,153.868 334.685,245.408 335.131,208.44 335.578,213.721 336.024,217.242 336.47,190.836 336.917,211.961 337.363,204.919 337.81,213.721 338.256,226.044 338.702,275.335 339.149,111.618 339.595,236.606 340.042,189.076 340.488,197.878 340.934,210.2 341.381,196.117 341.827,219.002 342.274,213.721 342.72,211.961 343.166,222.523 343.613,167.951 344.059,243.648 344.506,227.804 344.952,169.711 345.398,187.315 345.845,250.69 346.291,197.878 346.738,240.127 347.184,164.43 347.63,192.596 348.077,254.21 348.523,222.523 348.97,169.711 349.416,217.242 349.862,215.482 350.309,227.804 350.755,213.721 351.202,203.159 351.648,174.992 352.094,204.919 352.541,174.992 352.987,259.492 353.434,243.648 353.88,159.149 354.326,217.242 354.773,199.638 355.219,245.408 355.666,176.753 356.112,234.846 356.558,189.076 357.005,263.012 357.451,187.315 357.898,204.919 358.344,164.43 358.79,243.648 359.237,174.992 359.683,173.232 360.13,264.773 360.576,199.638 361.022,201.398 361.469,183.794 361.915,208.44 362.362,215.482 362.808,222.523 363.254,210.2 363.701,204.919 364.147,278.856 364.594,152.107 365.04,220.763 365.486,206.68 365.933,196.117 366.379,204.919 366.826,204.919 367.272,180.274 367.718,215.482 368.165,196.117 368.611,257.731 369.058,153.868 369.504,240.127 369.95,196.117 370.397,217.242 370.843,277.096 371.29,169.711 371.736,219.002 372.182,174.992 372.629,206.68 373.075,189.076 373.522,215.482 373.968,224.284 374.414,196.117 374.861,208.44 375.307,215.482 375.754,164.43 376.2,259.492 376.646,189.076 377.093,234.846 377.539,174.992 377.986,226.044 378.432,208.44 378.878,215.482 379.325,162.67 379.771,227.804 380.218,233.086 380.664,189.076 381.11,174.992 381.557,206.68 382.003,257.731 382.45,236.606 382.896,104.576 383.342,291.179 383.789,189.076 384.235,222.523 384.682,208.44 385.128,203.159 385.574,189.076 386.021,257.731 386.467,166.19 386.914,204.919 387.36,240.127 387.806,192.596 388.253,211.961 388.699,176.753 389.146,247.169 389.592,208.44 390.038,174.992 390.485,257.731 390.931,187.315 391.378,204.919 391.824,167.951 392.27,250.69 392.717,176.753 393.163,241.888 393.61,190.836 394.056,192.596 394.502,233.086 394.949,187.315 395.395,217.242 395.842,254.21 396.288,141.545 396.734,264.773 397.181,206.68 397.627,194.357 398.074,220.763 398.52,199.638 398.966,215.482 399.413,182.034 399.859,206.68 400.306,203.159 400.752,201.398 401.198,203.159 401.645,245.408 402.091,224.284 402.538,208.44 402.984,206.68 403.43,280.616 403.877,74.6496 404.323,254.21 404.77,210.2 405.216,220.763 405.662,176.753 406.109,203.159 406.555,234.846 407.002,187.315 407.448,238.367 407.894,220.763 408.341,134.503 408.787,266.533 409.234,155.628 409.68,210.2 410.126,245.408 410.573,217.242 411.019,183.794 411.466,217.242 411.912,215.482 412.358,210.2 412.805,162.67 413.251,243.648 413.698,183.794 414.144,231.325 414.59,236.606 415.037,197.878 415.483,187.315 415.93,210.2 416.376,208.44 416.822,227.804 417.269,208.44 417.715,187.315 418.162,259.492 418.608,187.315 419.054,211.961 419.501,208.44 419.947,159.149 420.394,287.658 420.84,173.232 421.286,189.076 421.733,194.357 422.179,226.044 422.626,250.69 423.072,208.44 423.518,190.836 423.965,176.753 424.411,185.555 424.858,236.606 425.304,224.284 425.75,213.721 426.197,167.951 426.643,217.242 427.09,250.69 427.536,136.264 427.982,243.648 428.429,157.388 428.875,266.533 429.322,217.242 429.768,187.315 430.214,180.274 430.661,219.002 431.107,254.21 431.554,213.721 432,187.315 432.446,204.919 432.893,224.284 433.339,185.555 433.786,206.68 434.232,234.846 434.678,171.472 435.125,211.961 435.571,245.408 436.018,174.992 436.464,199.638 436.91,219.002 437.357,222.523 437.803,211.961 438.25,227.804 438.696,159.149 439.142,219.002 439.589,220.763 440.035,171.472 440.482,236.606 440.928,134.503 441.374,331.668 441.821,167.951 442.267,208.44 442.714,208.44 443.16,204.919 443.606,219.002 444.053,194.357 444.499,219.002 444.946,236.606 445.392,141.545 445.838,203.159 446.285,268.294 446.731,197.878 447.178,183.794 447.624,220.763 448.07,199.638 448.517,217.242 448.963,231.325 449.41,197.878 449.856,192.596 450.302,199.638 450.749,259.492 451.195,182.034 451.642,201.398 452.088,208.44 452.534,245.408 452.981,160.909 453.427,192.596 453.874,248.929 454.32,213.721 454.766,173.232 455.213,174.992 455.659,243.648 456.106,229.565 456.552,203.159 456.998,185.555 457.445,234.846 457.891,208.44 458.338,211.961 458.784,210.2 459.23,220.763 459.677,194.357 460.123,226.044 460.57,164.43 461.016,220.763 461.462,180.274 461.909,245.408 462.355,208.44 462.802,183.794 463.248,217.242 463.694,189.076 464.141,261.252 464.587,90.4932 465.034,280.616 465.48,234.846 465.926,224.284 466.373,174.992 466.819,226.044 467.266,164.43 467.712,243.648 468.158,220.763 468.605,190.836 469.051,199.638 469.498,284.137 469.944,132.743 470.39,215.482 470.837,190.836 471.283,252.45 471.73,224.284 472.176,143.305 472.622,197.878 473.069,275.335 473.515,180.274 473.962,208.44 474.408,157.388 474.854,266.533 475.301,222.523 475.747,196.117 476.194,208.44 476.64,189.076 477.086,226.044 477.533,215.482 477.979,176.753 478.426,210.2 478.872,201.398 479.318,208.44 479.765,233.086 480.211,247.169 480.658,132.743 481.104,224.284 481.55,243.648 481.997,206.68 482.443,211.961 482.89,180.274 483.336,240.127 483.782,129.222 484.229,252.45 484.675,196.117 485.122,196.117 485.568,250.69 486.014,187.315 486.461,211.961 486.907,248.929 487.354,173.232 487.8,164.43 488.246,282.377 488.693,176.753 489.139,213.721 489.586,194.357 490.032,210.2 490.478,211.961 490.925,224.284 491.371,248.929 491.818,152.107 492.264,234.846 492.71,197.878 493.157,213.721 493.603,210.2 494.05,229.565 494.496,187.315 494.942,236.606 495.389,208.44 495.835,180.274 496.282,197.878 496.728,210.2 497.174,219.002 497.621,139.784 498.067,227.804 498.514,245.408 498.96,204.919 499.406,238.367 499.853,194.357 500.299,185.555 500.746,208.44 501.192,240.127 501.638,199.638 502.085,247.169 502.531,97.5348 502.978,285.898 503.424,204.919 503.87,178.513 504.317,190.836 504.763,231.325 505.21,213.721 505.656,199.638 506.102,213.721 506.549,164.43 506.995,273.575 507.442,201.398 507.888,173.232 508.334,252.45 508.781,180.274 509.227,192.596 509.674,231.325 510.12,240.127 510.566,173.232 511.013,208.44 511.459,194.357 511.906,264.773 512.352,189.076 512.798,162.67 513.245,252.45 513.691,159.149 514.138,238.367 514.584,157.388 515.03,277.096 515.477,197.878 515.923,247.169 516.37,143.305 516.816,247.169 517.262,204.919 517.709,213.721 518.155,194.357 518.602,215.482 519.048,183.794 519.494,171.472 519.941,266.533 520.387,196.117"/>
</g>
</g>
</svg>
