<?xml version="1.0" encoding="UTF-8" standalone="no"?>
<svg xmlns="http://www.w3.org/2000/svg"
     xmlns:xlink="http://www.w3.org/1999/xlink"
     width="576pt" height="432pt" viewBox="0 0 576 432">
<title>gl2ps_renderer figure</title>
<desc>
Creator: GL2PS 1.4.0, (C) 1999-2017 C. Geuzaine
For: Octave
CreationDate: Tue Dec 10 21:08:19 2019
</desc>
<defs>
</defs>
<polygon fill="#ffffff" points="0,0 576,0 576,432 0,432"/>
<g>
<polygon fill="#ffffff" points="0,432 576,432 576,0 0,0" shape-rendering="crispEdges"/>
<clipPath id="cp00576432">
  <polygon points="0,432 576,432 576,0 0,0"/>
</clipPath>
<g clip-path="url(#cp00576432)">
<polygon fill="#ffffff" shape-rendering="crispEdges" points="74.88,384.48 521.28,384.48 74.88,32.4"/>
<polygon fill="#ffffff" shape-rendering="crispEdges" points="521.28,384.48 521.28,32.4 74.88,32.4"/>
<polyline fill="none" stroke="#262626" stroke-width="0.5" stroke-linecap="butt" stroke-linejoin="miter" stroke-opacity="0.15" stroke-dasharray="16,0" points="74.88,384.48 74.88,32.4"/>
<polyline fill="none" stroke="#262626" stroke-width="0.5" stroke-linecap="butt" stroke-linejoin="miter" stroke-opacity="0.15" stroke-dasharray="16,0" points="164.16,384.48 164.16,32.4"/>
<polyline fill="none" stroke="#262626" stroke-width="0.5" stroke-linecap="butt" stroke-linejoin="miter" stroke-opacity="0.15" stroke-dasharray="16,0" points="253.44,384.48 253.44,32.4"/>
<polyline fill="none" stroke="#262626" stroke-width="0.5" stroke-linecap="butt" stroke-linejoin="miter" stroke-opacity="0.15" stroke-dasharray="16,0" points="342.72,384.48 342.72,32.4"/>
<polyline fill="none" stroke="#262626" stroke-width="0.5" stroke-linecap="butt" stroke-linejoin="miter" stroke-opacity="0.15" stroke-dasharray="16,0" points="432,384.48 432,32.4"/>
<polyline fill="none" stroke="#262626" stroke-width="0.5" stroke-linecap="butt" stroke-linejoin="miter" stroke-opacity="0.15" stroke-dasharray="16,0" points="521.28,384.48 521.28,32.4"/>
<polyline fill="none" stroke="#262626" stroke-width="0.5" stroke-linecap="butt" stroke-linejoin="miter" points="74.88,384.48 74.88,380.015"/>
<polyline fill="none" stroke="#262626" stroke-width="0.5" stroke-linecap="butt" stroke-linejoin="miter" points="74.88,32.4 74.88,36.865"/>
<polyline fill="none" stroke="#262626" stroke-width="0.5" stroke-linecap="butt" stroke-linejoin="miter" points="164.16,384.48 164.16,380.015"/>
<polyline fill="none" stroke="#262626" stroke-width="0.5" stroke-linecap="butt" stroke-linejoin="miter" points="164.16,32.4 164.16,36.865"/>
<polyline fill="none" stroke="#262626" stroke-width="0.5" stroke-linecap="butt" stroke-linejoin="miter" points="253.44,384.48 253.44,380.015"/>
<polyline fill="none" stroke="#262626" stroke-width="0.5" stroke-linecap="butt" stroke-linejoin="miter" points="253.44,32.4 253.44,36.865"/>
<polyline fill="none" stroke="#262626" stroke-width="0.5" stroke-linecap="butt" stroke-linejoin="miter" points="342.72,384.48 342.72,380.015"/>
<polyline fill="none" stroke="#262626" stroke-width="0.5" stroke-linecap="butt" stroke-linejoin="miter" points="342.72,32.4 342.72,36.865"/>
<polyline fill="none" stroke="#262626" stroke-width="0.5" stroke-linecap="butt" stroke-linejoin="miter" points="432,384.48 432,380.015"/>
<polyline fill="none" stroke="#262626" stroke-width="0.5" stroke-linecap="butt" stroke-linejoin="miter" points="432,32.4 432,36.865"/>
<polyline fill="none" stroke="#262626" stroke-width="0.5" stroke-linecap="butt" stroke-linejoin="miter" points="521.28,384.48 521.28,380.015"/>
<polyline fill="none" stroke="#262626" stroke-width="0.5" stroke-linecap="butt" stroke-linejoin="miter" points="521.28,32.4 521.28,36.865"/>
<text xml:space="preserve" transform="translate(71.88,400.481) rotate(-0,3,-11)" font-family="FreeSans" font-weight="normal" font-style="normal" font-size="10"><tspan y="-1" fill="rgb(38,38,38)" x="0 ">0</tspan></text>
<text xml:space="preserve" transform="translate(155.16,400.481) rotate(-0,9,-11)" font-family="FreeSans" font-weight="normal" font-style="normal" font-size="10"><tspan y="-1" fill="rgb(38,38,38)" x="0 6 12 ">200</tspan></text>
<text xml:space="preserve" transform="translate(244.44,400.481) rotate(-0,9,-11)" font-family="FreeSans" font-weight="normal" font-style="normal" font-size="10"><tspan y="-1" fill="rgb(38,38,38)" x="0 6 12 ">400</tspan></text>
<text xml:space="preserve" transform="translate(333.72,400.481) rotate(-0,9,-11)" font-family="FreeSans" font-weight="normal" font-style="normal" font-size="10"><tspan y="-1" fill="rgb(38,38,38)" x="0 6 12 ">600</tspan></text>
<text xml:space="preserve" transform="translate(423,400.481) rotate(-0,9,-11)" font-family="FreeSans" font-weight="normal" font-style="normal" font-size="10"><tspan y="-1" fill="rgb(38,38,38)" x="0 6 12 ">800</tspan></text>
<text xml:space="preserve" transform="translate(509.28,400.481) rotate(-0,12,-11)" font-family="FreeSans" font-weight="normal" font-style="normal" font-size="10"><tspan y="-1" fill="rgb(38,38,38)" x="0 6 12 18 ">1000</tspan></text>
<polyline fill="none" stroke="#262626" stroke-width="0.5" stroke-linecap="butt" stroke-linejoin="miter" stroke-opacity="0.15" stroke-dasharray="16,0" points="74.88,384.48 521.28,384.48"/>
<polyline fill="none" stroke="#262626" stroke-width="0.5" stroke-linecap="butt" stroke-linejoin="miter" stroke-opacity="0.15" stroke-dasharray="16,0" points="74.88,334.183 521.28,334.183"/>
<polyline fill="none" stroke="#262626" stroke-width="0.5" stroke-linecap="butt" stroke-linejoin="miter" stroke-opacity="0.15" stroke-dasharray="16,0" points="74.88,283.886 521.28,283.886"/>
<polyline fill="none" stroke="#262626" stroke-width="0.5" stroke-linecap="butt" stroke-linejoin="miter" stroke-opacity="0.15" stroke-dasharray="16,0" points="74.88,233.589 521.28,233.589"/>
<polyline fill="none" stroke="#262626" stroke-width="0.5" stroke-linecap="butt" stroke-linejoin="miter" stroke-opacity="0.15" stroke-dasharray="16,0" points="74.88,183.291 521.28,183.291"/>
<polyline fill="none" stroke="#262626" stroke-width="0.5" stroke-linecap="butt" stroke-linejoin="miter" stroke-opacity="0.15" stroke-dasharray="16,0" points="74.88,132.994 521.28,132.994"/>
<polyline fill="none" stroke="#262626" stroke-width="0.5" stroke-linecap="butt" stroke-linejoin="miter" stroke-opacity="0.15" stroke-dasharray="16,0" points="74.88,82.6971 521.28,82.6971"/>
<polyline fill="none" stroke="#262626" stroke-width="0.5" stroke-linecap="butt" stroke-linejoin="miter" stroke-opacity="0.15" stroke-dasharray="16,0" points="74.88,32.4 521.28,32.4"/>
<polyline fill="none" stroke="#262626" stroke-width="0.5" stroke-linecap="butt" stroke-linejoin="miter" points="74.88,384.48 79.348,384.48"/>
<polyline fill="none" stroke="#262626" stroke-width="0.5" stroke-linecap="butt" stroke-linejoin="miter" points="521.28,384.48 516.812,384.48"/>
<polyline fill="none" stroke="#262626" stroke-width="0.5" stroke-linecap="butt" stroke-linejoin="miter" points="74.88,334.183 79.348,334.183"/>
<polyline fill="none" stroke="#262626" stroke-width="0.5" stroke-linecap="butt" stroke-linejoin="miter" points="521.28,334.183 516.812,334.183"/>
<polyline fill="none" stroke="#262626" stroke-width="0.5" stroke-linecap="butt" stroke-linejoin="miter" points="74.88,283.886 79.348,283.886"/>
<polyline fill="none" stroke="#262626" stroke-width="0.5" stroke-linecap="butt" stroke-linejoin="miter" points="521.28,283.886 516.812,283.886"/>
<polyline fill="none" stroke="#262626" stroke-width="0.5" stroke-linecap="butt" stroke-linejoin="miter" points="74.88,233.589 79.348,233.589"/>
<polyline fill="none" stroke="#262626" stroke-width="0.5" stroke-linecap="butt" stroke-linejoin="miter" points="521.28,233.589 516.812,233.589"/>
<polyline fill="none" stroke="#262626" stroke-width="0.5" stroke-linecap="butt" stroke-linejoin="miter" points="74.88,183.291 79.348,183.291"/>
<polyline fill="none" stroke="#262626" stroke-width="0.5" stroke-linecap="butt" stroke-linejoin="miter" points="521.28,183.291 516.812,183.291"/>
<polyline fill="none" stroke="#262626" stroke-width="0.5" stroke-linecap="butt" stroke-linejoin="miter" points="74.88,132.994 79.348,132.994"/>
<polyline fill="none" stroke="#262626" stroke-width="0.5" stroke-linecap="butt" stroke-linejoin="miter" points="521.28,132.994 516.812,132.994"/>
<polyline fill="none" stroke="#262626" stroke-width="0.5" stroke-linecap="butt" stroke-linejoin="miter" points="74.88,82.6971 79.348,82.6971"/>
<polyline fill="none" stroke="#262626" stroke-width="0.5" stroke-linecap="butt" stroke-linejoin="miter" points="521.28,82.6971 516.812,82.6971"/>
<polyline fill="none" stroke="#262626" stroke-width="0.5" stroke-linecap="butt" stroke-linejoin="miter" points="74.88,32.4 79.348,32.4"/>
<polyline fill="none" stroke="#262626" stroke-width="0.5" stroke-linecap="butt" stroke-linejoin="miter" points="521.28,32.4 516.812,32.4"/>
<text xml:space="preserve" transform="translate(63.8755,389.98) rotate(-0,6,-5.5)" font-family="FreeSans" font-weight="normal" font-style="normal" font-size="10"><tspan y="-1" fill="rgb(38,38,38)" x="0 ">0</tspan></text>
<text xml:space="preserve" transform="translate(51.8755,339.683) rotate(-0,18,-5.5)" font-family="FreeSans" font-weight="normal" font-style="normal" font-size="10"><tspan y="-1" fill="rgb(38,38,38)" x="0 6 12 ">200</tspan></text>
<text xml:space="preserve" transform="translate(51.8755,289.386) rotate(-0,18,-5.5)" font-family="FreeSans" font-weight="normal" font-style="normal" font-size="10"><tspan y="-1" fill="rgb(38,38,38)" x="0 6 12 ">400</tspan></text>
<text xml:space="preserve" transform="translate(51.8755,239.089) rotate(-0,18,-5.5)" font-family="FreeSans" font-weight="normal" font-style="normal" font-size="10"><tspan y="-1" fill="rgb(38,38,38)" x="0 6 12 ">600</tspan></text>
<text xml:space="preserve" transform="translate(51.8755,188.791) rotate(-0,18,-5.5)" font-family="FreeSans" font-weight="normal" font-style="normal" font-size="10"><tspan y="-1" fill="rgb(38,38,38)" x="0 6 12 ">800</tspan></text>
<text xml:space="preserve" transform="translate(45.8755,138.494) rotate(-0,24,-5.5)" font-family="FreeSans" font-weight="normal" font-style="normal" font-size="10"><tspan y="-1" fill="rgb(38,38,38)" x="0 6 12 18 ">1000</tspan></text>
<text xml:space="preserve" transform="translate(45.8755,88.1971) rotate(-0,24,-5.5)" font-family="FreeSans" font-weight="normal" font-style="normal" font-size="10"><tspan y="-1" fill="rgb(38,38,38)" x="0 6 12 18 ">1200</tspan></text>
<text xml:space="preserve" transform="translate(45.8755,37.9) rotate(-0,24,-5.5)" font-family="FreeSans" font-weight="normal" font-style="normal" font-size="10"><tspan y="-1" fill="rgb(38,38,38)" x="0 6 12 18 ">1400</tspan></text>
<polyline fill="none" stroke="#262626" stroke-width="0.5" stroke-linecap="square" stroke-linejoin="miter" stroke-dasharray="16,0" points="74.88,384.48 521.28,384.48"/>
<polyline fill="none" stroke="#262626" stroke-width="0.5" stroke-linecap="square" stroke-linejoin="miter" stroke-dasharray="16,0" points="74.88,32.4 521.28,32.4"/>
<polyline fill="none" stroke="#262626" stroke-width="0.5" stroke-linecap="square" stroke-linejoin="miter" stroke-dasharray="16,0" points="74.88,384.48 74.88,32.4"/>
<polyline fill="none" stroke="#262626" stroke-width="0.5" stroke-linecap="square" stroke-linejoin="miter" stroke-dasharray="16,0" points="521.28,384.48 521.28,32.4"/>
<text xml:space="preserve" transform="translate(151.08,22.4) rotate(-0,147,0)" font-family="FreeSans" font-weight="bold" font-style="normal" font-size="11"><tspan y="-2" fill="rgb(0,0,0)" x="0 6 12 16 22 28 32 38 44 50 56 59 65 71 74 80 86 94 100 106 112 118 126 135 142 148 154 160 163 170 177 183 190 194 197 203 209 213 216 222 229 235 238 244 250 253 259 262 266 272 278 284 290 ">10-12-2019 20:15A2680AQF998 quantizer analysis (9070)</tspan></text>
<text xml:space="preserve" transform="translate(1.37552,208.44) rotate(-90,40.5,0)" font-family="FreeSans" font-weight="normal" font-style="normal" font-size="11"><tspan y="-2" fill="rgb(38,38,38)" x="0 7 10 16 22 25 31 34 37 43 49 55 61 64 66 71 77 ">Step of quantizer</tspan></text>
<text xml:space="preserve" transform="translate(271.08,413.481) rotate(-0,27,-13)" font-family="FreeSans" font-weight="normal" font-style="normal" font-size="11"><tspan y="-2" fill="rgb(38,38,38)" x="0 6 9 15 18 21 27 33 39 45 51 "># of packet</tspan></text>
<polyline fill="none" stroke="#0071bc" stroke-width="0.5" stroke-linecap="butt" stroke-linejoin="round" points="75.3264,384.229 75.7728,384.229 76.2192,384.229 76.6656,384.229 77.112,290.424 77.5584,293.694 78.0048,328.147 78.4512,326.89 78.8976,355.559 79.344,365.619 79.7904,373.918 80.2368,375.175 80.6832,378.444 81.1296,378.444 81.576,379.953 82.0224,329.405 82.4688,329.908 82.9152,330.159 83.3616,321.357 83.808,353.799 84.2544,367.63 84.7008,313.813 85.1472,322.112 85.5936,311.298 86.04,340.973 86.4864,361.092 86.9328,367.63 87.3792,299.478 87.8256,311.046 88.272,340.973 88.7184,352.541 89.1648,366.373 89.6112,370.9 90.0576,375.175 90.504,376.181 90.9504,378.444 91.3968,379.953 91.8432,259.492 92.2896,223.781 92.736,251.696 93.1824,312.807 93.6288,347.26 94.0752,357.571 94.5216,364.361 94.968,368.385 95.4144,371.906 95.8608,375.427 96.3072,377.438 96.7536,331.919 97.2,302.244 97.6464,320.351 98.0928,342.482 98.5392,354.302 98.9856,365.367 99.432,370.145 99.8784,373.918 100.325,377.187 100.771,378.444 101.218,337.955 101.664,306.016 102.11,312.304 102.557,344.242 103.003,359.08 103.45,364.361 103.896,288.412 104.342,290.676 104.789,321.609 105.235,347.763 105.682,364.361 106.128,369.642 106.574,301.741 107.021,313.561 107.467,324.375 107.914,338.207 108.36,355.811 108.806,362.349 109.253,367.63 109.699,372.912 110.146,375.678 110.592,377.941 111.038,206.177 111.485,196.872 111.931,274.329 112.378,325.884 112.824,347.26 113.27,358.074 113.717,366.625 114.163,370.145 114.61,371.151 115.056,318.591 115.502,211.709 115.949,227.804 116.395,216.991 116.842,205.171 117.288,254.462 117.734,252.701 118.181,224.787 118.627,275.335 119.074,261.252 119.52,239.121 119.966,292.688 120.413,246.163 120.859,225.29 121.306,246.163 121.752,271.06 122.198,300.735 122.645,302.244 123.091,204.668 123.538,231.325 123.984,236.103 124.43,255.719 124.877,288.412 125.323,198.632 125.77,254.462 126.216,257.48 126.662,252.953 127.109,268.294 127.555,293.694 128.002,298.975 128.448,257.983 128.894,290.173 129.341,256.222 129.787,143.808 130.234,184.046 130.68,256.977 131.126,273.323 131.573,269.803 132.019,263.767 132.466,266.533 132.912,257.983 133.358,248.678 133.805,259.24 134.251,252.199 134.698,194.86 135.144,197.878 135.59,239.121 136.037,260.498 136.483,329.405 136.93,300.735 137.376,253.707 137.822,273.826 138.269,292.939 138.715,308.783 139.162,185.052 139.608,182.537 140.054,204.416 140.501,258.486 140.947,276.341 141.394,184.549 141.84,186.309 142.286,217.745 142.733,251.193 143.179,300.484 143.626,231.577 144.072,200.644 144.518,257.983 144.965,289.167 145.411,283.886 145.858,270.305 146.304,278.856 146.75,268.042 147.197,265.527 147.643,265.276 148.09,186.561 148.536,62.3268 148.982,87.9784 149.429,163.676 149.875,257.983 150.322,281.371 150.768,323.369 151.214,327.644 151.661,331.919 152.107,282.125 152.554,236.606 153,204.668 153.446,96.2774 153.893,177.507 154.339,254.21 154.786,301.741 155.232,313.813 155.678,313.058 156.125,271.563 156.571,238.87 157.018,238.87 157.464,273.323 157.91,225.541 158.357,250.438 158.803,218.248 159.25,222.02 159.696,223.529 160.142,213.218 160.589,235.6 161.035,222.272 161.482,268.042 161.928,243.397 162.374,202.404 162.821,216.739 163.267,259.492 163.714,286.652 164.16,315.07 164.606,311.298 165.053,308.28 165.499,291.933 165.946,254.965 166.392,161.161 166.838,100.804 167.285,184.8 167.731,182.034 168.178,218.499 168.624,252.45 169.07,243.9 169.517,240.127 169.963,220.008 170.41,227.553 170.856,241.385 171.302,274.078 171.749,208.691 172.195,177.759 172.642,220.763 173.088,269.551 173.534,298.723 173.981,298.975 174.427,290.424 174.874,272.569 175.32,275.587 175.766,242.894 176.213,236.103 176.659,209.446 177.106,217.242 177.552,258.234 177.998,267.539 178.445,246.414 178.891,229.816 179.338,215.23 179.784,205.925 180.23,237.361 180.677,263.012 181.123,200.895 181.57,195.614 182.016,246.414 182.462,273.826 182.909,309.537 183.355,313.561 183.802,300.484 184.248,263.264 184.694,254.965 185.141,167.951 185.587,189.076 186.034,181.028 186.48,218.499 186.926,249.684 187.373,261.755 187.819,263.515 188.266,273.323 188.712,283.634 189.158,280.113 189.605,273.323 190.051,248.175 190.498,185.052 190.944,186.309 191.39,196.369 191.837,277.599 192.283,307.525 192.73,305.765 193.176,294.197 193.622,240.127 194.069,235.6 194.515,195.111 194.962,245.157 195.408,233.337 195.854,236.858 196.301,248.929 196.747,216.991 197.194,229.816 197.64,208.943 198.086,232.331 198.533,237.109 198.979,275.335 199.426,274.832 199.872,228.81 200.318,235.097 200.765,280.868 201.211,297.717 201.658,315.573 202.104,298.22 202.55,266.785 202.997,263.012 203.443,273.826 203.89,139.03 204.336,109.355 204.782,125.953 205.229,211.961 205.675,238.367 206.122,285.143 206.568,292.185 207.014,297.969 207.461,240.882 207.907,265.779 208.354,288.412 208.8,244.905 209.246,198.381 209.693,232.834 210.139,293.694 210.586,291.179 211.032,309.034 211.478,304.759 211.925,274.581 212.371,259.24 212.818,270.808 213.264,215.482 213.71,156.885 214.157,219.505 214.603,266.533 215.05,287.658 215.496,232.331 215.942,206.177 216.389,223.529 216.835,210.2 217.282,237.361 217.728,283.383 218.174,217.493 218.621,207.686 219.067,252.199 219.514,255.971 219.96,270.808 220.406,299.981 220.853,271.311 221.299,239.876 221.746,226.547 222.192,192.848 222.638,150.095 223.085,160.909 223.531,191.339 223.978,242.139 224.424,265.276 224.87,289.921 225.317,292.436 225.763,273.575 226.21,228.559 226.656,264.773 227.102,295.203 227.549,211.458 227.995,213.47 228.442,254.713 228.888,294.448 229.334,317.333 229.781,314.567 230.227,305.011 230.674,290.424 231.12,279.61 231.566,216.488 232.013,215.985 232.459,166.693 232.906,234.343 233.352,256.474 233.798,222.523 234.245,186.812 234.691,191.59 235.138,207.937 235.584,204.165 236.03,276.844 236.477,259.492 236.923,205.422 237.37,226.798 237.816,264.773 238.262,305.011 238.709,320.1 239.155,322.615 239.602,296.46 240.048,266.785 240.494,232.08 240.941,201.65 241.387,120.923 241.834,177.759 242.28,162.921 242.726,219.254 243.173,253.959 243.619,236.858 244.066,225.29 244.512,191.087 244.958,194.86 245.405,233.84 245.851,270.808 246.298,228.307 246.744,206.68 247.19,257.48 247.637,296.963 248.083,312.304 248.53,308.28 248.976,284.892 249.422,261.252 249.869,253.456 250.315,181.531 250.762,211.458 251.208,189.579 251.654,223.781 252.101,258.737 252.547,244.151 252.994,200.644 253.44,195.111 253.886,192.848 254.333,224.535 254.779,285.395 255.226,216.739 255.672,130.731 256.118,185.052 256.565,233.086 257.011,258.989 257.458,296.46 257.904,283.634 258.35,268.042 258.797,264.773 259.243,272.82 259.69,185.052 260.136,112.121 260.582,146.072 261.029,227.05 261.475,251.947 261.922,286.149 262.368,265.276 262.814,227.05 263.261,235.097 263.707,286.401 264.154,275.587 264.6,227.553 265.046,211.961 265.493,238.618 265.939,279.359 266.386,288.161 266.832,288.412 267.278,223.529 267.725,217.745 268.171,219.505 268.618,232.08 269.064,246.666 269.51,199.638 269.957,193.602 270.403,248.678 270.85,254.21 271.296,234.343 271.742,207.434 272.189,204.165 272.635,223.278 273.082,257.983 273.528,276.844 273.974,195.614 274.421,210.452 274.867,254.713 275.314,289.418 275.76,292.185 276.206,288.664 276.653,266.03 277.099,249.432 277.546,254.21 277.992,270.808 278.438,186.561 278.885,150.347 279.331,187.818 279.778,227.804 280.224,256.977 280.67,276.844 281.117,278.102 281.563,250.941 282.01,229.313 282.456,276.341 282.902,280.113 283.349,212.715 283.795,203.662 284.242,255.719 284.688,289.167 285.134,288.161 285.581,306.771 286.027,284.137 286.474,276.844 286.92,270.808 287.366,287.658 287.813,217.242 288.259,183.543 288.706,215.733 289.152,255.719 289.598,290.927 290.045,183.794 290.491,185.555 290.938,226.044 291.384,235.349 291.83,270.054 292.277,276.844 292.723,148.335 293.17,206.68 293.616,251.947 294.062,276.341 294.509,309.537 294.955,274.078 295.402,254.21 295.848,253.456 296.294,242.391 296.741,227.05 297.187,139.533 297.634,140.287 298.08,216.739 298.526,229.816 298.973,266.03 299.419,280.365 299.866,268.545 300.312,264.773 300.758,244.654 301.205,276.341 301.651,274.581 302.098,190.585 302.544,222.523 302.99,256.474 303.437,306.016 303.883,309.789 304.33,316.327 304.776,288.664 305.222,256.222 305.669,258.989 306.115,198.381 306.562,178.262 307.008,186.058 307.454,266.282 307.901,230.822 308.347,219.505 308.794,181.531 309.24,227.301 309.686,224.535 310.133,237.864 310.579,287.909 311.026,262.006 311.472,203.41 311.918,244.402 312.365,276.844 312.811,300.987 313.258,309.286 313.704,310.04 314.15,270.808 314.597,265.527 315.043,272.569 315.49,157.137 315.936,111.367 316.382,170.717 316.829,199.387 317.275,246.163 317.722,238.367 318.168,228.056 318.614,234.846 319.061,222.523 319.507,257.48 319.954,306.268 320.4,193.351 320.846,184.046 321.293,228.056 321.739,261.503 322.186,297.969 322.632,282.88 323.078,256.725 323.525,262.509 323.971,264.018 324.418,219.505 324.864,224.787 325.31,176.501 325.757,224.032 326.203,267.539 326.65,297.969 327.096,213.721 327.542,216.488 327.989,224.535 328.435,253.204 328.882,299.478 329.328,246.917 329.774,197.123 330.221,240.127 330.667,276.341 331.114,316.83 331.56,330.411 332.006,303.25 332.453,262.258 332.899,251.696 333.346,278.856 333.792,262.509 334.238,113.378 334.685,175.244 335.131,218.751 335.578,269.551 336.024,312.555 336.47,305.262 336.917,293.442 337.363,290.173 337.81,281.119 338.256,256.474 338.702,194.357 339.149,189.076 339.595,262.509 340.042,290.927 340.488,279.862 340.934,279.359 341.381,263.012 341.827,186.309 342.274,207.686 342.72,274.832 343.166,227.804 343.613,205.422 344.059,239.876 344.506,228.559 344.952,279.107 345.398,233.84 345.845,179.771 346.291,189.327 346.738,221.769 347.184,293.694 347.63,279.61 348.077,225.793 348.523,265.024 348.97,292.688 349.416,312.807 349.862,305.513 350.309,287.658 350.755,248.175 351.202,241.888 351.648,231.074 352.094,291.933 352.541,148.586 352.987,125.953 353.434,180.777 353.88,228.056 354.326,255.216 354.773,276.341 355.219,254.713 355.666,238.367 356.112,259.24 356.558,292.939 357.005,215.482 357.451,195.111 357.898,219.757 358.344,286.401 358.79,300.232 359.237,297.969 359.683,282.377 360.13,282.377 360.576,259.24 361.022,296.46 361.469,213.973 361.915,203.41 362.362,240.379 362.808,270.305 363.254,277.85 363.701,286.401 364.147,158.897 364.594,200.644 365.04,227.05 365.486,289.921 365.933,233.84 366.379,178.513 366.826,227.553 367.272,276.593 367.718,277.096 368.165,310.292 368.611,287.155 369.058,261.001 369.504,249.684 369.95,263.515 370.397,287.909 370.843,155.88 371.29,119.163 371.736,178.765 372.182,220.008 372.629,280.868 373.075,284.892 373.522,268.294 373.968,229.062 374.414,243.397 374.861,300.484 375.307,255.216 375.754,225.038 376.2,264.521 376.646,299.226 377.093,304.508 377.539,316.327 377.986,313.813 378.432,285.143 378.878,257.228 379.325,253.456 379.771,265.527 380.218,160.155 380.664,124.192 381.11,112.875 381.557,204.668 382.003,233.589 382.45,179.268 382.896,173.483 383.342,216.991 383.789,253.204 384.235,308.783 384.682,220.008 385.128,168.705 385.574,254.21 386.021,285.898 386.467,305.513 386.914,298.472 387.36,300.735 387.806,266.785 388.253,240.882 388.699,239.373 389.146,190.333 389.592,77.416 390.038,95.02 390.485,153.365 390.931,227.553 391.378,200.644 391.824,220.008 392.27,236.858 392.717,225.541 393.163,216.236 393.61,259.743 394.056,240.127 394.502,206.428 394.949,238.618 395.395,260.749 395.842,267.539 396.288,267.791 396.734,270.054 397.181,261.755 397.627,256.725 398.074,217.493 398.52,204.919 398.966,237.864 399.413,214.727 399.859,183.04 400.306,208.189 400.752,180.022 401.198,203.159 401.645,223.026 402.091,231.828 402.538,232.583 402.984,225.541 403.43,223.529 403.877,260.749 404.323,210.2 404.77,205.925 405.216,250.187 405.662,282.377 406.109,276.593 406.555,265.527 407.002,239.121 407.448,215.985 407.894,133.497 408.341,162.418 408.787,210.955 409.234,202.907 409.68,204.919 410.126,253.707 410.573,309.537 411.019,289.167 411.466,220.511 411.912,220.763 412.358,224.787 412.805,219.505 413.251,226.044 413.698,119.666 414.144,161.915 414.59,223.026 415.037,292.436 415.483,300.987 415.93,271.814 416.376,250.69 416.822,249.432 417.269,175.747 417.715,182.285 418.162,239.373 418.608,230.319 419.054,246.414 419.501,237.361 419.947,190.836 420.394,226.296 420.84,206.428 421.286,202.656 421.733,251.696 422.179,250.69 422.626,234.092 423.072,207.686 423.518,241.636 423.965,279.61 424.411,285.395 424.858,295.957 425.304,281.874 425.75,236.355 426.197,231.325 426.643,122.683 427.09,133.497 427.536,127.713 427.982,192.596 428.429,235.6 428.875,252.199 429.322,249.432 429.768,249.432 430.214,215.482 430.661,237.864 431.107,273.323 431.554,235.6 432,159.4 432.446,216.488 432.893,271.06 433.339,298.723 433.786,300.735 434.232,304.256 434.678,275.587 435.125,259.492 435.571,247.923 436.018,181.028 436.464,227.804 436.91,182.788 437.357,189.579 437.803,220.26 438.25,191.842 438.696,237.612 439.142,249.432 439.589,217.493 440.035,161.664 440.482,261.001 440.928,205.674 441.374,178.262 441.821,210.955 442.267,282.88 442.714,268.294 443.16,280.868 443.606,310.04 444.053,228.559 444.499,152.61 444.946,243.145 445.392,246.917 445.838,161.915 446.285,162.67 446.731,232.834 447.178,268.042 447.624,280.616 448.07,274.581 448.517,263.264 448.963,238.87 449.41,256.725 449.856,249.684 450.302,118.66 450.749,135.006 451.195,221.014 451.642,261.001 452.088,272.569 452.534,278.102 452.981,270.305 453.427,261.252 453.874,255.719 454.32,253.204 454.766,248.678 455.213,146.323 455.659,105.582 456.106,147.58 456.552,275.084 456.998,226.044 457.445,233.337 457.891,206.931 458.338,208.943 458.784,236.858 459.23,294.197 459.677,229.816 460.123,233.84 460.57,271.311 461.016,291.933 461.462,313.561 461.909,336.446 462.355,325.884 462.802,295.957 463.248,270.305 463.694,265.779 464.141,128.971 464.587,132.994 465.034,139.03 465.48,228.559 465.926,226.798 466.373,250.187 466.819,255.468 467.266,203.159 467.712,161.915 468.158,237.109 468.605,304.508 469.051,229.816 469.498,173.483 469.944,236.606 470.39,285.395 470.837,293.694 471.283,284.892 471.73,278.856 472.176,265.527 472.622,266.282 473.069,251.444 473.515,210.703 473.962,233.086 474.408,197.878 474.854,202.907 475.301,254.21 475.747,240.379 476.194,218.499 476.64,185.052 477.086,169.711 477.533,209.697 477.979,242.139 478.426,241.133 478.872,115.642 479.318,164.43 479.765,239.876 480.211,254.713 480.658,279.107 481.104,252.45 481.55,238.115 481.997,214.727 482.443,232.08 482.89,178.01 483.336,127.462 483.782,123.438 484.229,158.394 484.675,220.26 485.122,255.468 485.568,283.634 486.014,283.634 486.461,263.515 486.907,256.222 487.354,288.664 487.8,274.329 488.246,195.111 488.693,236.606 489.139,256.474 489.586,273.826 490.032,266.282 490.478,265.276 490.925,254.965 491.371,252.701 491.818,259.24 492.264,239.373 492.71,234.846 493.157,180.022 493.603,215.733 494.05,259.24 494.496,229.062 494.942,269.3 495.389,192.345 495.835,198.381 496.282,199.889 496.728,289.418 497.174,244.654 497.621,165.184 498.067,196.62 498.514,263.264 498.96,303.753 499.406,295.957 499.853,303.502 500.299,280.113 500.746,257.48 501.192,262.761 501.638,183.794 502.085,123.689 502.531,117.905 502.978,193.351 503.424,230.822 503.87,268.042 504.317,274.078 504.763,271.563 505.21,275.838 505.656,237.612 506.102,268.042 506.549,237.612 506.995,201.901 507.442,231.828 507.888,258.989 508.334,270.054 508.781,292.436 509.227,260.749 509.674,224.535 510.12,228.81 510.566,244.402 511.013,229.565 511.459,219.254 511.906,185.806 512.352,228.056 512.798,258.234 513.245,238.115 513.691,200.392 514.138,203.41 514.584,221.769 515.03,247.672 515.477,298.975 515.923,233.84 516.37,170.466 516.816,184.297 517.262,212.967 517.709,225.29 518.155,248.678 518.602,275.587 519.048,248.678 519.494,241.888 519.941,243.145 520.387,139.281"/>
</g>
</g>
</svg>
