<?xml version="1.0" encoding="UTF-8" standalone="no"?>
<svg xmlns="http://www.w3.org/2000/svg"
     xmlns:xlink="http://www.w3.org/1999/xlink"
     width="576pt" height="432pt" viewBox="0 0 576 432">
<title>gl2ps_renderer figure</title>
<desc>
Creator: GL2PS 1.4.0, (C) 1999-2017 C. Geuzaine
For: Octave
CreationDate: Tue Dec 10 21:08:20 2019
</desc>
<defs>
</defs>
<polygon fill="#ffffff" points="0,0 576,0 576,432 0,432"/>
<g>
<polygon fill="#ffffff" points="0,432 576,432 576,0 0,0" shape-rendering="crispEdges"/>
<clipPath id="cp00576432">
  <polygon points="0,432 576,432 576,0 0,0"/>
</clipPath>
<g clip-path="url(#cp00576432)">
<polygon fill="#ffffff" shape-rendering="crispEdges" points="74.88,384.48 521.28,384.48 74.88,32.4"/>
<polygon fill="#ffffff" shape-rendering="crispEdges" points="521.28,384.48 521.28,32.4 74.88,32.4"/>
<polyline fill="none" stroke="#262626" stroke-width="0.5" stroke-linecap="butt" stroke-linejoin="miter" stroke-opacity="0.15" stroke-dasharray="16,0" points="74.88,384.48 74.88,32.4"/>
<polyline fill="none" stroke="#262626" stroke-width="0.5" stroke-linecap="butt" stroke-linejoin="miter" stroke-opacity="0.15" stroke-dasharray="16,0" points="164.16,384.48 164.16,32.4"/>
<polyline fill="none" stroke="#262626" stroke-width="0.5" stroke-linecap="butt" stroke-linejoin="miter" stroke-opacity="0.15" stroke-dasharray="16,0" points="253.44,384.48 253.44,32.4"/>
<polyline fill="none" stroke="#262626" stroke-width="0.5" stroke-linecap="butt" stroke-linejoin="miter" stroke-opacity="0.15" stroke-dasharray="16,0" points="342.72,384.48 342.72,32.4"/>
<polyline fill="none" stroke="#262626" stroke-width="0.5" stroke-linecap="butt" stroke-linejoin="miter" stroke-opacity="0.15" stroke-dasharray="16,0" points="432,384.48 432,32.4"/>
<polyline fill="none" stroke="#262626" stroke-width="0.5" stroke-linecap="butt" stroke-linejoin="miter" stroke-opacity="0.15" stroke-dasharray="16,0" points="521.28,384.48 521.28,32.4"/>
<polyline fill="none" stroke="#262626" stroke-width="0.5" stroke-linecap="butt" stroke-linejoin="miter" points="74.88,384.48 74.88,380.015"/>
<polyline fill="none" stroke="#262626" stroke-width="0.5" stroke-linecap="butt" stroke-linejoin="miter" points="74.88,32.4 74.88,36.865"/>
<polyline fill="none" stroke="#262626" stroke-width="0.5" stroke-linecap="butt" stroke-linejoin="miter" points="164.16,384.48 164.16,380.015"/>
<polyline fill="none" stroke="#262626" stroke-width="0.5" stroke-linecap="butt" stroke-linejoin="miter" points="164.16,32.4 164.16,36.865"/>
<polyline fill="none" stroke="#262626" stroke-width="0.5" stroke-linecap="butt" stroke-linejoin="miter" points="253.44,384.48 253.44,380.015"/>
<polyline fill="none" stroke="#262626" stroke-width="0.5" stroke-linecap="butt" stroke-linejoin="miter" points="253.44,32.4 253.44,36.865"/>
<polyline fill="none" stroke="#262626" stroke-width="0.5" stroke-linecap="butt" stroke-linejoin="miter" points="342.72,384.48 342.72,380.015"/>
<polyline fill="none" stroke="#262626" stroke-width="0.5" stroke-linecap="butt" stroke-linejoin="miter" points="342.72,32.4 342.72,36.865"/>
<polyline fill="none" stroke="#262626" stroke-width="0.5" stroke-linecap="butt" stroke-linejoin="miter" points="432,384.48 432,380.015"/>
<polyline fill="none" stroke="#262626" stroke-width="0.5" stroke-linecap="butt" stroke-linejoin="miter" points="432,32.4 432,36.865"/>
<polyline fill="none" stroke="#262626" stroke-width="0.5" stroke-linecap="butt" stroke-linejoin="miter" points="521.28,384.48 521.28,380.015"/>
<polyline fill="none" stroke="#262626" stroke-width="0.5" stroke-linecap="butt" stroke-linejoin="miter" points="521.28,32.4 521.28,36.865"/>
<text xml:space="preserve" transform="translate(71.88,400.481) rotate(-0,3,-11)" font-family="FreeSans" font-weight="normal" font-style="normal" font-size="10"><tspan y="-1" fill="rgb(38,38,38)" x="0 ">0</tspan></text>
<text xml:space="preserve" transform="translate(155.16,400.481) rotate(-0,9,-11)" font-family="FreeSans" font-weight="normal" font-style="normal" font-size="10"><tspan y="-1" fill="rgb(38,38,38)" x="0 6 12 ">200</tspan></text>
<text xml:space="preserve" transform="translate(244.44,400.481) rotate(-0,9,-11)" font-family="FreeSans" font-weight="normal" font-style="normal" font-size="10"><tspan y="-1" fill="rgb(38,38,38)" x="0 6 12 ">400</tspan></text>
<text xml:space="preserve" transform="translate(333.72,400.481) rotate(-0,9,-11)" font-family="FreeSans" font-weight="normal" font-style="normal" font-size="10"><tspan y="-1" fill="rgb(38,38,38)" x="0 6 12 ">600</tspan></text>
<text xml:space="preserve" transform="translate(423,400.481) rotate(-0,9,-11)" font-family="FreeSans" font-weight="normal" font-style="normal" font-size="10"><tspan y="-1" fill="rgb(38,38,38)" x="0 6 12 ">800</tspan></text>
<text xml:space="preserve" transform="translate(509.28,400.481) rotate(-0,12,-11)" font-family="FreeSans" font-weight="normal" font-style="normal" font-size="10"><tspan y="-1" fill="rgb(38,38,38)" x="0 6 12 18 ">1000</tspan></text>
<polyline fill="none" stroke="#262626" stroke-width="0.5" stroke-linecap="butt" stroke-linejoin="miter" stroke-opacity="0.15" stroke-dasharray="16,0" points="74.88,384.48 521.28,384.48"/>
<polyline fill="none" stroke="#262626" stroke-width="0.5" stroke-linecap="butt" stroke-linejoin="miter" stroke-opacity="0.15" stroke-dasharray="16,0" points="74.88,296.46 521.28,296.46"/>
<polyline fill="none" stroke="#262626" stroke-width="0.5" stroke-linecap="butt" stroke-linejoin="miter" stroke-opacity="0.15" stroke-dasharray="16,0" points="74.88,208.44 521.28,208.44"/>
<polyline fill="none" stroke="#262626" stroke-width="0.5" stroke-linecap="butt" stroke-linejoin="miter" stroke-opacity="0.15" stroke-dasharray="16,0" points="74.88,120.42 521.28,120.42"/>
<polyline fill="none" stroke="#262626" stroke-width="0.5" stroke-linecap="butt" stroke-linejoin="miter" stroke-opacity="0.15" stroke-dasharray="16,0" points="74.88,32.4 521.28,32.4"/>
<polyline fill="none" stroke="#262626" stroke-width="0.5" stroke-linecap="butt" stroke-linejoin="miter" points="74.88,384.48 79.348,384.48"/>
<polyline fill="none" stroke="#262626" stroke-width="0.5" stroke-linecap="butt" stroke-linejoin="miter" points="521.28,384.48 516.812,384.48"/>
<polyline fill="none" stroke="#262626" stroke-width="0.5" stroke-linecap="butt" stroke-linejoin="miter" points="74.88,296.46 79.348,296.46"/>
<polyline fill="none" stroke="#262626" stroke-width="0.5" stroke-linecap="butt" stroke-linejoin="miter" points="521.28,296.46 516.812,296.46"/>
<polyline fill="none" stroke="#262626" stroke-width="0.5" stroke-linecap="butt" stroke-linejoin="miter" points="74.88,208.44 79.348,208.44"/>
<polyline fill="none" stroke="#262626" stroke-width="0.5" stroke-linecap="butt" stroke-linejoin="miter" points="521.28,208.44 516.812,208.44"/>
<polyline fill="none" stroke="#262626" stroke-width="0.5" stroke-linecap="butt" stroke-linejoin="miter" points="74.88,120.42 79.348,120.42"/>
<polyline fill="none" stroke="#262626" stroke-width="0.5" stroke-linecap="butt" stroke-linejoin="miter" points="521.28,120.42 516.812,120.42"/>
<polyline fill="none" stroke="#262626" stroke-width="0.5" stroke-linecap="butt" stroke-linejoin="miter" points="74.88,32.4 79.348,32.4"/>
<polyline fill="none" stroke="#262626" stroke-width="0.5" stroke-linecap="butt" stroke-linejoin="miter" points="521.28,32.4 516.812,32.4"/>
<text xml:space="preserve" transform="translate(48.8755,389.98) rotate(-0,21,-5.5)" font-family="FreeSans" font-weight="normal" font-style="normal" font-size="10"><tspan y="-1" fill="rgb(38,38,38)" x="0 3 9 15 ">-100</tspan></text>
<text xml:space="preserve" transform="translate(54.8755,301.96) rotate(-0,15,-5.5)" font-family="FreeSans" font-weight="normal" font-style="normal" font-size="10"><tspan y="-1" fill="rgb(38,38,38)" x="0 3 9 ">-50</tspan></text>
<text xml:space="preserve" transform="translate(63.8755,213.94) rotate(-0,6,-5.5)" font-family="FreeSans" font-weight="normal" font-style="normal" font-size="10"><tspan y="-1" fill="rgb(38,38,38)" x="0 ">0</tspan></text>
<text xml:space="preserve" transform="translate(57.8755,125.92) rotate(-0,12,-5.5)" font-family="FreeSans" font-weight="normal" font-style="normal" font-size="10"><tspan y="-1" fill="rgb(38,38,38)" x="0 6 ">50</tspan></text>
<text xml:space="preserve" transform="translate(51.8755,37.9) rotate(-0,18,-5.5)" font-family="FreeSans" font-weight="normal" font-style="normal" font-size="10"><tspan y="-1" fill="rgb(38,38,38)" x="0 6 12 ">100</tspan></text>
<polyline fill="none" stroke="#262626" stroke-width="0.5" stroke-linecap="square" stroke-linejoin="miter" stroke-dasharray="16,0" points="74.88,384.48 521.28,384.48"/>
<polyline fill="none" stroke="#262626" stroke-width="0.5" stroke-linecap="square" stroke-linejoin="miter" stroke-dasharray="16,0" points="74.88,32.4 521.28,32.4"/>
<polyline fill="none" stroke="#262626" stroke-width="0.5" stroke-linecap="square" stroke-linejoin="miter" stroke-dasharray="16,0" points="74.88,384.48 74.88,32.4"/>
<polyline fill="none" stroke="#262626" stroke-width="0.5" stroke-linecap="square" stroke-linejoin="miter" stroke-dasharray="16,0" points="521.28,384.48 521.28,32.4"/>
<text xml:space="preserve" transform="translate(271.08,413.481) rotate(-0,27,-13)" font-family="FreeSans" font-weight="normal" font-style="normal" font-size="11"><tspan y="-2" fill="rgb(38,38,38)" x="0 6 9 15 18 21 27 33 39 45 51 "># of packet</tspan></text>
<text xml:space="preserve" transform="translate(17.3755,208.44) rotate(-90,27.5,0)" font-family="FreeSans" font-weight="normal" font-style="normal" font-size="11"><tspan y="-2" fill="rgb(38,38,38)" x="0 9 15 21 27 30 35 41 43 49 ">Mean value</tspan></text>
<text xml:space="preserve" transform="translate(151.08,22.4) rotate(-0,147,0)" font-family="FreeSans" font-weight="bold" font-style="normal" font-size="11"><tspan y="-2" fill="rgb(0,0,0)" x="0 6 12 16 22 28 32 38 44 50 56 59 65 71 74 80 86 94 100 106 112 118 126 135 142 148 154 160 163 170 177 183 190 194 197 203 209 213 216 222 229 235 238 244 250 253 259 262 266 272 278 284 290 ">10-12-2019 20:15A2680AQF999 quantizer analysis (9070)</tspan></text>
<polyline fill="none" stroke="#0071bc" stroke-width="0.5" stroke-linecap="butt" stroke-linejoin="round" points="75.3264,208.44 75.7728,208.44 76.2192,208.44 76.6656,208.44 77.112,208.44 77.5584,208.44 78.0048,208.44 78.4512,208.44 78.8976,208.44 79.344,208.44 79.7904,208.44 80.2368,208.44 80.6832,197.878 81.1296,206.68 81.576,238.367 82.0224,174.992 82.4688,277.096 82.9152,109.858 83.3616,287.658 83.808,164.43 84.2544,182.034 84.7008,291.179 85.1472,130.982 85.5936,298.22 86.04,141.545 86.4864,243.648 86.9328,171.472 87.3792,155.628 87.8256,331.668 88.272,164.43 88.7184,236.606 89.1648,122.18 89.6112,264.773 90.0576,215.482 90.504,173.232 90.9504,266.533 91.3968,146.826 91.8432,210.2 92.2896,169.711 92.736,321.106 93.1824,166.19 93.6288,185.555 94.0752,243.648 94.5216,146.826 94.968,255.971 95.4144,208.44 95.8608,182.034 96.3072,229.565 96.7536,190.836 97.2,245.408 97.6464,183.794 98.0928,211.961 98.5392,222.523 98.9856,219.002 99.432,174.992 99.8784,196.117 100.325,234.846 100.771,178.513 101.218,213.721 101.664,176.753 102.11,273.575 102.557,197.878 103.003,234.846 103.45,152.107 103.896,236.606 104.342,264.773 104.789,139.784 105.235,210.2 105.682,189.076 106.128,252.45 106.574,201.398 107.021,201.398 107.467,160.909 107.914,264.773 108.36,204.919 108.806,270.054 109.253,116.899 109.699,204.919 110.146,217.242 110.592,231.325 111.038,203.159 111.485,143.305 111.931,284.137 112.378,157.388 112.824,220.763 113.27,254.21 113.717,192.596 114.163,169.711 114.61,189.076 115.056,222.523 115.502,255.971 115.949,146.826 116.395,264.773 116.842,132.743 117.288,294.7 117.734,185.555 118.181,178.513 118.627,217.242 119.074,203.159 119.52,248.929 119.966,215.482 120.413,201.398 120.859,185.555 121.306,197.878 121.752,252.45 122.198,164.43 122.645,208.44 123.091,185.555 123.538,236.606 123.984,227.804 124.43,220.763 124.877,192.596 125.323,217.242 125.77,208.44 126.216,206.68 126.662,206.68 127.109,132.743 127.555,314.064 128.002,162.67 128.448,190.836 128.894,268.294 129.341,187.315 129.787,194.357 130.234,213.721 130.68,197.878 131.126,226.044 131.573,201.398 132.019,197.878 132.466,217.242 132.912,187.315 133.358,213.721 133.805,268.294 134.251,157.388 134.698,180.274 135.144,299.981 135.59,153.868 136.037,219.002 136.483,141.545 136.93,285.898 137.376,211.961 137.822,164.43 138.269,215.482 138.715,210.2 139.162,233.086 139.608,203.159 140.054,160.909 140.501,245.408 140.947,241.888 141.394,160.909 141.84,189.076 142.286,238.367 142.733,189.076 143.179,247.169 143.626,171.472 144.072,270.054 144.518,148.586 144.965,211.961 145.411,238.367 145.858,162.67 146.304,259.492 146.75,185.555 147.197,174.992 147.643,255.971 148.09,238.367 148.536,167.951 148.982,185.555 149.429,285.898 149.875,134.503 150.322,233.086 150.768,187.315 151.214,203.159 151.661,245.408 152.107,160.909 152.554,234.846 153,173.232 153.446,208.44 153.893,278.856 154.339,160.909 154.786,240.127 155.232,233.086 155.678,155.628 156.125,197.878 156.571,270.054 157.018,187.315 157.464,143.305 157.91,245.408 158.357,215.482 158.803,206.68 159.25,189.076 159.696,215.482 160.142,241.888 160.589,185.555 161.035,171.472 161.482,213.721 161.928,247.169 162.374,215.482 162.821,174.992 163.267,236.606 163.714,169.711 164.16,231.325 164.606,201.398 165.053,227.804 165.499,192.596 165.946,192.596 166.392,245.408 166.838,197.878 167.285,192.596 167.731,270.054 168.178,197.878 168.624,180.274 169.07,206.68 169.517,247.169 169.963,159.149 170.41,210.2 170.856,219.002 171.302,204.919 171.749,180.274 172.195,241.888 172.642,201.398 173.088,182.034 173.534,236.606 173.981,180.274 174.427,219.002 174.874,227.804 175.32,219.002 175.766,138.024 176.213,329.908 176.659,130.982 177.106,217.242 177.552,317.585 177.998,95.7744 178.445,231.325 178.891,180.274 179.338,208.44 179.784,219.002 180.23,153.868 180.677,250.69 181.123,213.721 181.57,234.846 182.016,174.992 182.462,208.44 182.909,234.846 183.355,167.951 183.802,226.044 184.248,268.294 184.694,180.274 185.141,180.274 185.587,219.002 186.034,146.826 186.48,294.7 186.926,159.149 187.373,187.315 187.819,252.45 188.266,171.472 188.712,192.596 189.158,229.565 189.605,275.335 190.051,194.357 190.498,162.67 190.944,294.7 191.39,115.139 191.837,211.961 192.283,211.961 192.73,206.68 193.176,285.898 193.622,159.149 194.069,259.492 194.515,148.586 194.962,241.888 195.408,210.2 195.854,210.2 196.301,174.992 196.747,169.711 197.194,259.492 197.64,194.357 198.086,208.44 198.533,273.575 198.979,132.743 199.426,204.919 199.872,197.878 200.318,229.565 200.765,192.596 201.211,210.2 201.658,199.638 202.104,268.294 202.55,185.555 202.997,201.398 203.443,261.252 203.89,143.305 204.336,174.992 204.782,215.482 205.229,233.086 205.675,248.929 206.122,243.648 206.568,139.784 207.014,208.44 207.461,196.117 207.907,227.804 208.354,234.846 208.8,173.232 209.246,174.992 209.693,270.054 210.139,134.503 210.586,241.888 211.032,240.127 211.478,169.711 211.925,222.523 212.371,287.658 212.818,139.784 213.264,201.398 213.71,189.076 214.157,231.325 214.603,233.086 215.05,125.701 215.496,203.159 215.942,245.408 216.389,303.502 216.835,141.545 217.282,210.2 217.728,220.763 218.174,208.44 218.621,122.18 219.067,241.888 219.514,174.992 219.96,324.626 220.406,164.43 220.853,189.076 221.299,268.294 221.746,169.711 222.192,185.555 222.638,241.888 223.085,215.482 223.531,217.242 223.978,231.325 224.424,138.024 224.87,280.616 225.317,108.097 225.763,224.284 226.21,296.46 226.656,115.139 227.102,284.137 227.549,134.503 227.995,220.763 228.442,273.575 228.888,60.5664 229.334,291.179 229.781,289.418 230.227,201.398 230.674,120.42 231.12,305.262 231.566,132.743 232.013,208.44 232.459,226.044 232.906,243.648 233.352,136.264 233.798,185.555 234.245,333.428 234.691,189.076 235.138,139.784 235.584,261.252 236.03,185.555 236.477,187.315 236.923,236.606 237.37,201.398 237.816,199.638 238.262,259.492 238.709,176.753 239.155,160.909 239.602,261.252 240.048,211.961 240.494,136.264 240.941,284.137 241.387,166.19 241.834,233.086 242.28,180.274 242.726,243.648 243.173,213.721 243.619,159.149 244.066,236.606 244.512,213.721 244.958,234.846 245.405,180.274 245.851,210.2 246.298,166.19 246.744,247.169 247.19,187.315 247.637,243.648 248.083,189.076 248.53,294.7 248.976,104.576 249.422,211.961 249.869,203.159 250.315,247.169 250.762,162.67 251.208,257.731 251.654,220.763 252.101,245.408 252.547,146.826 252.994,196.117 253.44,187.315 253.886,264.773 254.333,174.992 254.779,203.159 255.226,231.325 255.672,159.149 256.118,233.086 256.565,236.606 257.011,143.305 257.458,259.492 257.904,210.2 258.35,174.992 258.797,220.763 259.243,273.575 259.69,132.743 260.136,275.335 260.582,164.43 261.029,189.076 261.475,257.731 261.922,146.826 262.368,229.565 262.814,208.44 263.261,208.44 263.707,238.367 264.154,120.42 264.6,243.648 265.046,236.606 265.493,231.325 265.939,215.482 266.386,174.992 266.832,197.878 267.278,278.856 267.725,148.586 268.171,204.919 268.618,213.721 269.064,208.44 269.51,245.408 269.957,199.638 270.403,206.68 270.85,206.68 271.296,173.232 271.742,257.731 272.189,164.43 272.635,210.2 273.082,196.117 273.528,217.242 273.974,178.513 274.421,238.367 274.867,211.961 275.314,259.492 275.76,116.899 276.206,264.773 276.653,176.753 277.099,248.929 277.546,169.711 277.992,254.21 278.438,136.264 278.885,257.731 279.331,213.721 279.778,250.69 280.224,164.43 280.67,167.951 281.117,261.252 281.563,123.941 282.01,307.022 282.456,178.513 282.902,238.367 283.349,173.232 283.795,196.117 284.242,229.565 284.688,173.232 285.134,254.21 285.581,227.804 286.027,134.503 286.474,284.137 286.92,134.503 287.366,226.044 287.813,199.638 288.259,240.127 288.706,192.596 289.152,208.44 289.598,185.555 290.045,185.555 290.491,310.543 290.938,155.628 291.384,180.274 291.83,227.804 292.277,220.763 292.723,171.472 293.17,257.731 293.616,196.117 294.062,171.472 294.509,222.523 294.955,183.794 295.402,314.064 295.848,173.232 296.294,160.909 296.741,224.284 297.187,273.575 297.634,122.18 298.08,183.794 298.526,280.616 298.973,155.628 299.419,243.648 299.866,187.315 300.312,236.606 300.758,173.232 301.205,226.044 301.651,233.086 302.098,173.232 302.544,206.68 302.99,261.252 303.437,220.763 303.883,164.43 304.33,203.159 304.776,252.45 305.222,169.711 305.669,231.325 306.115,138.024 306.562,284.137 307.008,252.45 307.454,104.576 307.901,206.68 308.347,208.44 308.794,275.335 309.24,99.2952 309.686,247.169 310.133,275.335 310.579,183.794 311.026,194.357 311.472,194.357 311.918,263.012 312.365,134.503 312.811,250.69 313.258,222.523 313.704,219.002 314.15,159.149 314.597,247.169 315.043,234.846 315.49,201.398 315.936,155.628 316.382,199.638 316.829,187.315 317.275,261.252 317.722,210.2 318.168,226.044 318.614,148.586 319.061,254.21 319.507,187.315 319.954,224.284 320.4,146.826 320.846,243.648 321.293,238.367 321.739,164.43 322.186,259.492 322.632,220.763 323.078,176.753 323.525,206.68 323.971,204.919 324.418,217.242 324.864,185.555 325.31,192.596 325.757,248.929 326.203,208.44 326.65,257.731 327.096,157.388 327.542,178.513 327.989,255.971 328.435,145.066 328.882,284.137 329.328,167.951 329.774,203.159 330.221,196.117 330.667,234.846 331.114,236.606 331.56,192.596 332.006,152.107 332.453,275.335 332.899,231.325 333.346,95.7744 333.792,294.7 334.238,166.19 334.685,270.054 335.131,201.398 335.578,196.117 336.024,166.19 336.47,241.888 336.917,199.638 337.363,257.731 337.81,150.347 338.256,259.492 338.702,227.804 339.149,138.024 339.595,241.888 340.042,180.274 340.488,213.721 340.934,197.878 341.381,208.44 341.827,241.888 342.274,213.721 342.72,176.753 343.166,197.878 343.613,243.648 344.059,233.086 344.506,122.18 344.952,275.335 345.398,210.2 345.845,166.19 346.291,247.169 346.738,178.513 347.184,233.086 347.63,204.919 348.077,231.325 348.523,203.159 348.97,148.586 349.416,222.523 349.862,245.408 350.309,277.096 350.755,138.024 351.202,222.523 351.648,196.117 352.094,255.971 352.541,167.951 352.987,148.586 353.434,210.2 353.88,312.304 354.326,129.222 354.773,243.648 355.219,143.305 355.666,303.502 356.112,122.18 356.558,234.846 357.005,153.868 357.451,261.252 357.898,203.159 358.344,211.961 358.79,248.929 359.237,138.024 359.683,264.773 360.13,226.044 360.576,152.107 361.022,182.034 361.469,245.408 361.915,189.076 362.362,208.44 362.808,310.543 363.254,166.19 363.701,189.076 364.147,215.482 364.594,208.44 365.04,187.315 365.486,220.763 365.933,185.555 366.379,273.575 366.826,167.951 367.272,159.149 367.718,277.096 368.165,194.357 368.611,159.149 369.058,277.096 369.504,150.347 369.95,289.418 370.397,106.337 370.843,278.856 371.29,201.398 371.736,143.305 372.182,247.169 372.629,261.252 373.075,176.753 373.522,132.743 373.968,285.898 374.414,204.919 374.861,208.44 375.307,201.398 375.754,171.472 376.2,285.898 376.646,185.555 377.093,178.513 377.539,203.159 377.986,233.086 378.432,169.711 378.878,219.002 379.325,287.658 379.771,157.388 380.218,199.638 380.664,162.67 381.11,254.21 381.557,196.117 382.003,266.533 382.45,123.941 382.896,236.606 383.342,152.107 383.789,291.179 384.235,217.242 384.682,204.919 385.128,157.388 385.574,236.606 386.021,226.044 386.467,183.794 386.914,190.836 387.36,278.856 387.806,143.305 388.253,229.565 388.699,182.034 389.146,294.7 389.592,185.555 390.038,123.941 390.485,280.616 390.931,167.951 391.378,234.846 391.824,204.919 392.27,245.408 392.717,197.878 393.163,227.804 393.61,116.899 394.056,220.763 394.502,201.398 394.949,240.127 395.395,270.054 395.842,153.868 396.288,255.971 396.734,141.545 397.181,287.658 397.627,155.628 398.074,178.513 398.52,224.284 398.966,164.43 399.413,291.179 399.859,189.076 400.306,203.159 400.752,234.846 401.198,166.19 401.645,226.044 402.091,222.523 402.538,182.034 402.984,229.565 403.43,226.044 403.877,139.784 404.323,192.596 404.77,280.616 405.216,204.919 405.662,159.149 406.109,268.294 406.555,206.68 407.002,159.149 407.448,229.565 407.894,189.076 408.341,238.367 408.787,211.961 409.234,217.242 409.68,185.555 410.126,174.992 410.573,208.44 411.019,255.971 411.466,178.513 411.912,178.513 412.358,305.262 412.805,113.378 413.251,294.7 413.698,234.846 414.144,116.899 414.59,208.44 415.037,180.274 415.483,231.325 415.93,220.763 416.376,189.076 416.822,233.086 417.269,208.44 417.715,210.2 418.162,234.846 418.608,208.44 419.054,208.44 419.501,160.909 419.947,248.929 420.394,178.513 420.84,201.398 421.286,270.054 421.733,208.44 422.179,197.878 422.626,206.68 423.072,164.43 423.518,199.638 423.965,215.482 424.411,241.888 424.858,204.919 425.304,183.794 425.75,208.44 426.197,236.606 426.643,187.315 427.09,238.367 427.536,208.44 427.982,159.149 428.429,211.961 428.875,255.971 429.322,159.149 429.768,238.367 430.214,164.43 430.661,227.804 431.107,254.21 431.554,139.784 432,236.606 432.446,227.804 432.893,148.586 433.339,312.304 433.786,182.034 434.232,92.2536 434.678,263.012 435.125,268.294 435.571,157.388 436.018,229.565 436.464,115.139 436.91,307.022 437.357,145.066 437.803,261.252 438.25,174.992 438.696,183.794 439.142,213.721 439.589,208.44 440.035,208.44 440.482,211.961 440.928,233.086 441.374,157.388 441.821,266.533 442.267,233.086 442.714,213.721 443.16,201.398 443.606,160.909 444.053,206.68 444.499,254.21 444.946,115.139 445.392,254.21 445.838,299.981 446.285,129.222 446.731,301.741 447.178,203.159 447.624,203.159 448.07,157.388 448.517,148.586 448.963,150.347 449.41,315.824 449.856,171.472 450.302,174.992 450.749,351.032 451.195,76.41 451.642,231.325 452.088,201.398 452.534,259.492 452.981,194.357 453.427,231.325 453.874,211.961 454.32,219.002 454.766,201.398 455.213,226.044 455.659,153.868 456.106,183.794 456.552,145.066 456.998,294.7 457.445,173.232 457.891,255.971 458.338,252.45 458.784,231.325 459.23,94.014 459.677,296.46 460.123,180.274 460.57,125.701 461.016,329.908 461.462,178.513 461.909,182.034 462.355,257.731 462.802,217.242 463.248,196.117 463.694,201.398 464.141,197.878 464.587,203.159 465.034,206.68 465.48,204.919 465.926,252.45 466.373,65.8476 466.819,340.47 467.266,159.149 467.712,229.565 468.158,257.731 468.605,83.4516 469.051,310.543 469.498,88.7328 469.944,329.908 470.39,210.2 470.837,220.763 471.283,129.222 471.73,261.252 472.176,234.846 472.622,164.43 473.069,88.7328 473.515,354.553 473.962,264.773 474.408,115.139 474.854,245.408 475.301,189.076 475.747,231.325 476.194,146.826 476.64,294.7 477.086,99.2952 477.533,301.741 477.979,104.576 478.426,266.533 478.872,203.159 479.318,238.367 479.765,194.357 480.211,215.482 480.658,183.794 481.104,167.951 481.55,366.876 481.997,99.2952 482.443,146.826 482.89,289.418 483.336,252.45 483.782,109.858 484.229,227.804 484.675,204.919 485.122,245.408 485.568,174.992 486.014,210.2 486.461,220.763 486.907,167.951 487.354,268.294 487.8,178.513 488.246,204.919 488.693,243.648 489.139,169.711 489.586,238.367 490.032,97.5348 490.478,289.418 490.925,196.117 491.371,213.721 491.818,254.21 492.264,245.408 492.71,64.0872 493.157,222.523 493.603,303.502 494.05,164.43 494.496,116.899 494.942,243.648 495.389,201.398 495.835,312.304 496.282,146.826 496.728,217.242 497.174,248.929 497.621,150.347 498.067,287.658 498.514,227.804 498.96,153.868 499.406,159.149 499.853,196.117 500.299,261.252 500.746,166.19 501.192,206.68 501.638,201.398 502.085,219.002 502.531,277.096 502.978,153.868 503.424,314.064 503.87,95.7744 504.317,201.398 504.763,217.242 505.21,252.45 505.656,130.982 506.102,211.961 506.549,252.45 506.995,227.804 507.442,185.555 507.888,213.721 508.334,174.992 508.781,245.408 509.227,233.086 509.674,204.919 510.12,206.68 510.566,197.878 511.013,169.711 511.459,236.606 511.906,183.794 512.352,215.482 512.798,227.804 513.245,185.555 513.691,197.878 514.138,224.284 514.584,167.951 515.03,224.284 515.477,254.21 515.923,208.44 516.37,192.596 516.816,204.919 517.262,199.638 517.709,298.22 518.155,190.836 518.602,97.5348 519.048,296.46 519.494,116.899 519.941,294.7 520.387,162.67 520.834,190.836"/>
</g>
</g>
</svg>
