<?xml version="1.0" encoding="UTF-8" standalone="no"?>
<svg xmlns="http://www.w3.org/2000/svg"
     xmlns:xlink="http://www.w3.org/1999/xlink"
     width="576pt" height="432pt" viewBox="0 0 576 432">
<title>gl2ps_renderer figure</title>
<desc>
Creator: GL2PS 1.4.0, (C) 1999-2017 C. Geuzaine
For: Octave
CreationDate: Tue Dec 10 21:08:21 2019
</desc>
<defs>
</defs>
<polygon fill="#ffffff" points="0,0 576,0 576,432 0,432"/>
<g>
<polygon fill="#ffffff" points="0,432 576,432 576,0 0,0" shape-rendering="crispEdges"/>
<clipPath id="cp00576432">
  <polygon points="0,432 576,432 576,0 0,0"/>
</clipPath>
<g clip-path="url(#cp00576432)">
<polygon fill="#ffffff" shape-rendering="crispEdges" points="74.88,384.48 521.28,384.48 74.88,32.4"/>
<polygon fill="#ffffff" shape-rendering="crispEdges" points="521.28,384.48 521.28,32.4 74.88,32.4"/>
<polyline fill="none" stroke="#262626" stroke-width="0.5" stroke-linecap="butt" stroke-linejoin="miter" stroke-opacity="0.15" stroke-dasharray="16,0" points="74.88,384.48 74.88,32.4"/>
<polyline fill="none" stroke="#262626" stroke-width="0.5" stroke-linecap="butt" stroke-linejoin="miter" stroke-opacity="0.15" stroke-dasharray="16,0" points="164.16,384.48 164.16,32.4"/>
<polyline fill="none" stroke="#262626" stroke-width="0.5" stroke-linecap="butt" stroke-linejoin="miter" stroke-opacity="0.15" stroke-dasharray="16,0" points="253.44,384.48 253.44,32.4"/>
<polyline fill="none" stroke="#262626" stroke-width="0.5" stroke-linecap="butt" stroke-linejoin="miter" stroke-opacity="0.15" stroke-dasharray="16,0" points="342.72,384.48 342.72,32.4"/>
<polyline fill="none" stroke="#262626" stroke-width="0.5" stroke-linecap="butt" stroke-linejoin="miter" stroke-opacity="0.15" stroke-dasharray="16,0" points="432,384.48 432,32.4"/>
<polyline fill="none" stroke="#262626" stroke-width="0.5" stroke-linecap="butt" stroke-linejoin="miter" stroke-opacity="0.15" stroke-dasharray="16,0" points="521.28,384.48 521.28,32.4"/>
<polyline fill="none" stroke="#262626" stroke-width="0.5" stroke-linecap="butt" stroke-linejoin="miter" points="74.88,384.48 74.88,380.015"/>
<polyline fill="none" stroke="#262626" stroke-width="0.5" stroke-linecap="butt" stroke-linejoin="miter" points="74.88,32.4 74.88,36.865"/>
<polyline fill="none" stroke="#262626" stroke-width="0.5" stroke-linecap="butt" stroke-linejoin="miter" points="164.16,384.48 164.16,380.015"/>
<polyline fill="none" stroke="#262626" stroke-width="0.5" stroke-linecap="butt" stroke-linejoin="miter" points="164.16,32.4 164.16,36.865"/>
<polyline fill="none" stroke="#262626" stroke-width="0.5" stroke-linecap="butt" stroke-linejoin="miter" points="253.44,384.48 253.44,380.015"/>
<polyline fill="none" stroke="#262626" stroke-width="0.5" stroke-linecap="butt" stroke-linejoin="miter" points="253.44,32.4 253.44,36.865"/>
<polyline fill="none" stroke="#262626" stroke-width="0.5" stroke-linecap="butt" stroke-linejoin="miter" points="342.72,384.48 342.72,380.015"/>
<polyline fill="none" stroke="#262626" stroke-width="0.5" stroke-linecap="butt" stroke-linejoin="miter" points="342.72,32.4 342.72,36.865"/>
<polyline fill="none" stroke="#262626" stroke-width="0.5" stroke-linecap="butt" stroke-linejoin="miter" points="432,384.48 432,380.015"/>
<polyline fill="none" stroke="#262626" stroke-width="0.5" stroke-linecap="butt" stroke-linejoin="miter" points="432,32.4 432,36.865"/>
<polyline fill="none" stroke="#262626" stroke-width="0.5" stroke-linecap="butt" stroke-linejoin="miter" points="521.28,384.48 521.28,380.015"/>
<polyline fill="none" stroke="#262626" stroke-width="0.5" stroke-linecap="butt" stroke-linejoin="miter" points="521.28,32.4 521.28,36.865"/>
<text xml:space="preserve" transform="translate(71.88,400.481) rotate(-0,3,-11)" font-family="FreeSans" font-weight="normal" font-style="normal" font-size="10"><tspan y="-1" fill="rgb(38,38,38)" x="0 ">0</tspan></text>
<text xml:space="preserve" transform="translate(155.16,400.481) rotate(-0,9,-11)" font-family="FreeSans" font-weight="normal" font-style="normal" font-size="10"><tspan y="-1" fill="rgb(38,38,38)" x="0 6 12 ">200</tspan></text>
<text xml:space="preserve" transform="translate(244.44,400.481) rotate(-0,9,-11)" font-family="FreeSans" font-weight="normal" font-style="normal" font-size="10"><tspan y="-1" fill="rgb(38,38,38)" x="0 6 12 ">400</tspan></text>
<text xml:space="preserve" transform="translate(333.72,400.481) rotate(-0,9,-11)" font-family="FreeSans" font-weight="normal" font-style="normal" font-size="10"><tspan y="-1" fill="rgb(38,38,38)" x="0 6 12 ">600</tspan></text>
<text xml:space="preserve" transform="translate(423,400.481) rotate(-0,9,-11)" font-family="FreeSans" font-weight="normal" font-style="normal" font-size="10"><tspan y="-1" fill="rgb(38,38,38)" x="0 6 12 ">800</tspan></text>
<text xml:space="preserve" transform="translate(509.28,400.481) rotate(-0,12,-11)" font-family="FreeSans" font-weight="normal" font-style="normal" font-size="10"><tspan y="-1" fill="rgb(38,38,38)" x="0 6 12 18 ">1000</tspan></text>
<polyline fill="none" stroke="#262626" stroke-width="0.5" stroke-linecap="butt" stroke-linejoin="miter" stroke-opacity="0.15" stroke-dasharray="16,0" points="74.88,384.48 521.28,384.48"/>
<polyline fill="none" stroke="#262626" stroke-width="0.5" stroke-linecap="butt" stroke-linejoin="miter" stroke-opacity="0.15" stroke-dasharray="16,0" points="74.88,296.46 521.28,296.46"/>
<polyline fill="none" stroke="#262626" stroke-width="0.5" stroke-linecap="butt" stroke-linejoin="miter" stroke-opacity="0.15" stroke-dasharray="16,0" points="74.88,208.44 521.28,208.44"/>
<polyline fill="none" stroke="#262626" stroke-width="0.5" stroke-linecap="butt" stroke-linejoin="miter" stroke-opacity="0.15" stroke-dasharray="16,0" points="74.88,120.42 521.28,120.42"/>
<polyline fill="none" stroke="#262626" stroke-width="0.5" stroke-linecap="butt" stroke-linejoin="miter" stroke-opacity="0.15" stroke-dasharray="16,0" points="74.88,32.4 521.28,32.4"/>
<polyline fill="none" stroke="#262626" stroke-width="0.5" stroke-linecap="butt" stroke-linejoin="miter" points="74.88,384.48 79.348,384.48"/>
<polyline fill="none" stroke="#262626" stroke-width="0.5" stroke-linecap="butt" stroke-linejoin="miter" points="521.28,384.48 516.812,384.48"/>
<polyline fill="none" stroke="#262626" stroke-width="0.5" stroke-linecap="butt" stroke-linejoin="miter" points="74.88,296.46 79.348,296.46"/>
<polyline fill="none" stroke="#262626" stroke-width="0.5" stroke-linecap="butt" stroke-linejoin="miter" points="521.28,296.46 516.812,296.46"/>
<polyline fill="none" stroke="#262626" stroke-width="0.5" stroke-linecap="butt" stroke-linejoin="miter" points="74.88,208.44 79.348,208.44"/>
<polyline fill="none" stroke="#262626" stroke-width="0.5" stroke-linecap="butt" stroke-linejoin="miter" points="521.28,208.44 516.812,208.44"/>
<polyline fill="none" stroke="#262626" stroke-width="0.5" stroke-linecap="butt" stroke-linejoin="miter" points="74.88,120.42 79.348,120.42"/>
<polyline fill="none" stroke="#262626" stroke-width="0.5" stroke-linecap="butt" stroke-linejoin="miter" points="521.28,120.42 516.812,120.42"/>
<polyline fill="none" stroke="#262626" stroke-width="0.5" stroke-linecap="butt" stroke-linejoin="miter" points="74.88,32.4 79.348,32.4"/>
<polyline fill="none" stroke="#262626" stroke-width="0.5" stroke-linecap="butt" stroke-linejoin="miter" points="521.28,32.4 516.812,32.4"/>
<text xml:space="preserve" transform="translate(63.8755,389.98) rotate(-0,6,-5.5)" font-family="FreeSans" font-weight="normal" font-style="normal" font-size="10"><tspan y="-1" fill="rgb(38,38,38)" x="0 ">0</tspan></text>
<text xml:space="preserve" transform="translate(45.8755,301.96) rotate(-0,24,-5.5)" font-family="FreeSans" font-weight="normal" font-style="normal" font-size="10"><tspan y="-1" fill="rgb(38,38,38)" x="0 6 12 18 ">1000</tspan></text>
<text xml:space="preserve" transform="translate(45.8755,213.94) rotate(-0,24,-5.5)" font-family="FreeSans" font-weight="normal" font-style="normal" font-size="10"><tspan y="-1" fill="rgb(38,38,38)" x="0 6 12 18 ">2000</tspan></text>
<text xml:space="preserve" transform="translate(45.8755,125.92) rotate(-0,24,-5.5)" font-family="FreeSans" font-weight="normal" font-style="normal" font-size="10"><tspan y="-1" fill="rgb(38,38,38)" x="0 6 12 18 ">3000</tspan></text>
<text xml:space="preserve" transform="translate(45.8755,37.9) rotate(-0,24,-5.5)" font-family="FreeSans" font-weight="normal" font-style="normal" font-size="10"><tspan y="-1" fill="rgb(38,38,38)" x="0 6 12 18 ">4000</tspan></text>
<polyline fill="none" stroke="#262626" stroke-width="0.5" stroke-linecap="square" stroke-linejoin="miter" stroke-dasharray="16,0" points="74.88,384.48 521.28,384.48"/>
<polyline fill="none" stroke="#262626" stroke-width="0.5" stroke-linecap="square" stroke-linejoin="miter" stroke-dasharray="16,0" points="74.88,32.4 521.28,32.4"/>
<polyline fill="none" stroke="#262626" stroke-width="0.5" stroke-linecap="square" stroke-linejoin="miter" stroke-dasharray="16,0" points="74.88,384.48 74.88,32.4"/>
<polyline fill="none" stroke="#262626" stroke-width="0.5" stroke-linecap="square" stroke-linejoin="miter" stroke-dasharray="16,0" points="521.28,384.48 521.28,32.4"/>
<text xml:space="preserve" transform="translate(151.08,22.4) rotate(-0,147,0)" font-family="FreeSans" font-weight="bold" font-style="normal" font-size="11"><tspan y="-2" fill="rgb(0,0,0)" x="0 6 12 16 22 28 32 38 44 50 56 59 65 71 74 80 86 94 100 106 112 118 126 135 142 148 154 160 163 170 177 183 190 194 197 203 209 213 216 222 229 235 238 244 250 253 259 262 266 272 278 284 290 ">10-12-2019 20:15A2680AQF999 quantizer analysis (9070)</tspan></text>
<text xml:space="preserve" transform="translate(1.37552,208.44) rotate(-90,40.5,0)" font-family="FreeSans" font-weight="normal" font-style="normal" font-size="11"><tspan y="-2" fill="rgb(38,38,38)" x="0 7 10 16 22 25 31 34 37 43 49 55 61 64 66 71 77 ">Step of quantizer</tspan></text>
<text xml:space="preserve" transform="translate(271.08,413.481) rotate(-0,27,-13)" font-family="FreeSans" font-weight="normal" font-style="normal" font-size="11"><tspan y="-2" fill="rgb(38,38,38)" x="0 6 9 15 18 21 27 33 39 45 51 "># of packet</tspan></text>
<polyline fill="none" stroke="#0071bc" stroke-width="0.5" stroke-linecap="butt" stroke-linejoin="round" points="75.3264,384.392 75.7728,384.392 76.2192,384.392 76.6656,384.392 77.112,384.392 77.5584,384.392 78.0048,384.392 78.4512,384.392 78.8976,384.392 79.344,384.392 79.7904,384.392 80.2368,383.776 80.6832,367.316 81.1296,342.406 81.576,323.042 82.0224,322.778 82.4688,318.641 82.9152,304.206 83.3616,299.189 83.808,297.252 84.2544,295.404 84.7008,289.242 85.1472,293.291 85.5936,305.35 86.04,310.103 86.4864,302.357 86.9328,301.829 87.3792,296.9 87.8256,294.083 88.272,304.118 88.7184,312.92 89.1648,313.624 89.6112,308.519 90.0576,291.531 90.504,292.499 90.9504,307.815 91.3968,330.084 91.8432,293.203 92.2896,292.675 92.736,303.15 93.1824,309.311 93.6288,306.582 94.0752,308.255 94.5216,316.529 94.968,307.374 95.4144,318.113 95.8608,343.639 96.3072,348.832 96.7536,352.793 97.2,356.578 97.6464,358.954 98.0928,353.233 98.5392,351.12 98.9856,338.446 99.432,308.431 99.8784,324.538 100.325,245.056 100.771,171.736 101.218,301.037 101.664,317.409 102.11,297.516 102.557,311.159 103.003,325.419 103.45,313.712 103.896,336.245 104.342,337.213 104.789,311.599 105.235,334.133 105.682,344.871 106.128,327.795 106.574,329.82 107.021,337.565 107.467,328.763 107.914,336.773 108.36,300.421 108.806,266.621 109.253,297.868 109.699,349.888 110.146,304.03 110.592,291.707 111.038,312.392 111.485,335.981 111.931,284.841 112.378,281.937 112.824,328.235 113.27,326.035 113.717,307.11 114.163,314.944 114.61,337.741 115.056,329.996 115.502,325.771 115.949,330.348 116.395,350.328 116.842,325.419 117.288,324.45 117.734,324.714 118.181,324.098 118.627,324.362 119.074,331.492 119.52,332.108 119.966,341.878 120.413,336.421 120.859,304.118 121.306,280.616 121.752,285.81 122.198,345.575 122.645,322.602 123.091,301.653 123.538,307.374 123.984,310.719 124.43,348.304 124.877,316.176 125.323,314.856 125.77,315.384 126.216,316.705 126.662,324.45 127.109,312.04 127.555,298.572 128.002,292.059 128.448,326.739 128.894,206.68 129.341,167.071 129.787,251.482 130.234,342.935 130.68,359.834 131.126,356.138 131.573,355.169 132.019,346.543 132.466,351.032 132.912,313.008 133.358,299.893 133.805,305.086 134.251,294.083 134.698,291.355 135.144,294.26 135.59,296.284 136.037,288.45 136.483,299.277 136.93,322.426 137.376,334.837 137.822,338.622 138.269,354.025 138.715,360.891 139.162,354.729 139.608,350.504 140.054,335.189 140.501,346.719 140.947,307.727 141.394,282.729 141.84,291.179 142.286,265.829 142.733,285.017 143.179,302.533 143.626,296.724 144.072,304.206 144.518,318.817 144.965,315.12 145.411,316.176 145.858,295.844 146.304,284.489 146.75,318.377 147.197,344.255 147.643,310.279 148.09,305.614 148.536,307.639 148.982,301.829 149.429,268.03 149.875,301.301 150.322,327.003 150.768,348.04 151.214,354.377 151.661,361.859 152.107,356.93 152.554,344.343 153,316.088 153.446,297.164 153.893,293.291 154.339,297.78 154.786,302.709 155.232,293.819 155.678,313.008 156.125,321.282 156.571,314.064 157.018,324.538 157.464,324.274 157.91,336.861 158.357,362.387 158.803,366.26 159.25,356.05 159.696,341.966 160.142,330.876 160.589,341.79 161.035,332.02 161.482,326.211 161.928,336.949 162.374,333.869 162.821,332.548 163.267,327.003 163.714,336.773 164.16,331.404 164.606,335.717 165.053,341.438 165.499,339.854 165.946,336.333 166.392,350.768 166.838,351.12 167.285,354.201 167.731,339.326 168.178,315.648 168.624,331.492 169.07,303.15 169.517,242.856 169.963,297.956 170.41,328.763 170.856,347.952 171.302,353.321 171.749,359.306 172.195,356.314 172.642,340.91 173.088,306.406 173.534,275.599 173.981,324.45 174.427,319.433 174.874,325.066 175.32,353.849 175.766,314.944 176.213,310.719 176.659,324.89 177.106,332.108 177.552,284.753 177.998,278.152 178.445,315.472 178.891,305.966 179.338,310.807 179.784,314.064 180.23,313.888 180.677,309.663 181.123,322.25 181.57,324.978 182.016,318.289 182.462,328.675 182.909,324.362 183.355,326.827 183.802,318.817 184.248,266.093 184.694,284.841 185.141,338.534 185.587,307.374 186.034,277.624 186.48,249.457 186.926,284.313 187.373,245.408 187.819,305.262 188.266,332.372 188.712,320.665 189.158,274.895 189.605,283.873 190.051,291.267 190.498,281.673 190.944,298.925 191.39,327.003 191.837,331.58 192.283,333.076 192.73,340.558 193.176,340.206 193.622,330.348 194.069,332.372 194.515,330.7 194.962,302.533 195.408,240.567 195.854,312.392 196.301,286.602 196.747,278.24 197.194,316.176 197.64,307.198 198.086,309.839 198.533,331.668 198.979,337.653 199.426,344.167 199.872,340.822 200.318,330.172 200.765,308.871 201.211,297.692 201.658,311.952 202.104,268.47 202.55,287.394 202.997,306.142 203.443,337.125 203.89,343.463 204.336,335.365 204.782,323.746 205.229,286.69 205.675,287.306 206.122,201.046 206.568,161.173 207.014,192.596 207.461,180.186 207.907,204.127 208.354,284.225 208.8,310.895 209.246,308.167 209.693,299.981 210.139,310.543 210.586,311.247 211.032,325.859 211.478,342.23 211.925,335.629 212.371,319.961 212.818,262.308 213.264,282.553 213.71,290.827 214.157,297.516 214.603,289.33 215.05,247.433 215.496,203.247 215.942,200.958 216.389,224.284 216.835,299.717 217.282,321.106 217.728,328.235 218.174,313.448 218.621,290.299 219.067,240.479 219.514,248.401 219.96,225.34 220.406,293.995 220.853,277.36 221.299,276.832 221.746,288.538 222.192,289.33 222.638,286.602 223.085,256.763 223.531,247.433 223.978,319.433 224.424,333.428 224.87,254.562 225.317,244.264 225.763,303.15 226.21,311.247 226.656,287.922 227.102,266.445 227.549,281.145 227.995,225.868 228.442,207.208 228.888,178.073 229.334,197.614 229.781,293.907 230.227,275.775 230.674,226.044 231.12,241.624 231.566,223.403 232.013,316.176 232.459,314.24 232.906,270.494 233.352,288.274 233.798,302.093 234.245,295.844 234.691,304.382 235.138,309.399 235.584,317.761 236.03,307.286 236.477,280.088 236.923,305.35 237.37,319.609 237.816,337.301 238.262,339.502 238.709,351.208 239.155,346.367 239.602,330.612 240.048,324.362 240.494,298.925 240.941,312.392 241.387,317.321 241.834,329.027 242.28,334.397 242.726,330.876 243.173,333.957 243.619,338.446 244.066,342.406 244.512,324.186 244.958,313.8 245.405,322.602 245.851,342.671 246.298,334.661 246.744,316.793 247.19,293.643 247.637,265.653 248.083,284.577 248.53,272.959 248.976,269.79 249.422,317.321 249.869,319.961 250.315,332.46 250.762,318.817 251.208,292.235 251.654,309.575 252.101,257.467 252.547,272.167 252.994,300.861 253.44,339.414 253.886,338.005 254.333,343.023 254.779,333.164 255.226,336.509 255.672,297.604 256.118,295.316 256.565,309.575 257.011,329.996 257.458,345.663 257.904,342.054 258.35,341.526 258.797,350.24 259.243,338.005 259.69,322.074 260.136,305.878 260.582,325.155 261.029,316.441 261.475,329.379 261.922,322.866 262.368,323.746 262.814,311.863 263.261,303.59 263.707,292.939 264.154,296.548 264.6,305.35 265.046,318.377 265.493,326.211 265.939,328.323 266.386,306.318 266.832,335.277 267.278,329.908 267.725,302.181 268.171,320.754 268.618,325.859 269.064,324.186 269.51,321.81 269.957,321.106 270.403,316.529 270.85,334.485 271.296,323.746 271.742,327.619 272.189,331.404 272.635,341.086 273.082,345.663 273.528,334.309 273.974,322.778 274.421,306.758 274.867,287.13 275.314,289.066 275.76,278.24 276.206,313.184 276.653,333.34 277.099,293.115 277.546,292.763 277.992,335.541 278.438,324.89 278.885,312.04 279.331,324.186 279.778,320.489 280.224,330.084 280.67,328.235 281.117,326.211 281.563,320.665 282.01,314.24 282.456,308.079 282.902,315.208 283.349,327.707 283.795,329.996 284.242,333.076 284.688,330.964 285.134,331.404 285.581,329.644 286.027,329.82 286.474,331.14 286.92,314.152 287.366,320.665 287.813,315.648 288.259,326.827 288.706,323.394 289.152,325.155 289.598,320.401 290.045,324.362 290.491,317.321 290.938,323.482 291.384,332.372 291.83,341.878 292.277,347.6 292.723,344.431 293.17,336.421 293.616,333.78 294.062,310.983 294.509,315.648 294.955,316.969 295.402,321.898 295.848,332.724 296.294,327.531 296.741,325.947 297.187,325.771 297.634,327.795 298.08,331.844 298.526,322.954 298.973,306.142 299.419,320.401 299.866,322.162 300.312,297.604 300.758,286.338 301.205,310.807 301.651,267.942 302.098,285.546 302.544,321.37 302.99,318.025 303.437,304.118 303.883,308.343 304.33,297.164 304.776,311.687 305.222,309.663 305.669,299.629 306.115,312.744 306.562,329.82 307.008,342.847 307.454,347.776 307.901,345.135 308.347,322.25 308.794,339.502 309.24,309.751 309.686,300.245 310.133,321.81 310.579,339.502 311.026,341.878 311.472,336.157 311.918,332.724 312.365,327.795 312.811,322.514 313.258,328.411 313.704,302.181 314.15,316.264 314.597,341.526 315.043,314.064 315.49,296.724 315.936,295.052 316.382,309.751 316.829,288.978 317.275,285.546 317.722,287.746 318.168,297.868 318.614,307.198 319.061,290.299 319.507,299.893 319.954,299.893 320.4,303.502 320.846,312.744 321.293,320.489 321.739,331.668 322.186,307.903 322.632,285.546 323.078,317.849 323.525,327.971 323.971,313.448 324.418,288.714 324.864,292.411 325.31,285.017 325.757,277.976 326.203,321.546 326.65,320.489 327.096,319.081 327.542,294.876 327.989,312.92 328.435,279.296 328.882,284.929 329.328,302.357 329.774,322.954 330.221,317.849 330.667,319.785 331.114,333.252 331.56,314.944 332.006,318.289 332.453,334.485 332.899,317.233 333.346,284.401 333.792,309.399 334.238,253.242 334.685,225.34 335.131,267.325 335.578,321.722 336.024,286.074 336.47,315.12 336.917,315.208 337.363,332.988 337.81,331.052 338.256,333.34 338.702,284.313 339.149,314.768 339.595,290.827 340.042,276.92 340.488,271.726 340.934,308.783 341.381,330.172 341.827,318.377 342.274,313.096 342.72,313.8 343.166,311.423 343.613,302.797 344.059,265.037 344.506,217.946 344.952,287.834 345.398,266.005 345.845,266.885 346.291,293.907 346.738,326.475 347.184,300.861 347.63,298.396 348.077,308.343 348.523,326.387 348.97,309.135 349.416,319.169 349.862,319.697 350.309,262.836 350.755,286.866 351.202,293.907 351.648,296.988 352.094,271.726 352.541,279.296 352.987,293.995 353.434,296.988 353.88,276.479 354.326,302.709 354.773,305.262 355.219,269.174 355.666,280.088 356.112,278.504 356.558,331.756 357.005,301.301 357.451,272.519 357.898,281.673 358.344,314.768 358.79,257.819 359.237,275.511 359.683,305.086 360.13,326.035 360.576,321.458 361.022,317.409 361.469,278.24 361.915,274.719 362.362,300.685 362.808,292.939 363.254,283.169 363.701,304.382 364.147,300.069 364.594,294.26 365.04,323.394 365.486,272.871 365.933,270.23 366.379,311.775 366.826,315.208 367.272,287.482 367.718,314.68 368.165,330.876 368.611,337.213 369.058,327.531 369.504,336.949 369.95,286.514 370.397,267.413 370.843,292.939 371.29,311.687 371.736,320.049 372.182,330.7 372.629,297.076 373.075,281.409 373.522,308.695 373.968,328.323 374.414,321.81 374.861,320.577 375.307,338.622 375.754,345.839 376.2,349.712 376.646,333.428 377.093,332.724 377.539,285.281 377.986,297.428 378.432,314.152 378.878,327.883 379.325,335.717 379.771,335.541 380.218,336.333 380.664,334.133 381.11,350.24 381.557,319.433 382.003,309.839 382.45,321.194 382.896,336.333 383.342,306.846 383.789,300.069 384.235,286.514 384.682,303.062 385.128,219.883 385.574,232.645 386.021,247.081 386.467,304.294 386.914,318.641 387.36,329.467 387.806,307.374 388.253,305.35 388.699,282.377 389.146,251.482 389.592,283.521 390.038,328.411 390.485,331.316 390.931,334.661 391.378,328.851 391.824,332.108 392.27,308.167 392.717,290.475 393.163,282.905 393.61,314.768 394.056,331.14 394.502,337.389 394.949,342.054 395.395,332.02 395.842,329.644 396.288,309.751 396.734,288.978 397.181,306.582 397.627,306.758 398.074,303.238 398.52,292.059 398.966,309.047 399.413,296.284 399.859,314.24 400.306,289.947 400.752,301.301 401.198,306.758 401.645,306.582 402.091,306.67 402.538,298.749 402.984,300.069 403.43,328.147 403.877,306.582 404.323,304.558 404.77,310.543 405.216,326.915 405.662,317.497 406.109,312.48 406.555,300.333 407.002,305.35 407.448,312.216 407.894,320.313 408.341,319.521 408.787,335.013 409.234,348.568 409.68,346.543 410.126,329.732 410.573,310.367 411.019,297.076 411.466,315.032 411.912,310.983 412.358,255.267 412.805,277.8 413.251,315.736 413.698,285.457 414.144,281.145 414.59,308.079 415.037,319.873 415.483,304.91 415.93,311.335 416.376,316.705 416.822,321.986 417.269,323.922 417.715,302.357 418.162,302.709 418.608,305.614 419.054,284.753 419.501,312.92 419.947,320.754 420.394,314.504 420.84,324.626 421.286,316.617 421.733,336.333 422.179,324.45 422.626,322.866 423.072,314.592 423.518,305.79 423.965,321.37 424.411,312.48 424.858,310.103 425.304,310.191 425.75,311.247 426.197,318.465 426.643,307.374 427.09,325.066 427.536,328.939 427.982,345.047 428.429,340.646 428.875,332.372 429.322,308.607 429.768,300.597 430.214,305.878 430.661,300.773 431.107,298.132 431.554,305.966 432,315.384 432.446,330.084 432.893,322.866 433.339,325.066 433.786,334.045 434.232,328.851 434.678,303.502 435.125,298.132 435.571,337.565 436.018,308.167 436.464,298.044 436.91,282.641 437.357,316.705 437.803,299.013 438.25,297.428 438.696,317.409 439.142,328.235 439.589,340.558 440.035,336.861 440.482,340.734 440.928,347.16 441.374,321.81 441.821,293.291 442.267,305.174 442.714,310.983 443.16,327.179 443.606,344.695 444.053,352.881 444.499,355.081 444.946,350.768 445.392,291.443 445.838,215.306 446.285,186.523 446.731,206.944 447.178,205.623 447.624,163.902 448.07,185.467 448.517,213.017 448.963,235.99 449.41,241.536 449.856,234.846 450.302,217.066 450.749,220.235 451.195,213.105 451.642,223.139 452.088,225.164 452.534,275.423 452.981,319.433 453.427,315.648 453.874,335.981 454.32,333.604 454.766,278.592 455.213,264.509 455.659,242.592 456.106,216.01 456.552,215.218 456.998,200.254 457.445,192.684 457.891,193.213 458.338,178.249 458.784,173.232 459.23,169.799 459.677,191.716 460.123,191.276 460.57,178.161 461.016,179.129 461.462,170.503 461.909,158.357 462.355,143.657 462.802,243.208 463.248,320.754 463.694,322.602 464.141,326.915 464.587,329.291 465.034,316.705 465.48,274.103 465.926,216.626 466.373,138.904 466.819,132.303 467.266,151.051 467.712,168.655 468.158,166.454 468.605,151.051 469.051,147.882 469.498,144.978 469.944,139.344 470.39,131.863 470.837,132.567 471.283,141.369 471.73,144.273 472.176,132.039 472.622,145.506 473.069,121.476 473.515,140.929 473.962,135.735 474.408,152.019 474.854,138.2 475.301,147.442 475.747,115.051 476.194,123.677 476.64,161.789 477.086,178.249 477.533,142.865 477.979,160.645 478.426,179.041 478.872,301.829 479.318,326.299 479.765,329.996 480.211,326.651 480.658,288.01 481.104,299.981 481.55,222.523 481.997,220.499 482.443,236.43 482.89,250.073 483.336,251.394 483.782,270.934 484.229,285.105 484.675,271.374 485.122,267.501 485.568,251.306 486.014,253.418 486.461,269.878 486.907,298.484 487.354,346.543 487.8,342.759 488.246,324.362 488.693,285.369 489.139,308.079 489.586,225.868 490.032,152.283 490.478,117.427 490.925,141.633 491.371,158.533 491.818,156.596 492.264,163.11 492.71,159.061 493.157,150.875 493.603,168.567 494.05,197.702 494.496,299.981 494.942,303.59 495.389,294.26 495.835,311.687 496.282,328.939 496.728,280.968 497.174,188.9 497.621,174.288 498.067,177.369 498.514,156.596 498.96,235.726 499.406,314.592 499.853,310.015 500.299,308.079 500.746,293.643 501.192,310.367 501.638,311.775 502.085,227.452 502.531,169.095 502.978,139.96 503.424,137.76 503.87,125.085 504.317,101.408 504.763,69.8085 505.21,106.513 505.656,284.225 506.102,313.888 506.549,327.179 506.995,325.859 507.442,325.771 507.888,325.331 508.334,340.03 508.781,310.367 509.227,330.612 509.674,335.893 510.12,344.959 510.566,343.023 511.013,344.783 511.459,349.272 511.906,349.096 512.352,345.311 512.798,345.223 513.245,344.255 513.691,348.656 514.138,351.473 514.584,350.592 515.03,350.24 515.477,357.81 515.923,343.287 516.37,192.508 516.816,137.144 517.262,222.875 517.709,233.614 518.155,214.689 518.602,212.401 519.048,204.391 519.494,183.706 519.941,200.254 520.387,222.875 520.834,232.293"/>
</g>
</g>
</svg>
