<?xml version="1.0" encoding="UTF-8" standalone="no"?>
<svg xmlns="http://www.w3.org/2000/svg"
     xmlns:xlink="http://www.w3.org/1999/xlink"
     width="576pt" height="432pt" viewBox="0 0 576 432">
<title>gl2ps_renderer figure</title>
<desc>
Creator: GL2PS 1.4.0, (C) 1999-2017 C. Geuzaine
For: Octave
CreationDate: Tue Dec 10 21:07:36 2019
</desc>
<defs>
</defs>
<polygon fill="#ffffff" points="0,0 576,0 576,432 0,432"/>
<g>
<polygon fill="#ffffff" points="0,432 576,432 576,0 0,0" shape-rendering="crispEdges"/>
<clipPath id="cp00576432">
  <polygon points="0,432 576,432 576,0 0,0"/>
</clipPath>
<g clip-path="url(#cp00576432)">
<polygon fill="#ffffff" shape-rendering="crispEdges" points="74.88,384.48 521.28,384.48 74.88,32.4"/>
<polygon fill="#ffffff" shape-rendering="crispEdges" points="521.28,384.48 521.28,32.4 74.88,32.4"/>
<polyline fill="none" stroke="#262626" stroke-width="0.5" stroke-linecap="butt" stroke-linejoin="miter" stroke-opacity="0.15" stroke-dasharray="16,0" points="74.88,384.48 74.88,32.4"/>
<polyline fill="none" stroke="#262626" stroke-width="0.5" stroke-linecap="butt" stroke-linejoin="miter" stroke-opacity="0.15" stroke-dasharray="16,0" points="164.16,384.48 164.16,32.4"/>
<polyline fill="none" stroke="#262626" stroke-width="0.5" stroke-linecap="butt" stroke-linejoin="miter" stroke-opacity="0.15" stroke-dasharray="16,0" points="253.44,384.48 253.44,32.4"/>
<polyline fill="none" stroke="#262626" stroke-width="0.5" stroke-linecap="butt" stroke-linejoin="miter" stroke-opacity="0.15" stroke-dasharray="16,0" points="342.72,384.48 342.72,32.4"/>
<polyline fill="none" stroke="#262626" stroke-width="0.5" stroke-linecap="butt" stroke-linejoin="miter" stroke-opacity="0.15" stroke-dasharray="16,0" points="432,384.48 432,32.4"/>
<polyline fill="none" stroke="#262626" stroke-width="0.5" stroke-linecap="butt" stroke-linejoin="miter" stroke-opacity="0.15" stroke-dasharray="16,0" points="521.28,384.48 521.28,32.4"/>
<polyline fill="none" stroke="#262626" stroke-width="0.5" stroke-linecap="butt" stroke-linejoin="miter" points="74.88,384.48 74.88,380.015"/>
<polyline fill="none" stroke="#262626" stroke-width="0.5" stroke-linecap="butt" stroke-linejoin="miter" points="74.88,32.4 74.88,36.865"/>
<polyline fill="none" stroke="#262626" stroke-width="0.5" stroke-linecap="butt" stroke-linejoin="miter" points="164.16,384.48 164.16,380.015"/>
<polyline fill="none" stroke="#262626" stroke-width="0.5" stroke-linecap="butt" stroke-linejoin="miter" points="164.16,32.4 164.16,36.865"/>
<polyline fill="none" stroke="#262626" stroke-width="0.5" stroke-linecap="butt" stroke-linejoin="miter" points="253.44,384.48 253.44,380.015"/>
<polyline fill="none" stroke="#262626" stroke-width="0.5" stroke-linecap="butt" stroke-linejoin="miter" points="253.44,32.4 253.44,36.865"/>
<polyline fill="none" stroke="#262626" stroke-width="0.5" stroke-linecap="butt" stroke-linejoin="miter" points="342.72,384.48 342.72,380.015"/>
<polyline fill="none" stroke="#262626" stroke-width="0.5" stroke-linecap="butt" stroke-linejoin="miter" points="342.72,32.4 342.72,36.865"/>
<polyline fill="none" stroke="#262626" stroke-width="0.5" stroke-linecap="butt" stroke-linejoin="miter" points="432,384.48 432,380.015"/>
<polyline fill="none" stroke="#262626" stroke-width="0.5" stroke-linecap="butt" stroke-linejoin="miter" points="432,32.4 432,36.865"/>
<polyline fill="none" stroke="#262626" stroke-width="0.5" stroke-linecap="butt" stroke-linejoin="miter" points="521.28,384.48 521.28,380.015"/>
<polyline fill="none" stroke="#262626" stroke-width="0.5" stroke-linecap="butt" stroke-linejoin="miter" points="521.28,32.4 521.28,36.865"/>
<text xml:space="preserve" transform="translate(71.88,400.481) rotate(-0,3,-11)" font-family="FreeSans" font-weight="normal" font-style="normal" font-size="10"><tspan y="-1" fill="rgb(38,38,38)" x="0 ">0</tspan></text>
<text xml:space="preserve" transform="translate(158.16,400.481) rotate(-0,6,-11)" font-family="FreeSans" font-weight="normal" font-style="normal" font-size="10"><tspan y="-1" fill="rgb(38,38,38)" x="0 6 ">50</tspan></text>
<text xml:space="preserve" transform="translate(244.44,400.481) rotate(-0,9,-11)" font-family="FreeSans" font-weight="normal" font-style="normal" font-size="10"><tspan y="-1" fill="rgb(38,38,38)" x="0 6 12 ">100</tspan></text>
<text xml:space="preserve" transform="translate(333.72,400.481) rotate(-0,9,-11)" font-family="FreeSans" font-weight="normal" font-style="normal" font-size="10"><tspan y="-1" fill="rgb(38,38,38)" x="0 6 12 ">150</tspan></text>
<text xml:space="preserve" transform="translate(423,400.481) rotate(-0,9,-11)" font-family="FreeSans" font-weight="normal" font-style="normal" font-size="10"><tspan y="-1" fill="rgb(38,38,38)" x="0 6 12 ">200</tspan></text>
<text xml:space="preserve" transform="translate(512.28,400.481) rotate(-0,9,-11)" font-family="FreeSans" font-weight="normal" font-style="normal" font-size="10"><tspan y="-1" fill="rgb(38,38,38)" x="0 6 12 ">250</tspan></text>
<polyline fill="none" stroke="#262626" stroke-width="0.5" stroke-linecap="butt" stroke-linejoin="miter" stroke-opacity="0.15" stroke-dasharray="16,0" points="74.88,384.48 521.28,384.48"/>
<polyline fill="none" stroke="#262626" stroke-width="0.5" stroke-linecap="butt" stroke-linejoin="miter" stroke-opacity="0.15" stroke-dasharray="16,0" points="74.88,314.064 521.28,314.064"/>
<polyline fill="none" stroke="#262626" stroke-width="0.5" stroke-linecap="butt" stroke-linejoin="miter" stroke-opacity="0.15" stroke-dasharray="16,0" points="74.88,243.648 521.28,243.648"/>
<polyline fill="none" stroke="#262626" stroke-width="0.5" stroke-linecap="butt" stroke-linejoin="miter" stroke-opacity="0.15" stroke-dasharray="16,0" points="74.88,173.232 521.28,173.232"/>
<polyline fill="none" stroke="#262626" stroke-width="0.5" stroke-linecap="butt" stroke-linejoin="miter" stroke-opacity="0.15" stroke-dasharray="16,0" points="74.88,102.816 521.28,102.816"/>
<polyline fill="none" stroke="#262626" stroke-width="0.5" stroke-linecap="butt" stroke-linejoin="miter" stroke-opacity="0.15" stroke-dasharray="16,0" points="74.88,32.4 521.28,32.4"/>
<polyline fill="none" stroke="#262626" stroke-width="0.5" stroke-linecap="butt" stroke-linejoin="miter" points="74.88,384.48 79.348,384.48"/>
<polyline fill="none" stroke="#262626" stroke-width="0.5" stroke-linecap="butt" stroke-linejoin="miter" points="521.28,384.48 516.812,384.48"/>
<polyline fill="none" stroke="#262626" stroke-width="0.5" stroke-linecap="butt" stroke-linejoin="miter" points="74.88,314.064 79.348,314.064"/>
<polyline fill="none" stroke="#262626" stroke-width="0.5" stroke-linecap="butt" stroke-linejoin="miter" points="521.28,314.064 516.812,314.064"/>
<polyline fill="none" stroke="#262626" stroke-width="0.5" stroke-linecap="butt" stroke-linejoin="miter" points="74.88,243.648 79.348,243.648"/>
<polyline fill="none" stroke="#262626" stroke-width="0.5" stroke-linecap="butt" stroke-linejoin="miter" points="521.28,243.648 516.812,243.648"/>
<polyline fill="none" stroke="#262626" stroke-width="0.5" stroke-linecap="butt" stroke-linejoin="miter" points="74.88,173.232 79.348,173.232"/>
<polyline fill="none" stroke="#262626" stroke-width="0.5" stroke-linecap="butt" stroke-linejoin="miter" points="521.28,173.232 516.812,173.232"/>
<polyline fill="none" stroke="#262626" stroke-width="0.5" stroke-linecap="butt" stroke-linejoin="miter" points="74.88,102.816 79.348,102.816"/>
<polyline fill="none" stroke="#262626" stroke-width="0.5" stroke-linecap="butt" stroke-linejoin="miter" points="521.28,102.816 516.812,102.816"/>
<polyline fill="none" stroke="#262626" stroke-width="0.5" stroke-linecap="butt" stroke-linejoin="miter" points="74.88,32.4 79.348,32.4"/>
<polyline fill="none" stroke="#262626" stroke-width="0.5" stroke-linecap="butt" stroke-linejoin="miter" points="521.28,32.4 516.812,32.4"/>
<text xml:space="preserve" transform="translate(63.8755,389.98) rotate(-0,6,-5.5)" font-family="FreeSans" font-weight="normal" font-style="normal" font-size="10"><tspan y="-1" fill="rgb(38,38,38)" x="0 ">0</tspan></text>
<text xml:space="preserve" transform="translate(51.8755,319.564) rotate(-0,18,-5.5)" font-family="FreeSans" font-weight="normal" font-style="normal" font-size="10"><tspan y="-1" fill="rgb(38,38,38)" x="0 6 12 ">100</tspan></text>
<text xml:space="preserve" transform="translate(51.8755,249.148) rotate(-0,18,-5.5)" font-family="FreeSans" font-weight="normal" font-style="normal" font-size="10"><tspan y="-1" fill="rgb(38,38,38)" x="0 6 12 ">200</tspan></text>
<text xml:space="preserve" transform="translate(51.8755,178.732) rotate(-0,18,-5.5)" font-family="FreeSans" font-weight="normal" font-style="normal" font-size="10"><tspan y="-1" fill="rgb(38,38,38)" x="0 6 12 ">300</tspan></text>
<text xml:space="preserve" transform="translate(51.8755,108.316) rotate(-0,18,-5.5)" font-family="FreeSans" font-weight="normal" font-style="normal" font-size="10"><tspan y="-1" fill="rgb(38,38,38)" x="0 6 12 ">400</tspan></text>
<text xml:space="preserve" transform="translate(51.8755,37.9) rotate(-0,18,-5.5)" font-family="FreeSans" font-weight="normal" font-style="normal" font-size="10"><tspan y="-1" fill="rgb(38,38,38)" x="0 6 12 ">500</tspan></text>
<polyline fill="none" stroke="#262626" stroke-width="0.5" stroke-linecap="square" stroke-linejoin="miter" stroke-dasharray="16,0" points="74.88,384.48 521.28,384.48"/>
<polyline fill="none" stroke="#262626" stroke-width="0.5" stroke-linecap="square" stroke-linejoin="miter" stroke-dasharray="16,0" points="74.88,32.4 521.28,32.4"/>
<polyline fill="none" stroke="#262626" stroke-width="0.5" stroke-linecap="square" stroke-linejoin="miter" stroke-dasharray="16,0" points="74.88,384.48 74.88,32.4"/>
<polyline fill="none" stroke="#262626" stroke-width="0.5" stroke-linecap="square" stroke-linejoin="miter" stroke-dasharray="16,0" points="521.28,384.48 521.28,32.4"/>
<text xml:space="preserve" transform="translate(239.08,413.481) rotate(-0,59,-13)" font-family="FreeSans" font-weight="normal" font-style="normal" font-size="11"><tspan y="-2" fill="rgb(38,38,38)" x="0 7 9 18 24 27 33 35 41 47 52 58 64 67 69 75 78 83 89 95 101 107 113 ">Time elapsed in seconds</tspan></text>
<text xml:space="preserve" transform="translate(-0.124484,208.44) rotate(-90,48,0)" font-family="FreeSans" font-weight="normal" font-style="normal" font-size="11"><tspan y="-2" fill="rgb(38,38,38)" x="0 7 13 19 25 31 34 39 42 48 54 58 61 66 72 78 84 90 ">Packets per second</tspan></text>
<text xml:space="preserve" transform="translate(152.58,22.4) rotate(-0,145.5,0)" font-family="FreeSans" font-weight="bold" font-style="normal" font-size="11"><tspan y="-2" fill="rgb(0,0,0)" x="0 6 12 16 22 28 32 38 44 50 56 59 65 71 74 80 86 89 96 102 108 114 120 123 130 137 141 148 155 162 169 176 183 187 190 196 202 209 216 219 222 229 235 239 245 252 256 259 263 269 275 281 287 ">10-12-2019 20:15 E0000 Throughput echo instant (9070)</tspan></text>
<polyline fill="none" stroke="#0071bc" stroke-width="0.5" stroke-linecap="butt" stroke-linejoin="round" points="76.6656,354.377 78.4512,319.081 80.2368,284.665 82.0224,248.489 83.808,214.689 85.5936,180.098 87.3792,146.034 89.1648,113.114 90.9504,109.329 92.736,110.474 94.5216,108.361 96.3072,110.474 98.0928,110.21 99.8784,110.122 101.664,109.418 103.45,107.833 105.235,107.745 107.021,108.273 108.806,109.858 110.592,112.674 112.378,109.946 114.163,110.122 115.949,109.329 117.734,109.506 119.52,105.721 121.306,105.809 123.091,103.872 124.877,100.351 126.662,103.784 128.448,104.664 130.234,106.689 132.019,106.689 133.805,107.481 135.59,109.065 137.376,109.594 139.162,109.065 140.947,107.041 142.733,108.537 144.518,106.953 146.304,107.305 148.09,109.065 149.875,108.977 151.661,113.818 153.446,115.491 155.232,116.107 157.018,113.114 158.803,116.019 160.589,116.283 162.374,113.378 164.16,111.618 165.946,107.657 167.731,107.481 169.517,109.153 171.302,108.625 173.088,106.161 174.874,104.928 176.659,105.721 178.445,105.193 180.23,105.105 182.016,107.217 183.802,104.664 185.587,104.312 187.373,103.96 189.158,103.872 190.944,103.168 192.73,102.816 194.515,102.376 196.301,96.9187 198.086,97.7988 199.872,98.0629 201.658,98.679 203.443,97.7108 205.229,97.7108 207.014,161.965 208.8,164.518 210.586,173.056 212.371,166.19 214.157,165.222 215.942,165.574 217.728,150.523 219.514,114.963 221.299,105.105 223.085,101.408 224.87,94.278 226.656,100.351 228.442,99.8233 230.227,99.7353 232.013,99.2952 233.798,101.496 235.584,97.8869 237.37,98.239 239.155,97.8869 240.941,99.2072 242.726,100.175 244.512,100.616 246.298,100.527 248.083,97.7988 249.869,99.3832 251.654,102.2 253.44,101.76 255.226,99.4712 257.011,100.88 258.797,102.64 260.582,104.312 262.368,104.136 264.154,104.136 265.939,102.2 267.725,103.08 269.51,102.816 271.296,102.904 273.082,101.408 274.867,101.672 276.653,102.112 278.438,104.488 280.224,107.569 282.01,105.545 283.795,107.481 285.581,133.447 287.366,116.811 289.152,116.987 290.938,118.219 292.723,114.347 294.509,113.907 296.294,115.315 298.08,112.234 299.866,86.0042 301.651,102.112 303.437,102.112 305.222,100.616 307.008,102.464 308.794,99.7353 310.579,103.432 312.365,100.88 314.15,103.256 315.936,103.872 317.722,102.552 319.507,104.136 321.293,104.4 323.078,106.601 324.864,103.256 326.65,105.809 328.435,105.105 330.221,107.833 332.006,107.305 333.792,106.513 335.578,106.073 337.363,103.784 339.149,106.689 340.934,108.361 342.72,106.689 344.506,104.576 346.291,103.52 348.077,105.809 349.862,110.21 351.648,109.506 353.434,101.144 355.219,104.488 357.005,108.625 358.79,113.378 360.576,113.114 362.362,110.386 364.147,106.513 365.933,107.745 367.718,108.977 369.504,106.865 371.29,102.992 373.075,98.327 374.861,98.679 376.646,100.792 378.432,98.679 380.218,98.239 382.003,98.415 383.789,103.52 385.574,105.985 387.36,105.193 389.146,105.457 390.931,104.84 392.717,106.073 394.502,107.833 396.288,108.625 398.074,103.608 399.859,101.496 401.645,102.728 403.43,103.344 405.216,103.256 407.002,102.64 408.787,102.728 410.573,102.728 412.358,102.904 414.144,105.897 415.93,106.689 417.715,107.129 419.501,106.073 421.286,106.513 423.072,106.513 424.858,104.488 426.643,104.224 428.429,103.52 430.214,100.527 432,101.144 433.786,101.408 435.571,100.351 437.357,99.7353 439.142,100.351 440.928,100.351 442.714,97.7988 444.499,100.087 446.285,98.5911 448.07,98.0629 449.856,97.8869 451.642,98.8551 453.427,99.2072 455.213,99.4712 456.998,101.144 458.784,99.8233 460.57,100.175 462.355,98.5911 464.141,98.327 465.926,98.327 467.712,98.327 469.498,98.327 471.283,98.327 473.069,98.327 474.854,98.327 476.64,98.327 478.426,98.327 480.211,98.327 481.997,98.327 483.782,98.327 485.568,98.327 487.354,98.327 489.139,98.327 490.925,98.327 492.71,98.327 494.496,98.327 496.282,98.327 498.067,98.327 499.853,98.327 501.638,98.327 503.424,98.327"/>
</g>
</g>
</svg>
