<?xml version="1.0" encoding="UTF-8" standalone="no"?>
<svg xmlns="http://www.w3.org/2000/svg"
     xmlns:xlink="http://www.w3.org/1999/xlink"
     width="576pt" height="432pt" viewBox="0 0 576 432">
<title>gl2ps_renderer figure</title>
<desc>
Creator: GL2PS 1.4.0, (C) 1999-2017 C. Geuzaine
For: Octave
CreationDate: Tue Dec 10 21:07:37 2019
</desc>
<defs>
</defs>
<polygon fill="#ffffff" points="0,0 576,0 576,432 0,432"/>
<g>
<polygon fill="#ffffff" points="0,432 576,432 576,0 0,0" shape-rendering="crispEdges"/>
<clipPath id="cp00576432">
  <polygon points="0,432 576,432 576,0 0,0"/>
</clipPath>
<g clip-path="url(#cp00576432)">
<polygon fill="#ffffff" shape-rendering="crispEdges" points="74.88,384.48 521.28,384.48 74.88,32.4"/>
<polygon fill="#ffffff" shape-rendering="crispEdges" points="521.28,384.48 521.28,32.4 74.88,32.4"/>
<polyline fill="none" stroke="#262626" stroke-width="0.5" stroke-linecap="butt" stroke-linejoin="miter" stroke-opacity="0.15" stroke-dasharray="16,0" points="74.88,384.48 74.88,32.4"/>
<polyline fill="none" stroke="#262626" stroke-width="0.5" stroke-linecap="butt" stroke-linejoin="miter" stroke-opacity="0.15" stroke-dasharray="16,0" points="164.16,384.48 164.16,32.4"/>
<polyline fill="none" stroke="#262626" stroke-width="0.5" stroke-linecap="butt" stroke-linejoin="miter" stroke-opacity="0.15" stroke-dasharray="16,0" points="253.44,384.48 253.44,32.4"/>
<polyline fill="none" stroke="#262626" stroke-width="0.5" stroke-linecap="butt" stroke-linejoin="miter" stroke-opacity="0.15" stroke-dasharray="16,0" points="342.72,384.48 342.72,32.4"/>
<polyline fill="none" stroke="#262626" stroke-width="0.5" stroke-linecap="butt" stroke-linejoin="miter" stroke-opacity="0.15" stroke-dasharray="16,0" points="432,384.48 432,32.4"/>
<polyline fill="none" stroke="#262626" stroke-width="0.5" stroke-linecap="butt" stroke-linejoin="miter" stroke-opacity="0.15" stroke-dasharray="16,0" points="521.28,384.48 521.28,32.4"/>
<polyline fill="none" stroke="#262626" stroke-width="0.5" stroke-linecap="butt" stroke-linejoin="miter" points="74.88,384.48 74.88,380.015"/>
<polyline fill="none" stroke="#262626" stroke-width="0.5" stroke-linecap="butt" stroke-linejoin="miter" points="74.88,32.4 74.88,36.865"/>
<polyline fill="none" stroke="#262626" stroke-width="0.5" stroke-linecap="butt" stroke-linejoin="miter" points="164.16,384.48 164.16,380.015"/>
<polyline fill="none" stroke="#262626" stroke-width="0.5" stroke-linecap="butt" stroke-linejoin="miter" points="164.16,32.4 164.16,36.865"/>
<polyline fill="none" stroke="#262626" stroke-width="0.5" stroke-linecap="butt" stroke-linejoin="miter" points="253.44,384.48 253.44,380.015"/>
<polyline fill="none" stroke="#262626" stroke-width="0.5" stroke-linecap="butt" stroke-linejoin="miter" points="253.44,32.4 253.44,36.865"/>
<polyline fill="none" stroke="#262626" stroke-width="0.5" stroke-linecap="butt" stroke-linejoin="miter" points="342.72,384.48 342.72,380.015"/>
<polyline fill="none" stroke="#262626" stroke-width="0.5" stroke-linecap="butt" stroke-linejoin="miter" points="342.72,32.4 342.72,36.865"/>
<polyline fill="none" stroke="#262626" stroke-width="0.5" stroke-linecap="butt" stroke-linejoin="miter" points="432,384.48 432,380.015"/>
<polyline fill="none" stroke="#262626" stroke-width="0.5" stroke-linecap="butt" stroke-linejoin="miter" points="432,32.4 432,36.865"/>
<polyline fill="none" stroke="#262626" stroke-width="0.5" stroke-linecap="butt" stroke-linejoin="miter" points="521.28,384.48 521.28,380.015"/>
<polyline fill="none" stroke="#262626" stroke-width="0.5" stroke-linecap="butt" stroke-linejoin="miter" points="521.28,32.4 521.28,36.865"/>
<text xml:space="preserve" transform="translate(71.88,400.481) rotate(-0,3,-11)" font-family="FreeSans" font-weight="normal" font-style="normal" font-size="10"><tspan y="-1" fill="rgb(38,38,38)" x="0 ">0</tspan></text>
<text xml:space="preserve" transform="translate(155.16,400.481) rotate(-0,9,-11)" font-family="FreeSans" font-weight="normal" font-style="normal" font-size="10"><tspan y="-1" fill="rgb(38,38,38)" x="0 6 12 ">100</tspan></text>
<text xml:space="preserve" transform="translate(244.44,400.481) rotate(-0,9,-11)" font-family="FreeSans" font-weight="normal" font-style="normal" font-size="10"><tspan y="-1" fill="rgb(38,38,38)" x="0 6 12 ">200</tspan></text>
<text xml:space="preserve" transform="translate(333.72,400.481) rotate(-0,9,-11)" font-family="FreeSans" font-weight="normal" font-style="normal" font-size="10"><tspan y="-1" fill="rgb(38,38,38)" x="0 6 12 ">300</tspan></text>
<text xml:space="preserve" transform="translate(423,400.481) rotate(-0,9,-11)" font-family="FreeSans" font-weight="normal" font-style="normal" font-size="10"><tspan y="-1" fill="rgb(38,38,38)" x="0 6 12 ">400</tspan></text>
<text xml:space="preserve" transform="translate(512.28,400.481) rotate(-0,9,-11)" font-family="FreeSans" font-weight="normal" font-style="normal" font-size="10"><tspan y="-1" fill="rgb(38,38,38)" x="0 6 12 ">500</tspan></text>
<polyline fill="none" stroke="#262626" stroke-width="0.5" stroke-linecap="butt" stroke-linejoin="miter" stroke-opacity="0.15" stroke-dasharray="16,0" points="74.88,384.48 521.28,384.48"/>
<polyline fill="none" stroke="#262626" stroke-width="0.5" stroke-linecap="butt" stroke-linejoin="miter" stroke-opacity="0.15" stroke-dasharray="16,0" points="74.88,314.064 521.28,314.064"/>
<polyline fill="none" stroke="#262626" stroke-width="0.5" stroke-linecap="butt" stroke-linejoin="miter" stroke-opacity="0.15" stroke-dasharray="16,0" points="74.88,243.648 521.28,243.648"/>
<polyline fill="none" stroke="#262626" stroke-width="0.5" stroke-linecap="butt" stroke-linejoin="miter" stroke-opacity="0.15" stroke-dasharray="16,0" points="74.88,173.232 521.28,173.232"/>
<polyline fill="none" stroke="#262626" stroke-width="0.5" stroke-linecap="butt" stroke-linejoin="miter" stroke-opacity="0.15" stroke-dasharray="16,0" points="74.88,102.816 521.28,102.816"/>
<polyline fill="none" stroke="#262626" stroke-width="0.5" stroke-linecap="butt" stroke-linejoin="miter" stroke-opacity="0.15" stroke-dasharray="16,0" points="74.88,32.4 521.28,32.4"/>
<polyline fill="none" stroke="#262626" stroke-width="0.5" stroke-linecap="butt" stroke-linejoin="miter" points="74.88,384.48 79.348,384.48"/>
<polyline fill="none" stroke="#262626" stroke-width="0.5" stroke-linecap="butt" stroke-linejoin="miter" points="521.28,384.48 516.812,384.48"/>
<polyline fill="none" stroke="#262626" stroke-width="0.5" stroke-linecap="butt" stroke-linejoin="miter" points="74.88,314.064 79.348,314.064"/>
<polyline fill="none" stroke="#262626" stroke-width="0.5" stroke-linecap="butt" stroke-linejoin="miter" points="521.28,314.064 516.812,314.064"/>
<polyline fill="none" stroke="#262626" stroke-width="0.5" stroke-linecap="butt" stroke-linejoin="miter" points="74.88,243.648 79.348,243.648"/>
<polyline fill="none" stroke="#262626" stroke-width="0.5" stroke-linecap="butt" stroke-linejoin="miter" points="521.28,243.648 516.812,243.648"/>
<polyline fill="none" stroke="#262626" stroke-width="0.5" stroke-linecap="butt" stroke-linejoin="miter" points="74.88,173.232 79.348,173.232"/>
<polyline fill="none" stroke="#262626" stroke-width="0.5" stroke-linecap="butt" stroke-linejoin="miter" points="521.28,173.232 516.812,173.232"/>
<polyline fill="none" stroke="#262626" stroke-width="0.5" stroke-linecap="butt" stroke-linejoin="miter" points="74.88,102.816 79.348,102.816"/>
<polyline fill="none" stroke="#262626" stroke-width="0.5" stroke-linecap="butt" stroke-linejoin="miter" points="521.28,102.816 516.812,102.816"/>
<polyline fill="none" stroke="#262626" stroke-width="0.5" stroke-linecap="butt" stroke-linejoin="miter" points="74.88,32.4 79.348,32.4"/>
<polyline fill="none" stroke="#262626" stroke-width="0.5" stroke-linecap="butt" stroke-linejoin="miter" points="521.28,32.4 516.812,32.4"/>
<text xml:space="preserve" transform="translate(63.8755,389.98) rotate(-0,6,-5.5)" font-family="FreeSans" font-weight="normal" font-style="normal" font-size="10"><tspan y="-1" fill="rgb(38,38,38)" x="0 ">0</tspan></text>
<text xml:space="preserve" transform="translate(57.8755,319.564) rotate(-0,12,-5.5)" font-family="FreeSans" font-weight="normal" font-style="normal" font-size="10"><tspan y="-1" fill="rgb(38,38,38)" x="0 6 ">50</tspan></text>
<text xml:space="preserve" transform="translate(51.8755,249.148) rotate(-0,18,-5.5)" font-family="FreeSans" font-weight="normal" font-style="normal" font-size="10"><tspan y="-1" fill="rgb(38,38,38)" x="0 6 12 ">100</tspan></text>
<text xml:space="preserve" transform="translate(51.8755,178.732) rotate(-0,18,-5.5)" font-family="FreeSans" font-weight="normal" font-style="normal" font-size="10"><tspan y="-1" fill="rgb(38,38,38)" x="0 6 12 ">150</tspan></text>
<text xml:space="preserve" transform="translate(51.8755,108.316) rotate(-0,18,-5.5)" font-family="FreeSans" font-weight="normal" font-style="normal" font-size="10"><tspan y="-1" fill="rgb(38,38,38)" x="0 6 12 ">200</tspan></text>
<text xml:space="preserve" transform="translate(51.8755,37.9) rotate(-0,18,-5.5)" font-family="FreeSans" font-weight="normal" font-style="normal" font-size="10"><tspan y="-1" fill="rgb(38,38,38)" x="0 6 12 ">250</tspan></text>
<polyline fill="none" stroke="#262626" stroke-width="0.5" stroke-linecap="square" stroke-linejoin="miter" stroke-dasharray="16,0" points="74.88,384.48 521.28,384.48"/>
<polyline fill="none" stroke="#262626" stroke-width="0.5" stroke-linecap="square" stroke-linejoin="miter" stroke-dasharray="16,0" points="74.88,32.4 521.28,32.4"/>
<polyline fill="none" stroke="#262626" stroke-width="0.5" stroke-linecap="square" stroke-linejoin="miter" stroke-dasharray="16,0" points="74.88,384.48 74.88,32.4"/>
<polyline fill="none" stroke="#262626" stroke-width="0.5" stroke-linecap="square" stroke-linejoin="miter" stroke-dasharray="16,0" points="521.28,384.48 521.28,32.4"/>
<text xml:space="preserve" transform="translate(152.58,22.4) rotate(-0,145.5,0)" font-family="FreeSans" font-weight="bold" font-style="normal" font-size="11"><tspan y="-2" fill="rgb(0,0,0)" x="0 6 12 16 22 28 32 38 44 50 56 59 65 71 74 80 86 89 96 102 108 114 120 123 130 137 141 148 155 162 169 176 183 187 190 196 202 209 216 219 222 229 235 239 245 252 256 259 263 269 275 281 287 ">10-12-2019 20:15 E0000 Throughput echo instant (9070)</tspan></text>
<text xml:space="preserve" transform="translate(21.8755,208.44) rotate(-90,26,0)" font-family="FreeSans" font-weight="normal" font-style="normal" font-size="11"><tspan y="-2" fill="rgb(38,38,38)" x="0 7 11 17 23 29 35 41 47 ">Frequency</tspan></text>
<text xml:space="preserve" transform="translate(250.08,413.481) rotate(-0,48,-13)" font-family="FreeSans" font-weight="normal" font-style="normal" font-size="11"><tspan y="-2" fill="rgb(38,38,38)" x="0 7 13 19 25 31 34 39 42 48 54 58 61 66 72 78 84 90 ">Packets per second</tspan></text>
<polygon fill="#440154" shape-rendering="crispEdges" points="147.074,384.48 113.047,383.072 113.047,384.48"/>
<polygon fill="#440154" shape-rendering="crispEdges" points="113.047,383.072 147.074,384.48 147.074,383.072"/>
<polygon fill="#440154" shape-rendering="crispEdges" points="181.101,384.48 147.074,383.072 147.074,384.48"/>
<polygon fill="#440154" shape-rendering="crispEdges" points="147.074,383.072 181.101,384.48 181.101,383.072"/>
<polygon fill="#440154" shape-rendering="crispEdges" points="215.128,384.48 181.101,383.072 181.101,384.48"/>
<polygon fill="#440154" shape-rendering="crispEdges" points="181.101,383.072 215.128,384.48 215.128,383.072"/>
<polygon fill="#440154" shape-rendering="crispEdges" points="249.155,384.48 215.128,383.072 215.128,384.48"/>
<polygon fill="#440154" shape-rendering="crispEdges" points="215.128,383.072 249.155,384.48 249.155,383.072"/>
<polygon fill="#440154" shape-rendering="crispEdges" points="317.208,384.48 283.181,383.072 283.181,384.48"/>
<polygon fill="#440154" shape-rendering="crispEdges" points="283.181,383.072 317.208,384.48 317.208,383.072"/>
<polygon fill="#440154" shape-rendering="crispEdges" points="351.235,384.48 317.208,381.663 317.208,384.48"/>
<polygon fill="#440154" shape-rendering="crispEdges" points="317.208,381.663 351.235,384.48 351.235,381.663"/>
<polygon fill="#440154" shape-rendering="crispEdges" points="385.262,384.48 351.235,374.622 351.235,384.48"/>
<polygon fill="#440154" shape-rendering="crispEdges" points="351.235,374.622 385.262,384.48 385.262,374.622"/>
<polygon fill="#440154" shape-rendering="crispEdges" points="419.289,384.48 385.262,359.13 385.262,384.48"/>
<polygon fill="#440154" shape-rendering="crispEdges" points="385.262,359.13 419.289,384.48 419.289,359.13"/>
<polygon fill="#440154" shape-rendering="crispEdges" points="453.316,384.48 419.289,91.5494 419.289,384.48"/>
<polygon fill="#440154" shape-rendering="crispEdges" points="419.289,91.5494 453.316,384.48 453.316,91.5494"/>
<polyline fill="none" stroke="#000000" stroke-width="0.5" stroke-linecap="butt" stroke-linejoin="miter" points="147.074,383.072 113.047,383.072 113.047,384.48 147.074,384.48 147.074,383.072"/>
<polyline fill="none" stroke="#000000" stroke-width="0.5" stroke-linecap="butt" stroke-linejoin="miter" points="181.101,383.072 147.074,383.072 147.074,384.48 181.101,384.48 181.101,383.072"/>
<polyline fill="none" stroke="#000000" stroke-width="0.5" stroke-linecap="butt" stroke-linejoin="miter" points="215.128,383.072 181.101,383.072 181.101,384.48 215.128,384.48 215.128,383.072"/>
<polyline fill="none" stroke="#000000" stroke-width="0.5" stroke-linecap="butt" stroke-linejoin="miter" points="249.155,383.072 215.128,383.072 215.128,384.48 249.155,384.48 249.155,383.072"/>
<polyline fill="none" stroke="#000000" stroke-width="0.5" stroke-linecap="butt" stroke-linejoin="miter" points="317.208,383.072 283.181,383.072 283.181,384.48 317.208,384.48 317.208,383.072"/>
<polyline fill="none" stroke="#000000" stroke-width="0.5" stroke-linecap="butt" stroke-linejoin="miter" points="351.235,381.663 317.208,381.663 317.208,384.48 351.235,384.48 351.235,381.663"/>
<polyline fill="none" stroke="#000000" stroke-width="0.5" stroke-linecap="butt" stroke-linejoin="miter" points="385.262,374.622 351.235,374.622 351.235,384.48 385.262,384.48 385.262,374.622"/>
<polyline fill="none" stroke="#000000" stroke-width="0.5" stroke-linecap="butt" stroke-linejoin="miter" points="419.289,359.13 385.262,359.13 385.262,384.48 419.289,384.48 419.289,359.13"/>
<polyline fill="none" stroke="#000000" stroke-width="0.5" stroke-linecap="butt" stroke-linejoin="miter" points="453.316,91.5494 419.289,91.5494 419.289,384.48 453.316,384.48 453.316,91.5494"/>
<polyline fill="none" stroke="#000000" stroke-width="0.5" stroke-linecap="butt" stroke-linejoin="round" points="74.88,384.48 521.28,384.48"/>
</g>
</g>
</svg>
