<?xml version="1.0" encoding="UTF-8" standalone="no"?>
<svg xmlns="http://www.w3.org/2000/svg"
     xmlns:xlink="http://www.w3.org/1999/xlink"
     width="576pt" height="432pt" viewBox="0 0 576 432">
<title>gl2ps_renderer figure</title>
<desc>
Creator: GL2PS 1.4.0, (C) 1999-2017 C. Geuzaine
For: Octave
CreationDate: Tue Dec 10 21:08:23 2019
</desc>
<defs>
</defs>
<polygon fill="#ffffff" points="0,0 576,0 576,432 0,432"/>
<g>
<polygon fill="#ffffff" points="0,432 576,432 576,0 0,0" shape-rendering="crispEdges"/>
<clipPath id="cp00576432">
  <polygon points="0,432 576,432 576,0 0,0"/>
</clipPath>
<g clip-path="url(#cp00576432)">
<polygon fill="#ffffff" shape-rendering="crispEdges" points="74.88,178.603 187.097,178.603 74.88,47.1626"/>
<polygon fill="#ffffff" shape-rendering="crispEdges" points="187.097,178.603 187.097,47.1626 74.88,47.1626"/>
<polyline fill="none" stroke="#262626" stroke-width="0.5" stroke-linecap="butt" stroke-linejoin="miter" stroke-opacity="0.15" stroke-dasharray="16,0" points="74.88,178.603 74.88,47.1626"/>
<polyline fill="none" stroke="#262626" stroke-width="0.5" stroke-linecap="butt" stroke-linejoin="miter" stroke-opacity="0.15" stroke-dasharray="16,0" points="97.3233,178.603 97.3233,47.1626"/>
<polyline fill="none" stroke="#262626" stroke-width="0.5" stroke-linecap="butt" stroke-linejoin="miter" stroke-opacity="0.15" stroke-dasharray="16,0" points="119.767,178.603 119.767,47.1626"/>
<polyline fill="none" stroke="#262626" stroke-width="0.5" stroke-linecap="butt" stroke-linejoin="miter" stroke-opacity="0.15" stroke-dasharray="16,0" points="142.21,178.603 142.21,47.1626"/>
<polyline fill="none" stroke="#262626" stroke-width="0.5" stroke-linecap="butt" stroke-linejoin="miter" stroke-opacity="0.15" stroke-dasharray="16,0" points="164.653,178.603 164.653,47.1626"/>
<polyline fill="none" stroke="#262626" stroke-width="0.5" stroke-linecap="butt" stroke-linejoin="miter" stroke-opacity="0.15" stroke-dasharray="16,0" points="187.097,178.603 187.097,47.1626"/>
<polyline fill="none" stroke="#262626" stroke-width="0.5" stroke-linecap="butt" stroke-linejoin="miter" points="74.88,178.603 74.88,177.284"/>
<polyline fill="none" stroke="#262626" stroke-width="0.5" stroke-linecap="butt" stroke-linejoin="miter" points="74.88,47.1626 74.88,48.4814"/>
<polyline fill="none" stroke="#262626" stroke-width="0.5" stroke-linecap="butt" stroke-linejoin="miter" points="97.3233,178.603 97.3233,177.284"/>
<polyline fill="none" stroke="#262626" stroke-width="0.5" stroke-linecap="butt" stroke-linejoin="miter" points="97.3233,47.1626 97.3233,48.4814"/>
<polyline fill="none" stroke="#262626" stroke-width="0.5" stroke-linecap="butt" stroke-linejoin="miter" points="119.767,178.603 119.767,177.284"/>
<polyline fill="none" stroke="#262626" stroke-width="0.5" stroke-linecap="butt" stroke-linejoin="miter" points="119.767,47.1626 119.767,48.4814"/>
<polyline fill="none" stroke="#262626" stroke-width="0.5" stroke-linecap="butt" stroke-linejoin="miter" points="142.21,178.603 142.21,177.284"/>
<polyline fill="none" stroke="#262626" stroke-width="0.5" stroke-linecap="butt" stroke-linejoin="miter" points="142.21,47.1626 142.21,48.4814"/>
<polyline fill="none" stroke="#262626" stroke-width="0.5" stroke-linecap="butt" stroke-linejoin="miter" points="164.653,178.603 164.653,177.284"/>
<polyline fill="none" stroke="#262626" stroke-width="0.5" stroke-linecap="butt" stroke-linejoin="miter" points="164.653,47.1626 164.653,48.4814"/>
<polyline fill="none" stroke="#262626" stroke-width="0.5" stroke-linecap="butt" stroke-linejoin="miter" points="187.097,178.603 187.097,177.284"/>
<polyline fill="none" stroke="#262626" stroke-width="0.5" stroke-linecap="butt" stroke-linejoin="miter" points="187.097,47.1626 187.097,48.4814"/>
<text xml:space="preserve" transform="translate(71.88,194.619) rotate(-0,3,-11)" font-family="FreeSans" font-weight="normal" font-style="normal" font-size="10"><tspan y="-1" fill="rgb(38,38,38)" x="0 ">0</tspan></text>
<text xml:space="preserve" transform="translate(91.3234,194.619) rotate(-0,6,-11)" font-family="FreeSans" font-weight="normal" font-style="normal" font-size="10"><tspan y="-1" fill="rgb(38,38,38)" x="0 6 ">50</tspan></text>
<text xml:space="preserve" transform="translate(110.767,194.619) rotate(-0,9,-11)" font-family="FreeSans" font-weight="normal" font-style="normal" font-size="10"><tspan y="-1" fill="rgb(38,38,38)" x="0 6 12 ">100</tspan></text>
<text xml:space="preserve" transform="translate(133.21,194.619) rotate(-0,9,-11)" font-family="FreeSans" font-weight="normal" font-style="normal" font-size="10"><tspan y="-1" fill="rgb(38,38,38)" x="0 6 12 ">150</tspan></text>
<text xml:space="preserve" transform="translate(155.653,194.619) rotate(-0,9,-11)" font-family="FreeSans" font-weight="normal" font-style="normal" font-size="10"><tspan y="-1" fill="rgb(38,38,38)" x="0 6 12 ">200</tspan></text>
<text xml:space="preserve" transform="translate(178.097,194.619) rotate(-0,9,-11)" font-family="FreeSans" font-weight="normal" font-style="normal" font-size="10"><tspan y="-1" fill="rgb(38,38,38)" x="0 6 12 ">250</tspan></text>
<polyline fill="none" stroke="#262626" stroke-width="0.5" stroke-linecap="butt" stroke-linejoin="miter" stroke-opacity="0.15" stroke-dasharray="16,0" points="74.88,178.603 187.097,178.603"/>
<polyline fill="none" stroke="#262626" stroke-width="0.5" stroke-linecap="butt" stroke-linejoin="miter" stroke-opacity="0.15" stroke-dasharray="16,0" points="74.88,159.825 187.097,159.825"/>
<polyline fill="none" stroke="#262626" stroke-width="0.5" stroke-linecap="butt" stroke-linejoin="miter" stroke-opacity="0.15" stroke-dasharray="16,0" points="74.88,141.048 187.097,141.048"/>
<polyline fill="none" stroke="#262626" stroke-width="0.5" stroke-linecap="butt" stroke-linejoin="miter" stroke-opacity="0.15" stroke-dasharray="16,0" points="74.88,122.271 187.097,122.271"/>
<polyline fill="none" stroke="#262626" stroke-width="0.5" stroke-linecap="butt" stroke-linejoin="miter" stroke-opacity="0.15" stroke-dasharray="16,0" points="74.88,103.494 187.097,103.494"/>
<polyline fill="none" stroke="#262626" stroke-width="0.5" stroke-linecap="butt" stroke-linejoin="miter" stroke-opacity="0.15" stroke-dasharray="16,0" points="74.88,84.7169 187.097,84.7169"/>
<polyline fill="none" stroke="#262626" stroke-width="0.5" stroke-linecap="butt" stroke-linejoin="miter" stroke-opacity="0.15" stroke-dasharray="16,0" points="74.88,65.9397 187.097,65.9397"/>
<polyline fill="none" stroke="#262626" stroke-width="0.5" stroke-linecap="butt" stroke-linejoin="miter" stroke-opacity="0.15" stroke-dasharray="16,0" points="74.88,47.1626 187.097,47.1626"/>
<polyline fill="none" stroke="#262626" stroke-width="0.5" stroke-linecap="butt" stroke-linejoin="miter" points="74.88,178.603 76.1969,178.603"/>
<polyline fill="none" stroke="#262626" stroke-width="0.5" stroke-linecap="butt" stroke-linejoin="miter" points="187.097,178.603 185.78,178.603"/>
<polyline fill="none" stroke="#262626" stroke-width="0.5" stroke-linecap="butt" stroke-linejoin="miter" points="74.88,159.825 76.1969,159.825"/>
<polyline fill="none" stroke="#262626" stroke-width="0.5" stroke-linecap="butt" stroke-linejoin="miter" points="187.097,159.825 185.78,159.825"/>
<polyline fill="none" stroke="#262626" stroke-width="0.5" stroke-linecap="butt" stroke-linejoin="miter" points="74.88,141.048 76.1969,141.048"/>
<polyline fill="none" stroke="#262626" stroke-width="0.5" stroke-linecap="butt" stroke-linejoin="miter" points="187.097,141.048 185.78,141.048"/>
<polyline fill="none" stroke="#262626" stroke-width="0.5" stroke-linecap="butt" stroke-linejoin="miter" points="74.88,122.271 76.1969,122.271"/>
<polyline fill="none" stroke="#262626" stroke-width="0.5" stroke-linecap="butt" stroke-linejoin="miter" points="187.097,122.271 185.78,122.271"/>
<polyline fill="none" stroke="#262626" stroke-width="0.5" stroke-linecap="butt" stroke-linejoin="miter" points="74.88,103.494 76.1969,103.494"/>
<polyline fill="none" stroke="#262626" stroke-width="0.5" stroke-linecap="butt" stroke-linejoin="miter" points="187.097,103.494 185.78,103.494"/>
<polyline fill="none" stroke="#262626" stroke-width="0.5" stroke-linecap="butt" stroke-linejoin="miter" points="74.88,84.7169 76.1969,84.7169"/>
<polyline fill="none" stroke="#262626" stroke-width="0.5" stroke-linecap="butt" stroke-linejoin="miter" points="187.097,84.7169 185.78,84.7169"/>
<polyline fill="none" stroke="#262626" stroke-width="0.5" stroke-linecap="butt" stroke-linejoin="miter" points="74.88,65.9397 76.1969,65.9397"/>
<polyline fill="none" stroke="#262626" stroke-width="0.5" stroke-linecap="butt" stroke-linejoin="miter" points="187.097,65.9397 185.78,65.9397"/>
<polyline fill="none" stroke="#262626" stroke-width="0.5" stroke-linecap="butt" stroke-linejoin="miter" points="74.88,47.1626 76.1969,47.1626"/>
<polyline fill="none" stroke="#262626" stroke-width="0.5" stroke-linecap="butt" stroke-linejoin="miter" points="187.097,47.1626 185.78,47.1626"/>
<text xml:space="preserve" transform="translate(63.8703,184.103) rotate(-0,6,-5.5)" font-family="FreeSans" font-weight="normal" font-style="normal" font-size="10"><tspan y="-1" fill="rgb(38,38,38)" x="0 ">0</tspan></text>
<text xml:space="preserve" transform="translate(57.8703,165.325) rotate(-0,12,-5.5)" font-family="FreeSans" font-weight="normal" font-style="normal" font-size="10"><tspan y="-1" fill="rgb(38,38,38)" x="0 6 ">50</tspan></text>
<text xml:space="preserve" transform="translate(51.8703,146.548) rotate(-0,18,-5.5)" font-family="FreeSans" font-weight="normal" font-style="normal" font-size="10"><tspan y="-1" fill="rgb(38,38,38)" x="0 6 12 ">100</tspan></text>
<text xml:space="preserve" transform="translate(51.8703,127.771) rotate(-0,18,-5.5)" font-family="FreeSans" font-weight="normal" font-style="normal" font-size="10"><tspan y="-1" fill="rgb(38,38,38)" x="0 6 12 ">150</tspan></text>
<text xml:space="preserve" transform="translate(51.8703,108.994) rotate(-0,18,-5.5)" font-family="FreeSans" font-weight="normal" font-style="normal" font-size="10"><tspan y="-1" fill="rgb(38,38,38)" x="0 6 12 ">200</tspan></text>
<text xml:space="preserve" transform="translate(51.8703,90.2169) rotate(-0,18,-5.5)" font-family="FreeSans" font-weight="normal" font-style="normal" font-size="10"><tspan y="-1" fill="rgb(38,38,38)" x="0 6 12 ">250</tspan></text>
<text xml:space="preserve" transform="translate(51.8703,71.4397) rotate(-0,18,-5.5)" font-family="FreeSans" font-weight="normal" font-style="normal" font-size="10"><tspan y="-1" fill="rgb(38,38,38)" x="0 6 12 ">300</tspan></text>
<text xml:space="preserve" transform="translate(51.8703,52.6626) rotate(-0,18,-5.5)" font-family="FreeSans" font-weight="normal" font-style="normal" font-size="10"><tspan y="-1" fill="rgb(38,38,38)" x="0 6 12 ">350</tspan></text>
<polyline fill="none" stroke="#262626" stroke-width="0.5" stroke-linecap="square" stroke-linejoin="miter" stroke-dasharray="16,0" points="74.88,178.603 187.097,178.603"/>
<polyline fill="none" stroke="#262626" stroke-width="0.5" stroke-linecap="square" stroke-linejoin="miter" stroke-dasharray="16,0" points="74.88,47.1626 187.097,47.1626"/>
<polyline fill="none" stroke="#262626" stroke-width="0.5" stroke-linecap="square" stroke-linejoin="miter" stroke-dasharray="16,0" points="74.88,178.603 74.88,47.1626"/>
<polyline fill="none" stroke="#262626" stroke-width="0.5" stroke-linecap="square" stroke-linejoin="miter" stroke-dasharray="16,0" points="187.097,178.603 187.097,47.1626"/>
<text xml:space="preserve" transform="translate(88.9884,37.1626) rotate(-0,42,0)" font-family="FreeSans" font-weight="bold" font-style="normal" font-size="11"><tspan y="-2" fill="rgb(0,0,0)" x="0 7 14 21 24 31 37 40 44 51 58 61 65 68 78 ">Engine run time</tspan></text>
<text xml:space="preserve" transform="translate(27.8703,112.883) rotate(-90,20,0)" font-family="FreeSans" font-weight="normal" font-style="normal" font-size="11"><tspan y="-2" fill="rgb(38,38,38)" x="0 5 11 17 23 29 35 ">seconds</tspan></text>
<text xml:space="preserve" transform="translate(90.9884,207.619) rotate(-0,40,-13)" font-family="FreeSans" font-weight="normal" font-style="normal" font-size="11"><tspan y="-2" fill="rgb(38,38,38)" x="0 7 9 15 21 26 32 38 41 44 46 55 61 64 66 72 75 ">Elapsed time in s</tspan></text>
<polyline fill="none" stroke="#0071bc" stroke-width="0.5" stroke-linecap="butt" stroke-linejoin="round" points="75.3289,178.603 75.7777,176.725 76.2266,176.349 76.6755,175.598 77.1243,174.847 77.5732,174.096 78.0221,173.721 78.4709,173.345 78.9198,172.969 79.3687,172.218 79.8175,171.843 80.2664,171.467 80.7153,171.092 81.1641,170.341 81.613,169.965 82.0619,169.59 82.5107,169.214 82.9596,168.463 83.4085,168.087 83.8573,167.712 84.3062,166.961 84.7551,166.585 85.2039,166.21 85.6528,165.834 86.1017,165.083 86.5505,164.707 86.9994,164.332 87.4483,163.956 87.8972,163.205 88.346,162.83 88.7949,162.454 89.2437,162.079 89.6926,160.952 90.1415,160.577 90.5903,160.201 91.0392,159.825 91.4881,159.074 91.9369,158.699 92.3858,158.323 92.8347,157.572 93.2836,157.197 93.7324,156.446 94.1813,156.07 94.6302,155.319 95.079,154.943 95.5279,154.568 95.9767,154.192 96.4256,153.441 96.8745,153.066 97.3233,152.69 97.7722,152.315 98.2211,151.563 98.67,151.188 99.1188,150.812 99.5677,150.061 100.017,149.686 100.465,149.31 100.914,148.935 101.363,148.184 101.812,147.808 102.261,147.433 102.71,147.057 103.159,145.93 103.607,145.555 104.056,145.179 104.505,144.428 104.954,144.053 105.403,143.677 105.852,143.302 106.301,142.175 106.75,141.799 107.198,141.424 107.647,141.048 108.096,140.297 108.545,139.922 108.994,139.171 109.443,138.419 109.892,138.044 110.34,137.668 110.789,137.293 111.238,136.542 111.687,136.166 112.136,135.791 112.585,135.415 113.034,134.664 113.483,134.289 113.931,133.913 114.38,133.537 114.829,132.786 115.278,132.411 115.727,132.035 116.176,131.66 116.625,130.909 117.074,130.533 117.522,130.158 117.971,129.782 118.42,129.031 118.869,128.655 119.318,128.28 119.767,127.904 120.216,126.778 120.664,126.402 121.113,126.027 121.562,125.275 122.011,124.9 122.46,124.524 122.909,124.149 123.358,123.398 123.807,123.022 124.255,122.647 124.704,122.271 125.153,121.52 125.602,121.145 126.051,120.769 126.5,120.393 126.949,119.642 127.397,119.267 127.846,118.516 128.295,117.765 128.744,117.389 129.193,117.014 129.642,116.638 130.091,115.887 130.54,115.511 130.988,115.136 131.437,114.385 131.886,114.009 132.335,113.634 132.784,113.258 133.233,112.507 133.682,112.132 134.13,111.756 134.579,111.38 135.028,110.629 135.477,110.254 135.926,109.878 136.375,109.503 136.824,108.752 137.273,108.376 137.721,108.001 138.17,107.625 138.619,106.874 139.068,106.123 139.517,105.747 139.966,104.996 140.415,104.621 140.863,104.245 141.312,103.87 141.761,103.118 142.21,102.743 142.659,102.367 143.108,101.241 143.557,100.865 144.006,100.49 144.454,100.114 144.903,99.363 145.352,98.9875 145.801,98.6119 146.25,98.2364 146.699,97.4853 147.148,97.1098 147.596,96.7342 148.045,96.3587 148.494,95.6076 148.943,95.2321 149.392,94.481 149.841,93.7299 150.29,93.3543 150.739,92.9788 151.187,92.6033 151.636,91.8522 152.085,91.4766 152.534,91.1011 152.983,90.35 153.432,89.9745 153.881,89.5989 154.329,89.2234 154.778,88.4723 155.227,88.0967 155.676,87.3456 156.125,86.5946 156.574,86.219 157.023,85.8435 157.472,85.468 157.92,84.7169 158.369,84.3413 158.818,83.9658 159.267,83.5902 159.716,82.8392 160.165,82.4636 160.614,82.0881 161.062,80.9614 161.511,80.5859 161.96,80.2103 162.409,79.8348 162.858,79.0837 163.307,78.7082 163.756,78.3326 164.205,77.5815 164.653,77.206 165.102,76.8304 165.551,76.4549 166,75.3283 166.449,74.9528 166.898,74.5772 167.347,73.8261 167.795,73.4506 168.244,73.075 168.693,72.6995 169.142,71.9484 169.591,71.5729 170.04,71.1973 170.489,70.8218 170.938,70.0707 171.386,69.6951 171.835,69.3196 172.284,68.9441 172.733,68.193 173.182,67.4419 173.631,67.0663 174.08,66.3152 174.529,65.9397 174.977,65.5642 175.426,65.1886 175.875,64.4376 176.324,64.062 176.773,63.6865 177.222,62.9354 177.671,62.1843 178.119,61.8088 178.568,61.4332 179.017,60.6821 179.466,60.3066 179.915,59.931 180.364,59.5555 180.813,58.8044 181.262,58.4289 181.71,58.0533 182.159,57.6778 182.608,56.9267"/>
</g>
<clipPath id="cp00576432">
  <polygon points="0,432 576,432 576,0 0,0"/>
</clipPath>
<g clip-path="url(#cp00576432)">
<polygon fill="#ffffff" shape-rendering="crispEdges" points="241.972,178.603 354.188,178.603 241.972,47.1625"/>
<polygon fill="#ffffff" shape-rendering="crispEdges" points="354.188,178.603 354.188,47.1625 241.972,47.1625"/>
<polyline fill="none" stroke="#262626" stroke-width="0.5" stroke-linecap="butt" stroke-linejoin="miter" stroke-opacity="0.15" stroke-dasharray="16,0" points="241.972,178.603 241.972,47.1625"/>
<polyline fill="none" stroke="#262626" stroke-width="0.5" stroke-linecap="butt" stroke-linejoin="miter" stroke-opacity="0.15" stroke-dasharray="16,0" points="264.415,178.603 264.415,47.1625"/>
<polyline fill="none" stroke="#262626" stroke-width="0.5" stroke-linecap="butt" stroke-linejoin="miter" stroke-opacity="0.15" stroke-dasharray="16,0" points="286.858,178.603 286.858,47.1625"/>
<polyline fill="none" stroke="#262626" stroke-width="0.5" stroke-linecap="butt" stroke-linejoin="miter" stroke-opacity="0.15" stroke-dasharray="16,0" points="309.302,178.603 309.302,47.1625"/>
<polyline fill="none" stroke="#262626" stroke-width="0.5" stroke-linecap="butt" stroke-linejoin="miter" stroke-opacity="0.15" stroke-dasharray="16,0" points="331.745,178.603 331.745,47.1625"/>
<polyline fill="none" stroke="#262626" stroke-width="0.5" stroke-linecap="butt" stroke-linejoin="miter" stroke-opacity="0.15" stroke-dasharray="16,0" points="354.188,178.603 354.188,47.1625"/>
<polyline fill="none" stroke="#262626" stroke-width="0.5" stroke-linecap="butt" stroke-linejoin="miter" points="241.972,178.603 241.972,177.284"/>
<polyline fill="none" stroke="#262626" stroke-width="0.5" stroke-linecap="butt" stroke-linejoin="miter" points="241.972,47.1625 241.972,48.4814"/>
<polyline fill="none" stroke="#262626" stroke-width="0.5" stroke-linecap="butt" stroke-linejoin="miter" points="264.415,178.603 264.415,177.284"/>
<polyline fill="none" stroke="#262626" stroke-width="0.5" stroke-linecap="butt" stroke-linejoin="miter" points="264.415,47.1625 264.415,48.4814"/>
<polyline fill="none" stroke="#262626" stroke-width="0.5" stroke-linecap="butt" stroke-linejoin="miter" points="286.858,178.603 286.858,177.284"/>
<polyline fill="none" stroke="#262626" stroke-width="0.5" stroke-linecap="butt" stroke-linejoin="miter" points="286.858,47.1625 286.858,48.4814"/>
<polyline fill="none" stroke="#262626" stroke-width="0.5" stroke-linecap="butt" stroke-linejoin="miter" points="309.302,178.603 309.302,177.284"/>
<polyline fill="none" stroke="#262626" stroke-width="0.5" stroke-linecap="butt" stroke-linejoin="miter" points="309.302,47.1625 309.302,48.4814"/>
<polyline fill="none" stroke="#262626" stroke-width="0.5" stroke-linecap="butt" stroke-linejoin="miter" points="331.745,178.603 331.745,177.284"/>
<polyline fill="none" stroke="#262626" stroke-width="0.5" stroke-linecap="butt" stroke-linejoin="miter" points="331.745,47.1625 331.745,48.4814"/>
<polyline fill="none" stroke="#262626" stroke-width="0.5" stroke-linecap="butt" stroke-linejoin="miter" points="354.188,178.603 354.188,177.284"/>
<polyline fill="none" stroke="#262626" stroke-width="0.5" stroke-linecap="butt" stroke-linejoin="miter" points="354.188,47.1625 354.188,48.4814"/>
<text xml:space="preserve" transform="translate(238.972,194.619) rotate(-0,3,-11)" font-family="FreeSans" font-weight="normal" font-style="normal" font-size="10"><tspan y="-1" fill="rgb(38,38,38)" x="0 ">0</tspan></text>
<text xml:space="preserve" transform="translate(258.415,194.619) rotate(-0,6,-11)" font-family="FreeSans" font-weight="normal" font-style="normal" font-size="10"><tspan y="-1" fill="rgb(38,38,38)" x="0 6 ">50</tspan></text>
<text xml:space="preserve" transform="translate(277.858,194.619) rotate(-0,9,-11)" font-family="FreeSans" font-weight="normal" font-style="normal" font-size="10"><tspan y="-1" fill="rgb(38,38,38)" x="0 6 12 ">100</tspan></text>
<text xml:space="preserve" transform="translate(300.302,194.619) rotate(-0,9,-11)" font-family="FreeSans" font-weight="normal" font-style="normal" font-size="10"><tspan y="-1" fill="rgb(38,38,38)" x="0 6 12 ">150</tspan></text>
<text xml:space="preserve" transform="translate(322.745,194.619) rotate(-0,9,-11)" font-family="FreeSans" font-weight="normal" font-style="normal" font-size="10"><tspan y="-1" fill="rgb(38,38,38)" x="0 6 12 ">200</tspan></text>
<text xml:space="preserve" transform="translate(345.188,194.619) rotate(-0,9,-11)" font-family="FreeSans" font-weight="normal" font-style="normal" font-size="10"><tspan y="-1" fill="rgb(38,38,38)" x="0 6 12 ">250</tspan></text>
<polyline fill="none" stroke="#262626" stroke-width="0.5" stroke-linecap="butt" stroke-linejoin="miter" stroke-opacity="0.15" stroke-dasharray="16,0" points="241.972,178.603 354.188,178.603"/>
<polyline fill="none" stroke="#262626" stroke-width="0.5" stroke-linecap="butt" stroke-linejoin="miter" stroke-opacity="0.15" stroke-dasharray="16,0" points="241.972,145.743 354.188,145.743"/>
<polyline fill="none" stroke="#262626" stroke-width="0.5" stroke-linecap="butt" stroke-linejoin="miter" stroke-opacity="0.15" stroke-dasharray="16,0" points="241.972,112.883 354.188,112.883"/>
<polyline fill="none" stroke="#262626" stroke-width="0.5" stroke-linecap="butt" stroke-linejoin="miter" stroke-opacity="0.15" stroke-dasharray="16,0" points="241.972,80.0226 354.188,80.0226"/>
<polyline fill="none" stroke="#262626" stroke-width="0.5" stroke-linecap="butt" stroke-linejoin="miter" stroke-opacity="0.15" stroke-dasharray="16,0" points="241.972,47.1625 354.188,47.1625"/>
<polyline fill="none" stroke="#262626" stroke-width="0.5" stroke-linecap="butt" stroke-linejoin="miter" points="241.972,178.603 243.289,178.603"/>
<polyline fill="none" stroke="#262626" stroke-width="0.5" stroke-linecap="butt" stroke-linejoin="miter" points="354.188,178.603 352.871,178.603"/>
<polyline fill="none" stroke="#262626" stroke-width="0.5" stroke-linecap="butt" stroke-linejoin="miter" points="241.972,145.743 243.289,145.743"/>
<polyline fill="none" stroke="#262626" stroke-width="0.5" stroke-linecap="butt" stroke-linejoin="miter" points="354.188,145.743 352.871,145.743"/>
<polyline fill="none" stroke="#262626" stroke-width="0.5" stroke-linecap="butt" stroke-linejoin="miter" points="241.972,112.883 243.289,112.883"/>
<polyline fill="none" stroke="#262626" stroke-width="0.5" stroke-linecap="butt" stroke-linejoin="miter" points="354.188,112.883 352.871,112.883"/>
<polyline fill="none" stroke="#262626" stroke-width="0.5" stroke-linecap="butt" stroke-linejoin="miter" points="241.972,80.0226 243.289,80.0226"/>
<polyline fill="none" stroke="#262626" stroke-width="0.5" stroke-linecap="butt" stroke-linejoin="miter" points="354.188,80.0226 352.871,80.0226"/>
<polyline fill="none" stroke="#262626" stroke-width="0.5" stroke-linecap="butt" stroke-linejoin="miter" points="241.972,47.1625 243.289,47.1625"/>
<polyline fill="none" stroke="#262626" stroke-width="0.5" stroke-linecap="butt" stroke-linejoin="miter" points="354.188,47.1625 352.871,47.1625"/>
<text xml:space="preserve" transform="translate(224.962,184.103) rotate(-0,12,-5.5)" font-family="FreeSans" font-weight="normal" font-style="normal" font-size="10"><tspan y="-1" fill="rgb(38,38,38)" x="0 6 ">11</tspan></text>
<text xml:space="preserve" transform="translate(224.962,151.243) rotate(-0,12,-5.5)" font-family="FreeSans" font-weight="normal" font-style="normal" font-size="10"><tspan y="-1" fill="rgb(38,38,38)" x="0 6 ">12</tspan></text>
<text xml:space="preserve" transform="translate(224.962,118.383) rotate(-0,12,-5.5)" font-family="FreeSans" font-weight="normal" font-style="normal" font-size="10"><tspan y="-1" fill="rgb(38,38,38)" x="0 6 ">13</tspan></text>
<text xml:space="preserve" transform="translate(224.962,85.5226) rotate(-0,12,-5.5)" font-family="FreeSans" font-weight="normal" font-style="normal" font-size="10"><tspan y="-1" fill="rgb(38,38,38)" x="0 6 ">14</tspan></text>
<text xml:space="preserve" transform="translate(224.962,52.6626) rotate(-0,12,-5.5)" font-family="FreeSans" font-weight="normal" font-style="normal" font-size="10"><tspan y="-1" fill="rgb(38,38,38)" x="0 6 ">15</tspan></text>
<polyline fill="none" stroke="#262626" stroke-width="0.5" stroke-linecap="square" stroke-linejoin="miter" stroke-dasharray="16,0" points="241.972,178.603 354.188,178.603"/>
<polyline fill="none" stroke="#262626" stroke-width="0.5" stroke-linecap="square" stroke-linejoin="miter" stroke-dasharray="16,0" points="241.972,47.1625 354.188,47.1625"/>
<polyline fill="none" stroke="#262626" stroke-width="0.5" stroke-linecap="square" stroke-linejoin="miter" stroke-dasharray="16,0" points="241.972,178.603 241.972,47.1625"/>
<polyline fill="none" stroke="#262626" stroke-width="0.5" stroke-linecap="square" stroke-linejoin="miter" stroke-dasharray="16,0" points="354.188,178.603 354.188,47.1625"/>
<text xml:space="preserve" transform="translate(240.58,37.1626) rotate(-0,57.5,0)" font-family="FreeSans" font-weight="bold" font-style="normal" font-size="11"><tspan y="-2" fill="rgb(0,0,0)" x="0 3 10 14 20 26 32 35 41 44 48 51 55 61 71 78 84 88 94 98 105 109 ">Intake air temperature</tspan></text>
<text xml:space="preserve" transform="translate(182.962,112.883) rotate(-90,38,0)" font-family="FreeSans" font-weight="normal" font-style="normal" font-size="11"><tspan y="-2" fill="rgb(38,38,38)" x="0 8 14 16 21 23 29 34 37 43 49 55 59 65 71 ">Celsius degrees</tspan></text>
<text xml:space="preserve" transform="translate(258.08,207.619) rotate(-0,40,-13)" font-family="FreeSans" font-weight="normal" font-style="normal" font-size="11"><tspan y="-2" fill="rgb(38,38,38)" x="0 7 9 15 21 26 32 38 41 44 46 55 61 64 66 72 75 ">Elapsed time in s</tspan></text>
<polyline fill="none" stroke="#0071bc" stroke-width="0.5" stroke-linecap="butt" stroke-linejoin="round" points="242.42,145.743 242.869,145.743 243.318,145.743 243.767,145.743 244.216,145.743 244.665,145.743 245.114,145.743 245.563,145.743 246.011,145.743 246.46,145.743 246.909,178.603 247.358,178.603 247.807,178.603 248.256,145.743 248.705,145.743 249.153,145.743 249.602,145.743 250.051,145.743 250.5,145.743 250.949,145.743 251.398,145.743 251.847,145.743 252.296,145.743 252.744,145.743 253.193,145.743 253.642,145.743 254.091,145.743 254.54,112.883 254.989,112.883 255.438,112.883 255.886,112.883 256.335,112.883 256.784,112.883 257.233,112.883 257.682,112.883 258.131,112.883 258.58,112.883 259.029,112.883 259.477,112.883 259.926,112.883 260.375,112.883 260.824,112.883 261.273,112.883 261.722,80.0226 262.171,112.883 262.619,112.883 263.068,112.883 263.517,112.883 263.966,112.883 264.415,80.0226 264.864,80.0226 265.313,80.0226 265.762,80.0226 266.21,80.0226 266.659,80.0226 267.108,80.0226 267.557,80.0226 268.006,80.0226 268.455,80.0226 268.904,112.883 269.353,112.883 269.801,112.883 270.25,112.883 270.699,112.883 271.148,112.883 271.597,80.0226 272.046,80.0226 272.495,112.883 272.943,80.0226 273.392,112.883 273.841,112.883 274.29,80.0226 274.739,80.0226 275.188,112.883 275.637,80.0226 276.086,80.0226 276.534,112.883 276.983,80.0226 277.432,80.0226 277.881,80.0226 278.33,80.0226 278.779,80.0226 279.228,80.0226 279.676,80.0226 280.125,80.0226 280.574,80.0226 281.023,80.0226 281.472,80.0226 281.921,80.0226 282.37,80.0226 282.819,112.883 283.267,80.0226 283.716,80.0226 284.165,80.0226 284.614,80.0226 285.063,80.0226 285.512,80.0226 285.961,80.0226 286.409,112.883 286.858,112.883 287.307,112.883 287.756,112.883 288.205,112.883 288.654,80.0226 289.103,112.883 289.552,80.0226 290,80.0226 290.449,112.883 290.898,112.883 291.347,112.883 291.796,112.883 292.245,112.883 292.694,80.0226 293.142,80.0226 293.591,80.0226 294.04,112.883 294.489,112.883 294.938,112.883 295.387,112.883 295.836,112.883 296.285,80.0226 296.733,80.0226 297.182,80.0226 297.631,80.0226 298.08,80.0226 298.529,80.0226 298.978,80.0226 299.427,80.0226 299.875,80.0226 300.324,112.883 300.773,80.0226 301.222,80.0226 301.671,80.0226 302.12,80.0226 302.569,80.0226 303.018,80.0226 303.466,80.0226 303.915,80.0226 304.364,80.0226 304.813,80.0226 305.262,80.0226 305.711,80.0226 306.16,80.0226 306.608,80.0226 307.057,80.0226 307.506,80.0226 307.955,80.0226 308.404,80.0226 308.853,80.0226 309.302,80.0226 309.751,80.0226 310.199,80.0226 310.648,80.0226 311.097,80.0226 311.546,80.0226 311.995,80.0226 312.444,80.0226 312.893,80.0226 313.341,112.883 313.79,80.0226 314.239,80.0226 314.688,112.883 315.137,112.883 315.586,80.0226 316.035,80.0226 316.484,80.0226 316.932,112.883 317.381,80.0226 317.83,80.0226 318.279,80.0226 318.728,80.0226 319.177,80.0226 319.626,80.0226 320.074,80.0226 320.523,80.0226 320.972,80.0226 321.421,80.0226 321.87,80.0226 322.319,80.0226 322.768,80.0226 323.217,80.0226 323.665,80.0226 324.114,80.0226 324.563,80.0226 325.012,80.0226 325.461,80.0226 325.91,80.0226 326.359,80.0226 326.807,80.0226 327.256,80.0226 327.705,80.0226 328.154,80.0226 328.603,80.0226 329.052,80.0226 329.501,80.0226 329.95,80.0226 330.398,80.0226 330.847,80.0226 331.296,80.0226 331.745,80.0226 332.194,80.0226 332.643,80.0226 333.092,80.0226 333.54,80.0226 333.989,80.0226 334.438,80.0226 334.887,80.0226 335.336,80.0226 335.785,80.0226 336.234,80.0226 336.683,80.0226 337.131,80.0226 337.58,80.0226 338.029,80.0226 338.478,80.0226 338.927,80.0226 339.376,80.0226 339.825,80.0226 340.273,80.0226 340.722,80.0226 341.171,80.0226 341.62,80.0226 342.069,80.0226 342.518,80.0226 342.967,80.0226 343.416,80.0226 343.864,80.0226 344.313,80.0226 344.762,80.0226 345.211,80.0226 345.66,80.0226 346.109,80.0226 346.558,80.0226 347.007,80.0226 347.455,80.0226 347.904,80.0226 348.353,80.0226 348.802,80.0226 349.251,80.0226 349.7,47.1625"/>
</g>
<clipPath id="cp00576432">
  <polygon points="0,432 576,432 576,0 0,0"/>
</clipPath>
<g clip-path="url(#cp00576432)">
<polygon fill="#ffffff" shape-rendering="crispEdges" points="409.063,178.603 521.28,178.603 409.063,47.1626"/>
<polygon fill="#ffffff" shape-rendering="crispEdges" points="521.28,178.603 521.28,47.1626 409.063,47.1626"/>
<polyline fill="none" stroke="#262626" stroke-width="0.5" stroke-linecap="butt" stroke-linejoin="miter" stroke-opacity="0.15" stroke-dasharray="16,0" points="409.063,178.603 409.063,47.1626"/>
<polyline fill="none" stroke="#262626" stroke-width="0.5" stroke-linecap="butt" stroke-linejoin="miter" stroke-opacity="0.15" stroke-dasharray="16,0" points="431.507,178.603 431.507,47.1626"/>
<polyline fill="none" stroke="#262626" stroke-width="0.5" stroke-linecap="butt" stroke-linejoin="miter" stroke-opacity="0.15" stroke-dasharray="16,0" points="453.95,178.603 453.95,47.1626"/>
<polyline fill="none" stroke="#262626" stroke-width="0.5" stroke-linecap="butt" stroke-linejoin="miter" stroke-opacity="0.15" stroke-dasharray="16,0" points="476.393,178.603 476.393,47.1626"/>
<polyline fill="none" stroke="#262626" stroke-width="0.5" stroke-linecap="butt" stroke-linejoin="miter" stroke-opacity="0.15" stroke-dasharray="16,0" points="498.837,178.603 498.837,47.1626"/>
<polyline fill="none" stroke="#262626" stroke-width="0.5" stroke-linecap="butt" stroke-linejoin="miter" stroke-opacity="0.15" stroke-dasharray="16,0" points="521.28,178.603 521.28,47.1626"/>
<polyline fill="none" stroke="#262626" stroke-width="0.5" stroke-linecap="butt" stroke-linejoin="miter" points="409.063,178.603 409.063,177.284"/>
<polyline fill="none" stroke="#262626" stroke-width="0.5" stroke-linecap="butt" stroke-linejoin="miter" points="409.063,47.1626 409.063,48.4814"/>
<polyline fill="none" stroke="#262626" stroke-width="0.5" stroke-linecap="butt" stroke-linejoin="miter" points="431.507,178.603 431.507,177.284"/>
<polyline fill="none" stroke="#262626" stroke-width="0.5" stroke-linecap="butt" stroke-linejoin="miter" points="431.507,47.1626 431.507,48.4814"/>
<polyline fill="none" stroke="#262626" stroke-width="0.5" stroke-linecap="butt" stroke-linejoin="miter" points="453.95,178.603 453.95,177.284"/>
<polyline fill="none" stroke="#262626" stroke-width="0.5" stroke-linecap="butt" stroke-linejoin="miter" points="453.95,47.1626 453.95,48.4814"/>
<polyline fill="none" stroke="#262626" stroke-width="0.5" stroke-linecap="butt" stroke-linejoin="miter" points="476.393,178.603 476.393,177.284"/>
<polyline fill="none" stroke="#262626" stroke-width="0.5" stroke-linecap="butt" stroke-linejoin="miter" points="476.393,47.1626 476.393,48.4814"/>
<polyline fill="none" stroke="#262626" stroke-width="0.5" stroke-linecap="butt" stroke-linejoin="miter" points="498.837,178.603 498.837,177.284"/>
<polyline fill="none" stroke="#262626" stroke-width="0.5" stroke-linecap="butt" stroke-linejoin="miter" points="498.837,47.1626 498.837,48.4814"/>
<polyline fill="none" stroke="#262626" stroke-width="0.5" stroke-linecap="butt" stroke-linejoin="miter" points="521.28,178.603 521.28,177.284"/>
<polyline fill="none" stroke="#262626" stroke-width="0.5" stroke-linecap="butt" stroke-linejoin="miter" points="521.28,47.1626 521.28,48.4814"/>
<text xml:space="preserve" transform="translate(406.063,194.619) rotate(-0,3,-11)" font-family="FreeSans" font-weight="normal" font-style="normal" font-size="10"><tspan y="-1" fill="rgb(38,38,38)" x="0 ">0</tspan></text>
<text xml:space="preserve" transform="translate(425.507,194.619) rotate(-0,6,-11)" font-family="FreeSans" font-weight="normal" font-style="normal" font-size="10"><tspan y="-1" fill="rgb(38,38,38)" x="0 6 ">50</tspan></text>
<text xml:space="preserve" transform="translate(444.95,194.619) rotate(-0,9,-11)" font-family="FreeSans" font-weight="normal" font-style="normal" font-size="10"><tspan y="-1" fill="rgb(38,38,38)" x="0 6 12 ">100</tspan></text>
<text xml:space="preserve" transform="translate(467.393,194.619) rotate(-0,9,-11)" font-family="FreeSans" font-weight="normal" font-style="normal" font-size="10"><tspan y="-1" fill="rgb(38,38,38)" x="0 6 12 ">150</tspan></text>
<text xml:space="preserve" transform="translate(489.837,194.619) rotate(-0,9,-11)" font-family="FreeSans" font-weight="normal" font-style="normal" font-size="10"><tspan y="-1" fill="rgb(38,38,38)" x="0 6 12 ">200</tspan></text>
<text xml:space="preserve" transform="translate(512.28,194.619) rotate(-0,9,-11)" font-family="FreeSans" font-weight="normal" font-style="normal" font-size="10"><tspan y="-1" fill="rgb(38,38,38)" x="0 6 12 ">250</tspan></text>
<polyline fill="none" stroke="#262626" stroke-width="0.5" stroke-linecap="butt" stroke-linejoin="miter" stroke-opacity="0.15" stroke-dasharray="16,0" points="409.063,178.603 521.28,178.603"/>
<polyline fill="none" stroke="#262626" stroke-width="0.5" stroke-linecap="butt" stroke-linejoin="miter" stroke-opacity="0.15" stroke-dasharray="16,0" points="409.063,145.743 521.28,145.743"/>
<polyline fill="none" stroke="#262626" stroke-width="0.5" stroke-linecap="butt" stroke-linejoin="miter" stroke-opacity="0.15" stroke-dasharray="16,0" points="409.063,112.883 521.28,112.883"/>
<polyline fill="none" stroke="#262626" stroke-width="0.5" stroke-linecap="butt" stroke-linejoin="miter" stroke-opacity="0.15" stroke-dasharray="16,0" points="409.063,80.0226 521.28,80.0226"/>
<polyline fill="none" stroke="#262626" stroke-width="0.5" stroke-linecap="butt" stroke-linejoin="miter" stroke-opacity="0.15" stroke-dasharray="16,0" points="409.063,47.1626 521.28,47.1626"/>
<polyline fill="none" stroke="#262626" stroke-width="0.5" stroke-linecap="butt" stroke-linejoin="miter" points="409.063,178.603 410.38,178.603"/>
<polyline fill="none" stroke="#262626" stroke-width="0.5" stroke-linecap="butt" stroke-linejoin="miter" points="521.28,178.603 519.963,178.603"/>
<polyline fill="none" stroke="#262626" stroke-width="0.5" stroke-linecap="butt" stroke-linejoin="miter" points="409.063,145.743 410.38,145.743"/>
<polyline fill="none" stroke="#262626" stroke-width="0.5" stroke-linecap="butt" stroke-linejoin="miter" points="521.28,145.743 519.963,145.743"/>
<polyline fill="none" stroke="#262626" stroke-width="0.5" stroke-linecap="butt" stroke-linejoin="miter" points="409.063,112.883 410.38,112.883"/>
<polyline fill="none" stroke="#262626" stroke-width="0.5" stroke-linecap="butt" stroke-linejoin="miter" points="521.28,112.883 519.963,112.883"/>
<polyline fill="none" stroke="#262626" stroke-width="0.5" stroke-linecap="butt" stroke-linejoin="miter" points="409.063,80.0226 410.38,80.0226"/>
<polyline fill="none" stroke="#262626" stroke-width="0.5" stroke-linecap="butt" stroke-linejoin="miter" points="521.28,80.0226 519.963,80.0226"/>
<polyline fill="none" stroke="#262626" stroke-width="0.5" stroke-linecap="butt" stroke-linejoin="miter" points="409.063,47.1626 410.38,47.1626"/>
<polyline fill="none" stroke="#262626" stroke-width="0.5" stroke-linecap="butt" stroke-linejoin="miter" points="521.28,47.1626 519.963,47.1626"/>
<text xml:space="preserve" transform="translate(392.054,184.103) rotate(-0,12,-5.5)" font-family="FreeSans" font-weight="normal" font-style="normal" font-size="10"><tspan y="-1" fill="rgb(38,38,38)" x="0 6 ">10</tspan></text>
<text xml:space="preserve" transform="translate(392.054,151.243) rotate(-0,12,-5.5)" font-family="FreeSans" font-weight="normal" font-style="normal" font-size="10"><tspan y="-1" fill="rgb(38,38,38)" x="0 6 ">15</tspan></text>
<text xml:space="preserve" transform="translate(392.054,118.383) rotate(-0,12,-5.5)" font-family="FreeSans" font-weight="normal" font-style="normal" font-size="10"><tspan y="-1" fill="rgb(38,38,38)" x="0 6 ">20</tspan></text>
<text xml:space="preserve" transform="translate(392.054,85.5226) rotate(-0,12,-5.5)" font-family="FreeSans" font-weight="normal" font-style="normal" font-size="10"><tspan y="-1" fill="rgb(38,38,38)" x="0 6 ">25</tspan></text>
<text xml:space="preserve" transform="translate(392.054,52.6626) rotate(-0,12,-5.5)" font-family="FreeSans" font-weight="normal" font-style="normal" font-size="10"><tspan y="-1" fill="rgb(38,38,38)" x="0 6 ">30</tspan></text>
<polyline fill="none" stroke="#262626" stroke-width="0.5" stroke-linecap="square" stroke-linejoin="miter" stroke-dasharray="16,0" points="409.063,178.603 521.28,178.603"/>
<polyline fill="none" stroke="#262626" stroke-width="0.5" stroke-linecap="square" stroke-linejoin="miter" stroke-dasharray="16,0" points="409.063,47.1626 521.28,47.1626"/>
<polyline fill="none" stroke="#262626" stroke-width="0.5" stroke-linecap="square" stroke-linejoin="miter" stroke-dasharray="16,0" points="409.063,178.603 409.063,47.1626"/>
<polyline fill="none" stroke="#262626" stroke-width="0.5" stroke-linecap="square" stroke-linejoin="miter" stroke-dasharray="16,0" points="521.28,178.603 521.28,47.1626"/>
<text xml:space="preserve" transform="translate(420.672,37.1626) rotate(-0,44.5,0)" font-family="FreeSans" font-weight="bold" font-style="normal" font-size="11"><tspan y="-2" fill="rgb(0,0,0)" x="0 7 14 18 25 29 33 36 42 45 52 59 65 68 72 75 82 ">Throttle position</tspan></text>
<text xml:space="preserve" transform="translate(369.054,112.883) rotate(-90,19,0)" font-family="FreeSans" font-weight="normal" font-style="normal" font-size="11"><tspan y="-2" fill="rgb(38,38,38)" x="0 7 13 17 23 29 35 ">Percent</tspan></text>
<text xml:space="preserve" transform="translate(425.172,207.619) rotate(-0,40,-13)" font-family="FreeSans" font-weight="normal" font-style="normal" font-size="11"><tspan y="-2" fill="rgb(38,38,38)" x="0 7 9 15 21 26 32 38 41 44 46 55 61 64 66 72 75 ">Elapsed time in s</tspan></text>
<polyline fill="none" stroke="#0071bc" stroke-width="0.5" stroke-linecap="butt" stroke-linejoin="round" points="409.512,139.171 409.961,139.171 410.41,139.171 410.859,139.171 411.308,53.7346 411.756,132.599 412.205,132.599 412.654,132.599 413.103,132.599 413.552,132.599 414.001,145.743 414.45,145.743 414.898,145.743 415.347,139.171 415.796,139.171 416.245,139.171 416.694,139.171 417.143,139.171 417.592,139.171 418.041,139.171 418.489,145.743 418.938,139.171 419.387,145.743 419.836,139.171 420.285,139.171 420.734,139.171 421.183,145.743 421.632,139.171 422.08,139.171 422.529,139.171 422.978,139.171 423.427,139.171 423.876,126.027 424.325,93.1666 424.774,139.171 425.222,145.743 425.671,139.171 426.12,145.743 426.569,126.027 427.018,139.171 427.467,145.743 427.916,132.599 428.365,119.455 428.813,126.027 429.262,139.171 429.711,132.599 430.16,145.743 430.609,145.743 431.058,139.171 431.507,119.455 431.955,119.455 432.404,112.883 432.853,106.311 433.302,106.311 433.751,73.4506 434.2,145.743 434.649,106.311 435.098,93.1666 435.546,152.315 435.995,145.743 436.444,145.743 436.893,145.743 437.342,145.743 437.791,139.171 438.24,139.171 438.688,145.743 439.137,145.743 439.586,145.743 440.035,145.743 440.484,145.743 440.933,145.743 441.382,145.743 441.831,145.743 442.279,145.743 442.728,145.743 443.177,145.743 443.626,145.743 444.075,86.5946 444.524,86.5946 444.973,99.7386 445.421,152.315 445.87,106.311 446.319,106.311 446.768,73.4506 447.217,152.315 447.666,106.311 448.115,60.3066 448.564,53.7346 449.012,66.8786 449.461,152.315 449.91,66.8786 450.359,73.4506 450.808,73.4506 451.257,73.4506 451.706,73.4506 452.154,73.4506 452.603,80.0226 453.052,80.0226 453.501,86.5946 453.95,80.0226 454.399,106.311 454.848,106.311 455.297,112.883 455.745,99.7386 456.194,86.5946 456.643,93.1666 457.092,106.311 457.541,106.311 457.99,106.311 458.439,126.027 458.887,139.171 459.336,132.599 459.785,112.883 460.234,106.311 460.683,112.883 461.132,152.315 461.581,152.315 462.03,152.315 462.478,152.315 462.927,152.315 463.376,152.315 463.825,152.315 464.274,152.315 464.723,152.315 465.172,152.315 465.62,152.315 466.069,152.315 466.518,152.315 466.967,152.315 467.416,152.315 467.865,152.315 468.314,152.315 468.763,152.315 469.211,152.315 469.66,152.315 470.109,152.315 470.558,158.887 471.007,152.315 471.456,158.887 471.905,152.315 472.353,158.887 472.802,158.887 473.251,106.311 473.7,112.883 474.149,139.171 474.598,126.027 475.047,132.599 475.496,158.887 475.944,158.887 476.393,152.315 476.842,145.743 477.291,80.0226 477.74,86.5946 478.189,80.0226 478.638,60.3066 479.086,53.7346 479.535,53.7346 479.984,152.315 480.433,112.883 480.882,139.171 481.331,152.315 481.78,152.315 482.229,112.883 482.677,119.455 483.126,119.455 483.575,152.315 484.024,158.887 484.473,139.171 484.922,119.455 485.371,106.311 485.819,93.1666 486.268,99.7386 486.717,99.7386 487.166,99.7386 487.615,99.7386 488.064,99.7386 488.513,106.311 488.962,112.883 489.41,119.455 489.859,132.599 490.308,139.171 490.757,139.171 491.206,145.743 491.655,145.743 492.104,152.315 492.552,152.315 493.001,152.315 493.45,152.315 493.899,152.315 494.348,158.887 494.797,152.315 495.246,158.887 495.695,158.887 496.143,158.887 496.592,152.315 497.041,158.887 497.49,158.887 497.939,165.459 498.388,152.315 498.837,152.315 499.286,158.887 499.734,158.887 500.183,158.887 500.632,158.887 501.081,93.1666 501.53,112.883 501.979,112.883 502.428,66.8786 502.876,152.315 503.325,106.311 503.774,99.7386 504.223,152.315 504.672,132.599 505.121,158.887 505.57,158.887 506.018,158.887 506.467,158.887 506.916,158.887 507.365,119.455 507.814,126.027 508.263,158.887 508.712,158.887 509.161,158.887 509.609,158.887 510.058,158.887 510.507,152.315 510.956,152.315 511.405,152.315 511.854,152.315 512.303,119.455 512.752,139.171 513.2,152.315 513.649,145.743 514.098,139.171 514.547,152.315 514.996,152.315 515.445,152.315 515.894,165.459 516.342,165.459 516.791,165.459"/>
</g>
<clipPath id="cp00576432">
  <polygon points="0,432 576,432 576,0 0,0"/>
</clipPath>
<g clip-path="url(#cp00576432)">
<polygon fill="#ffffff" shape-rendering="crispEdges" points="74.88,384.48 187.097,384.48 74.88,253.04"/>
<polygon fill="#ffffff" shape-rendering="crispEdges" points="187.097,384.48 187.097,253.04 74.88,253.04"/>
<polyline fill="none" stroke="#262626" stroke-width="0.5" stroke-linecap="butt" stroke-linejoin="miter" stroke-opacity="0.15" stroke-dasharray="16,0" points="74.88,384.48 74.88,253.04"/>
<polyline fill="none" stroke="#262626" stroke-width="0.5" stroke-linecap="butt" stroke-linejoin="miter" stroke-opacity="0.15" stroke-dasharray="16,0" points="97.3233,384.48 97.3233,253.04"/>
<polyline fill="none" stroke="#262626" stroke-width="0.5" stroke-linecap="butt" stroke-linejoin="miter" stroke-opacity="0.15" stroke-dasharray="16,0" points="119.767,384.48 119.767,253.04"/>
<polyline fill="none" stroke="#262626" stroke-width="0.5" stroke-linecap="butt" stroke-linejoin="miter" stroke-opacity="0.15" stroke-dasharray="16,0" points="142.21,384.48 142.21,253.04"/>
<polyline fill="none" stroke="#262626" stroke-width="0.5" stroke-linecap="butt" stroke-linejoin="miter" stroke-opacity="0.15" stroke-dasharray="16,0" points="164.653,384.48 164.653,253.04"/>
<polyline fill="none" stroke="#262626" stroke-width="0.5" stroke-linecap="butt" stroke-linejoin="miter" stroke-opacity="0.15" stroke-dasharray="16,0" points="187.097,384.48 187.097,253.04"/>
<polyline fill="none" stroke="#262626" stroke-width="0.5" stroke-linecap="butt" stroke-linejoin="miter" points="74.88,384.48 74.88,383.161"/>
<polyline fill="none" stroke="#262626" stroke-width="0.5" stroke-linecap="butt" stroke-linejoin="miter" points="74.88,253.04 74.88,254.359"/>
<polyline fill="none" stroke="#262626" stroke-width="0.5" stroke-linecap="butt" stroke-linejoin="miter" points="97.3233,384.48 97.3233,383.161"/>
<polyline fill="none" stroke="#262626" stroke-width="0.5" stroke-linecap="butt" stroke-linejoin="miter" points="97.3233,253.04 97.3233,254.359"/>
<polyline fill="none" stroke="#262626" stroke-width="0.5" stroke-linecap="butt" stroke-linejoin="miter" points="119.767,384.48 119.767,383.161"/>
<polyline fill="none" stroke="#262626" stroke-width="0.5" stroke-linecap="butt" stroke-linejoin="miter" points="119.767,253.04 119.767,254.359"/>
<polyline fill="none" stroke="#262626" stroke-width="0.5" stroke-linecap="butt" stroke-linejoin="miter" points="142.21,384.48 142.21,383.161"/>
<polyline fill="none" stroke="#262626" stroke-width="0.5" stroke-linecap="butt" stroke-linejoin="miter" points="142.21,253.04 142.21,254.359"/>
<polyline fill="none" stroke="#262626" stroke-width="0.5" stroke-linecap="butt" stroke-linejoin="miter" points="164.653,384.48 164.653,383.161"/>
<polyline fill="none" stroke="#262626" stroke-width="0.5" stroke-linecap="butt" stroke-linejoin="miter" points="164.653,253.04 164.653,254.359"/>
<polyline fill="none" stroke="#262626" stroke-width="0.5" stroke-linecap="butt" stroke-linejoin="miter" points="187.097,384.48 187.097,383.161"/>
<polyline fill="none" stroke="#262626" stroke-width="0.5" stroke-linecap="butt" stroke-linejoin="miter" points="187.097,253.04 187.097,254.359"/>
<text xml:space="preserve" transform="translate(71.88,400.497) rotate(-0,3,-11)" font-family="FreeSans" font-weight="normal" font-style="normal" font-size="10"><tspan y="-1" fill="rgb(38,38,38)" x="0 ">0</tspan></text>
<text xml:space="preserve" transform="translate(91.3234,400.497) rotate(-0,6,-11)" font-family="FreeSans" font-weight="normal" font-style="normal" font-size="10"><tspan y="-1" fill="rgb(38,38,38)" x="0 6 ">50</tspan></text>
<text xml:space="preserve" transform="translate(110.767,400.497) rotate(-0,9,-11)" font-family="FreeSans" font-weight="normal" font-style="normal" font-size="10"><tspan y="-1" fill="rgb(38,38,38)" x="0 6 12 ">100</tspan></text>
<text xml:space="preserve" transform="translate(133.21,400.497) rotate(-0,9,-11)" font-family="FreeSans" font-weight="normal" font-style="normal" font-size="10"><tspan y="-1" fill="rgb(38,38,38)" x="0 6 12 ">150</tspan></text>
<text xml:space="preserve" transform="translate(155.653,400.497) rotate(-0,9,-11)" font-family="FreeSans" font-weight="normal" font-style="normal" font-size="10"><tspan y="-1" fill="rgb(38,38,38)" x="0 6 12 ">200</tspan></text>
<text xml:space="preserve" transform="translate(178.097,400.497) rotate(-0,9,-11)" font-family="FreeSans" font-weight="normal" font-style="normal" font-size="10"><tspan y="-1" fill="rgb(38,38,38)" x="0 6 12 ">250</tspan></text>
<polyline fill="none" stroke="#262626" stroke-width="0.5" stroke-linecap="butt" stroke-linejoin="miter" stroke-opacity="0.15" stroke-dasharray="16,0" points="74.88,384.48 187.097,384.48"/>
<polyline fill="none" stroke="#262626" stroke-width="0.5" stroke-linecap="butt" stroke-linejoin="miter" stroke-opacity="0.15" stroke-dasharray="16,0" points="74.88,358.192 187.097,358.192"/>
<polyline fill="none" stroke="#262626" stroke-width="0.5" stroke-linecap="butt" stroke-linejoin="miter" stroke-opacity="0.15" stroke-dasharray="16,0" points="74.88,331.904 187.097,331.904"/>
<polyline fill="none" stroke="#262626" stroke-width="0.5" stroke-linecap="butt" stroke-linejoin="miter" stroke-opacity="0.15" stroke-dasharray="16,0" points="74.88,305.616 187.097,305.616"/>
<polyline fill="none" stroke="#262626" stroke-width="0.5" stroke-linecap="butt" stroke-linejoin="miter" stroke-opacity="0.15" stroke-dasharray="16,0" points="74.88,279.328 187.097,279.328"/>
<polyline fill="none" stroke="#262626" stroke-width="0.5" stroke-linecap="butt" stroke-linejoin="miter" stroke-opacity="0.15" stroke-dasharray="16,0" points="74.88,253.04 187.097,253.04"/>
<polyline fill="none" stroke="#262626" stroke-width="0.5" stroke-linecap="butt" stroke-linejoin="miter" points="74.88,384.48 76.1969,384.48"/>
<polyline fill="none" stroke="#262626" stroke-width="0.5" stroke-linecap="butt" stroke-linejoin="miter" points="187.097,384.48 185.78,384.48"/>
<polyline fill="none" stroke="#262626" stroke-width="0.5" stroke-linecap="butt" stroke-linejoin="miter" points="74.88,358.192 76.1969,358.192"/>
<polyline fill="none" stroke="#262626" stroke-width="0.5" stroke-linecap="butt" stroke-linejoin="miter" points="187.097,358.192 185.78,358.192"/>
<polyline fill="none" stroke="#262626" stroke-width="0.5" stroke-linecap="butt" stroke-linejoin="miter" points="74.88,331.904 76.1969,331.904"/>
<polyline fill="none" stroke="#262626" stroke-width="0.5" stroke-linecap="butt" stroke-linejoin="miter" points="187.097,331.904 185.78,331.904"/>
<polyline fill="none" stroke="#262626" stroke-width="0.5" stroke-linecap="butt" stroke-linejoin="miter" points="74.88,305.616 76.1969,305.616"/>
<polyline fill="none" stroke="#262626" stroke-width="0.5" stroke-linecap="butt" stroke-linejoin="miter" points="187.097,305.616 185.78,305.616"/>
<polyline fill="none" stroke="#262626" stroke-width="0.5" stroke-linecap="butt" stroke-linejoin="miter" points="74.88,279.328 76.1969,279.328"/>
<polyline fill="none" stroke="#262626" stroke-width="0.5" stroke-linecap="butt" stroke-linejoin="miter" points="187.097,279.328 185.78,279.328"/>
<polyline fill="none" stroke="#262626" stroke-width="0.5" stroke-linecap="butt" stroke-linejoin="miter" points="74.88,253.04 76.1969,253.04"/>
<polyline fill="none" stroke="#262626" stroke-width="0.5" stroke-linecap="butt" stroke-linejoin="miter" points="187.097,253.04 185.78,253.04"/>
<text xml:space="preserve" transform="translate(63.8703,389.98) rotate(-0,6,-5.5)" font-family="FreeSans" font-weight="normal" font-style="normal" font-size="10"><tspan y="-1" fill="rgb(38,38,38)" x="0 ">0</tspan></text>
<text xml:space="preserve" transform="translate(51.8703,363.692) rotate(-0,18,-5.5)" font-family="FreeSans" font-weight="normal" font-style="normal" font-size="10"><tspan y="-1" fill="rgb(38,38,38)" x="0 6 12 ">500</tspan></text>
<text xml:space="preserve" transform="translate(45.8703,337.404) rotate(-0,24,-5.5)" font-family="FreeSans" font-weight="normal" font-style="normal" font-size="10"><tspan y="-1" fill="rgb(38,38,38)" x="0 6 12 18 ">1000</tspan></text>
<text xml:space="preserve" transform="translate(45.8703,311.116) rotate(-0,24,-5.5)" font-family="FreeSans" font-weight="normal" font-style="normal" font-size="10"><tspan y="-1" fill="rgb(38,38,38)" x="0 6 12 18 ">1500</tspan></text>
<text xml:space="preserve" transform="translate(45.8703,284.828) rotate(-0,24,-5.5)" font-family="FreeSans" font-weight="normal" font-style="normal" font-size="10"><tspan y="-1" fill="rgb(38,38,38)" x="0 6 12 18 ">2000</tspan></text>
<text xml:space="preserve" transform="translate(45.8703,258.54) rotate(-0,24,-5.5)" font-family="FreeSans" font-weight="normal" font-style="normal" font-size="10"><tspan y="-1" fill="rgb(38,38,38)" x="0 6 12 18 ">2500</tspan></text>
<polyline fill="none" stroke="#262626" stroke-width="0.5" stroke-linecap="square" stroke-linejoin="miter" stroke-dasharray="16,0" points="74.88,384.48 187.097,384.48"/>
<polyline fill="none" stroke="#262626" stroke-width="0.5" stroke-linecap="square" stroke-linejoin="miter" stroke-dasharray="16,0" points="74.88,253.04 187.097,253.04"/>
<polyline fill="none" stroke="#262626" stroke-width="0.5" stroke-linecap="square" stroke-linejoin="miter" stroke-dasharray="16,0" points="74.88,384.48 74.88,253.04"/>
<polyline fill="none" stroke="#262626" stroke-width="0.5" stroke-linecap="square" stroke-linejoin="miter" stroke-dasharray="16,0" points="187.097,384.48 187.097,253.04"/>
<text xml:space="preserve" transform="translate(74.9884,243.04) rotate(-0,56,0)" font-family="FreeSans" font-weight="bold" font-style="normal" font-size="11"><tspan y="-2" fill="rgb(0,0,0)" x="0 8 15 19 25 29 32 39 46 52 55 62 68 72 75 85 88 95 102 106 ">Rotations per minute</tspan></text>
<text xml:space="preserve" transform="translate(32.3703,318.76) rotate(-90,9.5,0)" font-family="FreeSans" font-weight="normal" font-style="normal" font-size="11"><tspan y="-2" fill="rgb(38,38,38)" x="0 4 10 ">rpm</tspan></text>
<text xml:space="preserve" transform="translate(90.9884,413.497) rotate(-0,40,-13)" font-family="FreeSans" font-weight="normal" font-style="normal" font-size="11"><tspan y="-2" fill="rgb(38,38,38)" x="0 7 9 15 21 26 32 38 41 44 46 55 61 64 66 72 75 ">Elapsed time in s</tspan></text>
<polyline fill="none" stroke="#0071bc" stroke-width="0.5" stroke-linecap="butt" stroke-linejoin="round" points="75.3289,384.48 75.7777,384.48 76.2266,384.48 76.6755,384.48 77.1243,384.48 77.5732,384.48 78.0221,384.48 78.4709,384.48 78.9198,384.48 79.3687,384.48 79.8175,315.868 80.2664,324.964 80.7153,326.016 81.1641,326.121 81.613,326.278 82.0619,325.122 82.5107,324.859 82.9596,324.859 83.4085,326.278 83.8573,325.858 84.3062,325.858 84.7551,325.805 85.2039,325.437 85.6528,325.227 86.1017,325.385 86.5505,326.384 86.9994,325.49 87.4483,325.332 87.8972,325.858 88.346,325.069 88.7949,325.49 89.2437,325.174 89.6926,300.253 90.1415,329.591 90.5903,312.451 91.0392,326.121 91.4881,321.021 91.9369,320.232 92.3858,320.705 92.8347,326.699 93.2836,325.542 93.7324,314.186 94.1813,318.813 94.6302,309.98 95.079,288.529 95.5279,320.548 95.9767,326.594 96.4256,327.488 96.8745,327.33 97.3233,317.183 97.7722,327.593 98.2211,317.866 98.67,309.559 99.1188,298.834 99.5677,285.006 100.017,318.76 100.465,317.288 100.914,315.973 101.363,317.446 101.812,326.278 102.261,328.539 102.71,329.065 103.159,328.855 103.607,329.538 104.056,328.171 104.505,329.275 104.954,330.064 105.403,329.696 105.852,330.695 106.301,330.222 106.75,330.958 107.198,330.905 107.647,330.958 108.096,330.905 108.545,331.378 108.994,332.219 109.443,331.746 109.892,272.335 110.34,303.723 110.789,281.01 111.238,320.653 111.687,318.865 112.136,304.88 112.585,285.847 113.034,322.966 113.483,309.033 113.931,299.57 114.38,288.213 114.829,276.962 115.278,303.04 115.727,300.937 116.176,297.046 116.625,294.102 117.074,290.79 117.522,288.056 117.971,285.217 118.42,283.271 118.869,280.905 119.318,278.645 119.767,276.91 120.216,301.094 120.664,301.463 121.113,301.568 121.562,301.936 122.011,302.093 122.46,301.778 122.909,301.41 123.358,301.41 123.807,300.358 124.255,299.675 124.704,299.99 125.153,300.989 125.602,300.148 126.051,298.991 126.5,296.783 126.949,297.151 127.397,299.044 127.846,301.042 128.295,301.778 128.744,301.936 129.193,302.146 129.642,302.619 130.091,302.724 130.54,302.304 130.988,302.093 131.437,302.304 131.886,302.514 132.335,304.827 132.784,306.352 133.233,306.983 133.682,307.141 134.13,306.983 134.579,307.456 135.028,307.298 135.477,307.561 135.926,307.561 136.375,315.08 136.824,315.763 137.273,336.951 137.721,339.475 138.17,340.264 138.619,340.895 139.068,325.647 139.517,313.923 139.966,303.934 140.415,322.914 140.863,318.813 141.312,318.918 141.761,325.122 142.21,339.843 142.659,328.119 143.108,322.598 143.557,315.711 144.006,309.559 144.454,302.619 144.903,295.889 145.352,289.055 145.801,303.881 146.25,307.193 146.699,307.246 147.148,307.982 147.596,310.979 148.045,312.661 148.494,312.819 148.943,309.98 149.392,312.188 149.841,317.971 150.29,317.761 150.739,319.023 151.187,317.13 151.636,314.607 152.085,312.03 152.534,309.401 152.983,306.93 153.432,303.934 153.881,301.778 154.329,299.885 154.778,298.676 155.227,297.677 155.676,298.15 156.125,298.886 156.574,299.99 157.023,300.726 157.472,301.2 157.92,301.568 158.369,303.355 158.818,305.09 159.267,306.773 159.716,307.982 160.165,309.77 160.614,311.452 161.062,320.758 161.511,322.02 161.96,331.957 162.409,341.473 162.858,344.312 163.307,344.838 163.756,344.312 164.205,335.9 164.653,339.738 165.102,344.838 165.551,345.784 166,345.153 166.449,345.837 166.898,338.581 167.347,314.081 167.795,277.593 168.244,309.401 168.693,319.075 169.142,297.94 169.591,278.066 170.04,330.064 170.489,309.507 170.938,337.74 171.386,345.311 171.835,345.311 172.284,345.363 172.733,345.153 173.182,310.558 173.631,320.758 174.08,332.167 174.529,344.995 174.977,345.626 175.426,345.206 175.875,346.257 176.324,344.838 176.773,344.154 177.222,345.521 177.671,347.572 178.119,270.811 178.568,333.324 179.017,326.226 179.466,320.758 179.915,318.392 180.364,344.733 180.813,345.048 181.262,346.468 181.71,373.965 182.159,384.48 182.608,384.48"/>
</g>
<clipPath id="cp00576432">
  <polygon points="0,432 576,432 576,0 0,0"/>
</clipPath>
<g clip-path="url(#cp00576432)">
<polygon fill="#ffffff" shape-rendering="crispEdges" points="241.972,384.48 354.188,384.48 241.972,253.04"/>
<polygon fill="#ffffff" shape-rendering="crispEdges" points="354.188,384.48 354.188,253.04 241.972,253.04"/>
<polyline fill="none" stroke="#262626" stroke-width="0.5" stroke-linecap="butt" stroke-linejoin="miter" stroke-opacity="0.15" stroke-dasharray="16,0" points="241.972,384.48 241.972,253.04"/>
<polyline fill="none" stroke="#262626" stroke-width="0.5" stroke-linecap="butt" stroke-linejoin="miter" stroke-opacity="0.15" stroke-dasharray="16,0" points="264.415,384.48 264.415,253.04"/>
<polyline fill="none" stroke="#262626" stroke-width="0.5" stroke-linecap="butt" stroke-linejoin="miter" stroke-opacity="0.15" stroke-dasharray="16,0" points="286.858,384.48 286.858,253.04"/>
<polyline fill="none" stroke="#262626" stroke-width="0.5" stroke-linecap="butt" stroke-linejoin="miter" stroke-opacity="0.15" stroke-dasharray="16,0" points="309.302,384.48 309.302,253.04"/>
<polyline fill="none" stroke="#262626" stroke-width="0.5" stroke-linecap="butt" stroke-linejoin="miter" stroke-opacity="0.15" stroke-dasharray="16,0" points="331.745,384.48 331.745,253.04"/>
<polyline fill="none" stroke="#262626" stroke-width="0.5" stroke-linecap="butt" stroke-linejoin="miter" stroke-opacity="0.15" stroke-dasharray="16,0" points="354.188,384.48 354.188,253.04"/>
<polyline fill="none" stroke="#262626" stroke-width="0.5" stroke-linecap="butt" stroke-linejoin="miter" points="241.972,384.48 241.972,383.161"/>
<polyline fill="none" stroke="#262626" stroke-width="0.5" stroke-linecap="butt" stroke-linejoin="miter" points="241.972,253.04 241.972,254.359"/>
<polyline fill="none" stroke="#262626" stroke-width="0.5" stroke-linecap="butt" stroke-linejoin="miter" points="264.415,384.48 264.415,383.161"/>
<polyline fill="none" stroke="#262626" stroke-width="0.5" stroke-linecap="butt" stroke-linejoin="miter" points="264.415,253.04 264.415,254.359"/>
<polyline fill="none" stroke="#262626" stroke-width="0.5" stroke-linecap="butt" stroke-linejoin="miter" points="286.858,384.48 286.858,383.161"/>
<polyline fill="none" stroke="#262626" stroke-width="0.5" stroke-linecap="butt" stroke-linejoin="miter" points="286.858,253.04 286.858,254.359"/>
<polyline fill="none" stroke="#262626" stroke-width="0.5" stroke-linecap="butt" stroke-linejoin="miter" points="309.302,384.48 309.302,383.161"/>
<polyline fill="none" stroke="#262626" stroke-width="0.5" stroke-linecap="butt" stroke-linejoin="miter" points="309.302,253.04 309.302,254.359"/>
<polyline fill="none" stroke="#262626" stroke-width="0.5" stroke-linecap="butt" stroke-linejoin="miter" points="331.745,384.48 331.745,383.161"/>
<polyline fill="none" stroke="#262626" stroke-width="0.5" stroke-linecap="butt" stroke-linejoin="miter" points="331.745,253.04 331.745,254.359"/>
<polyline fill="none" stroke="#262626" stroke-width="0.5" stroke-linecap="butt" stroke-linejoin="miter" points="354.188,384.48 354.188,383.161"/>
<polyline fill="none" stroke="#262626" stroke-width="0.5" stroke-linecap="butt" stroke-linejoin="miter" points="354.188,253.04 354.188,254.359"/>
<text xml:space="preserve" transform="translate(238.972,400.497) rotate(-0,3,-11)" font-family="FreeSans" font-weight="normal" font-style="normal" font-size="10"><tspan y="-1" fill="rgb(38,38,38)" x="0 ">0</tspan></text>
<text xml:space="preserve" transform="translate(258.415,400.497) rotate(-0,6,-11)" font-family="FreeSans" font-weight="normal" font-style="normal" font-size="10"><tspan y="-1" fill="rgb(38,38,38)" x="0 6 ">50</tspan></text>
<text xml:space="preserve" transform="translate(277.858,400.497) rotate(-0,9,-11)" font-family="FreeSans" font-weight="normal" font-style="normal" font-size="10"><tspan y="-1" fill="rgb(38,38,38)" x="0 6 12 ">100</tspan></text>
<text xml:space="preserve" transform="translate(300.302,400.497) rotate(-0,9,-11)" font-family="FreeSans" font-weight="normal" font-style="normal" font-size="10"><tspan y="-1" fill="rgb(38,38,38)" x="0 6 12 ">150</tspan></text>
<text xml:space="preserve" transform="translate(322.745,400.497) rotate(-0,9,-11)" font-family="FreeSans" font-weight="normal" font-style="normal" font-size="10"><tspan y="-1" fill="rgb(38,38,38)" x="0 6 12 ">200</tspan></text>
<text xml:space="preserve" transform="translate(345.188,400.497) rotate(-0,9,-11)" font-family="FreeSans" font-weight="normal" font-style="normal" font-size="10"><tspan y="-1" fill="rgb(38,38,38)" x="0 6 12 ">250</tspan></text>
<polyline fill="none" stroke="#262626" stroke-width="0.5" stroke-linecap="butt" stroke-linejoin="miter" stroke-opacity="0.15" stroke-dasharray="16,0" points="241.972,384.48 354.188,384.48"/>
<polyline fill="none" stroke="#262626" stroke-width="0.5" stroke-linecap="butt" stroke-linejoin="miter" stroke-opacity="0.15" stroke-dasharray="16,0" points="241.972,362.573 354.188,362.573"/>
<polyline fill="none" stroke="#262626" stroke-width="0.5" stroke-linecap="butt" stroke-linejoin="miter" stroke-opacity="0.15" stroke-dasharray="16,0" points="241.972,340.667 354.188,340.667"/>
<polyline fill="none" stroke="#262626" stroke-width="0.5" stroke-linecap="butt" stroke-linejoin="miter" stroke-opacity="0.15" stroke-dasharray="16,0" points="241.972,318.76 354.188,318.76"/>
<polyline fill="none" stroke="#262626" stroke-width="0.5" stroke-linecap="butt" stroke-linejoin="miter" stroke-opacity="0.15" stroke-dasharray="16,0" points="241.972,296.853 354.188,296.853"/>
<polyline fill="none" stroke="#262626" stroke-width="0.5" stroke-linecap="butt" stroke-linejoin="miter" stroke-opacity="0.15" stroke-dasharray="16,0" points="241.972,274.947 354.188,274.947"/>
<polyline fill="none" stroke="#262626" stroke-width="0.5" stroke-linecap="butt" stroke-linejoin="miter" stroke-opacity="0.15" stroke-dasharray="16,0" points="241.972,253.04 354.188,253.04"/>
<polyline fill="none" stroke="#262626" stroke-width="0.5" stroke-linecap="butt" stroke-linejoin="miter" points="241.972,384.48 243.289,384.48"/>
<polyline fill="none" stroke="#262626" stroke-width="0.5" stroke-linecap="butt" stroke-linejoin="miter" points="354.188,384.48 352.871,384.48"/>
<polyline fill="none" stroke="#262626" stroke-width="0.5" stroke-linecap="butt" stroke-linejoin="miter" points="241.972,362.573 243.289,362.573"/>
<polyline fill="none" stroke="#262626" stroke-width="0.5" stroke-linecap="butt" stroke-linejoin="miter" points="354.188,362.573 352.871,362.573"/>
<polyline fill="none" stroke="#262626" stroke-width="0.5" stroke-linecap="butt" stroke-linejoin="miter" points="241.972,340.667 243.289,340.667"/>
<polyline fill="none" stroke="#262626" stroke-width="0.5" stroke-linecap="butt" stroke-linejoin="miter" points="354.188,340.667 352.871,340.667"/>
<polyline fill="none" stroke="#262626" stroke-width="0.5" stroke-linecap="butt" stroke-linejoin="miter" points="241.972,318.76 243.289,318.76"/>
<polyline fill="none" stroke="#262626" stroke-width="0.5" stroke-linecap="butt" stroke-linejoin="miter" points="354.188,318.76 352.871,318.76"/>
<polyline fill="none" stroke="#262626" stroke-width="0.5" stroke-linecap="butt" stroke-linejoin="miter" points="241.972,296.853 243.289,296.853"/>
<polyline fill="none" stroke="#262626" stroke-width="0.5" stroke-linecap="butt" stroke-linejoin="miter" points="354.188,296.853 352.871,296.853"/>
<polyline fill="none" stroke="#262626" stroke-width="0.5" stroke-linecap="butt" stroke-linejoin="miter" points="241.972,274.947 243.289,274.947"/>
<polyline fill="none" stroke="#262626" stroke-width="0.5" stroke-linecap="butt" stroke-linejoin="miter" points="354.188,274.947 352.871,274.947"/>
<polyline fill="none" stroke="#262626" stroke-width="0.5" stroke-linecap="butt" stroke-linejoin="miter" points="241.972,253.04 243.289,253.04"/>
<polyline fill="none" stroke="#262626" stroke-width="0.5" stroke-linecap="butt" stroke-linejoin="miter" points="354.188,253.04 352.871,253.04"/>
<text xml:space="preserve" transform="translate(230.962,389.98) rotate(-0,6,-5.5)" font-family="FreeSans" font-weight="normal" font-style="normal" font-size="10"><tspan y="-1" fill="rgb(38,38,38)" x="0 ">0</tspan></text>
<text xml:space="preserve" transform="translate(224.962,368.073) rotate(-0,12,-5.5)" font-family="FreeSans" font-weight="normal" font-style="normal" font-size="10"><tspan y="-1" fill="rgb(38,38,38)" x="0 6 ">50</tspan></text>
<text xml:space="preserve" transform="translate(218.962,346.167) rotate(-0,18,-5.5)" font-family="FreeSans" font-weight="normal" font-style="normal" font-size="10"><tspan y="-1" fill="rgb(38,38,38)" x="0 6 12 ">100</tspan></text>
<text xml:space="preserve" transform="translate(218.962,324.26) rotate(-0,18,-5.5)" font-family="FreeSans" font-weight="normal" font-style="normal" font-size="10"><tspan y="-1" fill="rgb(38,38,38)" x="0 6 12 ">150</tspan></text>
<text xml:space="preserve" transform="translate(218.962,302.353) rotate(-0,18,-5.5)" font-family="FreeSans" font-weight="normal" font-style="normal" font-size="10"><tspan y="-1" fill="rgb(38,38,38)" x="0 6 12 ">200</tspan></text>
<text xml:space="preserve" transform="translate(218.962,280.447) rotate(-0,18,-5.5)" font-family="FreeSans" font-weight="normal" font-style="normal" font-size="10"><tspan y="-1" fill="rgb(38,38,38)" x="0 6 12 ">250</tspan></text>
<text xml:space="preserve" transform="translate(218.962,258.54) rotate(-0,18,-5.5)" font-family="FreeSans" font-weight="normal" font-style="normal" font-size="10"><tspan y="-1" fill="rgb(38,38,38)" x="0 6 12 ">300</tspan></text>
<polyline fill="none" stroke="#262626" stroke-width="0.5" stroke-linecap="square" stroke-linejoin="miter" stroke-dasharray="16,0" points="241.972,384.48 354.188,384.48"/>
<polyline fill="none" stroke="#262626" stroke-width="0.5" stroke-linecap="square" stroke-linejoin="miter" stroke-dasharray="16,0" points="241.972,253.04 354.188,253.04"/>
<polyline fill="none" stroke="#262626" stroke-width="0.5" stroke-linecap="square" stroke-linejoin="miter" stroke-dasharray="16,0" points="241.972,384.48 241.972,253.04"/>
<polyline fill="none" stroke="#262626" stroke-width="0.5" stroke-linecap="square" stroke-linejoin="miter" stroke-dasharray="16,0" points="354.188,384.48 354.188,253.04"/>
<text xml:space="preserve" transform="translate(261.58,243.04) rotate(-0,36.5,0)" font-family="FreeSans" font-weight="bold" font-style="normal" font-size="11"><tspan y="-2" fill="rgb(0,0,0)" x="0 7 13 20 23 29 32 38 41 47 54 60 66 ">Vehicle speed</tspan></text>
<text xml:space="preserve" transform="translate(202.962,318.76) rotate(-90,12,0)" font-family="FreeSans" font-weight="normal" font-style="normal" font-size="11"><tspan y="-2" fill="rgb(38,38,38)" x="0 6 15 18 ">km/h</tspan></text>
<text xml:space="preserve" transform="translate(258.08,413.497) rotate(-0,40,-13)" font-family="FreeSans" font-weight="normal" font-style="normal" font-size="11"><tspan y="-2" fill="rgb(38,38,38)" x="0 7 9 15 21 26 32 38 41 44 46 55 61 64 66 72 75 ">Elapsed time in s</tspan></text>
<polyline fill="none" stroke="#0071bc" stroke-width="0.5" stroke-linecap="butt" stroke-linejoin="round" points="242.42,384.48 242.869,384.48 243.318,384.48 243.767,384.48 244.216,272.756 244.665,384.48 245.114,384.48 245.563,384.48 246.011,384.48 246.46,384.48 246.909,384.48 247.358,384.48 247.807,384.48 248.256,384.48 248.705,384.48 249.153,384.48 249.602,384.48 250.051,384.48 250.5,384.48 250.949,384.48 251.398,384.48 251.847,384.48 252.296,384.48 252.744,384.48 253.193,384.48 253.642,384.48 254.091,384.48 254.54,384.48 254.989,384.48 255.438,384.48 255.886,384.48 256.335,384.48 256.784,384.48 257.233,384.042 257.682,383.166 258.131,383.166 258.58,383.604 259.029,383.166 259.477,384.042 259.926,384.042 260.375,384.042 260.824,384.042 261.273,382.289 261.722,380.099 262.171,378.784 262.619,378.346 263.068,377.908 263.517,378.784 263.966,379.222 264.415,379.222 264.864,377.908 265.313,377.032 265.762,375.717 266.21,374.841 266.659,373.089 267.108,373.089 267.557,373.527 268.006,373.089 268.455,373.089 268.904,374.403 269.353,375.717 269.801,377.47 270.25,383.166 270.699,384.48 271.148,384.48 271.597,384.48 272.046,384.48 272.495,384.48 272.943,384.48 273.392,384.48 273.841,384.48 274.29,384.48 274.739,384.48 275.188,384.48 275.637,384.48 276.086,384.48 276.534,384.48 276.983,384.48 277.432,381.413 277.881,377.908 278.33,377.908 278.779,377.032 279.228,375.279 279.676,373.089 280.125,372.212 280.574,372.212 281.023,370.46 281.472,368.269 281.921,366.517 282.37,366.078 282.819,365.64 283.267,364.764 283.716,363.888 284.165,363.011 284.614,362.573 285.063,361.697 285.512,361.259 285.961,360.821 286.409,360.383 286.858,359.945 287.307,360.383 287.756,360.383 288.205,360.383 288.654,360.383 289.103,360.383 289.552,360.383 290,360.383 290.449,360.383 290.898,359.945 291.347,359.945 291.796,359.945 292.245,359.945 292.694,359.945 293.142,359.506 293.591,359.068 294.04,359.068 294.489,359.506 294.938,360.383 295.387,360.383 295.836,360.383 296.285,360.383 296.733,360.821 297.182,360.821 297.631,360.383 298.08,360.383 298.529,360.383 298.978,360.821 299.427,361.259 299.875,361.697 300.324,361.697 300.773,362.135 301.222,362.135 301.671,362.135 302.12,362.135 302.569,362.135 303.018,362.135 303.466,364.326 303.915,364.326 304.364,368.707 304.813,373.965 305.262,376.155 305.711,376.155 306.16,374.841 306.608,372.65 307.057,370.898 307.506,370.46 307.955,369.583 308.404,369.583 308.853,370.898 309.302,371.774 309.751,372.212 310.199,370.46 310.648,368.707 311.097,367.393 311.546,366.078 311.995,364.326 312.444,362.573 312.893,362.135 313.341,362.135 313.79,362.135 314.239,362.135 314.688,363.011 315.137,363.888 315.586,363.45 316.035,362.573 316.484,363.45 316.932,364.764 317.381,365.64 317.83,365.64 318.279,364.764 318.728,364.326 319.177,363.45 319.626,362.573 320.074,361.697 320.523,360.821 320.972,360.383 321.421,359.945 321.87,359.506 322.319,359.068 322.768,359.506 323.217,359.506 323.665,359.945 324.114,359.945 324.563,360.383 325.012,360.383 325.461,360.821 325.91,361.259 326.359,361.697 326.807,362.135 327.256,362.573 327.705,363.45 328.154,365.64 328.603,366.517 329.052,366.517 329.501,372.65 329.95,376.594 330.398,378.346 330.847,377.908 331.296,378.346 331.745,380.537 332.194,382.727 332.643,383.604 333.092,384.48 333.54,384.48 333.989,384.042 334.438,381.413 334.887,377.908 335.336,376.594 335.785,375.279 336.234,374.403 336.683,372.212 337.131,371.774 337.58,371.774 338.029,371.774 338.478,373.527 338.927,376.155 339.376,377.47 339.825,380.537 340.273,379.661 340.722,377.032 341.171,376.594 341.62,376.155 342.069,376.155 342.518,377.47 342.967,379.222 343.416,380.537 343.864,381.413 344.313,383.604 344.762,384.48 345.211,383.604 345.66,383.604 346.109,383.166 346.558,383.604 347.007,384.042 347.455,384.48 347.904,384.48 348.353,384.48 348.802,384.48 349.251,384.48 349.7,384.48"/>
</g>
<clipPath id="cp00576432">
  <polygon points="0,432 576,432 576,0 0,0"/>
</clipPath>
<g clip-path="url(#cp00576432)">
<polygon fill="#ffffff" shape-rendering="crispEdges" points="409.063,384.48 521.28,384.48 409.063,253.04"/>
<polygon fill="#ffffff" shape-rendering="crispEdges" points="521.28,384.48 521.28,253.04 409.063,253.04"/>
<polyline fill="none" stroke="#262626" stroke-width="0.5" stroke-linecap="butt" stroke-linejoin="miter" stroke-opacity="0.15" stroke-dasharray="16,0" points="409.063,384.48 409.063,253.04"/>
<polyline fill="none" stroke="#262626" stroke-width="0.5" stroke-linecap="butt" stroke-linejoin="miter" stroke-opacity="0.15" stroke-dasharray="16,0" points="431.507,384.48 431.507,253.04"/>
<polyline fill="none" stroke="#262626" stroke-width="0.5" stroke-linecap="butt" stroke-linejoin="miter" stroke-opacity="0.15" stroke-dasharray="16,0" points="453.95,384.48 453.95,253.04"/>
<polyline fill="none" stroke="#262626" stroke-width="0.5" stroke-linecap="butt" stroke-linejoin="miter" stroke-opacity="0.15" stroke-dasharray="16,0" points="476.393,384.48 476.393,253.04"/>
<polyline fill="none" stroke="#262626" stroke-width="0.5" stroke-linecap="butt" stroke-linejoin="miter" stroke-opacity="0.15" stroke-dasharray="16,0" points="498.837,384.48 498.837,253.04"/>
<polyline fill="none" stroke="#262626" stroke-width="0.5" stroke-linecap="butt" stroke-linejoin="miter" stroke-opacity="0.15" stroke-dasharray="16,0" points="521.28,384.48 521.28,253.04"/>
<polyline fill="none" stroke="#262626" stroke-width="0.5" stroke-linecap="butt" stroke-linejoin="miter" points="409.063,384.48 409.063,383.161"/>
<polyline fill="none" stroke="#262626" stroke-width="0.5" stroke-linecap="butt" stroke-linejoin="miter" points="409.063,253.04 409.063,254.359"/>
<polyline fill="none" stroke="#262626" stroke-width="0.5" stroke-linecap="butt" stroke-linejoin="miter" points="431.507,384.48 431.507,383.161"/>
<polyline fill="none" stroke="#262626" stroke-width="0.5" stroke-linecap="butt" stroke-linejoin="miter" points="431.507,253.04 431.507,254.359"/>
<polyline fill="none" stroke="#262626" stroke-width="0.5" stroke-linecap="butt" stroke-linejoin="miter" points="453.95,384.48 453.95,383.161"/>
<polyline fill="none" stroke="#262626" stroke-width="0.5" stroke-linecap="butt" stroke-linejoin="miter" points="453.95,253.04 453.95,254.359"/>
<polyline fill="none" stroke="#262626" stroke-width="0.5" stroke-linecap="butt" stroke-linejoin="miter" points="476.393,384.48 476.393,383.161"/>
<polyline fill="none" stroke="#262626" stroke-width="0.5" stroke-linecap="butt" stroke-linejoin="miter" points="476.393,253.04 476.393,254.359"/>
<polyline fill="none" stroke="#262626" stroke-width="0.5" stroke-linecap="butt" stroke-linejoin="miter" points="498.837,384.48 498.837,383.161"/>
<polyline fill="none" stroke="#262626" stroke-width="0.5" stroke-linecap="butt" stroke-linejoin="miter" points="498.837,253.04 498.837,254.359"/>
<polyline fill="none" stroke="#262626" stroke-width="0.5" stroke-linecap="butt" stroke-linejoin="miter" points="521.28,384.48 521.28,383.161"/>
<polyline fill="none" stroke="#262626" stroke-width="0.5" stroke-linecap="butt" stroke-linejoin="miter" points="521.28,253.04 521.28,254.359"/>
<text xml:space="preserve" transform="translate(406.063,400.497) rotate(-0,3,-11)" font-family="FreeSans" font-weight="normal" font-style="normal" font-size="10"><tspan y="-1" fill="rgb(38,38,38)" x="0 ">0</tspan></text>
<text xml:space="preserve" transform="translate(425.507,400.497) rotate(-0,6,-11)" font-family="FreeSans" font-weight="normal" font-style="normal" font-size="10"><tspan y="-1" fill="rgb(38,38,38)" x="0 6 ">50</tspan></text>
<text xml:space="preserve" transform="translate(444.95,400.497) rotate(-0,9,-11)" font-family="FreeSans" font-weight="normal" font-style="normal" font-size="10"><tspan y="-1" fill="rgb(38,38,38)" x="0 6 12 ">100</tspan></text>
<text xml:space="preserve" transform="translate(467.393,400.497) rotate(-0,9,-11)" font-family="FreeSans" font-weight="normal" font-style="normal" font-size="10"><tspan y="-1" fill="rgb(38,38,38)" x="0 6 12 ">150</tspan></text>
<text xml:space="preserve" transform="translate(489.837,400.497) rotate(-0,9,-11)" font-family="FreeSans" font-weight="normal" font-style="normal" font-size="10"><tspan y="-1" fill="rgb(38,38,38)" x="0 6 12 ">200</tspan></text>
<text xml:space="preserve" transform="translate(512.28,400.497) rotate(-0,9,-11)" font-family="FreeSans" font-weight="normal" font-style="normal" font-size="10"><tspan y="-1" fill="rgb(38,38,38)" x="0 6 12 ">250</tspan></text>
<polyline fill="none" stroke="#262626" stroke-width="0.5" stroke-linecap="butt" stroke-linejoin="miter" stroke-opacity="0.15" stroke-dasharray="16,0" points="409.063,384.48 521.28,384.48"/>
<polyline fill="none" stroke="#262626" stroke-width="0.5" stroke-linecap="butt" stroke-linejoin="miter" stroke-opacity="0.15" stroke-dasharray="16,0" points="409.063,365.703 521.28,365.703"/>
<polyline fill="none" stroke="#262626" stroke-width="0.5" stroke-linecap="butt" stroke-linejoin="miter" stroke-opacity="0.15" stroke-dasharray="16,0" points="409.063,346.926 521.28,346.926"/>
<polyline fill="none" stroke="#262626" stroke-width="0.5" stroke-linecap="butt" stroke-linejoin="miter" stroke-opacity="0.15" stroke-dasharray="16,0" points="409.063,328.149 521.28,328.149"/>
<polyline fill="none" stroke="#262626" stroke-width="0.5" stroke-linecap="butt" stroke-linejoin="miter" stroke-opacity="0.15" stroke-dasharray="16,0" points="409.063,309.371 521.28,309.371"/>
<polyline fill="none" stroke="#262626" stroke-width="0.5" stroke-linecap="butt" stroke-linejoin="miter" stroke-opacity="0.15" stroke-dasharray="16,0" points="409.063,290.594 521.28,290.594"/>
<polyline fill="none" stroke="#262626" stroke-width="0.5" stroke-linecap="butt" stroke-linejoin="miter" stroke-opacity="0.15" stroke-dasharray="16,0" points="409.063,271.817 521.28,271.817"/>
<polyline fill="none" stroke="#262626" stroke-width="0.5" stroke-linecap="butt" stroke-linejoin="miter" stroke-opacity="0.15" stroke-dasharray="16,0" points="409.063,253.04 521.28,253.04"/>
<polyline fill="none" stroke="#262626" stroke-width="0.5" stroke-linecap="butt" stroke-linejoin="miter" points="409.063,384.48 410.38,384.48"/>
<polyline fill="none" stroke="#262626" stroke-width="0.5" stroke-linecap="butt" stroke-linejoin="miter" points="521.28,384.48 519.963,384.48"/>
<polyline fill="none" stroke="#262626" stroke-width="0.5" stroke-linecap="butt" stroke-linejoin="miter" points="409.063,365.703 410.38,365.703"/>
<polyline fill="none" stroke="#262626" stroke-width="0.5" stroke-linecap="butt" stroke-linejoin="miter" points="521.28,365.703 519.963,365.703"/>
<polyline fill="none" stroke="#262626" stroke-width="0.5" stroke-linecap="butt" stroke-linejoin="miter" points="409.063,346.926 410.38,346.926"/>
<polyline fill="none" stroke="#262626" stroke-width="0.5" stroke-linecap="butt" stroke-linejoin="miter" points="521.28,346.926 519.963,346.926"/>
<polyline fill="none" stroke="#262626" stroke-width="0.5" stroke-linecap="butt" stroke-linejoin="miter" points="409.063,328.149 410.38,328.149"/>
<polyline fill="none" stroke="#262626" stroke-width="0.5" stroke-linecap="butt" stroke-linejoin="miter" points="521.28,328.149 519.963,328.149"/>
<polyline fill="none" stroke="#262626" stroke-width="0.5" stroke-linecap="butt" stroke-linejoin="miter" points="409.063,309.371 410.38,309.371"/>
<polyline fill="none" stroke="#262626" stroke-width="0.5" stroke-linecap="butt" stroke-linejoin="miter" points="521.28,309.371 519.963,309.371"/>
<polyline fill="none" stroke="#262626" stroke-width="0.5" stroke-linecap="butt" stroke-linejoin="miter" points="409.063,290.594 410.38,290.594"/>
<polyline fill="none" stroke="#262626" stroke-width="0.5" stroke-linecap="butt" stroke-linejoin="miter" points="521.28,290.594 519.963,290.594"/>
<polyline fill="none" stroke="#262626" stroke-width="0.5" stroke-linecap="butt" stroke-linejoin="miter" points="409.063,271.817 410.38,271.817"/>
<polyline fill="none" stroke="#262626" stroke-width="0.5" stroke-linecap="butt" stroke-linejoin="miter" points="521.28,271.817 519.963,271.817"/>
<polyline fill="none" stroke="#262626" stroke-width="0.5" stroke-linecap="butt" stroke-linejoin="miter" points="409.063,253.04 410.38,253.04"/>
<polyline fill="none" stroke="#262626" stroke-width="0.5" stroke-linecap="butt" stroke-linejoin="miter" points="521.28,253.04 519.963,253.04"/>
<text xml:space="preserve" transform="translate(392.054,389.98) rotate(-0,12,-5.5)" font-family="FreeSans" font-weight="normal" font-style="normal" font-size="10"><tspan y="-1" fill="rgb(38,38,38)" x="0 6 ">10</tspan></text>
<text xml:space="preserve" transform="translate(392.054,371.203) rotate(-0,12,-5.5)" font-family="FreeSans" font-weight="normal" font-style="normal" font-size="10"><tspan y="-1" fill="rgb(38,38,38)" x="0 6 ">20</tspan></text>
<text xml:space="preserve" transform="translate(392.054,352.426) rotate(-0,12,-5.5)" font-family="FreeSans" font-weight="normal" font-style="normal" font-size="10"><tspan y="-1" fill="rgb(38,38,38)" x="0 6 ">30</tspan></text>
<text xml:space="preserve" transform="translate(392.054,333.649) rotate(-0,12,-5.5)" font-family="FreeSans" font-weight="normal" font-style="normal" font-size="10"><tspan y="-1" fill="rgb(38,38,38)" x="0 6 ">40</tspan></text>
<text xml:space="preserve" transform="translate(392.054,314.871) rotate(-0,12,-5.5)" font-family="FreeSans" font-weight="normal" font-style="normal" font-size="10"><tspan y="-1" fill="rgb(38,38,38)" x="0 6 ">50</tspan></text>
<text xml:space="preserve" transform="translate(392.054,296.094) rotate(-0,12,-5.5)" font-family="FreeSans" font-weight="normal" font-style="normal" font-size="10"><tspan y="-1" fill="rgb(38,38,38)" x="0 6 ">60</tspan></text>
<text xml:space="preserve" transform="translate(392.054,277.317) rotate(-0,12,-5.5)" font-family="FreeSans" font-weight="normal" font-style="normal" font-size="10"><tspan y="-1" fill="rgb(38,38,38)" x="0 6 ">70</tspan></text>
<text xml:space="preserve" transform="translate(392.054,258.54) rotate(-0,12,-5.5)" font-family="FreeSans" font-weight="normal" font-style="normal" font-size="10"><tspan y="-1" fill="rgb(38,38,38)" x="0 6 ">80</tspan></text>
<polyline fill="none" stroke="#262626" stroke-width="0.5" stroke-linecap="square" stroke-linejoin="miter" stroke-dasharray="16,0" points="409.063,384.48 521.28,384.48"/>
<polyline fill="none" stroke="#262626" stroke-width="0.5" stroke-linecap="square" stroke-linejoin="miter" stroke-dasharray="16,0" points="409.063,253.04 521.28,253.04"/>
<polyline fill="none" stroke="#262626" stroke-width="0.5" stroke-linecap="square" stroke-linejoin="miter" stroke-dasharray="16,0" points="409.063,384.48 409.063,253.04"/>
<polyline fill="none" stroke="#262626" stroke-width="0.5" stroke-linecap="square" stroke-linejoin="miter" stroke-dasharray="16,0" points="521.28,384.48 521.28,253.04"/>
<text xml:space="preserve" transform="translate(410.672,243.04) rotate(-0,54.5,0)" font-family="FreeSans" font-weight="bold" font-style="normal" font-size="11"><tspan y="-2" fill="rgb(0,0,0)" x="0 8 15 22 25 31 38 42 45 49 55 65 72 78 82 88 92 99 103 ">Coolant temperature</tspan></text>
<text xml:space="preserve" transform="translate(350.054,318.76) rotate(-90,38,0)" font-family="FreeSans" font-weight="normal" font-style="normal" font-size="11"><tspan y="-2" fill="rgb(38,38,38)" x="0 8 14 16 21 23 29 34 37 43 49 55 59 65 71 ">Celsius degrees</tspan></text>
<text xml:space="preserve" transform="translate(425.172,413.497) rotate(-0,40,-13)" font-family="FreeSans" font-weight="normal" font-style="normal" font-size="11"><tspan y="-2" fill="rgb(38,38,38)" x="0 7 9 15 21 26 32 38 41 44 46 55 61 64 66 72 75 ">Elapsed time in s</tspan></text>
<polyline fill="none" stroke="#0071bc" stroke-width="0.5" stroke-linecap="butt" stroke-linejoin="round" points="409.512,384.48 409.961,384.48 410.41,384.48 410.859,384.48 411.308,384.48 411.756,382.602 412.205,384.48 412.654,384.48 413.103,384.48 413.552,384.48 414.001,384.48 414.45,384.48 414.898,384.48 415.347,382.602 415.796,382.602 416.245,384.48 416.694,384.48 417.143,382.602 417.592,382.602 418.041,382.602 418.489,382.602 418.938,382.602 419.387,382.602 419.836,382.602 420.285,382.602 420.734,382.602 421.183,380.725 421.632,382.602 422.08,380.725 422.529,380.725 422.978,380.725 423.427,380.725 423.876,378.847 424.325,378.847 424.774,376.969 425.222,376.969 425.671,376.969 426.12,375.091 426.569,375.091 427.018,375.091 427.467,375.091 427.916,373.214 428.365,371.336 428.813,371.336 429.262,371.336 429.711,369.458 430.16,369.458 430.609,369.458 431.058,367.581 431.507,367.581 431.955,367.581 432.404,365.703 432.853,365.703 433.302,365.703 433.751,363.825 434.2,363.825 434.649,361.947 435.098,361.947 435.546,360.07 435.995,360.07 436.444,360.07 436.893,358.192 437.342,358.192 437.791,356.314 438.24,356.314 438.688,356.314 439.137,354.437 439.586,352.559 440.035,352.559 440.484,352.559 440.933,350.681 441.382,348.803 441.831,348.803 442.279,348.803 442.728,346.926 443.177,346.926 443.626,346.926 444.075,345.048 444.524,345.048 444.973,345.048 445.421,345.048 445.87,343.17 446.319,343.17 446.768,343.17 447.217,343.17 447.666,341.293 448.115,341.293 448.564,339.415 449.012,339.415 449.461,339.415 449.91,337.537 450.359,337.537 450.808,337.537 451.257,335.659 451.706,335.659 452.154,335.659 452.603,335.659 453.052,333.782 453.501,331.904 453.95,331.904 454.399,331.904 454.848,330.026 455.297,328.149 455.745,326.271 456.194,326.271 456.643,326.271 457.092,324.393 457.541,324.393 457.99,322.515 458.439,322.515 458.887,322.515 459.336,320.638 459.785,320.638 460.234,318.76 460.683,318.76 461.132,316.882 461.581,316.882 462.03,316.882 462.478,313.127 462.927,313.127 463.376,313.127 463.825,313.127 464.274,311.249 464.723,311.249 465.172,311.249 465.62,309.371 466.069,309.371 466.518,307.494 466.967,307.494 467.416,307.494 467.865,305.616 468.314,305.616 468.763,305.616 469.211,303.738 469.66,305.616 470.109,303.738 470.558,303.738 471.007,303.738 471.456,303.738 471.905,303.738 472.353,301.861 472.802,301.861 473.251,301.861 473.7,299.983 474.149,299.983 474.598,299.983 475.047,299.983 475.496,299.983 475.944,299.983 476.393,299.983 476.842,299.983 477.291,298.105 477.74,298.105 478.189,298.105 478.638,298.105 479.086,296.227 479.535,296.227 479.984,296.227 480.433,296.227 480.882,296.227 481.331,294.35 481.78,294.35 482.229,294.35 482.677,294.35 483.126,294.35 483.575,292.472 484.024,292.472 484.473,292.472 484.922,290.594 485.371,290.594 485.819,290.594 486.268,290.594 486.717,290.594 487.166,290.594 487.615,288.717 488.064,288.717 488.513,286.839 488.962,286.839 489.41,286.839 489.859,286.839 490.308,284.961 490.757,284.961 491.206,284.961 491.655,283.083 492.104,283.083 492.552,281.206 493.001,281.206 493.45,281.206 493.899,281.206 494.348,279.328 494.797,279.328 495.246,279.328 495.695,277.45 496.143,277.45 496.592,279.328 497.041,279.328 497.49,277.45 497.939,277.45 498.388,277.45 498.837,277.45 499.286,277.45 499.734,277.45 500.183,275.573 500.632,275.573 501.081,275.573 501.53,275.573 501.979,275.573 502.428,275.573 502.876,275.573 503.325,275.573 503.774,273.695 504.223,273.695 504.672,273.695 505.121,273.695 505.57,273.695 506.018,273.695 506.467,273.695 506.916,273.695 507.365,271.817 507.814,273.695 508.263,271.817 508.712,271.817 509.161,271.817 509.609,271.817 510.058,271.817 510.507,271.817 510.956,269.939 511.405,269.939 511.854,269.939 512.303,269.939 512.752,269.939 513.2,269.939 513.649,269.939 514.098,268.062 514.547,269.939 514.996,268.062 515.445,268.062 515.894,268.062 516.342,268.062 516.791,268.062"/>
</g>
</g>
</svg>
